<mxfile host="app.diagrams.net" modified="2024-06-01T17:38:13.089Z" agent="Mozilla/5.0 (Windows NT 10.0; Win64; x64) AppleWebKit/537.36 (KHTML, like Gecko) Chrome/125.0.0.0 Safari/537.36" etag="IUzxuSawM3gtPbd5TFSh" version="24.4.13" type="device" pages="4">
  <diagram name="atividade_login" id="ztZc5MXVelh08R24VMgA">
    <mxGraphModel dx="1909" dy="978" grid="1" gridSize="10" guides="1" tooltips="1" connect="1" arrows="1" fold="1" page="1" pageScale="1" pageWidth="1169" pageHeight="827" math="0" shadow="0">
      <root>
        <mxCell id="0" />
        <mxCell id="1" parent="0" />
        <mxCell id="UvolW_9LxdMhIzpEhHVE-5" value="" style="edgeStyle=orthogonalEdgeStyle;rounded=0;orthogonalLoop=1;jettySize=auto;html=1;exitX=1;exitY=0.5;exitDx=0;exitDy=0;" edge="1" parent="1" source="EyT2N7NVuJCTYrgCHgiy-1" target="EyT2N7NVuJCTYrgCHgiy-4">
          <mxGeometry relative="1" as="geometry">
            <mxPoint x="310" y="230" as="targetPoint" />
          </mxGeometry>
        </mxCell>
        <mxCell id="EyT2N7NVuJCTYrgCHgiy-1" value="Informar E-mail" style="rounded=1;whiteSpace=wrap;html=1;" parent="1" vertex="1">
          <mxGeometry x="160" y="105" width="120" height="60" as="geometry" />
        </mxCell>
        <mxCell id="EyT2N7NVuJCTYrgCHgiy-7" value="" style="edgeStyle=orthogonalEdgeStyle;rounded=0;orthogonalLoop=1;jettySize=auto;html=1;entryX=0;entryY=0.5;entryDx=0;entryDy=0;" parent="1" source="EyT2N7NVuJCTYrgCHgiy-4" target="UvolW_9LxdMhIzpEhHVE-6" edge="1">
          <mxGeometry relative="1" as="geometry" />
        </mxCell>
        <mxCell id="EyT2N7NVuJCTYrgCHgiy-4" value="Formato E-mail é válido?" style="rounded=1;whiteSpace=wrap;html=1;" parent="1" vertex="1">
          <mxGeometry x="320" y="105" width="120" height="60" as="geometry" />
        </mxCell>
        <mxCell id="EyT2N7NVuJCTYrgCHgiy-13" style="edgeStyle=orthogonalEdgeStyle;rounded=0;orthogonalLoop=1;jettySize=auto;html=1;exitX=0.5;exitY=1;exitDx=0;exitDy=0;" parent="1" source="UvolW_9LxdMhIzpEhHVE-6" target="UvolW_9LxdMhIzpEhHVE-42" edge="1">
          <mxGeometry relative="1" as="geometry">
            <mxPoint x="700" y="260" as="targetPoint" />
            <mxPoint x="850" y="247.5" as="sourcePoint" />
            <Array as="points">
              <mxPoint x="595" y="230" />
              <mxPoint x="595" y="230" />
            </Array>
          </mxGeometry>
        </mxCell>
        <mxCell id="UvolW_9LxdMhIzpEhHVE-14" value="Sim" style="edgeLabel;html=1;align=center;verticalAlign=middle;resizable=0;points=[];" vertex="1" connectable="0" parent="EyT2N7NVuJCTYrgCHgiy-13">
          <mxGeometry x="-0.7042" y="-5" relative="1" as="geometry">
            <mxPoint x="5" y="11" as="offset" />
          </mxGeometry>
        </mxCell>
        <mxCell id="UvolW_9LxdMhIzpEhHVE-17" style="edgeStyle=orthogonalEdgeStyle;rounded=0;orthogonalLoop=1;jettySize=auto;html=1;" edge="1" parent="1" source="EyT2N7NVuJCTYrgCHgiy-8" target="UvolW_9LxdMhIzpEhHVE-16">
          <mxGeometry relative="1" as="geometry">
            <mxPoint x="320" y="544" as="targetPoint" />
            <Array as="points" />
          </mxGeometry>
        </mxCell>
        <mxCell id="EyT2N7NVuJCTYrgCHgiy-8" value="Informar senha" style="rounded=1;whiteSpace=wrap;html=1;" parent="1" vertex="1">
          <mxGeometry x="480" y="460" width="120" height="60" as="geometry" />
        </mxCell>
        <mxCell id="RbLpGZF_09v60QNqSbMu-1" value="" style="ellipse;html=1;shape=endState;fillColor=strokeColor;" parent="1" vertex="1">
          <mxGeometry x="525" y="920" width="30" height="30" as="geometry" />
        </mxCell>
        <mxCell id="UvolW_9LxdMhIzpEhHVE-1" value="ativiadade_Fazer_Login" style="shape=umlFrame;whiteSpace=wrap;html=1;pointerEvents=0;width=170;height=40;" vertex="1" parent="1">
          <mxGeometry x="30" y="10" width="1370" height="970" as="geometry" />
        </mxCell>
        <mxCell id="UvolW_9LxdMhIzpEhHVE-4" value="" style="edgeStyle=orthogonalEdgeStyle;rounded=0;orthogonalLoop=1;jettySize=auto;html=1;" edge="1" parent="1" source="UvolW_9LxdMhIzpEhHVE-3" target="EyT2N7NVuJCTYrgCHgiy-1">
          <mxGeometry relative="1" as="geometry" />
        </mxCell>
        <mxCell id="UvolW_9LxdMhIzpEhHVE-3" value="" style="ellipse;fillColor=strokeColor;html=1;" vertex="1" parent="1">
          <mxGeometry x="70" y="120" width="30" height="30" as="geometry" />
        </mxCell>
        <mxCell id="UvolW_9LxdMhIzpEhHVE-10" value="" style="edgeStyle=orthogonalEdgeStyle;rounded=0;orthogonalLoop=1;jettySize=auto;html=1;entryX=0;entryY=0.5;entryDx=0;entryDy=0;" edge="1" parent="1" source="UvolW_9LxdMhIzpEhHVE-6" target="UvolW_9LxdMhIzpEhHVE-11">
          <mxGeometry relative="1" as="geometry">
            <mxPoint x="715" y="125" as="targetPoint" />
          </mxGeometry>
        </mxCell>
        <mxCell id="UvolW_9LxdMhIzpEhHVE-13" value="Não" style="edgeLabel;html=1;align=center;verticalAlign=middle;resizable=0;points=[];" vertex="1" connectable="0" parent="UvolW_9LxdMhIzpEhHVE-10">
          <mxGeometry x="-0.1402" y="-2" relative="1" as="geometry">
            <mxPoint as="offset" />
          </mxGeometry>
        </mxCell>
        <mxCell id="UvolW_9LxdMhIzpEhHVE-6" value="" style="rhombus;" vertex="1" parent="1">
          <mxGeometry x="495" y="90" width="90" height="90" as="geometry" />
        </mxCell>
        <mxCell id="UvolW_9LxdMhIzpEhHVE-12" style="edgeStyle=orthogonalEdgeStyle;rounded=0;orthogonalLoop=1;jettySize=auto;html=1;entryX=0.5;entryY=0;entryDx=0;entryDy=0;" edge="1" parent="1" source="UvolW_9LxdMhIzpEhHVE-11" target="EyT2N7NVuJCTYrgCHgiy-1">
          <mxGeometry relative="1" as="geometry">
            <Array as="points">
              <mxPoint x="820" y="30" />
              <mxPoint x="220" y="30" />
            </Array>
          </mxGeometry>
        </mxCell>
        <mxCell id="UvolW_9LxdMhIzpEhHVE-11" value="Exibe &quot;Email inválido&quot;" style="rounded=1;whiteSpace=wrap;html=1;" vertex="1" parent="1">
          <mxGeometry x="670" y="105" width="120" height="60" as="geometry" />
        </mxCell>
        <mxCell id="UvolW_9LxdMhIzpEhHVE-20" style="edgeStyle=orthogonalEdgeStyle;rounded=0;orthogonalLoop=1;jettySize=auto;html=1;entryX=0;entryY=0.5;entryDx=0;entryDy=0;" edge="1" parent="1" source="UvolW_9LxdMhIzpEhHVE-15" target="UvolW_9LxdMhIzpEhHVE-23">
          <mxGeometry relative="1" as="geometry">
            <mxPoint x="475" y="695" as="targetPoint" />
          </mxGeometry>
        </mxCell>
        <mxCell id="UvolW_9LxdMhIzpEhHVE-21" value="Não" style="edgeLabel;html=1;align=center;verticalAlign=middle;resizable=0;points=[];" vertex="1" connectable="0" parent="UvolW_9LxdMhIzpEhHVE-20">
          <mxGeometry x="-0.3704" y="1" relative="1" as="geometry">
            <mxPoint as="offset" />
          </mxGeometry>
        </mxCell>
        <mxCell id="UvolW_9LxdMhIzpEhHVE-39" style="edgeStyle=orthogonalEdgeStyle;rounded=0;orthogonalLoop=1;jettySize=auto;html=1;entryX=0.5;entryY=0;entryDx=0;entryDy=0;" edge="1" parent="1" source="UvolW_9LxdMhIzpEhHVE-15" target="UvolW_9LxdMhIzpEhHVE-37">
          <mxGeometry relative="1" as="geometry" />
        </mxCell>
        <mxCell id="UvolW_9LxdMhIzpEhHVE-40" value="Sim" style="edgeLabel;html=1;align=center;verticalAlign=middle;resizable=0;points=[];" vertex="1" connectable="0" parent="UvolW_9LxdMhIzpEhHVE-39">
          <mxGeometry x="-0.0417" relative="1" as="geometry">
            <mxPoint as="offset" />
          </mxGeometry>
        </mxCell>
        <mxCell id="UvolW_9LxdMhIzpEhHVE-15" value="" style="rhombus;" vertex="1" parent="1">
          <mxGeometry x="495" y="640" width="90" height="90" as="geometry" />
        </mxCell>
        <mxCell id="UvolW_9LxdMhIzpEhHVE-18" style="edgeStyle=orthogonalEdgeStyle;rounded=0;orthogonalLoop=1;jettySize=auto;html=1;" edge="1" parent="1" source="UvolW_9LxdMhIzpEhHVE-16" target="UvolW_9LxdMhIzpEhHVE-15">
          <mxGeometry relative="1" as="geometry" />
        </mxCell>
        <mxCell id="UvolW_9LxdMhIzpEhHVE-16" value="Senha digitada corretamente" style="rounded=1;whiteSpace=wrap;html=1;" vertex="1" parent="1">
          <mxGeometry x="480" y="550" width="120" height="60" as="geometry" />
        </mxCell>
        <mxCell id="UvolW_9LxdMhIzpEhHVE-22" style="edgeStyle=orthogonalEdgeStyle;rounded=0;orthogonalLoop=1;jettySize=auto;html=1;entryX=1;entryY=0.5;entryDx=0;entryDy=0;exitX=0.5;exitY=0;exitDx=0;exitDy=0;" edge="1" parent="1" source="UvolW_9LxdMhIzpEhHVE-19" target="EyT2N7NVuJCTYrgCHgiy-8">
          <mxGeometry relative="1" as="geometry">
            <Array as="points">
              <mxPoint x="1045" y="490" />
            </Array>
          </mxGeometry>
        </mxCell>
        <mxCell id="UvolW_9LxdMhIzpEhHVE-19" value="Exibe &quot;Digite a senha novamente&quot;" style="rounded=1;whiteSpace=wrap;html=1;" vertex="1" parent="1">
          <mxGeometry x="985" y="510" width="120" height="60" as="geometry" />
        </mxCell>
        <mxCell id="UvolW_9LxdMhIzpEhHVE-25" style="edgeStyle=orthogonalEdgeStyle;rounded=0;orthogonalLoop=1;jettySize=auto;html=1;entryX=0;entryY=0.5;entryDx=0;entryDy=0;" edge="1" parent="1" source="UvolW_9LxdMhIzpEhHVE-23" target="UvolW_9LxdMhIzpEhHVE-26">
          <mxGeometry relative="1" as="geometry" />
        </mxCell>
        <mxCell id="UvolW_9LxdMhIzpEhHVE-23" value="Contabiliza tentativas do usuário" style="rounded=1;whiteSpace=wrap;html=1;" vertex="1" parent="1">
          <mxGeometry x="670" y="655" width="120" height="60" as="geometry" />
        </mxCell>
        <mxCell id="UvolW_9LxdMhIzpEhHVE-28" style="edgeStyle=orthogonalEdgeStyle;rounded=0;orthogonalLoop=1;jettySize=auto;html=1;entryX=0.5;entryY=1;entryDx=0;entryDy=0;" edge="1" parent="1" source="UvolW_9LxdMhIzpEhHVE-24" target="UvolW_9LxdMhIzpEhHVE-19">
          <mxGeometry relative="1" as="geometry" />
        </mxCell>
        <mxCell id="UvolW_9LxdMhIzpEhHVE-29" value="Não" style="edgeLabel;html=1;align=center;verticalAlign=middle;resizable=0;points=[];" vertex="1" connectable="0" parent="UvolW_9LxdMhIzpEhHVE-28">
          <mxGeometry x="0.0885" relative="1" as="geometry">
            <mxPoint as="offset" />
          </mxGeometry>
        </mxCell>
        <mxCell id="UvolW_9LxdMhIzpEhHVE-35" style="edgeStyle=orthogonalEdgeStyle;rounded=0;orthogonalLoop=1;jettySize=auto;html=1;entryX=0;entryY=0.5;entryDx=0;entryDy=0;" edge="1" parent="1" source="UvolW_9LxdMhIzpEhHVE-24" target="UvolW_9LxdMhIzpEhHVE-32">
          <mxGeometry relative="1" as="geometry" />
        </mxCell>
        <mxCell id="UvolW_9LxdMhIzpEhHVE-36" value="Sim" style="edgeLabel;html=1;align=center;verticalAlign=middle;resizable=0;points=[];" vertex="1" connectable="0" parent="UvolW_9LxdMhIzpEhHVE-35">
          <mxGeometry x="-0.0944" y="-1" relative="1" as="geometry">
            <mxPoint as="offset" />
          </mxGeometry>
        </mxCell>
        <mxCell id="UvolW_9LxdMhIzpEhHVE-24" value="" style="rhombus;" vertex="1" parent="1">
          <mxGeometry x="1000" y="640" width="90" height="90" as="geometry" />
        </mxCell>
        <mxCell id="UvolW_9LxdMhIzpEhHVE-27" style="edgeStyle=orthogonalEdgeStyle;rounded=0;orthogonalLoop=1;jettySize=auto;html=1;" edge="1" parent="1" source="UvolW_9LxdMhIzpEhHVE-26" target="UvolW_9LxdMhIzpEhHVE-24">
          <mxGeometry relative="1" as="geometry" />
        </mxCell>
        <mxCell id="UvolW_9LxdMhIzpEhHVE-26" value="Mais de 3 tentativas" style="rounded=1;whiteSpace=wrap;html=1;" vertex="1" parent="1">
          <mxGeometry x="840" y="655" width="120" height="60" as="geometry" />
        </mxCell>
        <mxCell id="UvolW_9LxdMhIzpEhHVE-30" value="" style="ellipse;html=1;shape=endState;fillColor=strokeColor;" vertex="1" parent="1">
          <mxGeometry x="1330" y="670" width="30" height="30" as="geometry" />
        </mxCell>
        <mxCell id="UvolW_9LxdMhIzpEhHVE-34" style="edgeStyle=orthogonalEdgeStyle;rounded=0;orthogonalLoop=1;jettySize=auto;html=1;entryX=0;entryY=0.5;entryDx=0;entryDy=0;" edge="1" parent="1" source="UvolW_9LxdMhIzpEhHVE-32" target="UvolW_9LxdMhIzpEhHVE-30">
          <mxGeometry relative="1" as="geometry" />
        </mxCell>
        <mxCell id="UvolW_9LxdMhIzpEhHVE-32" value="Acesso bloqueado por 24 horas" style="rounded=1;whiteSpace=wrap;html=1;" vertex="1" parent="1">
          <mxGeometry x="1169" y="655" width="120" height="60" as="geometry" />
        </mxCell>
        <mxCell id="UvolW_9LxdMhIzpEhHVE-38" style="edgeStyle=orthogonalEdgeStyle;rounded=0;orthogonalLoop=1;jettySize=auto;html=1;entryX=0.5;entryY=0;entryDx=0;entryDy=0;" edge="1" parent="1" source="UvolW_9LxdMhIzpEhHVE-37" target="RbLpGZF_09v60QNqSbMu-1">
          <mxGeometry relative="1" as="geometry" />
        </mxCell>
        <mxCell id="UvolW_9LxdMhIzpEhHVE-37" value="Login realizado com sucesso" style="rounded=1;whiteSpace=wrap;html=1;" vertex="1" parent="1">
          <mxGeometry x="480" y="800" width="120" height="60" as="geometry" />
        </mxCell>
        <mxCell id="UvolW_9LxdMhIzpEhHVE-45" style="edgeStyle=orthogonalEdgeStyle;rounded=0;orthogonalLoop=1;jettySize=auto;html=1;entryX=0.5;entryY=0;entryDx=0;entryDy=0;" edge="1" parent="1" source="UvolW_9LxdMhIzpEhHVE-41" target="EyT2N7NVuJCTYrgCHgiy-8">
          <mxGeometry relative="1" as="geometry" />
        </mxCell>
        <mxCell id="UvolW_9LxdMhIzpEhHVE-46" value="Sim" style="edgeLabel;html=1;align=center;verticalAlign=middle;resizable=0;points=[];" vertex="1" connectable="0" parent="UvolW_9LxdMhIzpEhHVE-45">
          <mxGeometry x="-0.1019" relative="1" as="geometry">
            <mxPoint as="offset" />
          </mxGeometry>
        </mxCell>
        <mxCell id="UvolW_9LxdMhIzpEhHVE-48" style="edgeStyle=orthogonalEdgeStyle;rounded=0;orthogonalLoop=1;jettySize=auto;html=1;entryX=0;entryY=0.5;entryDx=0;entryDy=0;" edge="1" parent="1" source="UvolW_9LxdMhIzpEhHVE-41" target="UvolW_9LxdMhIzpEhHVE-47">
          <mxGeometry relative="1" as="geometry" />
        </mxCell>
        <mxCell id="UvolW_9LxdMhIzpEhHVE-49" value="Não" style="edgeLabel;html=1;align=center;verticalAlign=middle;resizable=0;points=[];" vertex="1" connectable="0" parent="UvolW_9LxdMhIzpEhHVE-48">
          <mxGeometry x="-0.2035" y="1" relative="1" as="geometry">
            <mxPoint as="offset" />
          </mxGeometry>
        </mxCell>
        <mxCell id="UvolW_9LxdMhIzpEhHVE-41" value="" style="rhombus;" vertex="1" parent="1">
          <mxGeometry x="495" y="320" width="90" height="90" as="geometry" />
        </mxCell>
        <mxCell id="UvolW_9LxdMhIzpEhHVE-44" style="edgeStyle=orthogonalEdgeStyle;rounded=0;orthogonalLoop=1;jettySize=auto;html=1;entryX=0.5;entryY=0;entryDx=0;entryDy=0;" edge="1" parent="1" source="UvolW_9LxdMhIzpEhHVE-42" target="UvolW_9LxdMhIzpEhHVE-41">
          <mxGeometry relative="1" as="geometry" />
        </mxCell>
        <mxCell id="UvolW_9LxdMhIzpEhHVE-42" value="Email encontrado na base" style="rounded=1;whiteSpace=wrap;html=1;" vertex="1" parent="1">
          <mxGeometry x="480" y="230" width="120" height="60" as="geometry" />
        </mxCell>
        <mxCell id="UvolW_9LxdMhIzpEhHVE-47" value="Abrir tela cadastrar" style="rounded=1;whiteSpace=wrap;html=1;" vertex="1" parent="1">
          <mxGeometry x="700" y="335" width="120" height="60" as="geometry" />
        </mxCell>
      </root>
    </mxGraphModel>
  </diagram>
  <diagram id="ae9C20XLRE5X7MglkJ_3" name="atividade_fazer_cadastro">
    <mxGraphModel dx="2625" dy="518" grid="1" gridSize="10" guides="1" tooltips="1" connect="1" arrows="1" fold="1" page="1" pageScale="1" pageWidth="1169" pageHeight="827" math="0" shadow="0">
      <root>
        <mxCell id="0" />
        <mxCell id="1" parent="0" />
        <mxCell id="Vy-KUlDS-hz29__ZR1_M-1" value="ativiadade_Fazer_Cadastro" style="shape=umlFrame;whiteSpace=wrap;html=1;pointerEvents=0;width=170;height=40;" parent="1" vertex="1">
          <mxGeometry x="29" y="940" width="1111" height="570" as="geometry" />
        </mxCell>
        <mxCell id="Vy-KUlDS-hz29__ZR1_M-2" value="" style="ellipse;html=1;shape=endState;fillColor=strokeColor;" parent="1" vertex="1">
          <mxGeometry x="365" y="1430" width="30" height="30" as="geometry" />
        </mxCell>
        <mxCell id="Vy-KUlDS-hz29__ZR1_M-3" style="edgeStyle=orthogonalEdgeStyle;rounded=0;orthogonalLoop=1;jettySize=auto;html=1;" parent="1" source="Vy-KUlDS-hz29__ZR1_M-4" target="Vy-KUlDS-hz29__ZR1_M-6" edge="1">
          <mxGeometry relative="1" as="geometry" />
        </mxCell>
        <mxCell id="Vy-KUlDS-hz29__ZR1_M-4" value="" style="ellipse;fillColor=strokeColor;html=1;" parent="1" vertex="1">
          <mxGeometry x="70" y="1025" width="30" height="30" as="geometry" />
        </mxCell>
        <mxCell id="Vy-KUlDS-hz29__ZR1_M-5" style="edgeStyle=orthogonalEdgeStyle;rounded=0;orthogonalLoop=1;jettySize=auto;html=1;entryX=0;entryY=0.5;entryDx=0;entryDy=0;" parent="1" source="Vy-KUlDS-hz29__ZR1_M-6" target="Vy-KUlDS-hz29__ZR1_M-9" edge="1">
          <mxGeometry relative="1" as="geometry" />
        </mxCell>
        <mxCell id="Vy-KUlDS-hz29__ZR1_M-6" value="Informar Tipo" style="rounded=1;whiteSpace=wrap;html=1;" parent="1" vertex="1">
          <mxGeometry x="150" y="1010" width="120" height="60" as="geometry" />
        </mxCell>
        <mxCell id="Vy-KUlDS-hz29__ZR1_M-7" value="Professor**&lt;div&gt;Aluno&lt;/div&gt;&lt;div&gt;Adminsitrador**&lt;/div&gt;" style="shape=note2;boundedLbl=1;whiteSpace=wrap;html=1;size=6;verticalAlign=top;align=center;" parent="1" vertex="1">
          <mxGeometry x="165.76" y="1076" width="88.49" height="65" as="geometry" />
        </mxCell>
        <mxCell id="Vy-KUlDS-hz29__ZR1_M-8" style="edgeStyle=orthogonalEdgeStyle;rounded=0;orthogonalLoop=1;jettySize=auto;html=1;entryX=0;entryY=0.5;entryDx=0;entryDy=0;" parent="1" source="Vy-KUlDS-hz29__ZR1_M-9" target="Vy-KUlDS-hz29__ZR1_M-11" edge="1">
          <mxGeometry relative="1" as="geometry" />
        </mxCell>
        <mxCell id="Vy-KUlDS-hz29__ZR1_M-9" value="Informar nome completo" style="rounded=1;whiteSpace=wrap;html=1;" parent="1" vertex="1">
          <mxGeometry x="320" y="1010" width="120" height="60" as="geometry" />
        </mxCell>
        <mxCell id="Vy-KUlDS-hz29__ZR1_M-10" style="edgeStyle=orthogonalEdgeStyle;rounded=0;orthogonalLoop=1;jettySize=auto;html=1;entryX=0;entryY=0.5;entryDx=0;entryDy=0;" parent="1" source="Vy-KUlDS-hz29__ZR1_M-11" target="Vy-KUlDS-hz29__ZR1_M-13" edge="1">
          <mxGeometry relative="1" as="geometry" />
        </mxCell>
        <mxCell id="Vy-KUlDS-hz29__ZR1_M-11" value="Informar idade" style="rounded=1;whiteSpace=wrap;html=1;" parent="1" vertex="1">
          <mxGeometry x="480" y="1010" width="120" height="60" as="geometry" />
        </mxCell>
        <mxCell id="Vy-KUlDS-hz29__ZR1_M-12" style="edgeStyle=orthogonalEdgeStyle;rounded=0;orthogonalLoop=1;jettySize=auto;html=1;entryX=0;entryY=0.5;entryDx=0;entryDy=0;" parent="1" source="Vy-KUlDS-hz29__ZR1_M-13" target="Vy-KUlDS-hz29__ZR1_M-15" edge="1">
          <mxGeometry relative="1" as="geometry" />
        </mxCell>
        <mxCell id="Vy-KUlDS-hz29__ZR1_M-13" value="Informar email" style="rounded=1;whiteSpace=wrap;html=1;" parent="1" vertex="1">
          <mxGeometry x="640" y="1010" width="120" height="60" as="geometry" />
        </mxCell>
        <mxCell id="Vy-KUlDS-hz29__ZR1_M-14" style="edgeStyle=orthogonalEdgeStyle;rounded=0;orthogonalLoop=1;jettySize=auto;html=1;entryX=0.5;entryY=0;entryDx=0;entryDy=0;" parent="1" source="Vy-KUlDS-hz29__ZR1_M-15" target="Vy-KUlDS-hz29__ZR1_M-20" edge="1">
          <mxGeometry relative="1" as="geometry" />
        </mxCell>
        <mxCell id="Vy-KUlDS-hz29__ZR1_M-15" value="Validar email" style="rounded=1;whiteSpace=wrap;html=1;" parent="1" vertex="1">
          <mxGeometry x="790" y="1010" width="120" height="60" as="geometry" />
        </mxCell>
        <mxCell id="Vy-KUlDS-hz29__ZR1_M-16" style="edgeStyle=orthogonalEdgeStyle;rounded=0;orthogonalLoop=1;jettySize=auto;html=1;entryX=0;entryY=0.5;entryDx=0;entryDy=0;" parent="1" source="Vy-KUlDS-hz29__ZR1_M-20" target="Vy-KUlDS-hz29__ZR1_M-22" edge="1">
          <mxGeometry relative="1" as="geometry" />
        </mxCell>
        <mxCell id="Vy-KUlDS-hz29__ZR1_M-17" value="Não" style="edgeLabel;html=1;align=center;verticalAlign=middle;resizable=0;points=[];" parent="Vy-KUlDS-hz29__ZR1_M-16" vertex="1" connectable="0">
          <mxGeometry x="-0.0725" y="1" relative="1" as="geometry">
            <mxPoint as="offset" />
          </mxGeometry>
        </mxCell>
        <mxCell id="Vy-KUlDS-hz29__ZR1_M-18" style="edgeStyle=orthogonalEdgeStyle;rounded=0;orthogonalLoop=1;jettySize=auto;html=1;" parent="1" source="Vy-KUlDS-hz29__ZR1_M-20" target="Vy-KUlDS-hz29__ZR1_M-24" edge="1">
          <mxGeometry relative="1" as="geometry" />
        </mxCell>
        <mxCell id="Vy-KUlDS-hz29__ZR1_M-19" value="Sim" style="edgeLabel;html=1;align=center;verticalAlign=middle;resizable=0;points=[];" parent="Vy-KUlDS-hz29__ZR1_M-18" vertex="1" connectable="0">
          <mxGeometry x="-0.0663" y="-2" relative="1" as="geometry">
            <mxPoint as="offset" />
          </mxGeometry>
        </mxCell>
        <mxCell id="Vy-KUlDS-hz29__ZR1_M-20" value="" style="rhombus;" parent="1" vertex="1">
          <mxGeometry x="820" y="1142.25" width="59" height="59" as="geometry" />
        </mxCell>
        <mxCell id="Vy-KUlDS-hz29__ZR1_M-21" style="edgeStyle=orthogonalEdgeStyle;rounded=0;orthogonalLoop=1;jettySize=auto;html=1;" parent="1" source="Vy-KUlDS-hz29__ZR1_M-22" target="Vy-KUlDS-hz29__ZR1_M-13" edge="1">
          <mxGeometry relative="1" as="geometry">
            <Array as="points">
              <mxPoint x="1003" y="970" />
              <mxPoint x="700" y="970" />
            </Array>
          </mxGeometry>
        </mxCell>
        <mxCell id="Vy-KUlDS-hz29__ZR1_M-22" value="Mensagem &quot;Digite novamente o Email&quot;" style="rounded=1;whiteSpace=wrap;html=1;" parent="1" vertex="1">
          <mxGeometry x="950" y="1145.75" width="106" height="52" as="geometry" />
        </mxCell>
        <mxCell id="Vy-KUlDS-hz29__ZR1_M-23" style="edgeStyle=orthogonalEdgeStyle;rounded=0;orthogonalLoop=1;jettySize=auto;html=1;entryX=1;entryY=0.5;entryDx=0;entryDy=0;" parent="1" source="Vy-KUlDS-hz29__ZR1_M-24" target="Vy-KUlDS-hz29__ZR1_M-26" edge="1">
          <mxGeometry relative="1" as="geometry" />
        </mxCell>
        <mxCell id="Vy-KUlDS-hz29__ZR1_M-24" value="Informar senha" style="rounded=1;whiteSpace=wrap;html=1;" parent="1" vertex="1">
          <mxGeometry x="640" y="1145.75" width="99" height="49.5" as="geometry" />
        </mxCell>
        <mxCell id="Vy-KUlDS-hz29__ZR1_M-25" style="edgeStyle=orthogonalEdgeStyle;rounded=0;orthogonalLoop=1;jettySize=auto;html=1;" parent="1" source="Vy-KUlDS-hz29__ZR1_M-26" target="Vy-KUlDS-hz29__ZR1_M-32" edge="1">
          <mxGeometry relative="1" as="geometry" />
        </mxCell>
        <mxCell id="Vy-KUlDS-hz29__ZR1_M-26" value="Validar requisitos para senha" style="rounded=1;whiteSpace=wrap;html=1;" parent="1" vertex="1">
          <mxGeometry x="495" y="1145.75" width="99" height="49.5" as="geometry" />
        </mxCell>
        <mxCell id="Vy-KUlDS-hz29__ZR1_M-27" value="Senha numérica:&lt;div&gt;6 digitos&lt;/div&gt;" style="shape=note2;boundedLbl=1;whiteSpace=wrap;html=1;size=13;verticalAlign=top;align=center;" parent="1" vertex="1">
          <mxGeometry x="502.84" y="1201.25" width="83.33" height="68.75" as="geometry" />
        </mxCell>
        <mxCell id="Vy-KUlDS-hz29__ZR1_M-28" style="edgeStyle=orthogonalEdgeStyle;rounded=0;orthogonalLoop=1;jettySize=auto;html=1;entryX=0.5;entryY=0;entryDx=0;entryDy=0;" parent="1" source="Vy-KUlDS-hz29__ZR1_M-32" target="Vy-KUlDS-hz29__ZR1_M-24" edge="1">
          <mxGeometry relative="1" as="geometry">
            <Array as="points">
              <mxPoint x="380" y="1110" />
              <mxPoint x="690" y="1110" />
            </Array>
          </mxGeometry>
        </mxCell>
        <mxCell id="Vy-KUlDS-hz29__ZR1_M-29" value="Não" style="edgeLabel;html=1;align=center;verticalAlign=middle;resizable=0;points=[];" parent="Vy-KUlDS-hz29__ZR1_M-28" vertex="1" connectable="0">
          <mxGeometry x="-0.1759" y="2" relative="1" as="geometry">
            <mxPoint as="offset" />
          </mxGeometry>
        </mxCell>
        <mxCell id="Vy-KUlDS-hz29__ZR1_M-30" style="edgeStyle=orthogonalEdgeStyle;rounded=0;orthogonalLoop=1;jettySize=auto;html=1;" parent="1" source="Vy-KUlDS-hz29__ZR1_M-32" target="Vy-KUlDS-hz29__ZR1_M-34" edge="1">
          <mxGeometry relative="1" as="geometry" />
        </mxCell>
        <mxCell id="Vy-KUlDS-hz29__ZR1_M-31" value="Sim" style="edgeLabel;html=1;align=center;verticalAlign=middle;resizable=0;points=[];" parent="Vy-KUlDS-hz29__ZR1_M-30" vertex="1" connectable="0">
          <mxGeometry x="-0.2511" relative="1" as="geometry">
            <mxPoint as="offset" />
          </mxGeometry>
        </mxCell>
        <mxCell id="Vy-KUlDS-hz29__ZR1_M-32" value="" style="rhombus;" parent="1" vertex="1">
          <mxGeometry x="350.5" y="1141" width="59" height="59" as="geometry" />
        </mxCell>
        <mxCell id="Vy-KUlDS-hz29__ZR1_M-33" style="edgeStyle=orthogonalEdgeStyle;rounded=0;orthogonalLoop=1;jettySize=auto;html=1;" parent="1" source="Vy-KUlDS-hz29__ZR1_M-34" target="Vy-KUlDS-hz29__ZR1_M-36" edge="1">
          <mxGeometry relative="1" as="geometry" />
        </mxCell>
        <mxCell id="Vy-KUlDS-hz29__ZR1_M-34" value="Cadastrar" style="rounded=1;whiteSpace=wrap;html=1;" parent="1" vertex="1">
          <mxGeometry x="330.5" y="1270" width="99" height="49.5" as="geometry" />
        </mxCell>
        <mxCell id="Vy-KUlDS-hz29__ZR1_M-35" style="edgeStyle=orthogonalEdgeStyle;rounded=0;orthogonalLoop=1;jettySize=auto;html=1;entryX=0.5;entryY=0;entryDx=0;entryDy=0;" parent="1" source="Vy-KUlDS-hz29__ZR1_M-36" target="Vy-KUlDS-hz29__ZR1_M-2" edge="1">
          <mxGeometry relative="1" as="geometry" />
        </mxCell>
        <mxCell id="Vy-KUlDS-hz29__ZR1_M-36" value="Salvar no banco de dados" style="rounded=1;whiteSpace=wrap;html=1;" parent="1" vertex="1">
          <mxGeometry x="330.5" y="1350" width="99" height="49.5" as="geometry" />
        </mxCell>
      </root>
    </mxGraphModel>
  </diagram>
  <diagram id="7ab9H8MPgzj9stm-144r" name="atividade_jogar">
    <mxGraphModel dx="1500" dy="-58" grid="1" gridSize="10" guides="1" tooltips="1" connect="1" arrows="1" fold="1" page="1" pageScale="1" pageWidth="1169" pageHeight="827" math="0" shadow="0">
      <root>
        <mxCell id="0" />
        <mxCell id="1" parent="0" />
        <mxCell id="1Glz7MCITpKAuvnwcfkc-1" value="ativiadade_Jogar" style="shape=umlFrame;whiteSpace=wrap;html=1;pointerEvents=0;width=170;height=40;" vertex="1" parent="1">
          <mxGeometry x="24.5" y="1084" width="1111" height="570" as="geometry" />
        </mxCell>
        <mxCell id="1Glz7MCITpKAuvnwcfkc-2" value="" style="ellipse;html=1;shape=endState;fillColor=strokeColor;" vertex="1" parent="1">
          <mxGeometry x="985" y="1600" width="30" height="30" as="geometry" />
        </mxCell>
        <mxCell id="1Glz7MCITpKAuvnwcfkc-3" style="edgeStyle=orthogonalEdgeStyle;rounded=0;orthogonalLoop=1;jettySize=auto;html=1;" edge="1" parent="1" source="1Glz7MCITpKAuvnwcfkc-4" target="1Glz7MCITpKAuvnwcfkc-6">
          <mxGeometry relative="1" as="geometry" />
        </mxCell>
        <mxCell id="1Glz7MCITpKAuvnwcfkc-4" value="" style="ellipse;fillColor=strokeColor;html=1;" vertex="1" parent="1">
          <mxGeometry x="65.5" y="1169" width="30" height="30" as="geometry" />
        </mxCell>
        <mxCell id="1Glz7MCITpKAuvnwcfkc-5" style="edgeStyle=orthogonalEdgeStyle;rounded=0;orthogonalLoop=1;jettySize=auto;html=1;entryX=0;entryY=0.5;entryDx=0;entryDy=0;" edge="1" parent="1" source="1Glz7MCITpKAuvnwcfkc-6" target="1Glz7MCITpKAuvnwcfkc-9">
          <mxGeometry relative="1" as="geometry" />
        </mxCell>
        <mxCell id="1Glz7MCITpKAuvnwcfkc-6" value="Login efetuado com sucesso" style="rounded=1;whiteSpace=wrap;html=1;" vertex="1" parent="1">
          <mxGeometry x="145.5" y="1154" width="120" height="60" as="geometry" />
        </mxCell>
        <mxCell id="1Glz7MCITpKAuvnwcfkc-7" value="O jogador pode escolher quaisquer uma das opções." style="shape=note2;boundedLbl=1;whiteSpace=wrap;html=1;size=6;verticalAlign=top;align=center;" vertex="1" parent="1">
          <mxGeometry x="470" y="1146" width="103.47" height="76" as="geometry" />
        </mxCell>
        <mxCell id="1Glz7MCITpKAuvnwcfkc-37" style="edgeStyle=orthogonalEdgeStyle;rounded=0;orthogonalLoop=1;jettySize=auto;html=1;entryX=0.5;entryY=0;entryDx=0;entryDy=0;" edge="1" parent="1" source="1Glz7MCITpKAuvnwcfkc-9" target="1Glz7MCITpKAuvnwcfkc-32">
          <mxGeometry relative="1" as="geometry" />
        </mxCell>
        <mxCell id="1Glz7MCITpKAuvnwcfkc-9" value="Escolher Jogar Sozinho ou Multiplayer" style="rounded=1;whiteSpace=wrap;html=1;" vertex="1" parent="1">
          <mxGeometry x="315.5" y="1154" width="120" height="60" as="geometry" />
        </mxCell>
        <mxCell id="1Glz7MCITpKAuvnwcfkc-45" style="edgeStyle=orthogonalEdgeStyle;rounded=0;orthogonalLoop=1;jettySize=auto;html=1;entryX=0;entryY=0.5;entryDx=0;entryDy=0;" edge="1" parent="1" source="1Glz7MCITpKAuvnwcfkc-11" target="1Glz7MCITpKAuvnwcfkc-44">
          <mxGeometry relative="1" as="geometry" />
        </mxCell>
        <mxCell id="1Glz7MCITpKAuvnwcfkc-11" value="Tela de Configuração Modo &quot;Jogar Sozinho&quot;" style="rounded=1;whiteSpace=wrap;html=1;" vertex="1" parent="1">
          <mxGeometry x="560" y="1279" width="120" height="60" as="geometry" />
        </mxCell>
        <mxCell id="1Glz7MCITpKAuvnwcfkc-38" style="edgeStyle=orthogonalEdgeStyle;rounded=0;orthogonalLoop=1;jettySize=auto;html=1;entryX=0;entryY=0.5;entryDx=0;entryDy=0;" edge="1" parent="1" source="1Glz7MCITpKAuvnwcfkc-32" target="1Glz7MCITpKAuvnwcfkc-11">
          <mxGeometry relative="1" as="geometry" />
        </mxCell>
        <mxCell id="1Glz7MCITpKAuvnwcfkc-39" value="Jogar Sozinho" style="edgeLabel;html=1;align=center;verticalAlign=middle;resizable=0;points=[];" vertex="1" connectable="0" parent="1Glz7MCITpKAuvnwcfkc-38">
          <mxGeometry x="0.0439" relative="1" as="geometry">
            <mxPoint as="offset" />
          </mxGeometry>
        </mxCell>
        <mxCell id="1Glz7MCITpKAuvnwcfkc-41" style="edgeStyle=orthogonalEdgeStyle;rounded=0;orthogonalLoop=1;jettySize=auto;html=1;" edge="1" parent="1" source="1Glz7MCITpKAuvnwcfkc-32" target="1Glz7MCITpKAuvnwcfkc-40">
          <mxGeometry relative="1" as="geometry" />
        </mxCell>
        <mxCell id="1Glz7MCITpKAuvnwcfkc-50" value="Jogar Multiplayer" style="edgeLabel;html=1;align=center;verticalAlign=middle;resizable=0;points=[];" vertex="1" connectable="0" parent="1Glz7MCITpKAuvnwcfkc-41">
          <mxGeometry x="-0.0916" y="-1" relative="1" as="geometry">
            <mxPoint y="-1" as="offset" />
          </mxGeometry>
        </mxCell>
        <mxCell id="1Glz7MCITpKAuvnwcfkc-32" value="" style="rhombus;" vertex="1" parent="1">
          <mxGeometry x="346" y="1280" width="59" height="59" as="geometry" />
        </mxCell>
        <mxCell id="1Glz7MCITpKAuvnwcfkc-55" style="edgeStyle=orthogonalEdgeStyle;rounded=0;orthogonalLoop=1;jettySize=auto;html=1;entryX=0.5;entryY=0;entryDx=0;entryDy=0;" edge="1" parent="1" source="1Glz7MCITpKAuvnwcfkc-40" target="1Glz7MCITpKAuvnwcfkc-54">
          <mxGeometry relative="1" as="geometry" />
        </mxCell>
        <mxCell id="1Glz7MCITpKAuvnwcfkc-40" value="Tela de Configuração Modo &quot;Jogar Multiplayer&quot;" style="rounded=1;whiteSpace=wrap;html=1;" vertex="1" parent="1">
          <mxGeometry x="315.5" y="1400" width="120" height="60" as="geometry" />
        </mxCell>
        <mxCell id="1Glz7MCITpKAuvnwcfkc-47" style="edgeStyle=orthogonalEdgeStyle;rounded=0;orthogonalLoop=1;jettySize=auto;html=1;entryX=0;entryY=0.5;entryDx=0;entryDy=0;" edge="1" parent="1" source="1Glz7MCITpKAuvnwcfkc-44" target="1Glz7MCITpKAuvnwcfkc-46">
          <mxGeometry relative="1" as="geometry" />
        </mxCell>
        <mxCell id="1Glz7MCITpKAuvnwcfkc-44" value="Escolhe Matéria" style="rounded=1;whiteSpace=wrap;html=1;" vertex="1" parent="1">
          <mxGeometry x="750" y="1279.5" width="120" height="60" as="geometry" />
        </mxCell>
        <mxCell id="1Glz7MCITpKAuvnwcfkc-49" style="edgeStyle=orthogonalEdgeStyle;rounded=0;orthogonalLoop=1;jettySize=auto;html=1;" edge="1" parent="1" source="1Glz7MCITpKAuvnwcfkc-46" target="1Glz7MCITpKAuvnwcfkc-48">
          <mxGeometry relative="1" as="geometry" />
        </mxCell>
        <mxCell id="1Glz7MCITpKAuvnwcfkc-46" value="Escolhe Tema" style="rounded=1;whiteSpace=wrap;html=1;" vertex="1" parent="1">
          <mxGeometry x="940" y="1279" width="120" height="60" as="geometry" />
        </mxCell>
        <mxCell id="1Glz7MCITpKAuvnwcfkc-59" style="edgeStyle=orthogonalEdgeStyle;rounded=0;orthogonalLoop=1;jettySize=auto;html=1;entryX=0.5;entryY=0;entryDx=0;entryDy=0;" edge="1" parent="1" source="1Glz7MCITpKAuvnwcfkc-48" target="1Glz7MCITpKAuvnwcfkc-2">
          <mxGeometry relative="1" as="geometry" />
        </mxCell>
        <mxCell id="1Glz7MCITpKAuvnwcfkc-48" value="Iniciar o Jogo." style="rounded=1;whiteSpace=wrap;html=1;" vertex="1" parent="1">
          <mxGeometry x="940" y="1500" width="120" height="60" as="geometry" />
        </mxCell>
        <mxCell id="1Glz7MCITpKAuvnwcfkc-57" style="edgeStyle=orthogonalEdgeStyle;rounded=0;orthogonalLoop=1;jettySize=auto;html=1;" edge="1" parent="1" source="1Glz7MCITpKAuvnwcfkc-54" target="1Glz7MCITpKAuvnwcfkc-56">
          <mxGeometry relative="1" as="geometry" />
        </mxCell>
        <mxCell id="1Glz7MCITpKAuvnwcfkc-54" value="Escolhe Matéria" style="rounded=1;whiteSpace=wrap;html=1;" vertex="1" parent="1">
          <mxGeometry x="315.5" y="1500" width="120" height="60" as="geometry" />
        </mxCell>
        <mxCell id="1Glz7MCITpKAuvnwcfkc-58" style="edgeStyle=orthogonalEdgeStyle;rounded=0;orthogonalLoop=1;jettySize=auto;html=1;" edge="1" parent="1" source="1Glz7MCITpKAuvnwcfkc-56" target="1Glz7MCITpKAuvnwcfkc-48">
          <mxGeometry relative="1" as="geometry" />
        </mxCell>
        <mxCell id="1Glz7MCITpKAuvnwcfkc-56" value="Escolhe Tema" style="rounded=1;whiteSpace=wrap;html=1;" vertex="1" parent="1">
          <mxGeometry x="480" y="1500" width="120" height="60" as="geometry" />
        </mxCell>
      </root>
    </mxGraphModel>
  </diagram>
  <diagram id="CwIcZzvXq_nwZ9W-boOb" name="caso_de_uso_geral">
    <mxGraphModel dx="5338" dy="1537" grid="1" gridSize="10" guides="1" tooltips="1" connect="1" arrows="1" fold="1" page="1" pageScale="1" pageWidth="1169" pageHeight="827" math="0" shadow="0">
      <root>
        <mxCell id="0" />
        <mxCell id="1" parent="0" />
        <mxCell id="z-RF_N2I27__-DU73o_i-1" value="Caso_de_Uso _Geral" style="shape=umlFrame;whiteSpace=wrap;html=1;pointerEvents=0;width=190;height=30;" vertex="1" parent="1">
          <mxGeometry x="150" y="20" width="520" height="600" as="geometry" />
        </mxCell>
        <mxCell id="z-RF_N2I27__-DU73o_i-5" value="" style="shape=image;verticalLabelPosition=bottom;labelBackgroundColor=default;verticalAlign=top;aspect=fixed;imageAspect=0;image=data:image/png,iVBORw0KGgoAAAANSUhEUgAABU0AAAGnCAYAAACD9naiAAAAAXNSR0IArs4c6QAAAARnQU1BAACxjwv8YQUAAAAJcEhZcwAADsMAAA7DAcdvqGQAAP+lSURBVHhe7J0FuFRV24aXHSAWpYCUdEsqCCggmICIglgY+Olnd3f3ZyECKilgIAhKSUinNNIN0h3m/+/7ZRaOx8PpM2fiua9rX3POzJ49O9d617PeOCxPnjz/59LAjh07Qn8JIcTf/Pnnn27nzp3uhx9+cCeccIIrWbKky5s3rzv88MNDayTPX3/95fbv3+9Wr17t5s+f7ypUqOAqVarkjjnmmNAaQgghsps//vjDbLwRI0a4U045xZUoUcKdeuqpaWrD9+3bZ234vHnzXNWqVa0dP/roo0NrCCGEEELkPLt27XLTpk1zW7dudWXLlnWnnXaaO+KII9xhhx0WWuPf/N///Z+Nc9euXesWLVrkjj/+eNewYUN37LHHpvg9EZ2ceOKJob/ST8oWsRBCpMKePXvcuHHjXK5cuVzx4sVd/vz5Ux1sA+vQ+ZQqVcoVLlzYbdiwwS1evDj0qRBCiEjAQGL8+PFmTNKG58uXL81tOO2+b8PXrVvnlixZEvpUCCGEECI6mDVrlk30FitWzBUpUsQdeeSRqQqffM56rF+0aFH3+++/u+nTp5uQKhILiaZCiAxD57FlyxabfcM7qUCBAqFP0g4D78qVK5u309KlS92vv/4a+kQIIUR28ttvv1kbzoTVmWeeaYJpesFTAy9T2u7ly5fbNoUQQgghchqiYoiIXLFixcGIyPTCWNVPKs+dO9ft3bvXtisSB4mmQogMs337drd+/XoLc8DjKKOhCoTk58mTxzqlzZs3WziEEEKI7IU2fOPGjdaG4/mfmTYcT1W+TxsuhBBCCJHTMKHLxDCRkGlJH3cojjrqKJc7d25biI7UBHFiIdFUCJFh8FDCswhPUUTTzEC4BMLp7NmzJZoKIUQEQDBduXKleYoed9xxoXczBm04witeGEIIIYQQOQ31M2bMmOEKFiyYoWiacMj3Xrp0affTTz+Z96pIHCSaCiEyDCH1zLQhmGZ05s6DYIq3kjxNhRAiMtCGk2aFNpww+8xw0kknmScGk2lCCCGEEDkNY0pymVKkEhslMzC5TMFMJpzlaZpYSDQVQmQYOiIWBNOMhnV66MgYtKsTEkKIyOHb8MxCG8521IYLIYQQIhrAxiH/KOPUzI5VGacivhLyr5ymiYVEUyGEEEIIIYQQQgghUiCz4quIPSSaCiEyTFZ2GuFeq0IIISJDVrXjtN+gNlwIIYQQ0UJW2jl+rCrhNLGQZSuEyBR0Gn6wnBn27t1rufVOOOGE0DtCCCEiQVa04Xv27LEcqVSWFUIIIYSIBrJK4CT90O7du60OR2bzwIvYQqKpECLDnHjiie700093S5YsseqEmWHNmjU26C5fvrw8lYQQIgKcfPLJVlF28eLFlqMrM6xevdr6gbJly4beEUIIIYTIOSgyTMV7ilRu27Yt9G7G4PvLli1zlSpVkpNPgiFlQgiRYaggWKRIETdnzhzzFM0of/75p3VmzOCdccYZCnkQQogIcOqpp9rE1+zZszM18UUbvnnzZvM0pU8QQgghhMhpEE0rVqzofvnlF7NTMjrGpPDTrl273KZNm1zx4sWtkr5IHCSaCiEyTK5cuVyBAgVswLxx40bzFM0Ia9eutcE2Xk8K7RRCiMhAe5s/f35rfzds2JDhyS8iBRhQqA0XQgghRLRw1FFHucKFC7sjjzzSPEW3bt0a+iR94Nyzfft2cxgi0pLticRBoqkQIlMQnnD++ee75cuXu5UrV1pe0rTCIBuhderUqZYfpkqVKqFPhBBCRALa3vPOO89C9AmxT08bzoQZ+b0mTZpkAwm8OYQQQgghoonq1avbBPH8+fPTnY6ISJwFCxaY6NqgQQMJpgmIRFMhRKZgBq9o0aIWVr9q1SoL1U9LTlIKjzDb9+WXX1p46Jlnnmmeq0IIISIHoWvFihWzNpxcXQwo0tKGM+lFqNsXX3xh3y9RooTacCGEEEJEHeRvx85BMP3xxx9tHJpaqD7rMDk8cuRISyFHLlO8TJVGLvE4LE+ePGkqmbpjx47QX0II8W8IWSDMHuF0586dNoBGTD322GNDaxyAzmf9+vVuxYoV9p2SJUvaeoR1MngXQggRefCg8G04EQC04QwwkrbLtOGsR2QB+b18W08bfvTRR4fWEkIIIYSIHrBtSEWE/UJaIWwXb78ghCKSApPCjFGZSCYCB1uIyWFS0h1//PG2jog9ELwzikRTIUSWQZgmgigdEZ5KvvMhrIFceXRK4GfoEFSplo930hFHHGHvCSGEyBlowxFE161b9482fN++fbYkbcMphFChQgUbRKTFO1UIIYQQIqfA05QomSVLlhy0cYAJYSIgEdaIovR2DuuUKVPG5c2bVxPDMY5EUyFEVEGHRI5TvEkRTBFSmamrUaOG5YEhHJ+ZvXz58oW+IYQQIlpAIKX9ZqE9R0il8iw5wRBHKapAG071fSGEEEKIWAOPU+wcIm1w7pk2bZqrXLmyTRCzEEnDmFWTwvGBRFMhRFQzd+5cN336dHfNNdfIo1QIIWKMWbNmWTverl270DtCCCGEEPEBXqY9e/Z0l19+uU0Mi/gjM6KpZHMhhBBCCCGEEEIIIYQIQ6KpEEIIIYQQQgghhBBChCHRVAghhBBCCCGEEEIIIcKQaCqEEEIIIYQQQgghhBBhSDQVQgghhBBCCCGEEEKIMCSaCiGEEEIIIYQQQgghRBiH5cmT5/9Cf6fIjh07Qn8JIUT6mDt3rps+fbq75ppr3BFHHBF6VwghRCwwa9Ysa8fbtWsXekcIIURm+eOPP9yePXtsnL1z5063fft2t3fvXrd//37322+/hdb6N//3fweG74cddpj9/ddff/3Dvj788MPdscce64477jh34okn2hKM+e31yCOPtM+FEH+zdetW17NnT3f55Ze7woULh94V8QTtX0aRaCqESJX169e7X375xe3bty/0TvpYsWKFW7hwoWvSpEmGDDUMwdy5c7vixYu7448/PvSuEEKItLB27Vq3cePGDLfhS5cudcuXL3eNGzcOvZM+fBtesmRJG8gLIUQigPCJEIoggyjqhVAvevIavvj3wl8PBZ970ZQlqX3t32Od8AXCX1lOOOEEd9JJJ9lCWy1RVcQaPGerV692u3fvTvXZSY5du3a54cOHu3PPPdfly5cv9G76yJUrlytUqJDLmzdv6B0RTUg0FUJkK37ATEeUEejE+H69evUyLJpiyFWpUsVmyoUQQqSdxYsX2+QVHk0ZYeXKldaO04ZnBDybaMOrVq1qA3IhhIgn/vzzT/frr7/aeJnJKTw/4ffffz/oRYoow//ghU7aRrxBES1ZGNTzP5NLRx11lK2bEdgf9gORlt/1v8+Cdyu/HS6cIvb43+dvb6uzf/yP7X3MMcfYe0JEI0wMz58/38TTjMAYd9y4ca5mzZru1FNPDb2bPnh+SpcubcKpiD4kmgohohqF5wshROyi8HwhhPgbREeESURJBFIEU0QboqqIzEIcZR3ETwQUwn0LFCgQldFS7Cf7TkTCunXrzCuWY/Ji6hlnnOHOPPNME5J4DyEVQVf2vIgnFJ4f/0g0FUJENRJNhRAidpFoKoQQf0POUQRGbNvNmzeb8HjyySe7MmXKuPz58x+0dREZ+dsv3rsz2kAA9ov3kgU8VNesWeNWrVplWgBesCVKlLDjRAyWTS/iBYmm8Y9EUyFEVCPRVAghYheJpkKIRAZRFK9Swn8RERFNCVcn9yHepHhf8j9h7AiL0SqOphc8ZknrwsLxcx4I8ScEmvc47sqVK5uAileqELGKRNP4JzOiqbI8CyGEEEIIIYQQYSAabtiwwU2cONFNmDDBvEoRRwlVL1iwoIWuFytWzBUtWtT+J/w+XgRTIAyffNSIohRj5Tj5G2/aU045xXJUk/N68uTJbtq0aRbiL4QQ8YZEUyGEEEIIIYQQIoAwdXKTLlmyxBbC0/mfEHw8K2vUqOHKli1rxZMSKYKKY6UyeLly5Vzt2rVd9erVTURGTKbYIIVjFy1aZOcKb1whhIgHJJoKIYQQQgghhEhofBg+obp4T44ZM8aKJDVo0MBdeOGFVhk7Gos5JYVjwEOWSvnZBR61CKZVq1Z1zZo1c9WqVbPQ/UGDBrkpU6a49evXm3DKORVCiFhGoqkQQgghhBBCiIRm7969VgG/d+/eJo5ecMEFrm7duvb34YfHzrCZPNSIvHjIRgpSFtSqVctdddVVdr5Gjx7txo0b5/bt2xdaQwghYhOJpkIIIYQQQgghEpZly5a5UaNGmWhap04dqxBPOD6FnjKSp3TgwIHuhRdeCP0XWfA0JUQ+Oz1Nk4KojOcpeU7xyMUD9ddff3WDBw92P//8s/0thBCxiERTIYQQQgghhBAJCYIpOTkJJadydsmSJa0AUmbylS5fvtzC1HOCIkWKuPvvv9+8PyMNAjPnjiJZLMcdd5ybP3++W716tXnyCiFErCHRVAghhBBCCCFEQoFIun37diteRBh5qVKlXPny5d3RRx8dWiP7IQ8ov0/+1GHDhrmRI0daeP2mTZtCa/wN3ppUq6eS/4gRI9wPP/zgpk6d6tasWWNesuvWrbP18PakYBVesoAgTKg8eU6nT59uofN8d+zYsW7OnDlu9+7d7q+//rJ1swoq71Ntv0qVKuaFigcv+WEj6f0qhBBZgURTIYQQQgghhBAJxe+//+7mzZtnBYsKFCjgTj/99NAnkYHfX7BggevZs6d78skn3QMPPOAee+wx98EHH5igiUjqCylR0Z/iSv3793fPP/+8e/DBB90jjzzi3nzzTSu+1KFDBzd+/Hhbl21ef/31bu3atfY/IfL33nuvCaXvvvuue+qpp+y7zzzzjPvoo48sfD67vEBPPPFEK6SFYItH77Zt20KfCCFEbCDRVAghhBBCCCFEwoDH444dO9zMmTPdaaed5kqUKBH6JHIgbiJ48vrwww+7vn37utdee83lzZvX9evXzyr4+0JKeJHihYpo2rZtW/fJJ5+4jh07uvr167tPP/3UPGZTAsG1R48erkmTJiac9urVy4RX8p/yPp6g2QWepk2bNjXhdMaMGaF3hRAiNpBoKoQQQgghhBAiYdizZ4+FxZPDlNyfRx55ZOiTyIEoijfpZZdd5s4++2zLpUoBJar2lytXzgRSQucBUZPcoFdccYUJpWXLlrVUAg0bNnQtWrRwJ5xwgq13KAoWLOiuu+46+y5FrooXL+6qV69u1e6XLl1qofPZBXlOSRlArlPYunWrvQohRCwg0VQIIYQQQgghRMKAGLlkyRLLu5ma4JhdEK6OWFu3bl13yimnWC7VPHnyuAoVKpgoSv5RUgcA1fBZGjdubJ6xFFg6/vjjbf8bNWrkcuXKZesdCgTL888/31IQ8F1yjvKbiLSEzGd3kSaE00KFClmFfXKsCiFErCDRVAghhBBCCCFEwkBYOsWWTj755IMFkyINRaAQTfPnzx965wAIpwiaeGSSyxQQNQnVR3hE8PQgQuItm5qnLIIsvxO+3hFHHGHCK7lVI1Ggibyx/D6V9IUQIlaQaCqEEEIIIYQQImGgwBILwiFekDkBv80+IFqGg1DKEi5wkheUBbHXF4eC5L5/KHLqOD2I0+wDqRGEECJWkGgqhBBCCCGEECKh+Ouvv/4hQEYaCj4heBKmHw75RdesWeOKFCly0KuUKvR4oFLtnzyoHtIMJH0vWvGCL+kBhBAiVpBoKoQQQgghhBAiYcDrkfyemzdvPlihPtLUrFnTPEr79Onjfv75ZwvXX7VqlRs+fLgViaJAFAWUoFSpUu7MM890Xbt2tQr0W7ZsMXF10qRJVkk/ter50QBCMMIpRaiEECJWkGgqhBBCCCGEECJhoHASIuTy5cvdjh07Qu9mLStXrnQvv/zyv5a3337b8pVWqVLFVa5c2cLVe/To4d555x3XuXNnq5JPgScKN/kCT8WKFXN16tQxL82BAwe6999/33Xs2NGNHj3a8rLikZrT4fepsXbtWitsxbEJIUSsINFUCCGEEEIIIUTCQAEkPB4RTBEws9rblG1TAX/mzJn/WmbPnm0el1TBP/fcc139+vXdzp073aJFi8x7lO9edNFFrmTJkgfD86l+T6X7li1bWm5TKtBTUAmPWSrqU+TJr4uI2qRJk4NeqgiutWvXtr+TQl7VevXqmddtdkFI/oYNG+wcIwKzf0IIESsclidPnjQlcsmuGTghRPwzd+5cN336dHfNNdeYcSaEECJ2mDVrlrXj7dq1C70jhBCxD8Lljz/+aPlAqUCPBySCZLRChXu8UvE2pUgUYiSC75QpU1yXLl3cf//7XxNQown2kfP7ww8/WPX8cuXKmVgsRDTBc9SzZ093+eWXW1sg4g/yQmcUeZoKIYQQQgghhEgo8MzEyxIPSML0KaoUzRDu/9prr9lE1rZt28wrddy4cRamX6lSpWz1Fs0oiLxMuuE0QWErPGKFECKWkGgqhMhWmBUnOf26dess2X1OVikVQgiRPqjszOB8/fr1asOFEHEFOUAJb6cg09FHH+0mTJhghaFo66IR9jVfvnzmEXf//fe7hx9+2A0dOtSdddZZrkWLFu6MM84IrRkdIOoi8CL2kr+1UKFCijgTUQfPO+I+6S727t0rO0f8iyOOOeaYZ0J/p8ijjz4a+ksIIdLGX3/95RYvXuyWLVtmRhLJ30855RQXtDuhNYQQQkQrtOELFy60Aa9vw0899VQTF4QQIl4g9ydtHMIJE0SEkxMCH21tHfuYJ08e2y9ynOJZSrh73bp1Xfny5Q8WjcppcJhYunSpVctHmCbtAdX/ySMrRDSBQPrLL7+YuA/cr9ynPGcivnjllVdCf6Uf5TQVQmQbq1atspAcZvCYXZ4zZ47NhpOQ/oQTTgitJYQQIhpBLKXdZhBBLjraczyyGAD7AiNCCBEPIJ5QrGjSpEn2N20euTcRJ+UdmTYQS3ft2mUeplTKx0midOnSVtBKiGhk06ZNNjnMmBVv6J9//tmefYq45c2bN7SWiAcyk9NUnqZCiCwH7yTyQw0bNsyMzRo1athsOLmjFixYYMnr8TiVESqEENEHbTghakOGDLH8c0x20YbTds+bN89CRKl+rDZcCBEvMDnEZNCZZ55pXvWIJwiA3uOMAlGswyL+CWIp3rk4WS1ZssSKvyI61apVywQoIaIR7tmpU6daSg5yGxcvXty8uBH8KQyldBLxhTxNhRBRBTlMEUwJ4yxTpowNtjEyMaomTpxog3HyLhFKJIQQIrpgsDB8+HDLncfAt2DBgtaGk9+UnH8MNPA25TMhhIg3qKpPO4h3PV5oTBQ1aNDAJvyZPBL/hDRcTKht2bLF7H489phYQ4CSyCyilZEjR9qzTgQk6SMQSBmrzp8/31JLcA8j/Es4jQ8y42kq0VQIkaVgMC1atMhm6fAwJbQpPIcpRijhnniiIppSSVMGlRBCRAeEqpGLmuJ9tWvXNi+h8Lx+tOEzZ860gQVteOHChUOfCCFE/EAbhxMAdi0ep1TXJ2wfu7VEiRKW8zRR4Tzs3r3b8pZSPAcxgqgERGX+RmySuCyiFe9JjjDK84x3eXg+YJ53JgKwhSpXrmzrJPLzHi9INBVCRAW0E3QyGFDkMMITKblOhs8xtBBOGZQT+iTjSgghchYEAtpmBFPacLwvkivcR65T2no8NGjDyVEtTwwhRDziK2vjEIBQiMc9oiHQ9hFNhR0bz20gx0vaFibVCGXmfPCeP2aiETgPiKVCRDOMPbFxfvrpJwvHZ0HsTwoTxN4JqFq1ahaqr0LGsY1EUyFEjkO4JiFMdEQYj2effXaKHqQrVqywDgsDi1k8cp+SL0oIIUTkoQ0n5zRVZGmP69SpE/okeRBXiRqgDScUk3ZfbbgQIp4hvRRCyowZM8yOpc0jqgpPNCb/CeMnLyriSqy1h14I9rY7YjHHi0CKZx6fM7G2c+dO+58K44Tik24rPBpBiGiFCQ/Gqdg63OeE3qck9ONxOmLECJscIXyfyBpNEMcumRFNVQhKCJFpMKSYiaMT8nmfUgu59+E733//vVUnpEOS0SWEEJEHDyLacHLSIX5SECE1aL9pt7/77jsL4VcbLoSIZ/CsR3ShvWSSiXB9Jo6wdxESCfVFZEE85T3WY33ER+C91GzjnAAbnlQEHAMCKfvL/3jVEhmGQwTLhg0bLOUWXncIxUQjqKiriBW4z/GSZtKDyeFLL730HyH5yYFNw30+efJkmyigVofC9GMXFYISQuQYvspyv379bBauevXqNvucFjDKyBU1YMAA81SqWbOmPJWEECKC+NDTPn36uEqVKrmqVaumeVCAIEAb3r9/f/PYYDCtNlwIEW9gr86ePdsKx0ybNs1EUyaXGjZsaJ6W2L3Ywkw+kboEcQaRBUGRCSVyJuKNyt/R1EYiJNGOEznQs2dPE0bxHqUIIPtKmi3Cl/kfwfeoo44yUVjtvIg1eD5Hjx5t9k7Tpk3t/k7rJAah+mPHjjV7qXnz5pooiFEUni+EyBEwthgwDxw40IwsZuPwGk1rJ8T3EV3xblq1apV9N7WQUCGEEFkDbTCD5MGDB7ty5cpZO47nUHracAYRVJjGI4m8dkx+CSFErEPbhm1KKD5CKV6keNUjIpLvmRye/M8kEyIi6yPMsB6iKv97b1NEF0LbEVJ5n/VpP/FkI5zfR1/xynvJiZJ4fvJ9bOVDwW94oRbYDzxIWRjLs/Aev+3bedZH9MX7jrRZtOU4QFx88cUWjsy2iCITIlbhmSMqhmerbNmyNtGRVjsHeI5Jx8HkAs8PoisTCCK2kGgqhMgR1q9fb4InBmLdunXNkMvI7DNGJoNuBFgMtIoVK6arMxNCCJF+fFoVBuN4TSGYZrQNxwuLATveVBUqVAh9IoQQsQPiCjatD0lHSESopF1EJMVjlAWxNC3eZogtiCwUUEI4pa3kvXAbFwEzuSUcUgNQgG/btm3/mpjy22LfscnxBGUffdEaPg9f/Hv+leMgjzXfI+UAIjGTaThCUJ+AbaU1gkyIaINnjkkPtCzu6ZIlS9q9nl54jnkG58+fbxPE5cuXt3RGInaQaCqEiDgYfwy2yeHUuHFja4gy0gl5MATJM8MMN0YaoUDKjyeEENkDk1QY/wyOGzVqlOnqz/QJXmQgYoBJNHliCCFiAYQVQuopEoMdSog99i1iIRP5CJUlSpTIcrsUMRSRFhs43BsVYRW8eIq9PWHCBPu8devWlls0qc3Ndr788kvzKiXnKN6iiKEseLH6v1MqUkUaAo7/22+/td8k7RbHjncedrkQsQSh+HiITpo0yZ177rnmYZoZr2m2x/MxdepUd9ZZZ5nHeWp5UUX0INFUCBFRmG0jKTbGGx5FGJJ+1jozMHhnEI/xeM4555iBlplBvBBCiH9DG84AnAEAbTjhplkB0QcMtGnD69evb0UTMuK5KoQQ2Y33AkWkRCSdMmWKiSsIp3je4xBA+4jQmJOwj++995776quvzNa+8cYb3RVXXPGP/eJYSCXwzDPPuHHjxrnKlSu7xx57zMRORJ302uh4rf7www8Hf7NZs2buvPPOs21hl2eFzS9EdkJajCVLlpjnNM8DHqZZ4TG9b98+S2PBxDNe2EwsZMZpSESOzIimqp4vhEg3GJbMaDNjR2eRVcImeaHIneRzxvA/uZ6EEEJkDXguIQxg+NOGM5DIKmGTAQmDat+G+/+FECKaQGTEs/THH390HTt2tLzOeH0ilP73v/91DRo0sCJItGE5KRDi+Tlx4kQTMBcvXmwesbStCJg+bylwPHjA0bbzitcq3nCEEJN2Jb0esvQJhQoVslzXeK5+//33FklAf4FdLocGEe0QvYiXKQ44FLnEwzQrnmUEUtJzkN4Ip0K2yTMmop/MVM+XaCqESDMYaszaMZuNMYXxlNYqy2kBIw3DjrBOjEOMRSWgF0KIrAGh1LfhCKZECWRl++rbcAYpP//8s73HAFttuBAip2HCCNERz7Ovv/7aDRgwwIQP8hw2adLEhEg8S8lXiFiKOJKTgilCKBFdH3zwgZs1a5YJNNjhiLstW7Y0T1O/f6xLm4tQyjHhPcuxIqAi6OTPn/9gjtO0wvHTfpMKgDadfKdEKHAe2WZWeO0JkR2QexTBFHsEL1Pu46x6ltkOzwZei+Qq3rhxo/2d0xMsInUkmgohsh0MNXLVYWxSrIk8LuRIymqYvUYoJTSIzogCJYR4KjeeEEJkHAbRvjoygikh+ZkJVToUtOHkR6UNJ+UKA3cG2GrDhRA5AW0QE0V4YY4YMcI8JmkPERIRVGrVquWqVKliRewQV6IlpQjhv6NHj3bDhg2z1CfY4bSrCKSkD8DBwAuhvE8xPmx01kVYZT08TknDgoMDYnBGhFP6Cc4VohD7hBiFly7bwj6XUCSiBZ4DJhd4FrA5cO7hvs+Oe9SLpERekv+YZ4TfjJb2Q/wbiaZCiGwFj09m0vBQIkcMya8xlLITOh+MPYw/P6tNRyTjTAgh0gdtOIIpYfMMKigSkh2TXuEQvsbAmr4D/OBabbgQIrvxgiEeZ3PmzDExkcryCH7YlxSrw7uUYkl4UWZ1gafMgkCKuNutWzfLsUqUAMcE2MS0r0x8+bBgPsPLFI9UHA7CwfMU4ZQ2H6/R9OYkZV0EIn6Pc4dARF/C+UVUJQWLxCKR0/AMIGDOnTvX7ncE06zK134ofF5hngfGx0wY05bIzolOJJoKIbIVwoMw3pipb9WqVYaSymcEDFkMR3Ko4tlKiKeMMiGESB8UZiJ0E+GUsE68jiLRhjOwJ1oAwYI2nMGE2nAhRHaAmIhwgWcpbR4iIlXgvafm2Wef7W644QbXqFEjE1SiOd8yQueYMWPcN998Y96dtNm0n0x6sSCiVq1a1dpV4D0KQOFhRw5SvEARR2lvEZMQOgnVL1OmjHmOInKmtw9gfezyihUr2u+RDxb7HE8+IsTUvoucxHuUk0KiYcOGlpM4EnYOQile30OHDrXng/8VWROdSDQVQmQrGGGIl+eee27EBFPA+MIQY3ackFKfZ0oIIUTawfuIQW7dunUj3oYzgGCZPn265cJWflMhRHZAyP38+fOt4jt5QPE4QyS88sor3dVXX22h+HiGpdfTMtIgclL46bPPPrNQY7w58RBFlMSDjs95v379+paPlWMhmoDUAxw/ofneVmYd/scrFA9UJrAo7oSHKtvLCAhCCFJsh+3269fPBCu8UL3nqxCRhokBvMmbNm1q9yLPTSTAzmGSgvQeeLLTvmR3NKbIGJkRTQ8LDNn/C/2dIjTOQojEBKMIIw3xks4gkvC7GMJ4DURjCJUQQkQ7eCqBFwwiCWItbTgRCwxk5IEhhMgqEARJATJ58mQTBPFsx+uLsFwWX8QoKwvBZDdMMPXs2dMNGjTIxM/LLrvMPGOJFhg7dqyJNHiN3n///a5169bmUEAb+9BDD5l3Kk4OiDYcc/PmzU3MwY7H+cDntG7Xrp0755xzbEIrI+DVy2/iETtt2jTbZybEyLV6/vnnm2AVK+dbxAdMKKBXYWdEemLEe7lj5/DM8uyJ6CMzefwlmgohhBBCCCGEiAnwmqSa++LFiy0kF8GCCRlSgpx55pnmgYlYGulJosyA8EJOxq5du5o46kVIIgQ4vvHjx5snKWH5Xbp0cbVr13Zt27a1KDDC9W+55RYTL/ECrVmzpjkd4Pl50UUX2bkg7yLCK7mmKeiK5y3nKjMTWewz25s4caJ59iKkIvASHp2RwlNCCJFdZEY0VXi+EAkMyfHJcYdhEw8QnoQhTToBjDc8DvAyEEIIEVnId4enR1ZW6KdtpyI/wogQInHwno3YrIsWLTroNYloiodZ+fLlXePGjU1kRAiMpir4aQWRk2PDNiey69JLLzVPUuxYQo8Rh/GibdOmjRW4okAU/yOiIqp2797dzgWCJfUHEExphzkfZcuWNY/TKlWqWFg95xNBmXUyE8ZMG0/KF7x6SaeF5ynXBQ9gtovXnVKyiGiAXKc8J9ldBDMleD5HjhxpUT9KNxd5lNNUCJEhnn32WZsdJvQnHiD5PYm433//fdejRw/rnC688MLQp0IIEXl8eDoeRLRRvNI2kQOOgSWDVwb3sTbATwmOiUE7gxOqU2cVzzzzjIXhIiYIIeIfn6KJiEfyBY4aNcr16dPH8jTTvuBF2b59e1etWjUTEGM5/Qd9BYWVaDNp4ypVqnQwzBgh1U8Y4WFKAagFCxaYJyfr811E09NPP93sXrxPETEJ88fzs0SJEpbeim1RVIr80lmZ95H95LcRZ9lm//79LW0Cgqq/LpEMlxYiKddcc43dgxSEyymY7CDnKhMb2V3ZX/ybzIimKnEnhIgbyNmEYIqxSSEARGEhhMgpfOgi7dG9995rE1QNGjRw5513nnkQPfzww27w4MFW2VkIIcTfIJiSI5Dq988995x74oknzNu8RYsW7uWXX3b33XefCYjxIsghNiKoEDafNNco5wFhFAGSCTa8R5s0aWJCJd62TMJxDvg+4fxsC2+2ChUqmHcuofmRACEb0fbpp5+2/aSYVbdu3WyikOsphBCxiHKaCpHAMHONEUO4TjxAriZm15lZR5hQSJAQIqegbcVriGIeCKeEj+LZg2cQqUQYRDLRQ0EP8s9R3TmeICwUbyiKjmQVt912mwkHH3/8cegdIUS8gUCIEIhXOamWEBAJLac9IV8n3paIc4lUGPTDDz+0sTgpCOgvgHRU9B/0JYinvXv3dhdccIF5niKaEor85ZdfWh7Us846y7Vs2dK+FwnIsbps2TLLsco1pM+76qqrrB/EA1aISEN4Puno8LrOKWjXeH6//vprK5gmIosKQQmRA1Atkrw9JF5PCt5FDOpoGDFUMBYIy5w0aZK55vM3M7DkEiKkiNAZHmTyE3Xu3Nl16NAh2VycDL7Ztg9N5LnEGPGJ3fkMw4nfZZveoGSbVNJksE44DwbWzTff7GbOnGkD0PDwfHImsc2FCxdaTlDyQpFQv2LFimaspgeS2fsKnuwj+0sOF7ZH2FH4YPr777+34+czjCx+m1l0vAgwvthvwrEI9+E4fR4nQoHYPp9xnJx3QjDYNmKwNxI5LkTiJUuW2PETMlSqVCnbDxLiey8Frs28efPs9zinnB9m6/kd8kD5/K9pXQ/IReWvE8fFOcBLgN8OD88YPny4hZ9hVHIO+A06VSqcCiFiC4zjIUOGmGcUA13aI9p1QiNpLwjTpz0jhx3tRfhzjucpbQuDXQQEnzOOdhiD34fyDxgwwD6nbaZyNG0b/QNtI+0m/Q19FZ5GiLj0OWXKlLHPaTdp98hBR1uNhxKDcNogtkO4JW0jA3C2Hy5QsD32j2Xbtm22Ldo9vJoI+0yuD6T9R0SmeAvHzvbor+rXr29FSsLDROl/aNNpt0lhwCCb/XjnnXesnQ0XTTlG2lfOY0p9Fh69hLfS9tK+cowcsxcghBA5A+0FbQS2Es8+YtuWLVvsMya/sWdpt7DrElVwe+GFF6y9puo94rGHiTdsUNpPzhn9BPYx0OZj83bq1MnaZSad6H8iBb/PNaUPQgCnzWfMQ5/AtYynlDTxznfffWcifPPmzUPv/A39Kn3yDTfcYJMbv/76q73HmBdbAS9oxp/YOf7acx/Sx1PcjDFveP/v+eSTT8ymYByIzYQNwb1E+8DffIf7mjzGbJv/sWHYF77Ds4E9g/3Eb+BQg51Sp06d0C8csDUYG2JHkAYE+wFPb8Zh6cmd7vcP2wKvbr9/2Dh4fmP74RGfVDRlHPnDDz+4W2+9Ndmiad27d7f2j21ga/EsYyti3/E7jBN9agzsOsa14bYa9h32EbaaH3+yPcafOSke5xQqBCVEDsBglQb9UKIpDSCNOQM9BrUIYnjeIJwxM4xAyICZwSMNMx5INN4YRFTDpAFMyltvvWUDQy+ajhkzxgwRGkM6ERpHXjGsGBwjWAKGEt+jEef3MWIID6UxZlDuRVMMLhpvQqF4n/1kYX06BDrD9CSuvuOOO6yxpqFnHxkAs3DsnCO2h0HM/r733nvuiy++sL/5Dr+Lkcw6dAzMoCNSc3zsD5+zLc4TjSCGITPqdHx0xpxzBte1atWy4+aYmGX0+0GHznbo1DhX3hCnAx89erT9FuuxDp0wx+CNd2Bb5NZKbj06Pr8enTbrIZ4kPacYIN544LjpDHv16mWGJB0p22WATycvhIgtaHNobzG+GUwwkKUNwcDFeMaQp93n+aad89BejRs3ztoh2gHaNPoK2nfaDLZD2wavvfaaDWZon1mXtgVjmHaR7w0cONDaKNpHvs8AhnaFvoF2k/2hTbzuuuusbUfQpK9gO6xP20tbjVeX709o0+h7KGZAW83v0J6y37Sj3hBP2geSb5qJOvo5BjL8BgMIvMj85BrCCf0QAwraYvbFt/f8BsIwgw/fB7LuiBEj7FxzHKzHwncYsCP6+j4LwZXtcjz+XDHJxSBDCBF5vNBAe0BbguDAJBPtFO0B4sYll1xiE07YycmJCokAbRlOExw/tnv4eaANp93FhkRM5bzxN/BKO494hciCoOrb8Ujgf5/+jYkx2l3aZiasEHb4zOdsFdHNu+++a+JicqIpdgPOKpdffrlda/pWxpKMefmM/5kIpr/mecdG4J7FJmC7OPEkJ5reddddZh/QDjBWZhyNDYBdRZvBvYRtgy3FOI51sW+uvfZa6+f5HBsD0RYnnAceeMCeD3KaYmswZiP37tixYw/aPSzYPtgNtDk8X2mBezot+4f9hIMPXtc8j4wPybN54403Jvtb999/vz0riKaMna+//nprN9lHryd4Ww37ENuQZw28rZbc+JPJaCaV+c1Eev6U01SIKIfOgvxLDDzJa4dXzwcffGAzXzR2DAYzAsItgts999xjeYMQcZmBYmBKJxAOjSQDaXJ+8r3kBop4AdGJwZNPPuk+//xz99RTT1lnxqCUz+mI0gOdLLN3Dz30kBVnIs8RHQDbw0AO3x6CI4NrGrW+ffuascy5oyNiv/AK+t///mfHQJEROmUGzHQCGJKcU7bN9xELyHeFocjMJL9HZ/7888+bWPzSSy9ZR0aHgkDhYSaS36Q6KR0b6z744IPW2dGpevx6dHxJ16OT9vjfZub1scces+9RzISOm2PCmKXz9nAO6MjJx0qxg0iGUwkhsg6f/gQv07TC+nyPdo129/HHH7cJo9dff90MbNpgDOBw8DLCAH7zzTdt4qlRo0YmsjKxw7q0o7SbTMpgmNMXMFDAmPfQDtMWYkTT9tOXMJjBY5OBD4a9X2/q1Kn2fTwc7r77bmvT8ILC0wOxIznYx08//dQ8OGjb6K9efPFFG+TjAYrgCQyM+D3aRgTNV1991fpLBg6swwAsHCYNWZeJJt9n8er7LPY1vI9hEMFvIDbTx1BERggROXgeGdzj9YQNxTPq2zjsVmzT//73v+6RRx6xthO7GWEtUeF8YT8iytDOJfW0RfBARGUyLbncrrSFTNxhGzM2yAmwd/Guw0amj6GvYTxAH8R9gAgk4gdsGOwCJjvIRUzf/8Ybb1h/y/NOH5xeGBuSGxdnGsal2BD047QXjBGZdAmHewtxFK9TxoZJBUmeJyZ+sR+wQ7BH2E/uUWwktonIn1YQg7mncXTBBmH/OGb2F3uOyaCsAtuOdpE2EluNMTEe3JxbJtE9CLjYQRwrzo/sH+NPJis4brZDWyzShkRTISIAA1qEPcIS8EDEgGC2l0aOBowZpIxAI88gmG3SIbBdRDyEVGadwsH4ZIbQh+0kByHyGDTMGBLaiKhIaAS59viNb7/91gb16YEBPN6zbIftYbwhSLK9b7755h/GEp/ddNNNJu5i/AHHQYV/Zhw5BjyH+JycpYiidM5+wJ0ciJB0KgiuCJAID5wntoMnFH/jieVBwMaTiWuDcco+0+mxLjN8HtZDJEhtPTpevMl4D8GA3+M4uU6cY8SH8E4LoQAxHQ9UjFwhRGyCVwXtJd6WaYX2EI95vE9pNxEtac9pk4hAoI0Jn+QBQrLwFPXhaYCxjwGN6EqeZ58DkPaKyRvvoeBhMH777bebpwhtM+0Z7Vb79u3t971YyQCeSTcGGXhz4EVKm0a/QV/E95MDzxKEkYsvvvhgigK+w28itPqJQ84Z7TWFRPAm5Xt4aNB30i4mzb9Nn8W+hPdZvNJn8V36rHDRlM/YTx8qJ4SILEyiY9fxnDPhz6Qzzy22MMIpBfKw0xJZKA2H9otJMGx8JuUzghdNEVFyCsRc+iDaavoV+hyuP6IOk2oifkCkQwwn/JzxGjYCfS7/E/Hho1HSA2M2hEjGsdhU2BC8YhdgNzABEw5jLCrUIxAmB5O+OKawT4wNEV+5P7FpiCDluUvqfJQSHB9tGtvy+8exsy0EX7xEswoil7AHsQ85t4zr+R8bMNxpB8citAbWx3ZirEpbcOWVV9r/RN4wISPShkRTISIAhg7J2WnwMQppqPEYomOhEctMyBEzWAyCGSRSUZTGkYEis17h0KDTkGOoHArCCeg0GJhjYGHk8ErDjLs/ofHhA9C0QOcYvj0GqszEsT1mAsO3R1gBn4XPlnMcDKgJz6DxRxTAmGZdvGrxHGI5FHQICKsk0WeAfsUVV9h5YnBP2gI6DTw7PYTzM2OJRyodIDORDOrZJzonD+shTOBhxXp0TnTaSdcjVITrjxjKOeD8+3PANeEchAvRrEvnHX4OhBCxBwIo7Vtyg38mekiL4hefo5P1CV+nryAqAQHBt1cMDng/6eAAUZF2NjzMkUEo3jy0YwiqfB9jHsMar82k3h58jzbKC6+0U2yPNgoYAAH7h1FOW+zbNL7Ld2j3UkrfwnfxdGCgzICGtpgBBREHRAQAr7SrtIH0V35f6CMRh9m/cOiz2Bf6qKR9FgMJxN7wPob+DVGY7ap9FSJy+HQh2MCkmmJCm7aPNE60BUxoYBcioPJ8igPQftGeI8JkVDT1YfnY0kS3hUc3RRLacsY8CDb0bSyMYYjUYkyUU/slshbEQvpZPC6JcmGcxTiM8Rj2Skaeb9+PM37GYQbnGyIOsSGI2GM8HQ6TqbQnhxrz4syErYXthJMKYy7WxX7g/mQfeVbSA/vYr18/SwPA/mF3kXoAj05vQ2UFjB+9cxF2DLYaE+O8IgZ7GH9il/lJE46P73BtsK8Yf8rLO+1INBUiGwgfpAENNx6UeBpiFCDKkZ8IwxGDwXvZpATbTLpdQi/pLOiIGGQyqGSWjJk1OoRwMLhYUoK8LzSs4aIfYMQyy83n6YVBNN8Ph//5HTq58GPiPQyqcDhfyXW0dA68h5dmSuEFfB+Dk06mRo0a5rHEwnlCdMWbKzxEk1BWCpOwj4jEiKaEtdLp08F48JgKX4/wVYQP1guf6eOc0UklPa7wc5r0HHD+NaAXIrbxz3Fykzp8RhvEgmHrw8BoCxATMIjD2ysWJo4YJCStsp9cm434SLvI5I7/HbZBiCSep0wgkfs0HLbBtsKh7WKfwg1rPMXoS5K26ymBJwih8/R9CKAIrni9sl+05X6wzAQSRj/7kjScjn4t6Xsp9Vn8TtI+K7m2WAiR9fAs42HFpAhe5ogJhIfzDNIWYT8RPUQILfYZz/ChBI5EhvPIxH5mPE05t4gktKFEVtGG5xT0iewH0WdEFHD9fb5KxkX0lxJyYoukY1MmLRENESRxfMHDmQiajz76yHKVpyU8P+k2sQtoQwhzZyyIM463IbABkgru3PMpOSTxXCFkJmdr8JzRFqXnOWH/OEaKW2HTpLZ/aYFzkPQ8QHL7TLvKsxX+7GAHcq6S2jyMy7Hhko7BRcqodxIig9AosiDohTc6NFh0EuENFw0wxiEzTohtCJw0bsy8kYPOi2y85xvXpEYDjXtSIRQDg4Exs/XMvJEvlBxzGCNJYdupGaQ0pGwv6YwYDSvHmZ5BsodBa9IZQP7nWNge++VJbh9p8On4MKTCOx3OD+9xvlgOBdujcyA8nxB/cuFwnsKX8LyhdHCIEnT4iNwYd4gaCNThoRqHWo9w0fD1UjqndMjJnQPuK8+hOk0hRHTjizvRzieFz3z7w2SXh+cfY5hqsHjCJ9deEV4eDm1ccu0mg2TaqIcffvhf2+H/8N+F8HYoJWjraNOStuspgWiKl6zfJ3JckzoALzM8Qn0bx3HQX9JeJh2w0K8mfY/2lb7kUH0Wn4eT3LkSQmQNPMc8d+QERChhMpmFFEsIf4TYYgNjCxM6y+RQSvabOHBOCc/HDs6oaAr0OXicEoGQnrY7u+C6s0+ECuPAwH3DvuFIQvqGpBNeImdhXIKNQN8fTnL9LxEqOKPQv1NvguuMgEeEC9Em3M9AX8x22UZ4xJ0fR4eP+ZiA4bvYC0SqkHv0iSeesN8gAiXpOIltp2TT8Dniox+LhYMAyv4kFSZTgu9QyJdoFu7p8P3D7jnUOI79wF5Leg74m21mRGz1MPbl+0lFap4trkfS8adIGVmOQmQQGlMGZOSFo8GlgaOhp2HHWAzv8Gm0GDT6kHLyWxJST3EoKtrhqQg0nHQIeEbSyLFNFowJwjmT5v0hRwohCHgPYUyxLh5LvkNKL2wLIZKCRzTgNPJ0kIi6GLwYXOltYDk2QiDCt4fHJtsjRCC17TFAJ+yAgh+cQ86l71AxxOmgWA4F14lQC84fv8u59OeVfaJTCu/w2S4zdoSK+Y6PEFdm6tgHz6HWY3/D1yPsg2vJ7/tOkXOAUUjYP+fgUIN4zhffxfOM7wohYgdESQaG5GyjXcVIpe3iuWbxbXu4UUx7SD5TQvDxyvR9i283aA9oe1KD6AbaTdKG0G/wXbbB77NN2hR+O72wf3iF0RaHt+scA+3ooQa6/Bah9Hi+4mWKMc+xMIgKH8DzPpN+9Dk+jNSfJ7zUkhaa8n0W64f3MfRhHHdG+iwhRPoIb1ew+SgyglcZEyW0FYSpUoiECR8mmbF19VymDdo0L5pmxkse4YY80tjNXhSKBrDRmzVrZmlksIeJ7CKNA206fSbHL3IeBEaeWcad3o6hfyZSknFs+P1Ef02/jg2CwxCphQjV5/knJ7ofy3Lt2W7ScTT3Jx7R4WMz+nVsCBxWGHcx/uY3KLaLLZFesM3wBqW94ve9jYQdgTcr+8Ezk1b4PilIsPvYPwRJ7CE87TmeQ+Gfa+wd7nd/DjgmbJ6MHJuH8SfnMOn4k2PmOmLLhTvpiJSRaCpEBqEzQOB8++23bYBGw0ajxywpnjzheedo6P/zn/9YrlFyrLEunQbGC40lnQbwSggmBZLIgYIAy4CQToFQfl7DYXYNIZD3aZRpGDFUwwsbpQdCZfCWZLYM8ZUOiVfCKhH5KMxxKIHvUDBoD98enSs5adhvcvWl1mBjRBG+QyVnQuU5x5xbKixzTggxRWQ4FAiqpEYgjQHHQd4kRAeMe84T26VioocK1F26dLH9ZT06PTzF6MzICeXht5Nbj9fw9Zo0aWIGLzOkfM454Dr169fPRBG8XBFfk4N1fWVqhPhwcUUIEd3QltM+0UaQR5T2C0OVwQEGLH0A7Xy4EEh7SJ43PLVoM2jnfHvFdmirqBibGgiPtJvkcqbYHH2UL0ZAeByTdvx2emHQhADC4IC2iTaUdop+g33jt5KDAQoGPL/tJ83o/1566aV/HD9tJ3m58dinv8S4pw+k/SP9CaFv4dBnsS++j6H95ZW2nr6WPkvijBDZC23Z6NGjrTjpnXfeac8rHmavvPKKVXjGWYAJZZF+EDoQphCYMuNpyvnH449xBoIkfUo0wQQYkVsUBMNG7tixo1UCx/YWOQ/Xh2vBRAhjGsQ4+mdSklGdHqHPQ9/Oc0/UHTYH6zJ2o29GiPRh80zu8j/V3xkbMjZmfId3+rPPPmt2hYdxEjYETikUsmQyhvEc9lB4Ucu0wrPE/cZvYbdgl2AjYdMwtsNuIJVRWmH/eL4Yj3P/0ibyNxX0sVEOBTYP55axO2NExvI879h+OOJwjjMKhZixn7p162ZCMNeBc0eEK7YUtpy/FiJ1DgtumjRN4aTFs0GIRIKOgEEns2bMqjHrRqOJNymzuYhxdP4kqaaD+eqrr2zgSmPIgNnPLuF5Q5gSuV/oMDA2EU3pOOiEECmZUcNjBgMCr0lmYoFBJSItoiwNPANuwp1obGvXrn2wuAi/0b59ewv3DIe8duwLHQTQCfnwcga1zEhxTHRsVPgnrCpcEEwNbyjjWcTAGLEAqMpM+CnbQ9Rk3wmdp7OgQw6HThrBFgGBjpEBOnBOCPWisAnb5386XfIA4tnF9oFzSEfIuWPWjuvGNjlXXCs6K46NCorA9cT7id/iejDYx8hEmKUD5Vz69egQ6dSTrsdvc/6BDov9YUDBfcA5xcuCc8o6VILknHIOCFnldxnwAyIps5R8l3NAHjBm5DlutiGEiF7oExgo0KYzaUPbTxtHm+TbC9ognn8ETvoBvkN7RZgigwPaF9o82iv6C4xyPC2YcAI8N/BoeO+99+x/D20c/cLgwYNtgEw7RHtCv0Obi4cFbQltJ79Dm0W7lzRkHwilZX8RYIH9o99BAPUiMPtAH4VQgmcJx0FbzGQhfSADCPor2jK+T7+GVylhfAiezz33nHmjsI/sK+9h5DOw930r22eAQzvo+zb6LNr2cePG/avP4pgIEfR9VtL+TgiRMXgmsXuxuRAuEBxo17B9eU5pp3i2yTuvQXnmYCKItou2lYKyvjhfRkC8wcamjcT2TC6VV07CPcTxIuwgvLG/tOWIW0rlkLNgR9B/Y5vw7APPNteH8QtjXsaO2DJEodAv80p/TntBf+/HPYh59MuMC7GNGPNiszBBwNiGcSPtCEIihSNJO4fdgA2BDUC/jw3BRALPA04oFF9iXQRLbA9SqiUVPRs0aGC2E0U2sTXYDuMtBES2z/3Hs8G9xoQsY8O0TvZg27F/TI5j73BO2D+2Ra5TJpOISOQ8Eh2K2My4k3EhNhjnAFHTnwNEXcanFBrGhmJ8yDiQY0P0xM5KCt78rMP5AM49thrnDPvTjz9x+GIsi9MObXR6naFimcxM3h0R3PDPhP5OES6EEOJv6ABo9BnIMvBFCMRgxC2fwS+eqHga0aDTSPE5HQwNoV+XMCWS4ft1aKz5HgIgDzbbRyAjqTbrIazyHQa8wOcMvNkHtolXJp0CA2ESUPv1gIE2jXdS2LZfz/8ujSiDYDo48q8iftLAptdY69q1q3Wg5BNl2+wv+0hHRKfB9uhYPPwW+x4O54Tj47ywT+wb54TzTKfBvvO+h785V75h9KIz3+c6cb7YD4x6vksHRGVBvw2+xzr8z3qcM++1xb55o431WCe59RBO/XrcJ/5asi7nlJAI7g0WZlnDzwHXmP0B9p37hQUjBUEVEYWOj/c4LiFEdMJzTdtFO4dQyTNL+0VbRHuBQUwb5NsWDGy+Q5uBUevbDL5Lm0f7iGCIsMl2PWyDz8Kh3eT3aOfYHm0fv8tv8lu06XxGn+T3k76Dti85+A36CmA/2SeW8HadNp22i9/10L5y/H4gQrvIvvA36zJooC/kHPAebR7HzHliX2g7+T7Hx0CLVyYO2R/g99ke+8L64X2W72PCCe/vhBDpA9uDiSAmWBiM4xnFQJ82APuH5x1bk7aFdgC7VmQObD88xTivRC5kRjikref7pE+gzaY/iCbBhH2hTyKKjvuH+42JOcR5hDf6KfoHEXk49/SzvHJt6FsZr2CTIIQylsGGoM/mGtImcK/xHa4n9xvjUr8O1xpbAlvH9/X033iT+nE0v8HY0zuK8D/bps/nb8Za2BAIrOwD6wF2AYIp6yWFfWA9fp/fZf/4bY6J/cR+4LexMziGtMLEtt8/toc9g63FZIffP9pFYP+Y1OW3D3UOsI/YD84r7Srv8fyyvv9ucnBN/GRIesefiQDRDxlFnqZCiGyDgStFP0iELTIOs594XDFIYVaWTpCOn06dTpjOOtE6PiGEEEJkL3hk4e2OpxKCKd5/pL4gGgr7g8kJxDwEg2gS4OIBbD+8xYioIhrrkksuydQ59tvDc5XUJemNHos0eOERbYUXHsIS9xqThog9TMQJIUR6YPycUSSaCiHSDaEHhDkeCowZDBw8SiWaZi14dhDWQaoHZnhbtWplXsbMPmrAIoQQQojMgpcfXo5M2BLySdonUhLhvUU0Dx5UeInLmzT7IGSZ1AdPPfWUCZ3kyM8s2O6vv/66ecThjYcHXDTDfUjqFVLQINpj95JawAunchgQ2QmTRtx/eDofCjw6D+X5KaILiaZCiIjCDDV5+g4FIRPkk8GwlmiatWBA4ilAeBx5VcnDQ75aQi0IaRVCCCGEyAwUbUEoJbckXqaE1RI9RHgnAgGimwTT7AX7Dk9L8i5SII+w3MyCtynXlRB9QoCpWh/NIFaR5xEdgtyMFJfF85kaDaQrU5oqkZ0wYUR+U19PIznIk0oxLBH9SDQVIgbBEGAGC6Mz1mZKKbqRUuVNcsMwg02hLHLHkDdJZB0YvRjTJBQngTjJ1skXRP4bwvblcSqEEEKItIIw5cOhKe7E5CziKDny8CjFliOqhdx7pAQS2Q8eboiEVPS+8sorLa9pZmHsQQEcvE2x1SnWF80h+h72m/NBoR88nineg4hPbQPuUdm9IjsgZzMFrhivHwq8nvGAFtGPRFMhYgyeJ2av6PTJKURyZoWYiPRCmBUVsunQecXzgwTgvhCWvECEEFkBfdXcuXNdu3btQu8IIWIdhCiqlTMBy+TrmjVr3K5du0wU9cVFKZ6GKCChNPJwPUjHRJg+EV6+SGhmQSDHMw7xFNExKzxYIwUef4yf8DolXJ/iPYjJiFbhBRKFSC9MFPXs2dOqyvuiTSK+yIxoqmkZISIIBioz+cySDhs2zAaiGKy8L0R6oTIlAxo8EJhxx7DGkBw+fLiJqPwvhBCZZebMma5Xr16h/4QQscz+/futkBMejHgyYjcQtbJ69WoToQg3ZYIEQY2qzRJMcwZyyv7yyy+Weom8iVkFXpkU7yIXPuORWBqDUAWc6uo33XSTHQPC6ciRI815gHOVkkegECmBaPruu+/aZIUQSZFoKkSEYGaXkGo69v79+7tly5ZZTh4MVIWViMzA7Do5dzp06GD5ZLt27eq+//57u8cYHAkhhBAicUEYwx7ADsU2QGj66KOPTCRAbGrWrJkVHCJcGzGKMHyRsxBNRD5Zim8hcGYlRCVxjSkuygQ7Y5RYgTET+37ttde6tm3b2r5j944YMcImAzhvckYRQmQlUmqEiADkoCSk5MMPP3SDBw+2kKcnnnjCXgmpFiIrIOfYVVdd5R599FEr1NWxY0cbGHH/CSGEECLxQEAiqmn8+PHupZdeMvsTgYkIFcK0H374YUvrgzgnogc8TRFNs9rTFMhjetppp1kF+tmzZ9tvxSIUg7r55pst4qpv377unXfesby8FE0VQoisQqKpENkMYikhUMzgM8PftGlT17x5c3f66afHZBEoEb0QQsegh/xOGJEU4CJUH/EUw1thS0IIIURigAchnoSffPKJe+SRR9ygQYNcgQIFzEPvzjvvdE2aNHHFixe3gk94MirqKbrAYzI7wvOBa03qBYp8MblOwZtYhDRVjKcaNGjg7rnnHitu9eWXX7revXu7devWhdYSQojMod5RiGwEoerHH380QxVBi4ryLBipKtIjsgMMYRJd16hRwzVq1MiVKVPG8pv26NHDxPudO3eG1hRCCCFEPIHQRogyeUq7d+/uvv32WxOPEJZq1arlzj//fNewYUMrnEOBJ0QnTd5HH1xHX/OAUHQ8QrMait0Q8TZp0iRz6ojVqCTODZMBFLS64IILTAxetGiReZ7idcp5FEKIzCDRVIhsACOHhPrjxo2zcCg67FatWpmIheEqA1VkN6R9qFatmlVc5XXBggVW8GHq1KnmuaB8T0IIIUR8sGPHDrdkyRI3ceJEKzTKhD1h14QpV61a1d1www0Wwow9gGepiG7wEsb7k+gh7Lns8ALOmzeveZryO6tWrYpZb1NgXMV5Ovvssy2ajyKpCKffffedmzJlijmxKFWVECKjSDQVIgtBiMJA3bx5s+UuZYafTvy///2vdeRUfRQikuBJcsUVV7jbb7/dPE6/+OILN2bMGLdt2zYZkEIIIUQMgr1Jyh1SQG3ZssXNmjXLwpLJnc8rOSvvuOMOy1fK5Cn5K1UFP3bgurJw3bIrMo3t5suXzyKT5s6da8JiPEBqqtatW9tEAUXPPv30U5tE2LRpk3KdCiEyhERTIbIQDFhm+p9++mmb7aei+S233GIFeoTIKQi/oxouOc1Imj9kyBD31ltvKc+pEEIIEYPQd+Md2K9fP5sUpQAOItuNN97ounTp4q6//np35plnqthojLJr1y7zHs5O0RTwOiZdA6I7aR3iheOPP948rF955RVXp04dN3DgQPf++++b96kQQqQXiaZCZBF47hES1blzZ3fCCSe4du3aWTVSZnE1uy9yEsKWEE7xOr3ooovcZZddZrPtVNGdMGGC8pwKIYQQUc5ff/1lXqXYmq+//rpNfjJRTx5HIpqwO2vWrOny589vdii5HpUOKjYhVB7hNLtFU+4TxEV+b+3atZbbNB7w4fqMwS6++GLzPGUs1qlTJ/PE3rp1q9JUCSHSjERTIbIAZvvJm0MydapcIkwxs1mwYEEJpiJqYABF/qq6detaMQiqjI4YMcKNHj3a8pwKIYQQIrpgYnPevHnu66+/tkr42JoIqOXLl7fiolTBpwhO2bJlzQaVUBr7IGKyMI7ITtGUbZPKgQK12IGkcYonyAVLYSjs3vPOO8+cB4gEJFUVKQnIHSuEEKkh0VSITEBnu3jxYhOeZsyYYSIUXnwNGjSwv2W4imiDexIvFMKxrrrqKnsPA5I8p2vWrLGBmBBCCCFyBp8fnxQ6hE3TP1PIkciQ5cuXm8jVrFkzd91119kropDC8OMLUi3gaZrdoing3IH4jhczRUPj0Q7kmUE4xeMU4ZTnyo/dOG4hhEgJiaZCZAAMWgRTjNc+ffqYlym5IjFgeRUi2mGAVaVKFdehQwerzjpgwAArXkYRM+U5FUIIISILYtWvv/5quSyJYKJ4zUcffWTepeRiZLKTHI233XabFe/JnTt36Jsi3ggvBJXdEWtsn2K1+/fvt8JJ8ep9SbRViRIl3L333usuueQSN3/+fNejRw/z3MabW7avEOJQSDQVIgNg1I4bN87973//M0/Tu+++2zxM8+bNG1pDiNgAg5yCES1btjRPFu5pjGZ5nAohhBCRg3DsKVOmWD9McScmMsk3+dRTT7nnn3/ewvARSgk5FvFNpHKaAhFIFIQiRB8P559++in0SXzC8ZKi6r777rOUFkxK8MwRbSXhVAiRHOp1hUgnhEv17t3bKpBjYNx5553mXXriiScqf6mIObhnEfvJh4Z4iqHevXt3N2rUKLd3797QWkIIIYTIavDqw4u0Z8+e7tlnn7W8pVT+vummm0w4JUd+mTJlTNQ67rjjJJgmAHh84pyBfRYpkZzfYCxDFBKel/HOsccea2O4Sy+91F199dVWGIrq+oTs87cQQoSjnleINIIRs3DhQkseTrVSOlsqllavXt0EUxmyIlbBi6FAgQImnF544YVmqI8dO9Yq9FJJVRVGhRBCiKyBSI5169ZZP0uKp759+1oBHvKNn3XWWRaG37hxYwvBL1KkiImoInEgPQMen1S2xz6LVH0ExHnSNTHG2bRpk/vzzz9Dn8QnXjilDgXjOcZy48ePdwMHDnQ///xzaC0hhJBoKkSqIBghHFFlkVApcuCUKlXKZv8xbiWWiniA+xiDkaISDNYQTjEe8TiloioGvBBCCCHSD0Ip4dakv6GgE+lwKPA0e/Zsi/CgEn6bNm2sQGPNmjWtCr7sy8Rk27ZtJlhyD0SSfPnyWToAmDlzpjmLxDs8Y0RbYfu2aNHChGrSE+A0wDkg16nSVQkh1BsLkQIIphizdJx4mBK2ccUVV7jLL7/ckokLEY9QRfXKK6+0qq0UoWBgR1oK5XoSQggh0g7iF6luNm7caJPv/fv3d2+88YZNwhNuf+2117qXXnrJ7MqiRYu6o48+OvRNkajgqIFQF+k6CQiIJUuWtDyfQ4cONZE/UcCbt1KlSlYctX79+pZb+L333rNJDa5HvHvdCiFSRqKpEClArqkvv/zSqisiGL311luudu3aNhMpRDyD4YxwSl61bt26HUxLIYQQQojUQWghUoM8pU888YR7+eWXTTy99dZbrQo+Ak3FihUtskMIj/c0PfXUU0PvRA6Ee8L0SR1Bbs9EmyzPkyePeZ0+8sgj7owzznBvvvmmpc+gSJQQInGRaCpEMvz2229u1apVVk2RWUbylt5www2W+4bcUgqZEvEOebTwNMXrlGIUq1evdoMGDYr7qqpCCCFEZiAfJBEaTLQ/88wzltapVq1a7o477rCCi0y+Fy5c2Cbg5VkqkoJYSaQb4fKRJleuXK5QoUImns6bN8/u5USC8R3nAMeBtm3bmgf40qVLrcI+KTUQs5XnX4jEQ8qPEEkgfw3h+J9++qkZLlWqVHHnn3++q1ChglWVjFRCdiFymqOOOsoKRFGUom7duvZsfP/9927ixInKcSqEEEIEIKKQ/5HiMd98843r3bu3iaZUQMeTlP4TO5JJSHKXkquSiUkhkgNP05wIzwe8nvld7lkmydevXx/6JLEgdUbp0qVdo0aN3DnnnGPnhRz/3usU5xohROIg0VSIMJhRnTZtms0mkqzfVxMnv4+8S0Uiwn2PNwzhSlWrVrVn5LvvvjPPmT179oTWEkIIIRILJg/pE8lViqCC7UgBRSrh586d24TSW265xQqHnnnmmSbECJEaOVUIykNRUAR+7mMEwkQoCHUoTj/9dBsHNmnSxKrt85wPHz7cJkgSKeerEImOVCAhAvASwItu3LhxlnuKUIyHH37YNW3a1DzthEh0CFfCcKS66Lp168yTZtGiRQltTAshhEgssBfxMsNmJG0NduNnn33m3n77bTdnzhxXp04dd//997v77rvPPNRI6aQIJZFWuL984aGTTz459G5kwd7DI5poI0RT8vImMkx2nH322e62224zMXngwIHuq6++svQFOA8oXF+I+EeiqUh4CIGh0/vggw+sIyRv6eOPP+5KlSpl4fhCiAMwy16zZk139913W8hW165dbcDIMySEEELEO7t37zbP0vfff9/dc889NtFO/sNXX33VvfDCC+ZVetppp4XWFiLtIL7t3bvX0jogWOZk0VnSR5x33nkHPamFMxG7VatW7rHHHjOHgY8++sj16dPHPM4lnAoR30g0FQkNYin5S0nUv3nzZvMsxZOOBP0YLPIOEOJveB6YcWeAyIw7BiShSuQ5lXAqhBAiHsHrb/Hixe7zzz93L730kvv4448tx2G7du2sUOLFF19sFcepdk4fqWr4IiMgvCFSUhwMwTQn04Lx2+Q1JQSdqCKE3ETHF4mixgXPPinc8C5/+umnbSyplFVCxC8STUXCgmEyduxY8y5FDCLkgqVEiRImmAoh/g3PCuGGNWrUcBdccIEZ9hMmTHDffvuteeBIPBVCCBHr/PHHH2YnUviQ8HvCcRFOTzrpJIu4aNCggRWJoSo+lcYVhi8yC6IpDhxE9eTJkyf0bs6AQFikSBGbCCAVBWnLxAG8cErO4tq1a9ukCgXgyGlMOgMhRPwh0VQkHBgldGqEFbMwi4p3KUm+CxUqJKNXiFTgGWFiAS8EJhrwihgyZIgNLn3VVyGEECKWwD7ct2+fW7lypZsyZYqJIKNHj3ZTp0414Yhq2oTntm/f3nKXUmVcXqUiq8B2QqjHW5liTDkN4i3iIKH6PA/ib3jucbK59NJLbcHLFAcC2ouFCxfapItC9oWIHySaioSCTmzr1q1W/bt///4m/Nxxxx0m/jBzKIRIO3gikBz/iiuusMFjly5d3IwZM2wiQsaiEEKIWABPMcRSvPyoik3kBHnuCcfns1tvvdXyGLZp08aq4Odk2LSIX7CbNm7caKJpTnuaeipVqmTjo+nTpyt3ZzLkzp3bnAceeOABlz9/fnMg6NmzpxWJIz+tnAiEiA/U64uEAcF0yZIl7tlnn7WwfCqB33LLLRZ+IoTIGAwe8b7p0KGDq1ixouvRo4cbPHiwquoLIYSICdatW2f9FrkJqXpPKHLr1q3dO++84+666y7zttPEushuENgQTaMhPN/DGKlgwYI2GT5//nzlNj0E+fLlczfddJN5oZOq6r///a95nRJ9JYSIfSSaioRg+/btbtiwYa5z584WWnzNNde4hg0b2qwgYSdCiIyDxzZGddu2bU04JSE+ntwY1/JKEEIIEU0gTiFsjB8/3r399tu2TJ482cTRhx9+2IQPIpAQjBCvSEGj1E0iu8FeWr9+vdlUOVk5PxzGSIShUwCUcRTPjfg3hOvTVpx11lnu6quvdpdccokbNGiQeZ1iE8vjVIjYRqKpiGswQPAgIByfXDN0aHRkhBQj8kgwFSJrwMgnbLFp06butNNOc7Nnz7bnDo9TCadCCCFyGvojijl9//337pNPPnEjR440D7pixYpZJWwKu5x33nkWkoznmGxEEUkQ1jZs2BBVnqZAobMyZcpYHQhSnJGyQvwbJlZOPvlkV7lyZXfRRRe56tWrW8qPoUOH2kJbo3MnRGwi0VTELXi5LVu2zI0YMcKS+FPZ9LLLLrOCTxgj8hoQIuupUqWKVRWmwjC5nchxSgENCadCCCEiDXkYEXoILf7xxx9NKMXDdMGCBZY7kv6KKInmzZu7cuXKuWOOOUb2oYg42Ei+7gLjlWgSTclZz8QCxY5WrFhhNp04NLQhnK8rr7zS1ahRw84X7Q6F5VatWmX5k4UQsYVEUxF3YHggmNKxf/nllxYmTMjw9ddf76pVqxZaSwiRXVStWtVyBpMD7rPPPrPBqnKcCiGEiBS//fabeXatWbPGTZo0yfqid9991wraYBM++eSTlr8U0RSvUiFyEjwQKRyErYSYj3AaLeBxXaBAAXfOOeeYE8ratWtDn4iUQPimsj4p4UgHRxoQIrCWL1+uKCwhYgyJpiLuwKtg4sSJ7v333zfj+O6773YtWrSwcHwhRPZDcSg8dm677TYzCpm4mDZtWuhTIYQQIvtAgJozZ47r1KmTe/TRR93HH39sNuBTTz3lnn/+ebMJEYFUBV9EC4xdNm3a5E499VQTTaMN9ouQc2y5lStXKkdnGqGNIXUVjju0P6SKo10aNWqUeRYLIWIDWQsibkCc2bJli+vTp48l32ZWDy8CvN4IFSZJtxAiMlA4gyIaVNXHaCQ0idBIIYQQIqtBdELM+frrr00o7d69u4XBksf+wQcfNKG0fPny5lWKF59sQhFNECFH5fxoFU3Zp1KlStnYCu9tnjWRNsj5z3UlVB9ngjPOOMNC9T/44AMr/EXbJYSIbiSairgAY4NwBwTTn3/+2cSaCy64wNWqVUuCqRA5BHmdSInRqFEj8/xBOKWKqGbXhRBCZBa83bZv324hw9h/LHPnzrXK4z6/NsWdKP5JBfDcuXPLu1REJaSToAgUhYQoBBVt+OrwjKsQ+ki7JNIO5+/EE0+084dNTGEtziMF6UgfQi5bIUT0IstBxDwk2J43b57liZk1a5YrXry4u/jii13t2rVlHAuRg1BMgxl2Bq7MsO/evdue06VLlyoRvhBCiAxB7sfVq1dbqPDw4cMt1JW/CW+mAMtVV11lxZ3q16/vTj/9dNmCIurB+cOLptHoaQoIf3Xr1jX7bdGiRWbTifRBFBYRkIxTa9asafYwDgWklaNNU3V9IaITWREiZiEcH8OZvFUUfCIkv1WrVu6KK66w/DFCiOgAI7Fx48auSZMm5mk6cOBAC++Sx6kQQoi0gFcpYs22bdvcwoUL3ZAhQ9yHH37oOnbsaOJN69at3dNPP+2uu+46V7p06agVnoRIDkTTX375JWrD84HJh7Jly5qwywTF4sWLQ5+I9MJkDkWiHnvsMfOWJ60ITgU+XF9FooSILiSaipgFA2PAgAGWt4oKqW+++abNgBL+IISILhgE4P19++23m2cQ+ZyYVRdCCCFSAsF0x44d1m9Q9f65555zM2bMcM2aNbPwVvLX47VF+L0QsQjh+eQ0PeWUU6Je8CdyiLzAylOfOXAowDMe4ZQ0IhQvfvbZZ82Ll+r6QojoQaKpiDmYgSOEhQTa5LGqUKGCu/HGG827NFeuXArDEiIKIVSfPHOVK1d2//nPfyzv3IgRI8yzQgghhEjKnj17LOz+o48+ck888YQbM2aMeZFi89GPNGzY0BUuXNgmy8mhTT8jRCziPU0RTaMxp2k4FStWtP3Ejtu8ebNCyjMI7dWRRx5p3sWIpldeeaXlXn799dctglLFtoSIHqQuiZgCj9LZs2e7Tz/91IRTOm4SaiPEyGAWIrohHxaF2c477zyb7FixYoV5DpFmQ6FIQggh8LBCLCD8Hltv2LBhViQFjywKOmHzkSebQk8FCxY00UG2n4hlsH8QTREgozk835M3b14ruMu4a/LkyWbDiYyDs89pp51mRaJIY4V9jCD97bffWpEo1QAQIueRaCpiBowJwrEQWRYsWGChWIRm0bmoOr4QsQHGIfmwLrzwQjO88RZnYcAg4VQIIRIP2n5ylf78889u3LhxlsKF0F+KfCKI1qlTx7Vv3961bNnSbD6qeAsRLxBBh/BIGgoicgjbjmaYqChZsqR5fTO5QUFe2W+Zh3atWrVq7uabbzaP02XLltmYd8KECTYGVh0AIXIOiaYi6sGIwMOU2bb+/ftbAYC77rrLXXLJJZZIWwgRe+A1RGVjvCq6du3q1q5dawMHIYQQ8Q8iC20+9h2RQ0ye9erVywo7IZoiyDz00EPu/vvvt0KCTLLJo1TEIxQy4znInz+/CZKxQNGiRV25cuXsuaUolOy3rAEnIBwLEE6bN29uRaJITzJ+/HhrJ8l9K4SIPBJNRVSDYEpOK0QV8rsQikXC7EqVKkV9zh8hRMrwHDMYpqAAYZjK3ySEEIkBg/+lS5daMU8Ego8//tj6AibF33vvPauGTwjwUUcdFfqGEPEJoikLY5xYiZzjWeX5LF++vOUdXrduXegTkRVwH+BhT+5mquy/8847NqFE2D5jYyFEZJFoKqIWcrjMmTPHvfTSSxaiQB6ryy+/3DppQlfkcSBEbMNzXLZsWRsck9907Nixbvny5aFPhRBCxBOEl1LsZtCgQe6VV14xcZSK4fQBd955p71WrVrV5cuXzwp7Kl+pSAS8pyl5LWPF05TnEu/vpk2bmmi6evXq0CciqyBnLGNexr8PP/ywiaW9e/d2ffr0cVu2bAmtJYSIBBJNRVRC0n9yuJAEG/G0Xr16lvifCvnRnutHCJF2qHpMDieqIM+fP9/ScJC7SQghRHyATffTTz+5r776yn322Wdu5syZ5kFKtAG23QUXXGBFnrDx6BMklIpEwoumvrBZrEAOTooXERG4atUqCXnZAGNeUtFRQJV2knsEb1OEU2xmFYkSIjJINBVRBTmu8EJAMKUIAIY2BWNYzjjjDCsiI4SIH3imqahPgQ/yOGEMqjCUEELELrTdhN+Tq3r69Olu9OjRbtSoUW7KlCluzZo1JgIQcnrddde5888/3zzsNCEuEhVER4TTWPI0BZ7ZwoULW1EonvUlS5aEPhFZCZNIeJ3iXEC7ST7Z2bNnu++//94KJONooJB9IbIXKVAiaiBsi+qpVArEG+HPP/+0PFeEflBNUggRnyCcUhDqiiuuMCN88ODB5rWgSqFCCBE7MHDfv3+/2XKkWqGgEyH4PXv2tCImF110kXvttdfcDTfcYF6m5EUUItFBNGWJNdEUsN+Y+OCZnzdvno3dRPZRpkwZ16ZNG9e2bVs3ceJE16NHD3M0wslINrMQ2YdEUxEV0MlSBObtt992AwYMsHCtDh06uFKlSoXWEELEO3grEIKE5+kbb7xhoV4ywIUQIjbYsWOHRQmRr5QcpVR8ptjf888/7x599FFXt25dd9xxxylqSIgwwsPzY6UQlIf9rVGjhnlDUn9i/fr1oU9EdoEjUe3atW3MTEoTCiV/+OGH5mwghMgeZLWIHIfZ1TFjxliFfIyGa665xpJeM+OqqqlCJA54WFSuXNlyGBPe2bdvXwvlFEIIEZ1gtxEqSvX7Z5991g0dOtTEn9tuu80W7DkmxJgMO/bYY5WvVIgkMA6KxZymHiZC8BwnUmjy5Mmhd0V2waQTbSlpTlq1auWaN29u6VCosP/dd9/Z5JUQImuRaCpyDJ+/lJwseCbQ2TZr1syde+65rlChQhJMhUhAGFhTPZlwLwqHUDBk06ZNoU+FEELkNITh49VEOqXPP//cIoSw57DdKAxD+41YSpE/JsAZ4Ash/g2CKcV8EEtz5coVk17YTIRUqVLF5c6d20RTjkc5NrMXzjlevsWLF7dxc/369V2+fPncyJEj3TfffOMWLFhgtQGEEFmDRFORI9CQr1692o0YMcJysWAsIJiyUAxGoVtCJC758+e3ATcFBigiQp6s33//PfSpEEKISEOqFDyYFi9e7MaOHWuDcya8qeDMZ4ToEimE5xMTX1TWllepEClDLlByUcb62KdYsWIm2jHJvXTpUvN8FJEBmxnRtHXr1uZ4gN3MhBZOB/I6FSJrkDIlIg4dKSG3gwYNsvDbEiVKuHbt2rk6deqE1hBCJDIMHBhAtG/f3vJj4bmwcePG0KdCCCEiARFBCDrkXMSTFO//fv36uRdffNGq4eNFSv75Z555xoo8xWIhGyFyku3bt9srgmMsQ1E38msinpKig3QDInLgzU+RqEceecQ8T2mre/XqZa9cC9UHECJzSDQVEYVwDWbAPvroI+tUb7/9dpsZK1KkSGgNIYQ4kN+0aNGi5nHKoIKK+kIIISIHgilh+L1793YPP/yw5czDjnv88cdNOMWzVAU7hcg4VD1H0Dr11FND78QuOMGULVvWDRw40I5LIfqRBc9+bOeLL77YCvGRLoU2+5NPPnEbNmywSTAhRMaQaCoiAg01M11U+CPXCknD7733Xst9haEgzwQhRFJoFwg5Ikx/4cKFbty4cQr5EkKIbGbdunVuyJAh7rXXXnMvvfSSW7t2reUpZSB+1VVXHcxVSg5D5Z8XIuMQPs0YKW/evKF3YhcihPA2JVwcD0e800Xkweu3dOnSViCqTZs2bsmSJe7999+36ACiBoQQ6Ueiqch2fDg+IV3kVyEEpUmTJq5u3brulFNOkWAqhDgkDMyrV69ubQXFRsiXhfeTEEKIrAHRhoI0s2bNMlutT58+lhbFF3gh3BOv/3r16tlgnHylFCERQmQOcprikRkPnqYU9KWi+3nnneemTZtmXurybswZEE6JAmCyq3Hjxja5NXr0aPMCXrFiha6LEOlEoqnIVpjRWrRokVXInzJligkgvkI+DbiKBAghUoI2okKFCubZRPE4BvIMMoQQQmQOinKSN5oJbbyQKO40ceJE8yzFW+zCCy+0nKUIpqRLOeaYY0LfFEJkBfEkmgLepoimeJkizqkQUc7BxBbtOB6ntOWI2lOnTnXDhw+3AquM0SWeCpE2JJqKbGPfvn3u559/Nu8wvBZosAkTqFixYmgNIYRInRNOOMFVqlTJDHFSfBBqpGr6QgiRfhBoEEsRM5YvX25Vljt37uzeffddm5hiYpv8pbfddptNViGUaoJbiOzBi6bxEJ4PFCQiRP+MM86w9oXUSiLnodjyLbfcYpFbiKZdunRx8+fPdzt37lSRKCHSgERTkS3QAJMPq2vXrhae8cYbb1iIQLzMpAohIgte6k2bNrUB/IQJE2SICyFEBqCw3qRJk9wrr7zi7r//fgvZrFGjhnv77bfdk08+6Ro0aBA3Ao4Q0Q6iabwUgvLg4XjJJZe4LVu2mBe7iA5o1y+77DKbFCPa8/XXX3dff/21pb0SQqSMRFORpZBrcPPmzVYdf8yYMVZJ8eabb7ZqihQMOPxw3XJCiPRD7uMCBQq4a6+91rwXGPQrTF8IIVIHUWbu3Lnu008/NbH0iy++MJHmpptucrfeequ74IILzDuM0Fo8xWSrCZG9EBbti0DxzBE6HS/4tErkPqaonCa5owPEbCK3GJO3b9/eogrmzJnjOnXqZM4ICtUX4tDIKhJZxt69e92CBQtct27d3LJly1yZMmWs4BPhXSSklhEuhMgMeJnWrFnTJmNWrlxpRh5hbUIIIf4JRTjJTYon6ccff+wGDRpkRTnJcXf22WdbuhMigAjXLFy4sPKVChFBsF02btxoHn/x5lSCaHriiSceTMc2btw4exU5D9cmV65crnz58lYgqnbt2iaWEh361VdfWY5rFVsV4t9IxRJZAh5fVF0dMWKEmz17tlVbJTSjatWqqo4vhMgSGFQwS85A34fpIwIoH5MQQhwQYijusXTpUmsfscnGjh1rlawRUbHNWrdu7dq1a2di6UknnaQJbSFyAIQqiiXhZYrAGI+cddZZFhL+008/HUxDIKIHivtdfPHFVuiPvoP+ghzXFHDes2dPaC0hBMhSEpmCTp+GdcaMGTZDxSuVVq+44gpXpEiR0FpCCJF1MBlD6Bdtz7Bhw9z+/ftDnwghROKBZxDtIZ5rTFxTMO+DDz5wgwcPNmH0oYcecg8++KDls2OgLITIWRCpyCVJJB7PaDxSrFgxKwhFJOL06dOtQLCILvByrlevnrvzzjvNM7h///6W55TIUa6bQvaFOIBEU5FhaEipwNq7d2/XvXt38wB75JFHrKDAcccdF1pLCCGyHsJLSf2BgUexAYUTCSESlRUrVlie0kcffdQ9/vjj5m1KpeQ333zTcteVLFnSPNqEENEBYyhqQDBeYvwUr5QqVcpVrlzZ9enTx4rQieiDkH08gm+44QZ39913m039/vvvm339+++/SzgVIkCiqcgQiKU///yzGeSE5VNtlZAvDHPCZmmAhRAiu6CICcns8ZoaOnSohbkJIUQi4ItuDh8+3L344os2wF2yZIl5DD3xxBMWfk/+59NPP908iUiTJLtMiOjB5zSN5/B8wNMU0XTVqlU2ucOEjog+KBJFX0Ek1zXXXGOOCZMnT3YvvPCCmzdvnryERcIj0VSkG6o9Tpw40WagMNrr1KljBQUo/CRPBiFEJKB4AoJp/fr1rcgAFfUVpi+EiGd27dplVfAHDBjgPvvsM7PFEF+wvxBMyffcsGFDm1CiEj4DYSFE9IH33oYNG2zcRJX5eIWiQwinpUuXthB9qumL6IV7EZGbvqRWrVqW9oVw/VGjRlmRKCESFYmmIs3QwZN/h5mnMWPGWOOJh2nz5s1d8eLFZZwLISIK3qZU/sTrCs93GeNCiHiDAk6IK0T1MHAdOXKk2WF4bdEGXnjhha5t27auWbNmssWEiBG8pynRefEcno+HO+0U7RP5lilSR7SiiF5wSiCtAuN7rhtpFXBO+PHHHy2iAZtbIfsi0ZBoKtIEFQ/xMKXR7Nu3ryWHJvdJixYt4rqzF0JELxh2+fPnN9Fg4cKFZpArt6kQItZhQIqwgN2FOMpgtVOnTq5jx44mOuBV+uyzz7rbb7/d8sjHayEZIeIRnm/GVeSORDQlLDqeoX3CA55ooGXLltkkkIh+GN83adLE3XPPPXYNv/32W9MA1qxZY+H6CP9CJAoSTUWq0CiuXbvWdenSxQo+kSeLCvmVKlUKrSGEEDkDRRQuueQSExjmz59vxpwQQsQqCCoU3yD0/o033nCPPfaYheOTa+61115zTz31lA1kCb9XnlIhYg8md/HeO/zww616/tFHHx36JD6hnSINwQUXXGBp3ZjgFrFDoUKF3E033WS5TqkfcNddd5kT1c6dO0NrCBH/SDQVKcKs4IQJE9wnn3xis4M0mE2bNnWFCxeO+05eCBH9MOggBxOeV8x8jx49OvSJEELEDrRfCxYssMnpBx54wA0cONA8fa666iqraIxHPSGTp5xyik0W0fYJIWIPUm4Qms/EB89yIkx+kDbk3HPPtXaOvMxbt24NfSKiHa4d9yo5TtEBqGNCXZMePXrYtRQiEZDFJZIFTwc6NKpSk0MLb9PGjRtbDlMSehNOIoQQ0QDiAblNCR9CdCCcldA3IYSIZvA4I1SV8PvevXu7b775xq1cudIVKFDAVa9e3QanLET4FClSxLy15F0qRGxDZAw1Isj1iWiaCNBu4XDDGJIUb+RoFrEDdjYTdkQ8XHTRRfZK3zV48GA3bNgwKxilcH0Rz0g0Ff+CGVDC8fHYwv0e8YEqeiSEzps3r4oMCCGiDgxxvLCY8KFQiirpCyGiEdoowhqJ3pk0aZINOCmuScgqYgKpj8gZ37p1axNLsbuEEPGD9zRNJNEUiFAkBzM5XMeOHWvngfZQxA44TZUpU8YiIM466yxzsBo+fLg5WK1evTombG90jfQWI2N91UxIbCSain/gBVOM+G7dulkek6uvvtoSeEssFUJEK8yCY8CVLVvWwlrJmyUDR4j0gadIerxFGPAyANHAN2X8eUIUpW2aM2eO+/rrr917773n+vTp43LlyuVuvPFG9/jjj7uWLVua7aUUSELEJwhL69atc/ny5bOcpolExYoVTSwmBz3ngPzNIvYgsoti0Ndee6078cQT3dtvv23aAZESaRFOsc9zykanH16/fr3de6nZLnzOeniG7969O/SuSEQkmoqDMFDC04H8pV999ZW7+eabbSapRIkSoTWEECJ6Oe2001y5cuXMgMNTHk8OIUTawQNy165dof9Sx4eXa4IiZTg/FNAgD9z999/v3nrrLRuEXXfdda5z585mb5UvX16pj4RIALynKcITKTcSCTxrS5cubWPLL7/80u3YsSP0iYg1cFbA65T+i34Nb9OOHTtaupnUUmThlUq0RWrrZQf0xUTSrlq1KlWPU55V0n799NNPZuuIxOWwPHnypMk9QI1a/MIsCrMuzBBNnjzZ8s6Qv7Ry5cqW+PnII48MrSk4V6NHjwqeh+2hd4QQ4eA5UKVKNcsxmhNtB7PHGG6DBg2y4imEt6pgihBpY+rUqeYlwuRDeFg4kSd9+/Z13333XegdZ9WfGfisWbPG1a1b1wqyiX+CVymFMjivS5cuNZsKsaBYsWLmTUruUt5TGyVE4oCn+UsvvWSRfHXq1DGP00QC0YrwfJx08FA888wzNdaMYRA+0Yno60g5w/UtWrSoa9OmjeVBPeqoo0Jr/g2CKfYDERWMFyLZB9IvT5s2zSYxeQarVatm9suSJUtcs2bNrMDV2WefbRPIHFOXLl3sWEgtQX8tYhecajKKRNMEB5fzLVu2uCFDhrhFixZZo4HIQCVqGjIVHPgniKY9enQLztORLn/+k0LvCiE8w4ePdblzn+Tq1q0fGBiRF06ZNaYQ1FNPPeUuu+wyK6Jy+umnhz4VQqQEAwQ8KqhwTOgdAx6e4aSi6bZt20wIJDqFApEVKlRIuDDTQ0EIH4PBhQsXuuXLl9v/2FLk8SPvMh6lBQsWTKhchkKIv0GwefDBB90LL7zgqlSpYm1DIsHYE+H4+eefd+3atbMxJ22iiG2wv+fNm2e2AaIoAhX2AZOw2BLh4GmNt+fMmTPdQw89ZPZDpIRTvEcXL17sHnvsMRN3KWyFSEr0hxdN6aenT5/uBgwYYOtyr1L8SqkKYxuJpiJD4F2KYY93KTN+uNhT8IlGQV4PyXNANP3UVatW1FWsVDz0rhDC0+2zr93adRvdGUWKB23J2UG7Ut5mmSM5AcPscKdOnayaJ/mYMdqEEKlDeD4V3FkuvfRSizphMEtldy+a8nxNnDjRJltZ/91337UQ00S2G0hvhPcKHjbYVYilhP7htVuyZEmbjKbA0wknnBD6hhAiEaGtmDBhgkXCIM4Qqp6IXpZEBX3xxRcWqcAEXa1ateRtGicQccY9TmX94sWLm4cm/R8ODF50RGDFzsCLEycHtIdI9o/014wTqIFAZO2VV15pHt+tWrVyH330kd2L5B0n1QDvUZyRgrMitsmMaCplLA6hQ04tvxiGPG7oNGh02ogKuKhTSEWCqRAio+Q+IZerU6eqK1Eyf2AQ9Q2Mp7U2qxtJEHCYLcZww4MerwYhROoQbULoOF4fL7744sHcwNgVTBryLOMh1L17dzdjxgwrvBZJD5GshmNiyQj+fJCmgLaGwRX5SVk4R6QseOKJJ9wdd9zhzjnnHAmmQggbfzGhiyhDAbhEFQopBtW8eXMbi+KVL+es+AFxlEnXRx991PpHcteiN5ATFHucvpP83URbcN0//vhjK0Kd0b44I+DdfeGFF1q4/dChQy1VBMXJsHXIYfr5559bmi/Wa926tcufP3/omyJROSK4aZ8J/Z0i3Pgi+uFhJ9yehQTjyUHuEXL++Rm+++67z4x7XOclmKbO7Nkz3WmnneTyF1BeEyGSsmDB0qAtOclVqlTa5c93UmB4fOEKFiwUGMh5I9a+8Du0Z4TWMJuNcU7uQCFE6uAJghg4fPhwC9VHSN26dasNKJhYfeWVV0wwrV69ulV85/mKVThOJpkzIlwQdj9r1izzwn3nnXfMyxRvmbZt25rXCtE7CKUK5xNCeBCJyG/MgrBE+5qIYKchmtFu4vVHRJIKD8cP9HvoEOQLRQwlqnXkyJEWecE9z/VGKMVOpx9lYpFirqQGjATsH3nbSZXBxDARIkTQEEmDkE96AewCJoZJIcHksFIWxj7YrxlFommcwUAGjwfcj5OKpgiqhNL17NnTGi8aJ2b5fD4dGfZpQ6KpEIcG0fTEE09wxYoVCtqV4wPj6Hg3Z+489/tvf7qCBU+LiHCKYUN7Rl5G2kNmuhF4hBCpgwcIg5zx48cfzM+J5wUDC8LOyVnGwIbJVjy6kyvyEAsQPs/x4PmVVuEXkZWcyXjNfPXVVyYqY2s1bdrUNWrUyNoZQvj8oFAT0UKIcGhHEWXIC02bkWj5TD3eTmNiacqUKSZWEcJN/yNiH66vF8ZxWsBTE5uccHj6XPpNvE7xMmYCAVuD4oiRCoH39x+/yxiB55JnEphIpa+nQBkFoLgvpZHEB5kRTWXNxQkMcJi9JDyMzjhpdTcaqp9//tlC8WmgmM0jfyl5RuiwZdgLIbIS2hRE0ypVyrgzipziVq9Z7KZNm5xq6pCsxE8IkcSdsCC87IUQKcOglcELNgKDHS8ukgcdrxAGGRUrVjSvylgsZoT3OXYQ+co4ttSOgQln8u+R+51JZ8L2OB94s2NDUWyuSZMmlreUAR8ht0IIkRyE5tOG4riS6EIMwhXCFMV4cOqhfxHxBfc49zr9I/0kAiRRK4inFJ5ETEVApSAUC8WYIgm5dElJ5EVeQMzlf/pzJoclmAqQUhYnIERMmjTJPE0RT8MT3fI/DdMPP/xgbui4mlMpjjA7zegJIbILjI7jjz/O1apdyZ188lFu8eLZgbE01/32268RyV2EoYb4Q/tI26fcpkKkDSZeL7nkEhvQ+AED4iGCIwMLxELC7mINhF8mlvESZZIZkqvazAQLwgbiKCF7pDRifTxLsakqVKhgec4Ixa9Tp44N+jSwEkKkBh6VCIRMSCVqPtNwmLSiDWWCm3aWNpq+RsQXRF9gM9x8880mlBOxgWZBP4u3Mc8Fdjqh+pEEYRTRniJQfsKTMQO2Dyl2ChcuLMcyYeguiAN82P2nn35q7uVeMEWUoPOZPXu2eVQQ/kCxJ4x8qtmpEYgu9u7d5zZt2hr6TyQHHdmOHbvcL79sDu71LRER3kTmyZXr+MAormLFoQYMiFxxKNq48uXLm0H0/fffm4eH7hkhUofBAx4YvBKKT6g5tgbPLR6WpUqVsgmJWIL+g4EaHi5UzWVSpUiRIv9IL4BYit2ELUUaAqr7vvHGG+7bb7+1Seb27du71157zarpYkfFamoCIUTOgDhEODCiqSZaDuArqxMVRC7JSNiHIvJgk2NTkPObCA0cGZiUJBqWvpeUQORS5/9IwT5RPZ+cqugnOHuw4FjGe0J4pJrFAeTgILkynQ3eDsyOIAyQMwSxtGvXrjab+cADD7j69etbMmMRfXz99VB3/XUPhP4TybF06Sr32qud3IXNbnBtrrorMKzkORgrHHfcsVYc6tLLznWfftoxaK8WRiRcnhltBB5yMlL4jnZRCJEyDBqwG8i5x4DCFythgEHFWYo5xBoMxhFBu3XrZoO12rVr/yt/GoUpWOeZZ55xTz75pImnt9xyi3vxxRfdrbfeamkJODdCCJER8KxjApdJJ026HIAJKSa4aV979ep1MLekiC+wv+fMmWORHkS/rly50qJXCMmnT+a5IHQf4TSS6bS498qVK2f3Hf07z6VPQSSER6JpjIPnBOFjDAKYuWSmDi8Qws/effddm8FhpoQwMoSDY489VgZ/lLJ3zz63ebM8TVNiwIAR7q+//s916NDWPfX0XUHHptCmWIF2J1eu41yJEkVcs2Znu2nTx7qpUydZG5ad+PyMeDKQwoQqrUKI1EEgZaKVCrMMdvCKwuu0YcOGESvWkFUgmPbr188NGTLEjoMcZqQqwrOEAdvo0aOtQMCrr75q6Ywo6HT//fe7a6+91kJH8UglhDBSlX2FEPEJoinepqQFkafpAbAPmYij3SVEm/YaAU3EPhRjpd99+eWX3e233+6effZZi4wdN26cFZnkWWAcgLMXC/oF0SB4G0cqMgzvVyJHEEmZLCaNAPcjmokQHlXPj3HoWIYNG2ahpzQ6eE7QCdPpULiADqhBgwbmbaWHP2tIT/X8Xbt2u3nzFgcdxhg35PsxbtzYqW7+/MVuz+69Lk+e3OZ955k+fa6bMWOeu6VDm9A7kWHfvl/dqlV0amOCe2msGzN6kpv503y3YcNmq4KO6HTEEdExv/L+e92Djq2wu6L1ha5y5bKaAIhCqJ7PvV248L/zBHK9jj76KHfqqSe53bt2ug0bNwYDiH3B4OF0E2iyA3+PMGtNTkJmlAnL1b0jROowmKCyLWHt2BhMPhBax4A/Fp4hBl54mPft29cGbr/88otNomAbIYTi1UKBp0WLFlkbQf4yCsiRs5VX2gpy7kncEEJkFrzpSJWGs8tVV11lkzCyRQ7AWAORjKgg+hrSF5x66qmhT0Wswj1PP+yFUe537H3+5n08TclnS6Qsr6xHykGcwIic9YUaSQ+EwMoELp/jFcrCpCeFXokKYUH74PlCkGXBdiESlz6eV0RZPFwRc7ENWIdX/sepgs/p+7n/+D2/HT7nt7Zu3WqvLESm+M9wXPPv+2XLli0HJ0lIOeDPA8Is50HPfuTJTPX8w/LkyZMmGZ/E9yK6YBYOsfSzzz4zd3calKZNm5pbOQ8rHqaXXXaZDW4QTJVwPPPQyPfo8amrVq2oq1ipeOjd5Nm3b7+bNPEnN27cNLdw4bKg4Twwa0oHcEbR012tWlVcs2YNgv+PsQ7k406fuy5d+ropU7+x9SIBDfjPPy9zI3+Y4GbOnB807Hts4IiwlTffqa5qlXK2j6ednj8qvDobN7rGtWh5gbvttnYaxEYpX3011Io/lS5dLPRO8uzZs89NnTLHbd/xm7vowubB+uWyrY3CKEP4IUXJHXfcYRNJiEFCxAv0/9znwCDFD1Bo43kF1qF95zMPf4f/T7vKEj6JgUfIoEGD7BnCprj44ostogUw+lnfDwLA7wvb4P2kbTXr8b5f+BzxgNesHESwDwyGBg8eHPTbPWyAw3NPjmM8SfAyZdDFOeG9s88+2yZV8CjVYEYIkdUwlu7evbsVu+nSpUvoXeFBeCKvJZ6G9DXkvVRKufgAWwQREVESUdMvTGR6+4F16JMRGQmPJzUOE5l8hj3B84PGwXrYOd7W4BU7h4X3EVWB7fIeecrDbSEEemwBtun7er6HaEq6Q8YITJiG2y78zb3Id/13EHBZ2I5PYcTvsD/A+1705XvsO9vBxmBfvM3D+n5f+dsfrxdY/cL62EoHnJmy1l5KFMILpacXiaYxDEIpuV+++OILaxCAhwqRlMquuJkzU4M3BTMmPNA8sDxsPHQ8kCJ90KClVTRFjHzrzS5u85Ztrk2bS13DhrXtfcTJb/oPc4sXr3Cvvf6oK1OmRNAQH2uiaaePP3c//tg3lBT7r6BRPNwdeyyN+/EHG0fe//XX39yePXttsMf7iJwIVccc83foIIWlEKby5TswuE2O1avXu759B7kvv/je3dD+isBAqeNOPvlEt3LlWjd06I/us0+/dC+9/KA7//yzXd68yW/n99//sLQC7OMff/xpHQ/7xL7w3pFHHuh0kq5Hx0KjnzcvHruHWceD0Pz7b8FgP3jnmGP+PiY6DopktWh+q7v0skbuxhtb273OsfFbnA++yyvXKPx8+PPGfu3dyzpBB/vn/7nDg3PLeef8si2+R45U0iT8FqzL/7zPdo499u/nhfPPuWc7fwbbOdJfo9x/XyP2hYJVJ5yQK/j7Vzt2tsG5jXcGDx7t1qz5JfRfynCedu7c4446Mpe7664HXe7cJ4Q+yXow1h588EETRsjTWKJEidAnQkQHtDksGM1+4X/aeV49/m/aG/83bST3OO8xYKAP4T1sN74PtLnYCiz+u0y+MkDxMChgCQ9DZ1sURWKA07x5c7MjfFtHu8ikLIMA2nOgrWXilm3wPjYHv+X3lfUYSPAZv8XfGLL8zXbZpl/X4/8P/10Wv77/28Mx4wEydOhQ8yygvWYbfn32gUEZAvD5559voXnsb/g2hBAiK8HDbcCAATaBQyoQ8U9ooxkL3H333ZY+5aKLLrJXEb1wzby9Qr8bbr+E96fYI9geiKJ4X2Kn+AXv0FWrVtln/j36bFIBYScwFjv55JPtFS3D2w5ez/DrsC/eVqCf530vWqYFbB2iT0qXLm3fTS8cL56o2EDAOfA2F++xfewtzgXngH33IjAiLu+zsB2OjXXxvuUzjsPbSkxac/zhdo9/9faQt3PCr4GQaJqQ0DC9/vrrVtEVt/Tw3C9eGKUB4WHhoWFQg5hKNThylCGoKuwh/dAYp0U0Zb1XXu5oFd7rnF3NXXppYxPNAGFu8uSZbuCAEYFx8Jt75NH/uCJFTjPR9JVXPnJPP3OX+/qrISZonn56AXfhhQ1dh1vbHLyev/yyyY0bO828UlkHUa92naquVatmJnp6evce6Lp1+8p9//2n1ngmx+eff+smTZzhihYt5G7p0DZokA94vSJqrl61zn388edBY7/ftb7youC+qRX61j9ZsGCJu7BZe3fzzVcFnd5a99NP84OO4CjXoEEdd/MtV7lixQrZNn/+eamt1+HWtm7ZslVu4oQZ7rTT8rvB331ix0V6gP79h7mfZsxzQbfnzq1X07Vpe6mrXbuqW7p0pbvowhsDQ/OXYB+PDToQPBlLuO+HfGq/NWbMFPfNN8PchPEzrHPCi7ddu+bu3Po1rVOC2bN/dl9++b37YcR4t2XrDlegQF53ZXBcTZvWd2eeWdSOE0H7s0+/sDQJv/32h73PPhwQjU+2DpC0BZ90/cKNHk1+zG2uUKEC7oILznU33nSlXYvDDz/MRPFnnv1fYPi1dwMHjnAL5i9xjRvXde9/8KztSzyzf/+vdv+kBZ6TZcvWuokT57nrr/tPcP6yz/sTA4UQXYSUc88914RTIaIJjGpsLYxuPG4YOPA/AiTGM30AfT+DSqCf52/6eD8pSogbxjR9PgY27/M58LzRhgHv833w7wFtsV88fI9BPh4hhLWHfwb8Txsf/j776d8/MGG19+B++2PAbuG3OU4GCgwcWBisMGDi+77f4zywv2yP42QdBg68YstgCIenIOI579+/v+vcubOJyRyDh23QL7AwqcxESrNmzSwkn/fCj0MIIbIKPEzJn0z79tBDD4XeFeHQPzC2pSYHE1vklRbRC305YidaBAv2CjYMfb7vS+nH6Z8R/7zoiX3i7RSEQaCfZsEewOahz8eeoV/2NgZL+N9+SUpKnx0Kfht7hf3lNzICNk24veGPKbklfN/4m/c8/M+2GLsgtrJ4QZlzg63E+th3LN6m4VySh54lX758dn4zeizxiETTBIPGZMyYMRbiQW4cHh4/QGHhoaFBwruU4k/k72JhcIBwykPEwIr1RPqggUqLaEqxojZX3RmsV8Hyb5Yq9c9Q5fXrNroRP4x3b7ze2fXp+64rV+5ME00ff/wNE0kRKHOfkMstXbLSLV22yjVqVDd4v34wSDzJDRlywAO0arXyrlgxwhaC7a3fGNwDf7n77rvZ/ocunfu6jh17uqnTBhyywXzh+fdNeEXIPOusCnb/eHbv3utmzJhr+9jumubuqqsuCX3yTxAja9ZobvvY8Lw6JsBu3brdjRg+3rxrmzar70qXLu7mzFlo6114YQN37rk1bd9PzXuy/T182Fg3YsQEO4aatSrbdkcG56dQ4dNMkKxUqYwbO3aqe/CBl129c2u4Sy9pZOenfv2alv5gxIjxbt/e/e6s6hXd0Ucd6caPnx40jCe4Bg1q2z7Bww+9GnQ6+1258iVdwQL53J69+9yihctco8Z1bT3Owz33PO/KBPtaqnSx4BnK7bZv3+l+XrDU3XZ7O1eyZFG3fPlqE3dHj5rk6taraZ6uq1audfPmLXLnNzrHrh1i7Oe9B7rbb3/Ktbz8AhN98+fPa+eFcyz+yZIlq9yokT+5a67pkK2iKYYQOaD/97//mfBzww03HBSThMhO6J8ZQDCYIPyLAYX3pKDN9e0z9yMDBIxchEEWP1gAXumDvMjJ/77vZ12+zysGf7ghDb5t90a5Xz+tsK8sDHhSIrwP8bC/2C1+v9kH/mfhb55NPvML++/X9cfOOuF/M1DzIisL5wH4fexV8rpPnjzZvGP9tsJhW6zLoAwPFkLxsJOYWKZ9oAgEdpIQQmQVo0aNCuzqGTZwv/nmm0PvinDoExDfPvroI2unEU2JBBCRh2tBv8/EI96gfgLX97d87u0P+tLwJVxj4DqysJ5fsD+8rcK64baDtxGAz33fn4hg73C+OR/87Zdwm4fFnyPe55ohsnoPV29bcV55RVhFC0InQlzlOoSf/3hGomkWw02Fsu+NcYxzbjwPN6P3mEgLvlFJDX/jM2DiBgYaCz8b4xsZ9oUqdFOnTrXrwmeIoT4MnxuCgQ0DAcLzeSDwyOB9tiEyDtcybaLpX65B/bbuqqsudtff0MoRph0O4t3EiTNcq8tvd6PHfO6qVClnoukLL37g7rm7veXtxLMR70wKSM2atcC99vojJtz16jXAvfu/z9x/bmvnGjSoZeLgunUb3aaNW0y48yB4Tp06x3Xo0OaQ9999974QDN53W5qAU075Z0NCA7116w7X+or/uuuua+luuvmq0Cf/xIum7E/btpe58uXPtO/17z/U9huxFaHUi6Z339PeXdn6IlehYung3j3g6fToI68FDfsfrkHD2iZgwoABwy0nbNmyJd2dd11v751b70p35ZUXH/wfnnvuPbdv7z539jln2XfxPB09erIVtcIL9IEHbrH1ONecU7xmEbP/7//+cjNnLnDFihZyZ5Yq5pYsXuEuvvgm1/ZqcvadZ1XeSW/AeaxXt4bLm+8U9+OYKa5Tp94mWF92WZNgoJ3PLVmywg0eNMrOwzPP3G3HhWh6b3BuH33stmBb57szzjjd9kv8m0iJpjy7tN1PP/20tYkUYYi1CuAiesFrEiEUD1H6ZQzXcEOVxQuFvOfbZN/vs9C/44nBknQAwmeHascTCc4jgwAGBN4W429sNX9esZEIg0Wg5nwzyPNpCFjfXw8Wf87xVsVeIhSUyWb+5n0hhMgqvv76a8sNTXHeli1bht4VSaEt51zNnj3bBNP27duHPhHZAf0ndgsTuniN0k96UQ7oJ+kvvT3jX/1n2Cj0l0z6+olf3hORhWuCfYQNhI7ltSx/vfwCiKxcO29bog95ERt7iEljrmG8CdYSTVMBo9kb1yz+BgJuHj8Q8TcSr94I5+bjlf89bIslLQMYv820DnZYDxHUq/7+f25c3mN7NGodO3a0ho3GCQGATgVjn2IG/E/jxffCvysyD+c/raJpvbpXmodm+/atg+v0d9ggkHtz0qSf3CUX3+TGjuvnqlYtb6LpBx/0cAMGdg4GbPlNZKMw04QJ093NNz1iYexUjB8+fJzr1u1rV7LkGSbG4dlIpfIzzij0L+EzNe6++znzKH3nnSf/JezSYZJv8rJLb3bXXX+5u+WW5Kv6e9G0b9/3XKPG55iHJikI1q3b4P5z6xOuTdtL3A03XHFQNP26/0eWRoAwe0+L5h3cuefWMoEZYRMQgl97rVPwDDj39ttP2nvJiaaIuieelMe8Tk85+YBn0K7deyzFQYGC+dz77z9j7z35xFtu2/adVn2f85Uv7ymuRHAO8QLl+pCH8+GHXrGUCEWLFbZrwLnlPFPtnQ4FIfj11z52XT95zbaD6Mv5mz59jrvl5kddt+5vuLPPPstE0yefetsNG9Yt+K3TJJimQKREU0/Xrl3NiwGPMkJyhUgrtP/eGOUVO4C2HqMSGwFhzotzXjTllX6cQYSf0MQY5ZX3RPaC/Yet5BefEoBrySsDBOworkn4IIFrht3E/9hT4R6/QgiRESj+xGQOhXpJlSYODVXPCdMnx+Rzzz13MKelyDjYI+gg2DDYKd5GwZbhPfpIJn/RPegj6fPo+3DMopI9YpomE2Mfrj1aEgsT/dwDXGfGuVxzHO2wUcMd7XgfmxV7CW0J2ykWSWjR1Bu+4QMU3guHwQ03hs+1QaNAgwB8xxvC/nsYy1545ObAjdlXimUdbho+y44bBpGWm5lX8AY/jRmDMhqzdevWWcfBzcw++HPAe7xi5NO50MBxHD6nRTgcI9/l2P0r74mU4VynVTRFEMXz8+qrLzMhLhw8MceMmezuv+9FN/Dbzq5ixdIHCkEFy49j+wTX61i7JnhfTp062zW94DorEFXtrAr23Z9+mmfC3Ny5C02grFqtgomJzZqlzwgjHcDGDVvcw4/8x7xYw28BclMuWbLS9vGaa1u6a69tEfrkn3jRdOjQbq5uvRrBfXngPsSb1jw3217mbr217UHRdNSo3uYVGg5V8S+7rLG79T9XB/fvgZAOvv/oo69b2H2nj1+095ITTZtecL2bPn2uCZPkE/VwP7dqdaF7538HBFfyqH733Wg3Yvi44O/V9jtXtbnEXXppIyvGhZDN8fbrO8hNmDAjaCu2mmja7poWdl7z5z/V9e072L380odu2PDugfFwcvDsHKhuOG/eYtuPL778wNINcG2effZdN2XqN0HHcyBXj0ieSIumeOj/8MMP1n7ed999avdEstDW0w/zfGNXAO0a1dgZzPHK4JfP6HsZTFDllYlLQr15T/dW9MM1xr7FriIPqre9uH7YedhSRPEgqIaHG/I5S6wOHIQQkYfiT7QxeJlSsFekzODBg90333xjE9yNGzfOlOCRaGDDYJ9gw/h+DcF048aNZsOQrso7hXlhlAgLIrDQPML7O5EYYONyj6CXkcceQdXrZYyZuEdIY4S2hHCKjYsd5MXWWCChRVMuJqIiAxguMoMYPAmABoMFwRDDF/GQV/J9hqvnyYEhzM3gl/CbIen/WYnfZxYPN7F/j7/9AI79SA7OCSIrOUg4N7zSKIYfj/dQJZzfL6mdE5F20ZT1HnrwFfu7yQX1LC9nOBQc6v/1UKuw/8qrD7nixYuYaPr++93dl199aB6keDFSgZ2cnXfe8YwbMPBjy+3JPWBV3vdSaf4328agwaPc8mWrTLQ71H2RHJ0//tyKHlFI6vrrW/3juxs3bnbdPvvazZ+/xLVte6m7oOk/j8HjRdOevd52TZrUCwaXeUyAXLlynbv3nudMmLzuusv/Fk1Hf+7OPrta6NsHuKLV7bYP117bMmiU89l7VPB/++1Pggb5CPfGG4/Ze8mJpm3b3O3KlT/TXX550ySettznx9r+AMWJDnib/2rnddq0ue7TT76wcPzrr7/crhnr7N1L2Odv5ilLHtUunfu5Ll1fdjVrVnYDvhnu3nizc3CdnnWlShW37ZPeYMqUWe7uu541D9Q6wXF40ZR8skk9eMU/ibRoyqQUubIIkXv77bcPdvxCeGhjmWydO3ducH8uMbuCfpU2wodxs3jPF+4fbALsBv7nb91TsQHXlMUPLsPhPewn7EtvRwHXuUSJEhbGj+3ENRdCiNR47LHHbDKmQ4cONiYVKYO4N3LkSBNOsddod9W3pg28R5kMXLBgQTBO/Nn6N5zAcKjCfkEAw8kKOKf0a36RDZO4eHuIBVvYv8f9RDFQxFTsId5DWCfVSOnSpe2+igUyI5oeETwwB2JXU+HRRx8N/ZUz8LAj3DIzMnPmTBvMsCxatMhmTbi4iKEo4MWKFbOZEjw+eGWhgUAk5GQhGNJQcLEPtWAEs4Q3IH7JzoaEbbOE/57fB/YHYTO5/Q1fODaEYlyrGeDh9ZL0fNBZsy4CMwMCwh/mzZtnDeuqVatMWPDbYx/E38yePTM4pye5/AUOhJEfCkTPadPnWCGh43MdZ+Idgt3s2Qvdt9/+YPk+b7yxtStTtqSti7fk4MGj3O+//W7h4Vxz3iOnaeHCBVzjkCCJ4Doo+H6hQgXdyaecZB6ZeDquXLXOXXNNi4P3Jzk933uvu1WHP9Q9e3RwP61du8GKNh13PB7Ux1kjuWLFGvt+714D3KWXNXJ1alc7KD4mhWrynT/uY/cJhZFOOunE4J76xXXt0teO6+xzqpsovHHjFluPUP0iRU4LffsAeHhSrR8hmM947d17gH2HfK++gBIiZ4UKpa24kmf9+k22D4gaFJyiWNaBtAYz3NpgP8qULWHr9er5jdu8ebt5jyJkbt681Y0aPdlVKF/KVa9eMegEtruPOvYKrtXxdhwcD8WhSIfQ8vKmtl/bt+0Mno/1bsH8xXb+eR5nzfrZwvYLFsxrRaVILzB3zkLzJO7Qoe1Bz1mRPFu37nArlv/iKleuHpzP7D9XXDOEMKIOMMARvnjWRGKC4YcXBoMzCnTgiTxnzhz7n/sC24H7hMJALKTC4T08MRj8IrrTT3JfSTCNPbhWLFxrrmH4wvXk+mI3Io6GF9Skv8F2wgal2BRFMlgf+4tXIYQIh3Es4eaMVc8//3zZHWmA9pc+euzYsdbuMqb1ldbFPyESlf5o3LhxtmDHIG5xvyFqIW5hvxARgwaARkB/5fUQ+jzuSdkwiQ3XnnvAa05+4R5BP8P2xQbGFkJf4vnE/kGfI5d8uC0UjW3cK68ccGjLCFHpaYoxyu8hhvKKIMpF8QvwirjDheUi0ijQkPI3F1akDOcYrwmf18Tn+fIDCD+I8PA3ndehwv0TBe67tHiaApXXEUdnTJ/r/gq+lyvX8fb+/n373Z/BuUaEa9/+imBAlidoYI4wT9OnnnrbPDNPPulEx52+fdsOuy7NWzRxtWpVsVBvhNRvB/5g2zrs8MNMiGU5rWA+9+BDHQ52dmmpnk8+zilTZlohI7xXEU0PD641wu3+X38LnqUjTeSk+j8CaHJ4T9OWLZu6kmcWDb5zVHA/7XVrVv/iLrn0fAtX51hT8jTFU3PokB/d2rW/uPwF8tp7a1avN8G0ceO6VlwJkvM0pXL9qFGT3Irla0wMDady8P2WLS+wvz/55Au3auW64Pw4ux7s4++//WFFt8ixSjj+xx9/bu9xDjFw8Tr97fc/3N133xAYHEWDzmCjGz9uenBdRwSD6Hzu2OOOMYGWQlSXNW9ix3XyySfK0zQdRNrTFL777jurrF2tWjXXtGnThG3PEhVEUiJTMO7Cw4+8TeHFMmbOEdW5P3y7KhIbb3syGCWSh+gF7g0/wPB9LTYTgwtsJgYPun+ESFxoN2gznn/+eXPsuffee0OfiNTAW7J379420X355ZcHY6FaCd+ecj9ht/gwavohxizYNryy0B+RVsaLzfRJ6odEVoIt5Iufcg9i/3CPcX96+B9bmgW7OqeJeU9TRFFC4Xj46VRoGPmbhb+5GD7kHgOUDgeFm9kS1G4/Y8LFiEZVOxrxIijnjXPKecSLglkDGlkeBB/azyvCqi984XOrsvBgMFjwD0oikB5PU7wRESIRAJcuXeW2bt3ucuU+3jwlyaWJ16MfZG3evM39HnR0vL9o8QrzksydO5erV6+6a9qsQTBwPzDwIo8m30EsRASkc6xYsYxVfCfPpmfzFnL3/u6aBd891LVB4MSrkirz/B5elBs3bDYxtlzZkua5ipfooQRT8J6mFHFi3zhORNfatau4pk3PDe6tAvb7CLvLl612F19yvnljhsN54D7atnWHW7pslQnOpCIgJ2y58qUOnqOFC5eZkFq6zN+CNfuPIL1n7z63aNHy4BgQRg9zlSqXcTVqVD4Yss9kyuZNW93i4NyuX7fRHX/csSbqsr3jjz8u+I3D7HwvX7HG8p/uCPaB/WrT5tKgzSlk54prWaBgXvfbr7+71WvW27GfEHyHXK4cKwIpv4335J7de9yFFzUMDBd5HaVEpD1NgT6FkGsm5qpXr26ihohf6Kfov7jm2BW8kr8ST0E/OUtfiBcGIde80hfyHgOPQ7WfIvHgXqA/wssY24kBKYMBDHEmoRlAsGCzYi+xcH/xGfehBFQhEg/GVHhhEdHHeItClCJtMDZA9Bs2bJhNYjJWxUEqEUGY8rYrtgwTvz59DGNBzg9FoVmwY+ifcChLpDG6iBzcU+EpMHlOsZvRjXyRKewf7CDuXewg/sauzikRPyY9TRFKmSXhlRPJgz979mwT52ggCYXyORIkhOY8XCcGAYS1EorG/cCgoVy5chayyN9cN5Z4HmQy6Emrp2mi4D1Nx/zY1/J5CpEecsLTlBQko0ePdmPGjHFvvPGGdfgivqCt9nYGgwm8MUg/g61B/0SaGvoubA3ZGCKrwa7FXiLNAxPMDFwJjyxfvrwNYJnEw17yE4JCiPiFPogQ81GjRrmKFSu6K6+8MvSJSAv05a+99pqdx3r16rmGDRsmjAjIseNByoIjGTlKsWHpPxBHSR/EGFx9iYg2mCzCYQHbm/B9nl8cHitXrmwOeuFpISJFZjxNc0Q0pQHA3X7WrFn2ykkljAljkoPxJ5AGQYOZ6IHrxA3P9eNvPE6ZOWVgwMCUB4DGu0qVKubFGo8NuETTfyPRVGSGnBBN6cSHDx/u3nrrLde3b18TzhLFAE8UEK3wwJgyZYrNeuMViBcpHqRca9kYIjvBVsBeYuFv7kGKzy1evNgGuNhJTDrjlSGEiG8YI/Xv39/aALxMqQYv0g5tKHVMunbtap6m99xzj2kFiQA6CbVc6Du8HYMHqRecsGNkv4pohWfXp43ALsdDGhEVL1RsICaR8L6PFDEjmjJDgsDGDAmz7giluPXywBOyhOhGA6DZktiAB8DnREVIxeUajwpcshmIIoJTfCqe8gVKNP03Ek1FZsgJ0ZRJH7w+8Fx48cUXXZkyZeKqnUpkCF1jcEH4PdfUDy74G4EqUcP6RM6CaIKthC2NvYSdhL3EvUmKEAbD/C2EiD8YH3388ccmHtSpU8edc845oU9EWiHa8dNPP7UK3hTSYolHGGdio1LUCb2EewfbhYgon1YPe0ZaiYg1sH1wuMMOwibCXscuQgMk8gvHOzTB7CSqc5pygvBGxJ2c2RKENh52BFNmi3yhBUTUnJwt+frrr039Jl9qrMH5/eSTTyI+8KfBpgHnBkTwxnsCsZTGnmtJB0coJLlWGKjGiyCe1pymiUSu3Llcgwa1gs5cVS1F+tiaAzlN6WcQLfzMPcIa7ZeITbArMMJI8UMYPkYZfQ7XljB8XikWmVOeKXi8durUyfpo9mvatGnuhx9+MG/D1OB4+C7piuLlHv3+++/N44pw9UQB24hrj73LoJc2CFuJATIOBdhKwDryfhYivkAsHTJkiI19feo5kT78pBJ94sKFC12NGjVsrBlP4iG2C8f3008/2d8cG2NsX3cEO4bzIM/SrId8w998842rVKlSwvbBPFf9+vUz78/ssJe5n7l//SQA55l7GTsIJzz0LK8tZZd4mpmcptnW0vCwMxuECy7GMXmdeI/QOCrfkYeDhiCzN6Z3+2X7DETIF0PYJfnqpk6dat4m/G5qEDZBfrtYhJkowkwRAXISBFtyVdCREX7C/wwGuDbcA3gZs48McEX8QLGkJ5+8I7j2BUPvxC9U96dS/x9//Bl6R8QqGJ94wpOjmc5axCbMUtMH4pVBX8O1xM6gH/ITiWkdYLANJngPFVmDvUGYNWGC3DdpBTuE3Ln0h4Ct0rNnT/s7NRBcX3/99YPfjQcQD1iyiwkTJtg9Ea0wGKGYabVq1VyFChXM44KBMjYSeb/wvuBeE0LEB0yQ4JjjPQVFxqC9pMARk0yM8dMyvo8FcDCjj6f9Z8FmYJIUrYRjpshORsB+YJLSL0OHDrUJW/pIBDKcm9TXHADRtHPnzqYpJSrcEx07dozYc4XDCgItYfq0jdyvOLPwDPA8RNu9mS2iqTcAJ02aZA8pB33uuefawkxJVoLbOo3LwIED3TvvvOOeeOIJ99BDD7knn3zSvf3222aY83lqoHgziI5FUO3JyZfdLs3pgX2ioW/UqJF50zAYGDFihJszZ07CCKebNm11e/emr+FBjMPzbufO3UHDLXE52hgzerK7/bYn3f79v4beEbEKHl1M8jCQiRfDO5HAruC6MSHHAIAJ2tq1a5udgRieEe8TJk+7devm5s+fH3rnnzDwJRd7ly5drJJvRmEwhMeRyB4ef/xxmzyPdrwXUf369c1WwnbmXsZOInSfgbQQIvahv6LiuUTTzEHfiScg48sePXrYOaVfjmW4N8jviHfpjBkz7P/LL788S6JLcCS79tprLQcsy3333eceeeQR99JLL5mtw9hc9q/w0D7hBZ8R+zkzEG3OM33ppZeaaI1jAc8DdlA0Pd/ZclZ46KdPn26z6VdffbXNpmeHIIlBiccHQikeIs2bN7ecMV999ZV799133VVXXWWDH/YlNZ599ll3yy23hP6LLTi/3333nQkA0QaexKeeeqo777zz7Powc4AXMB5B8QwP+TXX3Ou++SbtAzc6ytWr17mHH37FffBBD/fzz0tDnwghshommeio8UxM5JnlWIS2kglThDH6fibmKKxBmpjMGHtESCCmI1wlBzbHjz/+aEYlBl5GYUD0/vvvh/4T4sBgpWbNmq5u3bp2b3fv3t28qWJdEBAi0aG/wsYgSoH+RaJp5iD34dlnn22hvKTkIQVcrIJNgQ2K4xdtfb169dKUtic9kAZn5MiRNvZmspe+5eabbzZvPoRndBQhgAncPn365FgbhWZElBgOEDwPpAqIJuE0SwtBYehRXIPqWHhRkIMjO70p8CzBzZzquAieVJRj0MRJp4OiISJFAO8RCkUYH7lZq1atavtKNTpgxoWGg5C+tm3b2sUhPIpwfZRuPJEI76PhufDCC81dnqS1bP+xxx5zlStXNg8B1uW7L7/88iHz1RAyhgcu54lzyiwS3+c84RXLd3FX/vbbb23/8JhNCrNCHEfr1q3NwMalnNA/joNjGDRokB1PcmCY8xuRrFTmwXBANMXzl4eA42TGECMi2sATFgOH2T/2defOHcH13hW8TyqIpe78RtWC63bofGwc69ixU12xYoXdGWek7VwvWLA0uJ/Hu7VrN7jLLmvsypc/0514YnR6Pz/44MvuvIZ13EUXnxd6JzHo3WuAe/75993UaQNc7twqKJMV5EQhKMDQpu/44osv3B133GGCmYh+6GP37t1rgwAiGoheIdKCvi2zYC9gMOJNysQr/bMXYRnc0Cfceuut7pJLLrEFL0HsAwYiTND6QTG2SMuWLa0/ZvJ44sSJrkWLFjZoIQyJvh5h9rnnnrNtA2FJkydPtnWwDdgOYUscF3YG71NckXA6Bjv8Jq/YA9gP2DVMTPp9Jgxv8ODBQV9ymdlJ5JRv0KCBu/HGG0O/+E/os0hNgG3CIAr7hggcPCAxYjnH2FX04Wwbu4OoEfYP24jjZeI2PA8W3gKIzNhq2Fxsr0mTJmaf0P8THQTYW+PHj7f12U+uMQPjCy64wOwjf215ZlmPsEwERfaH7ZDyCcGR72EbsQ77gt3noeAbNh02GINSzgnn+brrrrPfwT6kPWB/uRacD+4tzhnb5lpHAo4Ju4OJZe4n7gE8jiLt+SGEyBpo+2h37r33XnfXXXdZeyMyDm0z7T+1SJg0vfLKK62wVqy1kbT12Bz07eRep79Cr8jKqFH6WnKi0/ehjXDu+F36FgRnwtHbtGljE7nhcL/SH2Kn0Ofj+IbtgliNrezPNeNjIiPYPn0W26avpN9Cn0AvQT+hgBciN2IY67JNjhNbiT6WYojh1w87B3sIe4R9Yb/RLXx/zHkC+mrso1atWtkxsS+8sm1siIYNG1p/H24f4l2LTYYWgw3A/mLjECE9YMAAux7ewxcbB3uQSFmuFeeQa4XNwb74/LLYHIjR2EFsm2PlPPG8HwocDMeNG2e2IzYt+4FoTqE4oqVSA/uP68PvcRwInZxHjh1nQTQhHEN69+5tdirtT1Lw1Ob8sZ/YWpxzUkfxXa459jARWMlBygj0pOxwivT3KHoRzzr3Es9HVjzjmbHlsqyF4eAwZBFMMa65qbI7/Iwbn8XPzPC7iJncMOQx44IiynnDGWGThwGDnxuIKl082Nz0CJ40vkAHRzJgLhYFJMiLRg4VHk5uUPItABeVh58BEA8T2+P32F5ycHPyfRoBbjIaC/aR8ELUdB5KHhwgXxoNVnIg6GHYcyMBDzUeNzQywDYZQIUvXA++x75zHnICGhbEZIptMXhioMRgigFCJOB60cAzKFu6dEnQYcwKzvHk4JqMDRquMcHrj8HC65jg/XHBuZrtNmxc5vb/uim4r/a7U089IrjHjnE1apZ2BfKnXASKY61fv1aaBVNAhCtTpoS7+OLzgvuoTPBgR2+6iPHjpgUd5NrQf0LEHog7tMO0CbQNIjbAOMSwo5+nX0OYzArBFOjvEcowjLEJsGc8iIgYz9gWrIN9Q5+OUck9hEHPAIFtYEtga/g+OikMLjgGDwMIDHhC6bxtgD3DeknDzMk5hQ3DPmKXYJ9gcyB0YkMg/gFGO7YJ32cAwL4dKhqF48SWIkoHe4RjQwjllfPgj4M+u1evXtZnc97ZJvuJXYEthI0E2FAY9Ez+MhBB2GR77AdiL78VDpEy/C52AdtEJPTnJDxVAsfD/mA4c45YFwMYO4Lj59pgCyI4c6zhNhC/jdDLNrBVuYbYf1wv7ikmqfv27Wt2FN/l3uK88B7XnXUiAe0S551zwCAIO5RzI4SITWgPGXPyXNNGiczB+Ipz2bRpU2ujmezzfU8sgW5Av8Wx0Jfzil2TnXDusBf4Lfo/7BqvHXiwa9Ap6BPpkxFL6RPpy3mf/hARE5joxNZhG4iU2COM87nfEQSZyASuEYIk/S+/j16CXYBtwfv0cd7ewp7iN9BFsGd8f4x2gZMD++V1A/YfmwLbBZuD46LvRGfgnkAr8Q5ywO9hq7DfCK/YEHwHsRXxMRx+g+9iQ/l9ZrvsB9tgffYV2K7PGYttxnk4VGFxvo8NhIMbx41mg32E7cd2OW/cGynhjwOdyB8Htgz20pdffmmf+XEN9ih2U3Iw6c4EMrYdcN24nv672HnhdhQLtpO38bIrhRB2EFHKnHOEX85XNDzjWSKactIwcLm5uLG5USLh2stNg+cB7sTpGTTxsHPh//vf/7q77777X6ozn7NdbkI8T1mHdVG6Mc55uMJhfQx11iFniJ8BSQqzOnwX4x3vBlR/XOR5wBGdswpmcvC28Mudd95p3ibMXvCaHbMC6YEHgQaFB5xBDPdORuHeo6FlQMN2aNRXrFgeNESLg4dssb0uXbrIlmXLF7vlKxa7lasWBw/fkuD+Wep+2bA0aCSWhV6DZSPLErdl6wr351/bg3OFt0luV658IVezVhl39jkVXL16VVyBgqeG9iB5uCd+/HGKW7Vqnf2/fftON+jbkcGAd1kwYJvthg75Meh8ptpn+/YxYF3pVq1cax3M7t17go50oftl/SaXWsEhtjFjxjw3ZzZe1+ODBvtH+3/Llm0HOzX466//c+vWbnBTp8x2w4eNCzqZsUEjOv9f640Ltjdz5vyg4V3iRo6c6L7/bnTQ+E5xK5avCc7zr0EHsdsNHjQquF93ujnBPnJMY8ZMtu3D3LmLgu8vsL/DWb2aBp71DnSgv/5K3uMNbvLkmW7Y0LFBR3rgfCxduiporP/O5cr2EGgXL14RHN8E993gUW758kPnKGa7ixYtt22NGD4uGHTPtN/xx0hntW7dv3+X8x/+u6y/bdsOO0ecK87trFkL3KbN/3xOD2xvY7C9WbbeobYnog86ZfopiaaxAwYe/T4iHf0mBt2hJikzAgMWjDQWDGUMcg99NN6tTIxixGMYc98waUmfe/3119tsffv27W3GHmMd4TIt0A8ySMCOIf8YNge2ASkA2H44nAPaJ7yV8HrlN/G0oT9l4BAu7rEegyS8MLA3DuXhxHcYeHBe6ZtvuOEGsxvYF8RgP5Bj4hXjGq8MbBh+G89VUgQxIeyLY/FMIeDSH/NZhw4dbF3SNbFPHEM4nFsGjRwH63H82HV4mOCN4WHARZt70UUXmXc4x4SXDNcLEHDJ18Z9wYA63A7iPQ82CNFJDzzwgHmDYIwzGORc4wl7++2320LKBwZOeJGwL5GCewu7lMEq9g3XJenAVggRG9BmIUYgQGXVBF+iw3lEpKP9pp+ln4ilWhnYFjjwePuB9j4SnrL0v9yP/C6CLb+Z1IbiXNLnIH5ec8017v7777c+HC9GBFX6dj+WQ3xE0KK/ps+k78YWwkbA9giHvowx+xVXXGF6id8m/S+2lbddOC/YT+gw559/vrvttttsfSJ9WQdbI6lthbiKTejtJ77DecUmCRdD2V8EXIRK7ByODZsNmy7cdgIETXQtjhVPXGwOjhEbgWMjpUJS/YLzSxQSWhB6S3LgHIdQyTEQPXTTTTeZLcO+ow9hC7KkBNeI48CW4TjIVctxoMFlpSMa3rThdhTnAPsLz27so6y0v5Pi7SBsSO5XbLCktmOkyZInlBuABoDZfR4yvD0jAb/JbzNbwclNK4SbUSziUMIux0ExKRoBbghuQC4U7tg8mDzQ4bA91k1NKMZrggaKgQGCLOo5NzgDmYsvvji0VtZCA0XjRyPDwISBEB13TsNsKw2cv3fCOzsaHfabASmzGZz7PXt223qEyIcv27dvCwbRVJ1d5ObMmekmTx7nRo0aFgwABwXLwKBx/9YNHzEwWAYEDefwoAGdFWx3k8tf4EhXtRrn/izXouW5waCyYfDawLVoEby2OC9o9Oq7evUIwS/tihY93Z100gnBwDHt9xjHcO89z5swB4h+zZvf4j795Av31ptdggbyeffKyx3tMwS2r74a4l566cPgOy+4e+5+3r34wvtu9OhJJramxP33vWjb6dTpc/fIw6/Z99k+4mh4EapdO3e74cPHuVdf/SjoJF5yDwTLO293NQF3z56/13vggZfd6693dt26fekef+yN4H551j326Ovu6/5DTfhcs+aXoNN4yoTLPp9/6/7zn8fdC8+/H3QqB8TdTp16u3ff/cz+DueHEePdXcG2vAi8fj0d73j3ZrCv993/YtDBPO+efuod98UX3wXG5d+Vgzt37uPuf+Al16fPoOD4Xg0a7Gesen1y/Pbb77aPPbp/7Z555n/uwQdfca+/1ilYf6LdT7B+/abgdycE56irnQeu0VNPvu2+6Df4H7+LkI1g+vZbXd19975o57Zjx15uWnC+wmF7I3+YYOtxTv32+vUd5H75ZdNBMVlEHwhBtPW0L7FkbCcyDDwR4vAypL9NT7+fVpj0pX/GaMeIxmBm8aHhGPk+vQ3rPv/88wfzm7I+9xXRL3iJ8p20gOcj9yACIEIZx0aEDLZFUsMbY5VBASKgnzD0E5F4E4QbldhjGNKIiikN1jFIEVz5PcRGBEz2gRAxRFE8UoCBBWFbTBIzaOC3sWkIgcMj0nsrsD28HRjwkM+c72H8cp4QTjm/4WCXYAdhF2BvsV0MZc5J+OAI4RD7hQEPbTrtNTYU5w1DPi1gdzBoQ2T2YjC/wYQ2QjWTy4ivnDtsPsRVvDfwqog0nDO8YPx58ANVIUTs4D1NaaflaZp10AdROIbzSziy739iAQQg+jP6bXSGpAJjVkL/geciE87YT4icTBKSVx39JHxCEZhARZ/AUYz7Fe2AbdDvY/sQJfP3WGmf7T+2Av0T79N3IizSn4bbaPS9iLDYEziX4bGI7UDfj7epv35+shTbhXQA7CN9PmH59MdE2ySNVkFXwQbAHmCfsROwnfidcBsCL0r6fsLosSNZF/sIDQZbJRz2AUGX7fLscqzYXNgz2Hh4hIY7vNFfM5mMfZPSc851x8sUWwN7CzsSZzZsP2rxcM4OFWnswT7l9xBzOQ7GMtht7Gvjxo1Da2UdXFfuAYRa9CT+5vpmd3uGfclxcv4599zDOUmWiKbckBwIN0CkBNPMwANzKG9Q4MHn4f3ss88O5i/jwWaWA08HH0Lv4WKmtD0PMzQ8DN4rwkMDw4xZVsNx0EAyeGGAQWPDgxWJ2ay0QCdBh8EAiQGXh4eR84/YO3XqFDd8+FDXp09v16vXZ65Hj09c9+5dXM9eXYOlixv47edBZznabdu+3J108h+uarVC7rLmtd01117grr2umbu6XVPXrt2FwXJRMFBqHDTOZwcDoYrB+T4juA9OChr7v/OvZTf0MXhxXnhhQ/fNgI/dZ93esIbovfe62fV5/Ik73ODvugbH1NnVqFnFvCQR/FJj4aLlwT10quvS9VXX+/N3gmt8XNDpjQsatr89dAZ+OyJo4Ke58hVKuW7d3wiWN83Tbsj3Y8yTM5zFwfZOOjGP++ijF9zQYZ+51lde5GbPWmBenqVKFQv266ug0yvtHnroVjdl6jfBb/4vuK/TF1IycOAPJth26NDWfRsc76BgadP2UvOGRYz988+/B4cbN2wJnp3NrtPHL7pRo3sHnUryEwx4qfbtOyjo6Oa5//ynnfvk01eDDrqFW72KYhoHOng8YycH5/XmW65yAwZ2st9ud01zEz/JV+q9Q6dMnmVettyjbKdzl1dc0TNON8/XcAYH52TChOnuppuvDK5psL1BnYN7r0VgoBDGyvbkwRitIJgwq5t00kZEL4hxCJEY79lla2BsMwDg/qAPQsTjN7FzGBx4QRF4vuljyc3JbD82AkIhBjkiHIO5tIC3Am0NIVrhMFDAIA4H+wMvBApgYmAz4MBIRkjl/PgJIuAcIb7S1qcExiiiIMeGPXMoOF5sPfK9MqDxx4uNhGDrj5dXPDwYwCTdHgOnpO9xfklzgDcJg2DsLbwYCMUL97DkfQYqDz74oPvwww8tFI4BFvufVnjmGYSFD1L5DQY/PrTfw4CAqCQ8Z33ag0iDbeijcvxAVQgRO9AeMv5jAiS7RYZEgjactpzJLdpGhKhYAecrRLjsGPsnBYGRfpr+k4lRcp8TkUHYNqIb/V44CIUU1WaC0098stDPUz8Fe8X3RXyX46Dv5jPyXzLJiF2dFO5/xvzhfS/voYlgX/l+nP4YW4aIHcRbDxO//B59sQ+L9yDAIq6Fw3fZz/CJZM47NoBP2+jh+0nziKJDcE8hDmJj+fOAbcLxMjGO164HmxFBNTXbFDsKzYN10X/C4X7AzkwtAhcRHFsl6T4jgB8qLUBmwK7kviA/KvYv4jdtWfi1zE6wGyGnUxVliXrGDcwDwsWPpCDHA8FNw80TPlBIDW5I72GQHDy43bp1M2OcmRZckt98801rEPCUSPpbqW3P47+XdACDkJraoCactHgbIALQSdPwYXDTUNIoROoGTw32j0aPBo0ZFZJRP/fcs+7+++91Tz31hAmj06f/6Pb/usEVLZbb1a9fLmi0qromF5wVDBKrB38fWBo2rObqnF0haFxLBo1NoaDBODVoOHMH98Zx/1py5ToueMiPCRq0o4PzfaTdq5E8H/zWxRef7+qdWyMYnBYJBsSn2Hv/ufVq17r1RZbHlByofNaqVbPgG//nFi08EO6YEnVqV3VNm9UPOqPirmzZku6K1he6X4OGnHByz7ix09zpp+d3F190nitXrqQtiKGIhLNm/zOcvs7Z1dzFl5zvypQlf0vhoKM83zqBlSvX2nk7LdgOYjM5V08/vUDoOEJfTiMXXdTQdbiljatevZIdc7HihV2TJnXdmaWKmZgafo8jcF9xBQXYSgYd3WnBdUy+ANPq1evcjBlzXdurSUVR1davd27N4LvNgufzwGxnswvruw63tnE1alQKOptC9ruNG9d1pYNzN2XKrIPP6Lz5i92OnbtcmzaXBs88ufNKBPtXz65dOE2bsr2rbXtnnBFsLzhfjRqdY+duyuSZ6WqXRGTh2aPtxQCgzQ83rER0wvPEQp/L9csO6BfoMwlLQgjEyMagZ4DBAALD3Ns5fPbRRx+Zkc+AgsKN2Ap4YyIMplXk4phYN6kdwe8ktQ0QTPEKxfBHqMXTFduEsCn61fDf5Bwx0EiLXca6nNeU1sVb6oMPPrC+G8HUH+/rr79u3pm+3WYfGBhwPEm3x/GEe58AeUM5v3jxPvzww+6tt96yY2IwHN4XMNhjIht7hu0joFJMCzsnadqkQ8Fvc5zh8BssSe8rf0785zkB14/ziJ2d1vtJCBE9IKwggtAnpOTxL9IP7Tlh2HhAErGRVMiKVnx/krQvzA4Y+9OnMrlLf02fiUckGgopB9EKwsEWxgOSIj987+2337aFyVKKSmHfeFuFyBccsoj2wCahH8ZGwCbAGzK838QW4Hvhfax/j/7c92++v8VWSNof8x6fJe0L2UbSc+ltj/B1sbXYjt9/D99N+h73EWLdCy+88I/z8L///c+OsXv37uYd6mG7jJVTsqGA/cFW4zeT7rM/5vDzlhze0SMtx3Eo2I+k5zE5OA+IvO+9956JutjGSSeesxvuLX4vfBI9J0jdkk4DHEhaLnJWg6JOJ8SDmR5PA7+/h4KHF9d1bgq8OJhVYCFczHuYhJPa9jx8l3OUtIFiAJL0PW56FrxKws+r73z9A5McNAp4v/Tr18/2i5wv5M1IOlDISdgvjo99wi2dc83DWKJESfs7d+48wcN8uNu5Y49bv26T+2XDlmDAtjVYttjfGzducTt27Aoa91/tXHD6aWzY3hFHZMltnS1UrkIxjoLBvv7dqBU543RH7tNevb5xr7/2cdAhfeA+//zbwACY4zZv/mc+u+Q488yiJhAee+wxtpx1VgXH3UgIvGfFijXBs3KyK1sufL2K7rDDDzMvy3BKFC/iKEjFOjTAxYoVsv3dvfufHtaZAaH1t+A56//1kKAT7+pefqmj+6TrF27M6Mlu9Zr1/2jI8+U/1Y6JWa2UOqMd23cF98pGV7du9WAAnzdY/1j7nVKlix/8Xt68hDr+6fr3H3bwd7t27edGB79L6gH/u4TqIyjXqFnJPHc5FwirnOdw8uU72Z5PtkeI/ssv++1NCjoZPFwj2yaK9EP7wf2R1HgRiQveDwikhCIhmDK7zSshZxhvHrwTycWFRwS2AkIigh6TqxjPaTFIwecZT2oHIJQhVIbDZC4DHX6PgQ2/SXogvDWS/h79bGoGPNB3InpiW6RklBIVQq5X7Al+G7uI4yXcLlwMYHt4yeJBmnR7THIn9UIh5xjnwNtbHBMCKl6/4ceEVwVhcfw2XjNMarMvnA/SH3m8PZbc+U/unHCtmIBnYBA+4PaDBfqenPYQ88ckhIgtvKcp41V5mmY9vggjIiBh3km9EKOVtNoHmYW+1ferhG8TzUGKGmq2IHISUROuKRA5yzicft3rH+EL/a7vj3CWI2yebeOFSepD7CH6eLw00SM82AL0/+HHzXvYHUxUYzcA/TF2Fp6N4dE6aDO8l1x/nNb+kWOjX8eTNRxsuaTplNgH7CJsK2y/5M4FtqLH2xap7QtjDdoCfjPpvUo7wTnzNuGh4Dg4H0n3GRstaZoKziu/iRgefu45t6yb0jiVfSFqiPyt2HhMUCAkR1pPYr8j9bykRJaoS1w8BEGMy/AHJLshlA2hDW8Diixxs3ETsA/cHDyIJDrmIUsPXBgGK3iUYPgj7nFzI84mHdSkB8Ls2DeMe7bHDc/vEHbFDFk4PDDcoCQhZh3WRUBl4EaF3aQpAsKhUSLnCF4yDCwoXJHaAxhpeIAZpHC9GPSQe6Rt26vdTTfdHLy2CwZiTV25ctWCa3C627//aLdlM56z+92GX0LLhn3ul/V73bp1u9ya1dvdyhWb3IrlG9yyZevcsqVUx1/rli5Zc+B16ZpgoPlLcF62BA3lDhP/EMRy4gE84YRc/2psxv44xVFECG/QqdPmuGnT5rqfZsxza9f+4vbtTz2888ijENj/FnxoIDmyP//4uyFEKKQxD1/PUhMEK/6ZpNgUnrgsHu7/oLlyf/6jYQ06hWT6hcODzoK3wxthOuPfk4j8hLkPGTLGjR4z2U2dMis45jnmJbp06cqgE/2nx9/RwfHkzs0sU+iNQ8BvEtbP+T388ORXnjdvsaUkQNTEo3Xa9OB3p89zS5ascLv37A3uiQPr8Zxyf4Snb+A8HBUs4cybt8R9//1oNybY3hS2x3GwvcUrg+3RQYVWFFEH15d7k76CeybSRoBIP7RtLPSJ2TkhgbHso0ronxHlMISTioN87qNsvPGM9ylCanpmxLFj2D65ojDmMeo5Rn43vMo+8Bn3LeFl2F38TfhdUhsiPWAfkF4JL1aEYgx5vw+E2nnDnOPlM3+87DP2RnjVfuD8YVxjl5F/jHPkBypMSGMrhsO5YsDLdnkO2RZCKpO/4XAtsMEYYPnClnj40rchJnsYUDGRznbS0s9j55FKAEGYfcO+ol3g90kBwKCcfcsJON/YSQjIqQ3GhBDRB88vk1+0mRJNsx5sc8K+KT5E34vIQ/sdzRwYpxwe8f3kN+lrfX5R7k3OV7j4Rgg8fTVaBfctfTcLghzrIrT6fhXPXlL7MJ7HsYwJTURZ+lPsl/D+F9uI/h+hjt/FLvCV3Zkk9ToF/Tsh5hRLol/3/THfJ98qgi5iZkZAb+A4KAhF6iXsJ/7H9sFeCQexlH1iP7ALsFM4D7yyL2wjIwI9NiTnCtsI+wo7BY0HXQi7h7+xCVOCSQLOH3afPw72heNgCcdHR3F8nEvW5RhwBkA/4/cOBfoZNij7iuDO74Y7DkQKjhGSpmCINFkimpKXgRuYRMwYqmkxUrMCRFMMcx4+8mGNGTPGBg/eE4MByCeffGI3RXpA0OOG5WEmdJwbixuT/Frhhnl6IaExDwuKPY2Rr8yGoU5DEg7nFEO+V69e1kAhljKYoUMgp0T4ACUp3OD8Bg8lAyvOD3nIWGgAeWByGu4RHlRmuBgM0MDyUHN+GJzQoDN71ahRE9eiRatguSJYrnSXX97GtWrV1rVs0dbVr9/MlS51VtBYnx408IcFDcJ6N2b03GAAF5zTYTOCxnVa8Pf0YJkWnN9Zwf25MDiHK93KFeuDRntH0MBQhGrfPxYEu7179wf38a9B4/h7cK7+DAbnWXk//3PQw3no1u1r99uvv7kOt7YN7tdX3VdffeA6d37JnVO3epqepY0bNgcD180mGLLgtYp4efLJf3tF589/iomCeJX69fA+hZNPSX8jhCj5f8F5YTvhYAiwyxSw4rwxyN68eZst4VAYauZP84NreaH7qNMLrk/fd91nn73urr2uZbDdJGJIcMrSMlgkbP+UU04K7qnlbveuvfbbVNPftWvPwfM4cuQEN33GXNeyZTPXseNzQbsR/G6319wN17cK/e6B9cjpikDKOeIe4DjxPg333oVRwfYoDtWiZVP34Yd+e6+7G9pf8e/jEFEF9wf9FW2OvExjAyZoWeg36NeyC/oiDEP6IGwA7AkGEnhAhLdFDICxQ+jPMUixGbA3CDfHEE8rhKFjnOMl420DDF/ESAoXhEN/iVg6ePBg+z2Mbox6BhMZBa8HwusYvLAdXhkIcUzdu3c32wM4XgannBNsF34fO+vzzz+3QZYHcaB169ZmE3IMHAu2GetimzDwCocBEoMSBgz8LgUYvv76a/tOOD179rScaXzOethj7AfXK7yYBSInk+bsv7d9UhoY8PsMuPlN7EiOl4WJclIhYEslzTcbCei3OC8MGLCJJJoKEVswuUdfRftI2x0+6SayDkLQacPptxkDI/akZfyUUzC+x55IOoEYKRCaGWvjFYpgyoSkBw9K7GNquOCkhT3i9YpvvvnG9ejR4+CkNZoENoK3W+iTcVZjm+RID++z0DGwcejn6dvRNrBduF7kgUcsBSJKmBRlXewfbBxsMN8fs89Jc72nFbxhEQ6xn3w6B+wJJkeTFl9CyEU45TywcFzYHbyy36Q7SK9THiBak2oIGwN7i/PKueMcfvvtt9ZGoBelBCHy2DR487Lf2FQcB9tjO+Fg3yBq9+vXz36T68D1xjbjfKZkS3P+uQc45zxjiK3epmICOzudFzw8xxwf91J25GtND1kimtJIcUFQub0HZSTgoceL8sUXXzSRE2Oa3BokNqYaKwMX8k0Qnp4euGH/85//2ICa3B24sJNfiwYZYzyjYHTTGPkcGQwqqNLP4ApviXDY51atWtnN/Nhjj9mA5oEHHrCHgjxmyaUJ8HjPD/aZ7eJt6hdc6HOqkQ6H42I/8BryM27phfuOhxjvn/r1G7jLLmseXKtrXbt2N7hrr73RXXfdLe6adjcFyy2ucaPm7sySZ7kjDs/rVqzc60aNnOu+/OJH17vXcNer51DXvdvgYED2nevd+/vgPhoVNBTTggHXQhMg8UzNzoYBYe+A5+2B8PP16ze7jzr1Nm/TtEA1+G+//SEYJG6xBRGWDo9iTZ46dZjVWuYGDhgRNHSbben22Vf2rFaskP7OJ/cJudyu3Xtc0vQBBQrmdXv37XPfDvzBOibSKPT/eqgbPGhUaI0D4On7V9AQcsyE0W/bttNC3PleRilcpKCrWKm0e/d/nwWd0HxHKofJk35yXbv0PThRYB7Gf/1fcO/8/bsDvhkRdM4j7HMPOUzxMu3apZ9bt26jndfvvx/jvvvunwLG778fENX99hCLBw4YHmxzeGgNEa342VbaEfoSEf0wmYjRhJHNxGF2tsu0yRjYgH1DSFpS2B8KMDELT//cvn17E97od9MT3YH9gocGfRk2BwWe2B59OcZ1OBjyeHJgxGML3H777WYAExaXUXgGKHhEpXwGOxSZoggEuc+wefDsAIRJ9gsDltyj/D4T1nh8hnsAsD0GPdg4DI7uueeeg3YU4fXhecDg+uuvN1uAvGFUwSVXKvZS0iIHVLjlupMvje1hFzFoYPKcc+LBduLc3XvvvZY+ANvHC7/JwfGxXrt27YJ2/nvXoUMHK/7AoI33SNXgz0EkoX1iYMKggUFiRuwkIUTOgTcYY2MmphjraOIj+8B566abbjKhB2ErUlpERkAHwEZggpLxWk4JvPTH9KkIdx4mRrFlmDTGSYt+Fq/UV1991cR/+lp/H/t8sl27drW+knWpUcLkNrZJuG1NH0ZfTB54+nzsAsRQ+nLsBcREQMylz8UGQcsgjznXFYEP24jPMqrF4GnK/jOB8fTTT7sWLVqYvYP9gQ0QDvoC9he2AIItth77Sp2b8ePHm32TEbuAyWdywZIigf6dwpZsixyynHvsHO6PlMCGYj3O1TPPPGOiM1oR9xGpBMLBdmVdbLu77rrLziHHgFDL8aQ0kYMojE3Evvm0SH7hWqfHOSAjcDxoCYi0tJ9JC3hFmsPy5MmTpic1tRNDx8AFoKFidgFjNz2DhozCCaVhxFUazwIefhogHlQeQG5oZi+4SXGrxtMB9+KkNzoNF4Y+NyrbxFhlBgI3crbPjBAPEIY42+PG5n22x99pfXDYPy4++8v+8KCyPTxneCDxcmBmg2NgXWYEEKIZ4LMuAxM6BhoajoNBDI0YHh08hBwDAxo+Tw7Oi18vp+Ccso88wAwS8TL1jWV2wbXyIQYItr/9RhqHP0zwwruQa04fYPfTH7+5/fv2ur379rh9e/e4/b/udX8E3/8/Rxg7xToOd1WqlAoe3kOHBzCYr1mjubvttmusUjuh4HVqX+6mThtg+TnD+fSTLxyV8hEY2QfuNQoKDR8xLhggV3SdOr0YWvPf1KrZIrgf8gadUTG3Ifj+/n2/Btf2OCsMdV7DOu70Qgf2ccmSlW7woJHBfTLH7d9/IGfb8ccfa8WNGgTrkWcV2Mfrr7/c3Xb7Nfa/57//fcq+17XrK/b/669/7KhSv2f3Xium9PbbT5jIQHj6sKFjHUWVGODlzn188NwUcEuXrXILf15mx48YOXzYODdk6I9uWfA+Hpkc82mn5XcrV5FWYaWtR4qAu+9+Lmh7dpkXamqwHuH3VN/funW7+yN4hk495aTgHFYyD1byso4YMd7C89kf/7sFT8vn1qz+JXhmlrgpU78Jzt/xwTO6yY0bO9XE6D179wWdyjEuf75TTESfP3+J7R/H9sMPE0xMJa0AYiz7XLBgPrd27YagLVxo65GSQRyaJUtWuVEjfwqMsg7BPRm5c8VAhpluhBomrzD+RPTDdUMkZNKNPhDhMjtEb28H0JfS9yLiJe03fT+N7YONRLvv7Q48ErANsBvow/FqoO/lc/p17AAGCh5sKOwLjFT6KY6JgTa/yfb5LjYVn9Hn8x7GJO0sAwCEXbbr1+Nv7IzUPBbCoU/mO7xic2BMc34xzNk+x8s5QQjF+5HjZf8YwHC8nKNwo5bIFkLcOX7Wpb3lc2w1vkcKBGCbeKgwgPB2EdvkODlf2AnAOea8sX+E6zFwYwKZc4wdhVENfI/7w9tvXEvOC+eW/WCyPSn8LvvL8XNNgd9m29hcftuRgH3k2uIxwrXkPs/pwYIQIv3QXiG44NRDEZlwj3iRtdA/0Ucg7tEfMOmJs1O0Qn/PZB73CMIWQmNWi+r0ed4uSG7b9OP00fTN4dEU9Mn00+wbtgnfRUfBJuEe9pOkfj2Oxa+HrUCfSR/uBTlsbPpXJmLZJ5zSWJdjpo/FxgjfP/ptthneH2Mz+P6Y/QV+Ex0GgRc7KCmcX/p2IoU8HDPHxfb5jG3x+4Btwbny0Wfe3mKfsT25x7AFOH5sI16xV9geOg7fTas9ir3D8bF97C32g3PLkhb9zNtDLOwn+8Vx4HmKFyyTB5wT9pljxsbi1R8Dn3H+sXGJpuGZ4ZzgBMBxcFxEE2FrJocXf7PLNsIO4pyji6EpYk9z7TNL+AR/esky0RSjFDGKMCweoHBjU6QONwUzOV40jVdovHkoeRgIT2C2hAcvWuA+pvGhIziw7LbX33//zfY5eIzd3HmzgoaifDDgK37gS8nAdj7+uE/QkFeygkvr1m5wnbv0dR06tDFxMByEOLxKEd4QJhEzK1cpZ6Hh+fOd6i659PzQmv8G0bRxk3rB/pxleTTZ9xIlz3A1qEpf9PSDnik0kgvmEw6x0K1dd6CwSIkSZ5iAS/V6v16Xzn1dlarlgv2ubP97vhs8KmjU/3SXNW9s/7MdvDlXr1rvTjnlxOC42rrDjzg86Nz2BI3scgtZ37J1u8ud63hXukwJ6wAptMTx0xlt2rTVzZ+32M2ctcDt2rnbHRccMwWt/vrzr+D+2GSpClgPgXN/0K60aHGB/W5KcM7xCkYYXrRwuaUjyJ//VFe1anlXvvyZdoz2u8F5mBXs+85dwe8GHXrJ4Hf57rrgvLB/dBRca4RPxO5lS1cFneARdl6D1YLB+Do7XsRftrdgwRJLNXBwe8F6Qe/v1qxeb9s7Oiw/rPg3OSWaIuQw2dStWzebsIpm41r8DW0ZbTITnRjT2BhM1EZS1BIiu6CvZBCFAwIDTgYKTCxnx8SAECJ7QUhBNGWCFk8wL86I7AHbnZBxFoQWvBUj4cCVERivoZf4FDPYMdgzXrCLJxBNEcDwMhXZCykU8KL1omksgh2EqMwEPc8GkVA4I2TFsxEVomk4hM4hjCGGhXt6xmNDkFXEs2jKDAqNJQNcZjqYTSIckcFArIG41qPHp65ataKuYqVDi6aRAtH05puvMpFRiFgkp0RTjFVyK3333XeWjoVOWcQGByZIdtuMOh55eDQwY04uTdkZIhbhnsbORjBlQgdPWZ8WQIKpELEJk3uM6/CsI+2HLxgosg/Gmp06dbK2lNQx4REd0QbjY7z/yIWOhybOZghdOJ7FExJNI0esi6beDsIzmb/xGMe+zyo7KDOiabYkSCLMkbwRNAR0FngX8jeeqAe89URS8JJhhimejGM6A0LouPlx96bYFZ4TeHTFomAqhIgfmOVHnKAzlpdibMHEG94jJMMnRIqCPyz0NQxO8UYVIhZALMU2ZqCPnUS0FhMB5AtjAC3BVIjYhck9nm1CbvUsRwZsA4RSxpsU/MHWo52NRrgncCwjRyT6CF6npAYkmoYxdLTud3ohjQ62tsh+uO+J5PURpLEA9zn3O/e9LxLG/9QHICVEtLSd2XZGcTO/6KKLLCE/M+Yk6yfvBIMa8W8o7kDjntHkxtEIOc4oVkFVOmbNSHRM3hYeACGEyEmY0GEmE+PC510SsQWGFHkxSXLPpCN9KB4bXFchYgEE0mnTplmRC9okJgLwMCVNTHiONyFE7IEIwDOeVaGlIm0wpiZHJ/UzSMPENYhmEBURTnE6Iwrqiy++sMhMBN94gAJEjzzySOg/kZ1wH33++edRm5YiOXB24Fnt16+ftZnk4scOYmwWTXbQEcccc8wzob9ThEpb6QGFG6PPJw72Sex9kSI8QfhMHj4HoDNFWIylmYGkkIOCwgt4SrBwoyOe+2JP3qMrlo8RZs+e6U477SSXv0DOu72XLVfSikWddFKe0DtCxBZbt+5wK5b/4ipXrh70GZHrD4iAoDLnWWedZcZ1vIVDJQr0nSTQZ9CB1ykz1nhqkMCevzEcNVgV0QQeRRSWwDuaombYRoj/FCL1kzgSTIWIffAcJK9p/fr1LZ+pvE0jA+eZsSaevth5RDgSlhut7Sr7xT6jixBSzSQwOR0pwkNEFO/H8uQ+NpqcEyID9xFFs2LBhkAzmj9/vkXZ4FlKkc5SpUpZW5lddtArrxwoaJ0Rsk00BQ6WwQqDGfK48NB4MdUnQKZyGCcNEZUTxOexcKHF3wU5GKAyI0YFN9IwIIwyUEUoJRE3M6w0+LEulnqiSTQtWrSQBNMYYsuW7e7d/33mChcpqOsWIidEU0QLBjLkM23ZsqWFwWoCL3ahb6GP8XYGdgfvMXuN1ykLNgc2hgatIidgUpnBL04DRF8xmMcWxqmAyeVixYqZeKr7U4j4gbzb2BrYGbHuGBNLoCNgE/CKaEoUJ/YBYlI0Q5/A+BnhlElf/kdMwoahyj1/857sVRGLcE/j9c2kMe3ili1brE3EDiKFCQ4sTG5wj2cXmRFNI9Z6c1IQz6pVq2Zut/ztq4QimiKeIr6xIL6RA0b5T6MLf7PTeOOlxbWiEWc2jOvIIICGHI+Jc88917wmYsk9XIjsZsuWbUGD3dGtWL4m9E7kWbBgqZs+fW7ov8QEMY0E47z6SR0RH+ChgfcwYW7kCqNfwjDDrmByj76LQpVM+Cn3qcgusF99ChB/3zFQwN5lcpnBO1E42EpMLiP2CyHiB8a4tAEIXYhgEkwjC+NPvNZq1aplRT/Jlci1iHYQeukPqP2BhyzFoelPGGfTnzDpRn+CTYMNK61ERDNoR9jb3K/ct9hD3MfY5dzrFAbnGeV+576PZsfJbKmenx542DEgcc8lTIlOhtkgjEhC+pl15wTS2eA94heRvXBd6FwYVPoGmRufwSYdD17CXBNmBqg6jfCQCK73nINoqp6fk+zYscvOhzwm086iRctdrZot3DffdHINz8uZip4vv/Rh0HGtdR91ejH0Ts6SE9XzMTpHjhzphg8f7t59911VtI1zMNgI/yG5PBN/zGozECEEyEfAYGvwGs0Gm4he6AuxmbBhsZv4m0EB9hI2LnYrHu316tWzKskSUISIb3j+e/XqZeNbVQ3PGSiyh1hDPs3GjRu7Sy+91CZWY5W5c+fa/cTkGx55hDMjyOOZRx+DHSONROQk3hbyGhIL2hEps9ASsb8rV65sExo5EVmTmer5OS6aAqIchiYLIMhhaOLJ6GdRCPHH4ERMZaCjRiH74EbH05f8s4gLXHuuAY0ynU25cuXsFa9SroNvrBNhsCnR9G8ef/yN4Pn81b355uOhd0RqRINounPnbuvETj454x1HVpIToumMGTOsYBBeiHfeeac84uMc2m1vY9CX0aeRK4zZbt7j+jPbraJgIiP4+4twMyb/GaRjEzGpjNczoaEIpbwX7Z4UQoisAZGAIsiIpy++GB2T1ImGF3A+/fRTa5/x3LzqqqtCn8Ye3o5BDOa++umnnwKbfqd9hjaCHUNudyFyAp437k00PNo/bGy0ItI1VqlSxWxsNCO/5AQxL5omBaEU0Y4BLYN7fxFoGJixx2uEgQ8z9RiiNBR4CnEilOcj7XBOOc/e5d+fVy+EEtqIWB2ea5YwVs5zPOUoTQ/cixJND3DHHU+7fft+dV27Zjw/SKIRDaJptJEToumQIUPcpEmTLJXIJZdcovD8BIP8pvR9hE56G4MBCHYO/SDQzzH44DWnjDsRvXCvEG5PiiLsUu4h7FC8KLyNxMJ7XjAVQiQOkydPtslZnv177rkn9K6INLTNhAR369bNBNRWrVqZgBPLMFZnDM/4HXuGY0Q7QSdBO+F/9BD6HyJBlf5FZBfYzjxfLNyP2D3ocixelyMdER7R6Ek5PWnMPmWUqBRNk4PBDYYpF8fnO6VR4BUY+Hh430NDgcFKAm4W/k6EWX7OBw0oA0DOF680rB5/DvyrN+j533tDcMNzkyeqQJoc3FtpEU1Z7+OP+7h8+U4JGoyj3JIlK93vv/3uSpY8w1WvUckVKXLawXPKuosXr3Bz5y6ysOnfgvWKFSvsagTrFStW6OC16RxsL29oewsWLHF79+xzN9/SJugQ8waN1To3fdoct3TZavv8zDOL2nY2bdrqOnRoY9d18OBR7q8//3KXXtbItvf/7J0FvFRV14eXoiIg3d3dIN3djSAqKqKI3d362q8tNkh3d3d3d3d3CMb3nWfd2TjMey9cuDVz73ru7/xm7syZE/vsWPu/117bsWLFOlm8aJV0ebSD7jfe2+/wkWNSoEAeWbVyvZw+c84rN0mkYME83jUV8xrhVNL9t8He/Q1QA6R5i7p6nM6d20u2bJm8hvySHDx4RJYsXi379h9Sb9Q7kiWVPHmyS7Xq5b1jhYnw4UFanD17XpYvXyubN+2QM2fPefkwrZQqVUSKFMnv/e4mLfP79h3SfbZt2y3/98//SabM6aVYsQK6ufSaNHG27Nl7QK97/fotcurkGRU/8ubLIcWLF1SPy1UrN8ihw0cl0c2J9Npr1CgvadIy1eUWvZYz3r0vWrRStnnP75yX3ilTJZeCBXJL+QqlNJ1d+QnE/XbhghX6bCl7GTOll9sT3yYPPPCSjBnz62XR9Pz5C94zWC8bN26TkydOS9JkSSR//lxSuXIZr+yFNTDnzp2XnTv3yqKFK7068KQkuoXrzewZfoW8Z53Lu+eb9Zw871WrNsqmTdtU0E6XNpUU9dKkdOmiek8wbeo8OX7ilNx1V2P9n3TYuGGbptHhw8f0OJm8ay1dpqimXWLvmqFvn5F6z4RjWLN2k6bHvfc29/J0Tv3+Rolt0ZT769Onj3qbdurUyctXRUwUS8CQH6jHmOGCjcH0ff6nDcWjg+8pg9RZ1C0MJtIumsdg/Ie2BtuTjgCLOJE3yA/kBZcn3H6AzUQHlQWdbADfMBI2kyZN0unUzMy77777fJ8acQF19OTJk2X+/PmqAzz55JP6GlFfJNSgXaKfj0aCcMr/2DDOjmEjDbhn7BfaKBNSjeuFPIYeiE2EvexsYPKbs4MQRrGDmGlDXgu2MpYgRNPwoGPDiAoLEbFxjYy8AA8Q6AzzAN2ov78hy8NmP/fqOkXEWGA/FxvE/R8XkAmp7Fwnjlfukc/532VS8L8fPkeoQTjF6HfByN1+bFSYeJLiGcH0MURlJzgZ4UP6RkY0Jf3L3dnCS9eMki9/Tjly+LiKh8mSJZFGjWpKjZoVvAolg+67Z88Bz7iaLUuXrpHTp854z/svr2FLInXrVtH9cuTIovvhoZg1a0bJmy+n7N1z0Humf8gXX74hSZPcLjNnLZKJE2apkJUkSWJJnyGtCrX79x2UJUtHad5+/PG3NS/9+uvHejxHj+6D5fvve+t+PP8nnnhbli5ZI02b1dYFixBN//KuCSG3foNq0rBhdXn55U9k2NCJmgdLliqsx/n889dUZNu+fY/MnLlQhbhDh47qdZLfMmRMK23bNpYypYtI8hR36G8CIU7qurWbZfDgcXLs+ElNC0TasmWLyQMPtPHKYiI5cOCwzJ2zVCZMmKn3yzNJfPttUqpkYWnRop7kyZvTu9+b5Lnn/iMzpi+Qpk1rq4h76vRZuXD+gqZNsaIF5E+vPHB/J06c0rKSImVyadigutStV1XF7pMnT8ua1Rulf//R3nWdlb+8e73VO3/mLBnk3ntbqKjM8wwP7mPNmk3Su/dwOXnijJeuN0uq1Cn0OZDeEyb8rqLp2bPEWtzu3e94Tas/LlyUm7xrz5QxnbRv31QFz+TJk+k+Q4dMUGETUZp6jfQs5aX9Pfe0UGGTRaaWeM9t/PgZXoN2SkV6hNIiRfJJi5b1pFChvPp8X3vtc9m2bZd3zu/1WmfMWKALQ+3w0uLY0RP6TKnzKlUuI/W8tChcOK/u16DBA/qKgL171z7vuV6Ud959WgXZqBDbointRM+ePb18ul3ee+89rQPji+FsRA/UB3Q+mGJEfqHtJI9Qj9FeMp0fm8C1tUB7io3Bq7WjoQV1Hs+cDgHCKO0kn7nPsTPZeM8z5/nSGSBcFLaThfcwDCOQQYMGaYgzFnxr2LCh71MjrqBNHzdunNc/mSkdO3aUcuXKab83vkK/n1iSeADiPIUdg93CPWP38t5pH/QpEFSdkxTtnJEwwe7x146we1w+8XfGQ5wnn+BIwKwsNuyiYCfBiqaRgQeLBwkVB3GmnCs78LDJHBjAZAgnsLqRGF7d//6JzL4QXqXivossgcfwPzbvqeS4Bwx253pPI8w1c+2uw8aruw9+S8eNe2CEE7UfD4j43DjEFqTv9YimPIv7OraSu+9u6v1W5LPPfpaLf1xUYa516wa672+/DVKvzAIFc+t+d9yRVLp16yv79x2SKlXKSod7mut+iKaIhvd1bKmCWtq0YZXTsKETZNq0+ZLM+90LLzzsndMz1gaO865zpHcdf9+QaDp1yjxp06ahPNr1Hi8fpZAFC1bI2LHT1ROyZ6/Pdb+IpucjAPfpPdL7bQcV7G6/PbGsXLlBRo2cosLgW28/pZ6w4YHXa79+o2T7tt3y1NMPqgi7ZfMO7/fr5YknO6qYN2rUFPUi5RpeermLCoNDhoyXZUvXSokSheTpZx7UzxBNR4+aKi1a1JXHHu/olYE0Kkz36ztSr7FWrcrqXVu0aD71XGXfKVPmyjffvqNi5Irl61T05Lunnn5Ar5nnxPXlyJHZO+Z9kidPDt+VXwnX27vXcNm796Dvt7m8c6+W777t5Rlsi2Ty5F4qmq5bt0UGDhwjmzdt17QuVqygCqSDBo7V4zztpQH5YvToqfLWW195z7ez1KxZ0TN2blVPWzyEX3m1q2fo3K55YML4meqd+/zznb2GLLVMmzpfZs9erHnllVcf9eqyJP8jmr7yyqcqTDdrVkdy587m1Tl/e9c0Vr2MEVqffOp+3Q/R9OiRE9KhQzN54ME23jFTab6KKrEtmhIDiun5lE0WBzCMyECdjgHJ6p9MyaYtdsIa3zENjvYWUdUJqg7eU19RXnj1/86IWWiz2XhG7lmx+eOmOfJcmXKPzYW9BcTgYsECNp4vNqFhGMa1+PHHH7WdqF27tgp0RtxDzOnx48fropBvvvmmxgClTU4ooIOwXgntHG0cfUL6VXieohXgIRhovzi7hdfosPmN4MDZROhMvHd2EhoZuhlhG8kveJQC+YT8kStXLq+vmFsHjEMRE02vgjOQnbHMa0RQeeBlwMaIFK90kjCgmZrlcJkrvMqDz6+HwM4T1+cqJr5zlRmCJ6Iui2MNHTpUOnfurI0wHbTw4LfuOFR21lGLHni+1yOa1m9QXR5+uL16aXq/lrVrt8jPP/eXzJnSq3jI8Tre97yUKVtMWrasLzlzZtHnhNj25RfdvcKdXN57PywWEqJpo0Y1dEo+Hqcu/73/3rcqRj72+L1SuHA+75ObdCp3998GqTh4I6Lp4UPH5PPPX5Vs2bPobxlZYnp2v36jZeasASreRiSa4lGLByjiL+Il98MU9OXL18mjXV6Xfv2/8dKviG/vKxkzepr88GNfefXVrlKyZGH1skTEI9QA7+GTj39Ub9bHn+goRYsyZf9mvV9E2TlzFsvAQd+p5yWi6fbtu+XLL99Ub128Pbmuvn1GyJdf9ZAhQ75XMZNwARx/5Yr10rr1YzJ0WDepXLmshjP42tvvzTefVG/a5MnvkKNHj8u8ect0Bfoff/qPhlAIj/HjZ8pXX3aXN954QkrhWev9Fk/Q6dMXyCMPvypjxvymounkyXO8c/wur77WVQXfFCnuEMITIB6/8PyH0q3b+1KhYilv/2ny5htfyIOd2kqtWpVU3OQe8TrlN6Txt9/21BAPT3jpgthJ2jOVH7F7QP/R3n39oPsGiqaELcAz9/Ykt+tzhaNHT0g3L0/w++++f1c/QzQtXCifPPtcJ01Pl/+iSmyLpj169JD9+/dLqVKlNJ6pYUQW6msMTNpp3rv23hmZeHQ4QZW2mzJCncrAKwOXCHBs/G/tcezA83KhnRBGWXWYV9pCngHPCe8aDGk8Jeg44jmKvQU8Q/ZhMzvKMIzI8tFHH2l9wcJDefLk8X1qxCW01atXr1bBtF27drqiPovUJBScSOZsGAeOWQhkiKn09/ieNpJ9sFmwXxg0tJlZ8QOeL3Yq9ioiOvYrz528ga3DM0cYzZ49u3qSulAOTk9y9lAoYqJpNOFEVTINnge8us1N+3dQkcSE8ex/XF7ZGPXBgOc9YQimTp2qlX6dOnWkevXqaugbsQPP53pE0/vvb60ip5vGzbTtV1/5VD0Dv/zqTT1endr3eZ24k5IxExVTWBiIPy/9pbEwGzeuKd9+945+hmjK8fCOxNPQ8fxz/1Hx8tPPXlFRDBAHf/t1oHpK3ohoev78H/Lzzx9ePg/307PnMOn2fR9ZtHiEV2FGLJpqjMyN22Xs2Gmyd88BnRZ/6eIlOX3mrKxYvt7Lv32kfIXwg7APHDBGvv76dxkx8iev0k6jFXMgr776mRw5fEzTzwmG3C+/xWt3xsz+6t2KaMp+PX7/VMsQcB+Iv5988qPMmz9URWnShuewfv1WqVyprYwd95tUq1ZOvVc//eRnGTnqZ89YSKciJCIl0+5btnhUBg3+Tj2Bw2Po0AkqrLLgU6bMGS7/dtWqDVKvbkcZNeoXFU1HjJgsTz7xjsYwxVMYYZe4s8RDZd9Ro3+RGjUqaOxWRNwN67doOIHbvHyCVyr5g+nzPLf33v3Wy5sjJFfubBqyQbxq5O+//lZB/eLFP2XO3EEajzRQNMWTdu7cJbJw4Uo5eOCInL9AKI+/Zcf2PSrm9+37pe6HaFq1yp3y8iuPXs6n0UFsiaY8Y+r31157TY2ADh06JChj2Yg5qFfctCU3vdt1LMh32BAMwLKP/3Qnlyf5PWUY8Q7Bjg1hlQ1jlf2MKyHd6OiRnhj/2KiIozwD0jMwXRl4Jl15JV1pW5yNxT60ES7NsbesY2gYRlR46aWXtIP+xBNPhMS01YQAbSkDaPSjiXHasmVLFU6p9xMy2Cy0pU44c/YJn/OZa1/dDAzaRzbaUbfIDw5ebOH124zYg2fmbCI23rvwQoC9w8asGeonZ3fyGc8cm4jPeK5s7Bef7KGoiKZmFfpBpsBYJrNQ8OlY44qMKIkLv/+WL1++//ksOjb/4zIyidKfNWvWy14qfEZsHFZ9ZnrBlClTZNu2bb47MIINxCcaIAcxOr0aSSsnB4JajpxZNFYksTvZKlYqJfff30pjiPpz6223XiGYAsfyDqkVpSNM7L/SqzqRl7+9LuIV14OQ94e3BYJ4538eygZSPp3Qfwl/0IDp9MOGTVAhM2u2TFK8WAG9t/z5cqkX6pXHuJKbvfMiyHJd//wTvlDAtXHDeIc6uKe///lb09IfjucEU3ANPY0Cwp9rCPif94QzcAIF/ye65WY9j/uMa+d/znMziR4BYb9NJJe8ZxL4W/+7wsMTj9xixQtImdJF9dmXK19CateprFPsc+bIqvsRG5fYrMS5rVylrGTPlll2794ngwaNVUEUSBemzLM4VJkyYfkIcbpZ87q6GBhCcnhMnDhLQxvwvAsWyiOlvWeFly9hGVwj6+C+o1MwjU3II8SoxDDEQ5+63TCiA8o7nS7aaOJc0o7TVrs2nOlMjNgznYl8x4bXBq94NrLxWwxU57VKGID169frgmW09UwrZLCU9xs2bNCN/3ndvHmz2gF4irgwRMyQQcBFPATqOLfFJZyfOpGBaIx5OrCET2IWzaZNm3ThlCVLlggLdrDy9OzZs3VjJWo+W7BggSxevFhWrlyp5Zn7pVNHO0iIBNKZwRCeA+nuppLxLLCrmGZfoEAB3XjPs3J2Fh0/RGrXLhiGYVwv1G/UvQhMCEgWGi14oP1BNKlZs6a2ubSrtKkJHbQPvEixRfzbUNpGXvmfz13sStpL7BnsGAQ37AzacuyQjRs3ql3ibBba6lWrVuln2DVM+0bMwwZw/SOgj+T/v/Ev9O+pU0g37CW8Q0lfbCXsJLfNmTNHbSTSmv2wJ7FNsTV5hu45umeMfYQtVLBgQSlcuLAujMsrn1M++K3ZQ/+SyDMQw+ZeXgO8c4y4h4qNjgGZnamAVFB0PBB53UiBEbOsXr3Sa1hSSYaMEY8cU/Gz2j0CPIIoYhYiJt58xK/MniOLro4OixavkqJF8mtMyZYt60nt2pV8K+czVTCDegfCr78OlLKIYQFTwlev3ignTp72OnwpVVzjPBvWb9UYl/v2HZQuXcJWxZ89a7HXkT4rxYoXVA9LhEm8WVksient7EflyEJCNIDNm4etiu9g+voiVtn37cfUcjxIWSyIfOmYP2+5DBo4Rpo3qyutWtaXOnUrS6HCeVXUHDtmuk4xz549s2/vK8HrcfPmHZIsGQJEGj3uyZOnZP/+w16+T6n3wUJRTJNP5d0D90tDu2HDVr0+2luuG+GV0AQsQtWqVVjsWAfphWcl9+F/3UxJJ41Z5ClnzqyadqRjSi/906dLo6Livr0HvWe4wmuMDkuTJrW9hii979dXQjxafps6VUq9D37LPcyatUimTpmr58Aj9NDBo7LHO2aTJrU09mqDBjWkatU7dap+xozpPeMkk4qUPDcWE2OqP6EDWDmfhZuIPXvPvc20o79l6059Lk29Y7Vu09DLR5WlUqXSUrhQXvVi5nh8T77AW9Wtnk8Ign+8hCM8RJs2DaRylTv1vljIi8Wv2rVrovv17TtScufKLlWr3an/RxfHj5+SnTsOevdc1nseMSfI0oHBs4DX4sWLq6FgGDENdRYdZ4xPOmsYov5iKR0POiB0PviefanTnIeH8/xgw2jGCA4bgLmkAwDU1f7vsQd4j3GNoMiCZ+5YCKm88j0hh9jH/e/OxWd4lLDx/lqbm/qO0MsrG6Itng2cw02H57o4P6/u+G7jM3c97ndcC/frrov755VrdWnAgBhCMzYR6YgwivHvL5Lynk4eA8+kb3zzmjAMI7jA/qc+ZJCHer1y5cq+b4xggH4y7QavDEzS/tBWJHRv0/CgraTNRGNwgqrbaFf5zHmXYn/QfiOGsrmZNW7jM9pu14679h0bgLVasFWcRySvfM937r2zfzgO9gA2AOfExnJbsEFdgP3FxrWTJtwHtpAL/Yh95Gwo3rvPsJ2cvcT/zlbiFVuJ92wcxz89ORfPjEFgbE0EUAaH3QAx/6MhYTOxD/k+IWlHn3xy5ezY68FE0xCEioERIbwkKDwzZszQafsUhISW+eOC6xFNiU2a2OvYsRDPkSPHpVevYV5jnUSndefNm1OfJRXpqlUbZfeu/brCOhXels07Nb4n4iBeg4Cgpx6EAaIpU7l37dwrK1dt8CrEbF7lekoXBJo8ZY53/JvVy5DzIEbu3rPfq2zPehVpWq9Dfdjbb5aKnzQ+1yuasjgUYi3xLTk+nozkPRYyWrJ0jXorpk2TSqfnz5+/XBesQqR96KG7IhRN8cTkmOPGTtdV7rku0mbu3KVSsWJp7/g360JHu3bu14WVEB653/HjZsiOHXukevXyGi+V64uqaErDTExP0ieDdy2I0YsXr9L0Qdis4F0P4nN4IEif8K5r6tR5kj592H3gzYmYjNjZsWMrvXY+5xoRk4nZyv0dPXpS07pP7xEqcHPuVSs3SPfugyR5iuT6m6NeXmLKPtfXrl1jFVYxInimLDSVKVM6vV6E3zle2k2eNEdq1Cyv4m2gaMq0fwyevHlzePXH7ZpnCS+AyI7gGx9EU8ojhkWfPn1UVCldunSE8aANIy5wnROMWDoiGLUYuYUKFdK2nk6d8450oiDveXWxxvg9eR3DmQHVWbNmyfDhw/X42AiIqBji2A14aTLwiqFO2eBzNjxB6LzwSkfGbezrNv/P8RDFs4TOJ56ieL3yezoBnAOPB16JI8z5+T3vMfZdZwJPLARNDHzuk42Y7WXKlNHYw5RXVqAuUaKEDngw08aJowjOzApi0Nh/VoFhGEZcgP2MJxj1IcISdZgRXNBnoY117RV9F9pT2mEj8pBeOG3QfjMw6bxT/Wd2uLaadpp0RuDDBiF+KumPJyqLs06bNk3FQGwCvCTZBzsG2wV7gldERz53Iiyv9InY6AM5myLwf8ok/7tX9zn9b/fef3PiLfv7f845/Tf3uRNzeeX47hx8hgjK8XjFxuLe3IKi3B/1xJYtW9SG4tXZYHyOrcT/3Dt2HfeFzoPNh31I3VK2bFmvv11SN/7HTsJWRNgmzRkgoI9nhBEV0dRimoYwFB4qj6VLl8pvv/2mBeTee+/VQmMVf8xAh/R6Ypqy0BCrmCM2njt/Qadgd7y/pVStWk6nZQPT2GfMWCgTJsyUpUtWqxCWJWsGqVO7sjRuUsvrPJbQ/YhpyqJSxDT15+zZczJ79hLp03u41/hsUC9NpmYTJ3XXrn2ycNFwzQ+IbCwKNGTwOK/SPqrXhQCGAIeQ6B/TFNHvt9+urFh+7zFEvv22l+6HJyfXO3DAWF0YiWn3o8f86nVyi3qVPeeZoYsPIfoi1BUpWkCFyG++/l1mzxmkHpDhgWiK1+vvPYaqRydepqRhq9YNpH37Jnp9LJTEd6yCv2LFek1rVrEnvudd7RqrZy4GETFNWXypd+8vfEcPg5imH3/8g94Hq8k7NmzY5qVxCxk3voeKr6QBC079/FM/WbZsrVcHnlEBtEqVMvJo13tVzGS6enjw25079mqs2KVL12j65C+QS0MUfPVVDxnvnYOYpoRrOHToiAwbNkk9fhF+IV/+XD7P0+pe45hOnyOLS40cMVlFzdtvv02fcZu2jdUzmevgnHjcjhw5VWbNXKixTMljeKcigNevX02fRWBMUxanGjZ0ogrJCPCkX506lXUxqtRpUsqQId10P2Ka1qpZSRetik5iI6YpxgviziOPPCKvvPKKrmaLoWcY8QHaJepB94o4OWzYMJk5c6Y8/vjjKjpiOFMvuo39wP3v4BhuiyzuvA6OR5vjfxz/87j3bnP2Cq9uH//3hmEYoQL2xvTp03WaLAJG69atfd8YwQYDeiNGjPD6QKvliy++0FkLJjBFP84WQIR0tgqCIE5fY8eO1QFP9AsGShk4drYB+/KKOIroyO/Ro5y3KhtCJaIkQiV2g5uRy28ZnOVzBmYZVHbwO47jriUQQh8y4MFUdQfHcV6dDgRMNo7D9QFCpetfcD2cl324RxcrlHviPvmM7xn0dvfqj/ufV47l7CL33v1vRB4E/hvFRNMQxxVU4oCNGTNGKwsWhzJRIGagcr0e0fSudk1UzGNBIqY647mHeJgmTaorKjq8HJm+ffTIMRW/EPMyZ8kgTJN2izvNmbNEvTr5vT9cE0IrwhoCKILmTTffpEIsYu3Eib9rxYpwx3Rw9jt37rwkvj2xCnI0BAiCLH7ENbHQEdePp6g/e/bslx3b90q16mH7cc179hzwjnnEO8bfUqVqWa8RSKnnOezdL+IpC0URt5Np6twHYh0xOdkvPGi7GJnjGsMWMApbHR7PVEIVcF7u98SJ00JMT7x3+R+PT6bqZ82aUe8V1q3boiJs4Er9iI5bt+7U+0WEdSA+k8bly5fScAocl3tByGRq/EWvYWaBJdIsd57s+tuIGquw3yK6MkJ4XP720jiFd40Iklu37pIK5UtK2nRhnsoY2Dz7A96GaEmo2BTJvXv2njXCNkKnS9Pdu/frs7vFO3e6dGk09IMTiYHvOBYbI7IYf9wL0/zTpOF8/6er8CMGDxz0rf7m5MnTYc/RS2/Si/ORlizodauXl5xnM6EluJ58+XLq/9FFbIimjOwiIDGa/eSTT+rIbETPzjBCGTxHBw8erJ5OeGe2aNFCDXL/us4wDMOIGbBhBw0apHbHnXfeqf0xIzjBTp43b55MmjRJvfc6duyoHpNGzEDfiPKBPU74CkRIhEkGdvFOdSGKAkEsRRylb0qfiX6r8xrlM/eKXU8fEDGSc7EvrxzT3wZyHqR8Fx7PPPOMVKlSRdq1a+f7JKxf787r4Jgcm+NwfYD24vqhXI/bh894j07D57zyv/vMiB1MNE3guEqIip+NQo23KSsCMrriCq8RdUjr6xFNH3vsPnn4kfa+T2OOvXsPyM6d+7znXtir0P9R8W/6tPleXvhbvvn2bROIDAXP308//VmOHT0hPX7/zPdp3BLToillFi+C7t27q3HWpEkTnZZlGPEJ2n3stKFDhwrTuZgWhw3ADBTDMAwjdkCI++6779SDjHimDNIawQszMxDwELqfeOIJ7T9HRVgxwgeBFM9e0prp5oiL2CmUD6bvB1M/Fe/wBg0ayKOPPur7xIgvRKVsm5oWD6CioXGuU6eOdpKoiIhl5mKdMppixG8OHjgis2YukgkTZsm4cdNVMGXqd82aFXx7GIZobFjCG+TOnXCEFKbtEHuR+Enly5e3WKZGvAPPB2J+0eYvXLhQY4lhD5hgahiGEbvgNEHfi34ZsZaN4IZY2kwLZ2EcBD1mafh7ExpRI2z24C5NW6a9E1KQqemNGzfWmTB4mAabY4+7nog8UY2EiYmm8QxGNdu0aaPBmLt166aepzTeeKEYsUu69GkkabJ/Y2bGJMlT3CGJbkkkn336s3z+2S9y8OARjVfapGmtoGuMjLhj5MgpagRUr1He90n8h4VnMIKJT4SYRDwhw4gvUJ7xMF2xYoXGNsdro1atWuZNbRiGEQcgmh46dEinCDPbzwhu6COx+CJehbSjbKwXYkQNygErurOewOjRo6Vfv37qaYo3L+sL4NFLGQlG3JR7E88Nf2x6fjwEgZTpBrNnz9bYZvXr15dGjRrpaI4RNahEIzM9H4i3yUr5/osNxRQ88/Pn/xBWYmdgjIWBkiRJ7G23m2hqXIbFwcgP5ElW3A8GYnp6PlOuGOFmqg2xxfD+MIz4Ap7U48eP15jmeFK3atVKPWfCiwtmGIZhxCxMQ77rrrukU6dOGg7IhNPgh74dszJ/+uknnZlUsWJFdUAybgzS8/jx47qOAAttES+W2S+suUKMdRfXM1jp0qWLirodOnRQr1gj/mDT840roLNEpwlvk7vvvlu2bdsmQ4YMkVWrVvn2MGIDFn2KDcEUeOYsmMQiRZkypdPFfzi3CaaGPyxAxiJcwSKYxjQYv3iaYqBVqFAhaEe1DeNGYOEBOiVLliyRQoUK6VQ3OicmmBqGYcQ+eKYxkIUAx4rZrJZtBD/0lbATEbl5bsTB37Bhg+9b43pgMUoW1vr8888vOyywwFbVqlU1PBZ2eLD3Td1aMHjLGobDRNN4CpU/0w3wrML7hEZ83LhxsmDBArlw4YJvL8MwjPgL06xYlKFIkSJqrNmieEZ8AC8O8vWECRN0MBShtGHDhjol31ZhNQzDiBsYyDp69KiGAUIwZWVsIzRAyMuVK5fceeedKpbRvtJfNuHs2mCTELuUAdzhw4fL3LlzVXyuUaOG1KtXT1fHz5AhgznyGCGN9SDjMVROrjNVrlw5XSgC4XT58uUar4VKzjAMI75B3Xbu3Dmt6xjVxsvUMOID5G2mfy5btkwmT558uWNiKzQbhmHELQhHrCORLl068zINQRC5sRcJZ7d27Vq1Ic3R6OqQPszomjlzpkydOlU9dFOlSqUzX9q2batCNAtUhxIMPmNr2Xowhj8mmiYAqLwY6WnXrp2uIE0wZhoCvE9NODUMI76BoUNYkn379mk8ooIFC/q+MYzQhk75li1b5JdfftH4vLTtDIoahmEYcQuepjioMLPFRNPQBI9IVtNHOO3Ro4fs37/fFgQKBzxwcU7Yvn27xlVnOj55n1iwTz75pJQsWTJkZ3cRh9jdn2E4TDRNINC5KlGihLz99tsaBLdv374anNlG0AzDiG9Qr+FVzwh30aJFLcajES/AiF+8eLG237TpDz30kBQvXtz3rWEYhhGXIJqycj6iqS06Gbow0M6A5I4dO7TN5ZkaV8JCT0OHDr0cu/TFF1+U5557TkMChppnaSCuz2BiueGPrZ6fgHCu5nhg4UJPY0AMtPvuu0+9US32zrUhDfv06e29+0OSp7BRZMOIKufOXZDz5/7y6qFOOtU4quCJx8j3a6+9Jvfcc48uiJc+fXrft4YRujD9bcaMGXL+/Hm59957pUCBAtFSZgzDMIyos3XrVvVOZMAW0S137ty+b4xQgr4eCxoR15T4nM2bN9fV3xN6e0u6nD59WhYuXKg6Av9jh7DSfP78+SV58uTxwkkBBzP6DSxixf0Z8YeorJ5vomkChZgj8+bNk02bNkmWLFl0xUAEVBsZvTo0EKyqeO7cWf4L+9AwjCiRODGe8CWjZREbYith6BLzsUuXLhqA3gaEjFAGD9OlS5fqirSsyswqtHXr1rWFzQzDMIKIdevWyRdffKF9qipVqkimTJl83xihBm0t8Wl/+OEHDbVA7HCeaUJtd9GBCA2EbY3TFQIyi6xiYzM4EJ/S5f33378c2rBw4cK+T434gImmxg2BuDB79mxdTKJixYraGOTLl09XfTQMwwg1mJbPCHjPnj2104KRy2J4hhGqkKd37twpQ4YM0RXzK1euLPXr19cFzgzDMIzggfUi3nrrLXnppZdUTIpKB92Ie3CUwdOUmJ2IaHfffbfkzJnT9238h/tnijrroaxfv16dhvbs2aNOVtjYxH2Nj963n332mYYYoA+BF60Rf4hKnWxuCgkYKr2mTZvqNL9p06ZpDEA8T5neahiGEWpgzLHiKR4CGDs2Ld8IZQinQ57u06ePenbUrl3bBFPDMIwgBIGJ/hPTutOkSWMz9+IBN910k1SrVk1j4x88eFDFU+LW8qzjO4ilLISEDTJy5EiNpX7gwAEVjl9++WUpVqxYvA1XgGcxz5iBasNwmGiawEmRIoU2CC+88IKuENi7d2/11DIMwwglMPCouxgN79ixo44m2vRlI5Qh/jiDmXgvPfDAA7pKfnSEsDAMwzCiFwZriTfNYBd9Kxvcij80bNhQhVPiijM9necc32HxqzFjxshjjz0mmzdvVrGUtQJY6Akx2TASGtajTOAgKjCiwgq8VIjE3xk+fLhuZ86c8e1lGIYR3KxcuVJDjlCHVahQwTosRkiDxzSxefEwffbZZ7WNZpEF66wYhmEEHwhpbMxwYXDL6ur4Q+rUqaVSpUq6ffvttyoixlcvxJMnT6pH7Y8//qhrn7Rp00YHbQkNRN4O9ZXxDeNGMdHU0Iadzhjxd5jSmi1bNh1No9IkjklCmIZgGEZo4qbQzJo1Sz09MGqZGmdepkYoQn7etWuXhsxh9gcDAMwGodNmedowDCM4YSrz2bNndeDWFp+MX/A8c+XKpWt/MCWd9pmZIPGlf8x9kH/xou3fv7/O2sKhCtsDL1v0gXTp0iWYfM0zdn0Lw3CYBW5chgWgypYtK82aNZO0adPKnDlzdKEoPF2YbmIYhhFsIJQyJZ96KnPmzDqF2TBCEfIycdOmTp2qXtMFChSQRo0aadtsgqlhGEbwgmDKhh1yyy23+D414gu0w7TJ7dq1k40bN8rSpUu1vQ51WGySgVoWvJo4caKsWbNGHQ+wPe666y7Jnj17gpu5hWj6zz//aNoYhsOscOMKqBhpFIhxSkXJyvqjR4/WhoGYgfFlVM0wjNCH+uj06dMydOhQ7agwGo5HnmGEGrSvR48eVQ8WpuWXKVNGWrVqpZ0XwzAMI7hxoimepiaaxk+Ilc9ijAULFlRxEaGRhaFCEeddunXrVo1d+ssvv+iiT0zFf/jhh9WeTqiDte6+EU4Nw2GiqfE/UFkwovb444+rW/6WLVvkq6++0lXzzOPUMIxggQ4KI/6LFy/WmI8E6jeMUIQVlwmL061bN40vXqdOHRsAMAzDCBGwR1gLIkOGDDY9Px5DSLv7779f+8kLFixQ8TTUQAxEMB08eLB89tlnsnr1ar2njz76SAdsuTfDMK7ERFMjXFyc05o1a0rjxo3VVf3jjz/WVXxtgSjDMIIBpjDjCU8sZjzkqacMI9RwU/IJifPQQw9pHFNC5NiUfMMwjNCAWS+nTp2ymKYJAOJ7NmjQQAc2BwwYoCvNE14nFGBGC/YGK+GvW7dO7edHHnlE47Uys4UZpwl9ETM8xfHEZQaQYTjMIjeuCo1/+fLltVK94447ZOzYsTqyRqVrGIYRV+CZt2HDBtm3b59Ol8qSJYuJTEZIgVFOW0oYHOLy4indpEkTbXdZfdkwDMMIDZynKbaITc+P3yCKFytWTKewMwNz0KBBcuzYsaAOYYdnKbOyhg8frrNaEHxZOJVZLXiXIgQbYdhCUEZ4WA/TuCbp06eXihUrakBoKl1iuLCy3uHDh317GIZhxB5MLUJkYpSc2FJFihRRz3jDCBXwYKCDTXvKirV4eDRv3lw73CaYGoZhhA4uPiQii8U0TRikSJFCRVP6x9OnT5eVK1fKiRMnfN8GDxcvXtSFnljYmZjpOBsQm/Xee+/VQdrcuXNbfg3g9ttv1zJN2hmGw0RTI1LgZcpI1BNPPKFBr/E4nTVrlnb6LFCyYRixCdPgWLkUL1MGc5IkSeL7xjCCH9pMvJLWrl2rU/ty5sypgimLLxqGYRihBf0iBBaEllSpUtmslwRC1qxZpWrVqjp4z4wR2vRgmabPwCx2xs6dO2XUqFHy008/yfHjx6Vly5by4osv6jUjDhqGETmsVjciDUYAnbuuXbvqtARWrO7evbtOLwzmKQmGYcQvGLA5efKklCpVSvLly2ej5EZIQUdmyZIl8u6772rom6ZNm0qePHl83xqGYRihBB6GDIbZFOeER8aMGeWZZ57RPDB//nzZtGmT75u4hVjpTMV/55131MmgS5cuep14xlrMXcO4fkw0Na4LxAmmD7I4FKNVrLjXs2dPHV2zlfUNw4hJGDknlimGKd7vtWrVsqnMRkhx/vx5mTdvnowZM0YXXiAP58iRw4R/wzCMEMWJpoRZMRIWtN0ZMmSQu+++Wz05p0yZEmfh68iD2Bjjxo2TH374QVasWCG1a9eWp59+WsVSQkckTpzYt7cREfQvXFoahsNEU+O6YWW9XLly6cr6BJBm1UCmJRBg2oImG4YRU1C/sOonAzR4mBKLyTBChQsXLqiXNF6mrI7PwCN52KbIGYZhhC6IZQzqmmia8GCleYTTChUqaHx9BFNES2LcIrzFFqdOnVKRlBmgrDuSLFkyHZitV6+e3HnnnWpz2OBs5EBYtpimRiAmmho3BFP1GbFq27atrq7PNABW42NBC0ZmYrOhMAwj/kPMsP379+sADYJpiRIlTGwyQgKMb/IvU+RYjIH2sWHDhlKyZEnLw4ZhGCEOnqYmmiZsiGVbrVo1DWOHaLlgwQINxRPTIOwRt5QZWNjH9MMJE0HYH2Klm3PB9YPGgd1mWobhj4mmxg3D6BqjMe3bt5cGDRrIsWPHpHfv3rqqdWyPsBmGEb+hfsFDj1imrFiaN29e3zeGEdwgmLJoWY8ePdQYx/ODwUbDMAwj9LGYpgZglyKcMhuT6fHbtm2LMW9F8ht97R07dsjIkSOlX79+snv3bp2K/8gjj6hjATNDDcOIHkw0NaIFVg+85557dITt9ddf15htiBuGYRhRBeNw+/btahgSN4qRc1ud1ggFCCWxefNmef/993V6HN4fTJUzDMMw4geIpnimUccbCZsCBQpo6B0E9IEDB+raH9ENeQ1HAhZ6euONN2Tr1q068/ODDz7QhZqTJEni29MwjOjCep1GtMAUw4IFC16eDjBs2DAZO3asjnoZhmFEhZUrV8rcuXPVCMVDL3Xq1L5vDCN4Ybomsb4HDRokyZMnl9atW0vRokVtIQbDMIx4hItpaqKpweKkLO748MMPy5kzZzSOeXQKpyyGOmHCBPniiy80DECjRo3kvvvu0/il5D+8S5kJatw4KVOmVGcNnp9hOEw0NaINVptDOGVlfUa6mKZPxb5x40bfHoZhGNfHnj171DAkuD6DMlmyZLEpR0bQg8HNogyI/cQ1YzCR6XIpUqTw7WEYhmGEOtT1LMIDJpoakDRpUilVqpSuXH/06FFd8yMqTkRuUSIGYXFKIn4pCz2xIDPhfghZlT59ehNLowm3EBShlQzDYaKpEa1Q0TB1lim02bNnV8F0ypQp+mor6xuGEVkwWIjXhOiEsUmsqDp16phgagQ9eBzR5tFRYtomHiC1atXSgUXDMAwjfoCdwuK3CFp4GFodbwDiJbYqCz5iu2LDzpgxQ06fPq32wfVw4cIF2bVrl/5+6tSpaluw4FiLFi3krrvu0rB4NnvFMGIeE02NaIfGImPGjHL//fdLxYoV1UusZ8+eurofwilGhmEYxtVghBfjcNq0aZIhQwZp1aqVGoY2km4EM8QwxbOkb9++2lEinATT8hMlSuTbwzAMw4gP0J9hFgy2CSFYDMMfRHRmmTALk5mXzD5h5klk+sFuoScWkxo3bpx89tlnOgiLUPr444/rzBUjZnD9DNMrDH9MNDViDBoLYq107dpV9u/fL999950sXbpU/vzzT98ehmEY/wsj8XREvvzyS8mTJ49OQUI4NYxg58CBA/LLL7/oIGHdunV1M8HUMGorbBwAAMc1SURBVAwj/oGwha3CwjsWesUID2LxM9MEO/a9996TDRs2RGrmJYspDx06VGOXMi3/1Vdfleeee04XkjTP0piF9EUwNb3C8MdEUyPGYKSGkVdGwxgVYzrBmDFjdMSMkTbDMIzwYCrSkCFDtBPC1Ob8+fOb8GQEPXhGjxo1SleyJUQNXqY2XdMwDCN+gmh66NAhXQzXRFMjPLBds2XLJlWrVlXBk5iky5YtC1eQQ6hDLJ08ebJ8/PHHsm7dOrWBn3zySbUnmMVpM65iHmLSUrYJjWAYDhNNjRiFip1V6GgoiO2CcEpjMXr06MurTRqGYTjw1MMjfc2aNdKgQQMpUqSITXszgp7NmzdrDNMtW7ZI/fr1pXLlyuodbZ0bwzCM+AkiF6uZm6epcTUQ1Vnvo23bttrvXbBggaxatUqFOQfxTukfDx48WOOXYvdWqFBBF5MqW7aspEqVypwHYolbbrlFXwm3ZBgOE02NWIEKiNEyOpNU/Kz8x0javn37bHU6wzAUFlRYvny5xn1iWn6NGjV0apNhBCt0mhH6Z82apYJpvnz5tGPEKso332wmlmEYRnwF0QvRFM80E02Nq8Fq93iLYteSZ2bPnq1xzxFRCeczb948jeG/du1aSZ06tdoRjRs3VlvYbAnDiHusFBqxSunSpbUhKF68uMY4ZTSNeKcWN8QwEjZ0PpjWzIAKU2K6dOmiXurmqWcEK+TZM2fOyJQpU9Q7OleuXLoAok2fMwzDiP8waEZMU5ueb0SWpk2b6gyqHTt2aDifPXv26GufPn3k4MGD0r59e3n55Zd1HzyYjbgBG47N3xvYSNiYaGrEOsR2admypbz++usyYsQIGTRokHroGIaRMHHiU+/evfV9u3bt1MPURteNYIZV8mnDCDfDTAryrYWSMAzDSBhgr5hoalwPTLFv0qSJlCpVSqfid+zYUTZt2iT33HOPvPLKKxrOzoh7KNPMkmUNFgZHDMN6pEasQyXE1MWKFStK586d5dixYyqcMlXBMIyEBcbIqVOnpGfPnvp/uXLlpFixYha7yQhqWPxj7ty5MnbsWGnUqJGKpjYl3zAMI+GAaEpbwOwCW/TPiAzELl24cKHOTmEVfUT3QoUK6ZY+fXpbGT9IuPXWW7UfwjMyDDDr3ogTEE5ZFKp69eq6oiAdzalTp2qcUxoUG9UxjIQBC8ItWrRIg+KXLFlSA96bx4YRzDCFDsF08eLFGqOsZs2aOoPCLR5gGIZhxG9YJIYBX/orTKM2scuICPIIHoss9NSvXz8VTLNnzy4PPvigtGrVSsPU7dq1S+P6G8EBugTT823BasNhoqkRZ1AZEbOwbt26GhgbAwSvHUbgCJJtcUQMI36Dgci0JAZMiAfJSqE5cuTwfWsYwYXzimblWzo9dJSZWpczZ07rMBuGYSQgLl68qF6m9GNYCMpmGRjhQYx+BFEWepo0aZKsXr1aZ6WwyBOzLR966CH1ZnQr6rO/YRjBh9XwRpyDsYG3KZ1PjI6+ffvqYjAnT5404dQw4imUbVYMZZAEg/K+++5T4dQW0DGCEQRTOskrV66UCRMmqFfpAw88IJkyZTIPU8MwjAQG7QEOHhkyZLAFe4z/AZvh3Llzsn37dnUI6tGjh66W36lTJxVKiWlK/7dAgQIaz5RQdcRHZ3/r+8Y9ztOUZ8GzNAwTTY2ggE5nvnz55LXXXtOV9VlJsH///urVYxhG/IMwHKw6vmHDBnnqqackS5YsGkPIMIIROj94iHTr1k0KFiwoHTp00Cn5hmEYRsLj0qVLuhggXoMmmhr+ILThMTpkyBD59NNPZe3ateoY8PHHH6tYmixZMt+eYfBZixYttC+MjUHYKmZfGnEHMYqZQUQZN9HUABNNjaABwYQg2G3bttVYp3if0Xjs2bNH/vzzT99ehmGEOsQIGjZsmBw4cEAqVaqkBiPGiXmZGsEIg3dLliyRb775Rhd8IqRM7ty5zcPUMAwjgeKm55toaviDyEbIKVbCX7duncY8Zxo+tm7q1Knltttu+x9bl8+wg2vVqiWpUqWSDz/8UPvAFk8z7nDhNszr13CYaGoEFVRSdEZpZEqXLi1nzpyRXr16acNDEG3DMEIbYjfNnj1bR97xLmWAhIWfTDA1ghG3eMP06dN1Kj6dmvz581sn2TAMIwHjRFOEsNtvv933qZFQIUY/g6sjRoyQWbNmab5AKK1du7b2Z9OlS+fbM3wQSxFOCVfHVH3CAG3evNmEU8MIEkw0NYIShNM6deqoV8+WLVt01G7NmjUa59QwjNAEoxIjkPAbGJSsPE5YDsMIRpheRwxT4u4i9t97770af4w4ZIZhGEbCxURTA8gHeIXiDDBt2jQNOYUAynT8Jk2aaKz+yM5KYbZlxYoVpUGDBtrnnTt3rsb+t+nhsQ+OHC6mqWGAiaZG0JIxY0YVTol3SMeVANkrVqxQ4cUwjNCCEBs7duyQcePGyd69e7VslylTxvetYQQPdFCIJ7Zt2zYZOnSonDhxQu6++27Nr9Y5NgzDMGx6fsIGD1BmomDXjhkzRn744Qe1FVq1aiXPP/+8DrASdup6SZMmjQ7QlixZUvu8kydP1jUAjNgFoTtRokQWHtC4jImmRlCDRw8LQ7FAFAwcOFBFF8MwQov169frwAcDIK+++qoahLbwkxGMIJjSGf7666+1M4y3CO2QYRiGYYATTRG5bDAt4cGzZyr+Bx98IIsXL5bHHntMnn76aZ1BhdgWVRBOmdZPeDrC1Jm3aeyC/kAfhZj2lvYGmGhqBDW4xjNSlzdvXmnXrp0UK1ZMY8X8/PPP2mCZ27xhBD/EhGSwgxVBH330USlUqJAaJBbH1Ag26Agzve6LL77QGKb169fXOGMs1GAYhmEYhGs5d+6ciqWshG6LAiYM6HPy7LFnWagYJwDinD/zzDNSoUIFnSF5I96l4UGsfxadxP5gDYD+/ftrrFMjdnD9E9MZDIeJpkZIgGFStGhRbZx4Xb16tcZFJD6iuc4bRnBC2WSK86RJk3RRN2I1sdHJcCtTGkawgIcpXh0TJ07UeKa0N3hEE5/MMAzDMIAwYWxMzQ9vNXQj/oHHIdPlf/31V1m0aJHccccdUrlyZQ01VbZsWfU4jk7xnDyVI0cOXRgKO2TKlCmyYMECOXz4sG8PwzBiE+u1GiEDhkmRIkWkWbNm+krjNWPGDNm4caOO/BmGETzgsbdnzx4VoPAKL1GihK4iah6mRjBCfLKtW7deXnihcePGOs2OjpBhGIZhOIhlyZY5c+ZomYptBC+XLl1Sm2D+/PkqXDJzipXwmzZtqv1RFi6OKchb+fPnl0aNGuk5582bp31fYqcaMQuOHfRVGEw3DDDR1AgpqMSyZcsmXbt2lWrVqsnSpUtl2LBh2qDh1WZxRwwj7sHI2L9/v0yfPl3Gjx8v9erVU6OPVWYNI9hg+tWRI0c0PhmzF2hb6AwlT57ct4dhGIZhhMHMGTb6IzY1P36CXUAIBvqXzGxkevzu3bvl2WeflUceeUTjnMdG2B6EUzxOWQuA65k5c6YKp4i5RsxBPFM0BzzKTVswwERTIyShEWnZsqWuaMxo7+eff64ep3i3GYYRt+zatUtjPo0dO1ZeeuklncJEfCbDCDZcx4hFnw4cOKBT8lu0aOH71jAMwzCuhH4Homn69OnN0zQegkh29OhRHUhFrGQwtXXr1vLuu+9qiLjYXvgLYZ5ZLzgMYbOwqCrCqYl5MQfPGOGUUE2GASaaGiEL03yJI4NHUL58+eTLL7/UETgaOsMw4oZ9+/bplHwW02nfvr1Oy0+ZMqXFMDWCDjoc5NfffvtNFynDw7RKlSrathiGYRhGeLjp+SwWaJ6m8Qv6kNiwDKQyHZ5ZUh07dtTYokyRR0iLixBT2NCEAmBQF7G+d+/eamdbeLqYgWfMZsK04bBerBHSMPLGyoLESqQxYTowcU6JpWgYRuxBTEg89fAuZWp+mTJl1GuPRXTME8MINjCEiWFKjLJNmzZJjRo1Lq9+axiGYRgR4abnI5qafRP6YA8w3X3x4sUydOhQjV+aJEkStWHr168vpUuXVqEyrgf/uSYcESpVqqSzt/r27avCKbNlDMOIWUw0NUIevNgQThkJxJ1+yZIlMmvWLJ0ibCNEhhHzEE/44MGDKkCtX79e8ubNq6PzdCjMw9QIRvbu3auLPrGoAyvTNmjQQLJnzx4nHiSGYRhG6GCepvEHpl/TX2Sm4tSpU1WEJP4+sxjbtWsnOXPmlMSJE/v2jntYtZ9ZltjYzJThuglPR+xNI/qgXNN/QUw3LcEA680a8QIatFy5cskzzzyj0ydo+EaOHKlTLm3lO8OIOYivxHQmRuYZ9a5YsaI0adJEsmTJ4tvDMIIHjF+8Mmgj8CrJmjWrdOnSRdKmTWuCqWEYhnFVXBuC2MbMBPM0DU1cPPNt27ZpDP5PPvlEjh07JnfddZfGDsUZJ1jBWahcuXLy3HPPyfLly9Vhgfuw/m70gVcvoRhOnz7t+8RI6JhoasQb6PAyOti5c2cdgSNI9kcffaSrHVpDYhgxw6lTp9Rjr2fPntKhQ4fLcZ8MIxihLRg4cKAsXLhQihQpoqvg0uk1wdQwDMO4Fnj0MbsGZ41kyZLZbJoQ5eTJkzJkyBD54osvZOnSpfLyyy/LCy+8oGIkglmww8xKFqV6/PHH5dChQ+q0gHBqXpHRg7MLKeuWpgZYTW/EKzBeEE6rV6+uo4Wspt+9e3dZtGiRrYBnGNEMntzEMF2wYIFOZapTp455XhhBy5EjRzReGYs70DFq3LixxsU2DMMwjMiA2IaXIn0NG2wLLRC/Tpw4oQs94VSzbt06qVy5sjz22GOXY5ojhofCc+Ua8YQsVqyY2t9M22dRS1b6t8Whogcr34Y/Jpoa8Q6EU+IMESibTjGN5LRp0zTOqbnZG0bUocOA4cmUJgw0YpgSE5KpzrfddptvL8MIHvDEwLuUtqB48eK6Sj4hXUzgNwzDMCILtg8LX9qAW2jBrCg8SgcPHqwLBidPnlzDSbGQMDFCEcFD0R7gPlh4lT4vgm+fPn1scSjDiAFMNDXiJYwOYdA0bNhQ6tatq6Nus2fPVg8jRokxeAzDuH6Y3oyHKYMQeJgyFZ9yljt3bhOgjKCEmLss+IRoSuzS5s2bS758+Sy/GoZhGNcF9o+JpqEBTjPYrDt27ND+H4Oma9euVYG0bdu2GsqNQf9QtwVSpUqls2dY6Z9FrbhPhFNbHOrGwYsXJyxmrBoGmGhqxGuo8BhFvPvuuzX+y++//66r65twahjXD2UGLwsEKKYB4anHoARGp2EEI6x8SngWFn7C+CVuGfkWg9gwDMMwrgcWC8IWYgDOCF54RmfPnpW9e/fqwsB4YDLjhBXxX331VY0HmjRpUt/eoQ+LQ+Ex+9RTT6nNM2HCBFscKgoQr5iZcwySWExTA0w0NRIEhQsXlnvuuUfq1asn77zzjk4rPnjwoO9bwzAiAwYnZefrr7/WFfLbtGkjBQoU8H1rGMEFnSYE/jFjxmjniFXyQ3UKnmEYhhH3MHAMGTJk0FcjOKGPN3r0aG33CSPFQqUvvfSSlC9f3rdH/AM7h1X/WRCZRZBxFLLFoQwjejDR1EgQ4FWUPXt29YpjpUFW+2bVxDVr1vj2MAzjaqxfv15XHV++fLl6bjOtKVu2bOaxZwQlZ86cUW8LVpRlKn6LFi0kR44cttKxYRiGccMwUw0RyjxNgxPWrmBw/6efflIbgGn4nTp10gWf3EJP8RVC0+EdiTDctGlTfc+ssP379+sq8IZh3DjWezASDDSUCKfEXyRgNl5zkydP1kaVhW0Mw/hfmNKMtx6r5DMt7c4779S4SQhQ8dn4NEIXOk2rV6+WQYMGqTdQtWrVdCoeIVoMwzAM40Yx0TT44HkwUMpCT0zDp1+XJEkSbfsZ4C9durTG308os0yIt0s/l4206d27t3qcWnzOyMMAOyK0hfIzHCaaGgmKW265RRtORh6ZwoBwOmnSJPWeI/aNTWEwjDAoC6w2unLlShk/frwcOHBAV+hs1qyZZM6c2Tz2jKCEFWPximbhPzq3LPrEavnxKXaZYRiGEfsQH5JBOWDxHSPuYaFfFj9ioSf6cwyYImgjlrZq1UqdZRLijCgGjKtUqaLrerD41cyZM004vQ7cQlDkL9MGDLBer5EgSZ48uTamDRo00Lg33333nXa0TTg1jDDBFPFp1apVOmq/ZcsWHWho3LixxoQ0jGCEDu3WrVt1BgGvL7zwghQpUsQEU8MwDCNKOLuIdoZpz3gyGnGHex7bt2/XmVA9evTQOJ4PPfSQxvTEuxRHmYQMTkJ425ImDCRPmTJF9u3bZ96TkYDyjXCKB7PpAgaYaGokWKgMiXHTtWtXbVi++uormTFjhjbChpGQYcVxYkIxpYcp+G+++aZ6mdr0ZiNYIcQKXhQsfIAn0KOPPqoLANK5NQzDMIyoQBvD7DTaFBwvjLiDZ0FfbejQofLJJ5+oJ+W9996r7xFLWfncCOOOO+5Qj9MHHnhAB5Ox68nHJgQaxvVhoqmRYCFWCSIQi4QwCleuXDmZPn26DBgwQA4fPuzbyzASDow+E7f0119/lcWLF2scyAcffFBy5sypZYUyYxjBBiI/HibkWzoI9erVUw9TBsYszxqGYRhRBaGOvgEeaClSpPB9asQ2R48elWnTpulgPov51qhRQxd6QhhkJhSitrX7/+L6uvRxmV1JPv7hhx/UQ9em6htG5DHR1EjQ0JgwdZMONgtEIaDircToJZ1wOuOGkRAgbs+OHTt0tXHyfoECBVR8QjjF29SMUCMYId9u3rxZ+vfvr/GnmD2AVzTiqWEYhmFEB3jmHTlyRPsMJprGPufPn5clS5bIyJEjdap5ypQptb0nZidtPjMGjYhhcShW1Uc8RSxlVs66detsdmUEENoBm9KEZcNhoqlheCAIIZw2bdpU8ufPr4HEWfyGqQzWoBjxHWL5IjwR74hF0YoVK6Yj0rzagk9GsEJsOQa5Zs2apdPz6tatKxUqVJD06dP79jAMwzCMqIOHHqKpeZrGHgjViFYM5M+ZM0dnA27YsEHTv0OHDtKkSRPJnTu3zioxrg2LQ7Gifs2aNbV/S3pu3LhRBWnjSnAWQTi1tDEc1hs2DD9y5colLVq00FUXBw8erMHFbbVBIz5D3kYwJYYpK4+2b99eBw8oC4YRrLj4chj98+fP13yL1wmr5hqGYRhGdOLaHKY6m2ga8xAuCqcVZkCNGTNGfvzxRzl+/Lg0b95cnn32WSlUqJAKW8b1gUdurVq15Pnnn5eVK1deXjjzzz//9O1hAEJ8okSJbPV84zImmhpGAExhIEbORx99pCvq9+vXTxYuXOj71jDiFwsWLNAV8vfs2SOvvvqq5v1UqVL5vjWM4AMD9tSpU9KzZ08V/Bnoql+/vi3+YBiGYcQIiKYHDhxQoc4Wgop58OodNWqUfPjhh9oHY3HHp556SipWrJjgV8WPKnhLlypVSp588klN5169eml/18RBw4gYE00NIwCmIzOKzNRkFogiftGECRNk+PDhOvJpjYoR6jjRadCgQZqvM2bMKPfdd5/mefK7Tck3ghU6rqyOz0IGJ0+e1MUfEPrpBFjcXcMwDCMmwG7C09Sm58cctO9MhyY82vfffy8rVqzQ9h3PUkLvZMqUyWLsRwOkHwtmsWYBM8sYBPjll180ZizhugzD+F+sZ2wY4YBoxEIiBMxmGgPep4x0DhkyREflEE8NIxQhDuSuXbs09MS8efMkR44cmsfd4jlmjBrBCvXu/v37ZdiwYeoZXaJECZ2Sj+hvGIZhGDEBgimhjBioQzS1hQajHwbymS7OAkX0txjAx6u0Tp06UrZsWe2HmYdp9IJYiu1fvXp1SZ06tYal4xmQz42wxaAo74SJsH6/YaKpYVwFKkuCZrPACA02sV9YdIQOu8V/MUINRvAJ+j5jxgxZtGiRjtoTHwqDlDhdhhGs4IGyb98+FfpZEAJDv1q1air6G4ZhGEZMwWDzmTNndFCZfoHF0ow+Ll26JDt37tRQUVOnTtXFSIlNjgdks2bNdKEnI+YgHBer6hPmiDxOHxfh9MSJE749Ei7ENaW8ky7UAUbCxkRTw7gGVJqlS5eWjh076vRlpjTTsBPbyCpRIxTAS8IJpowkk3/Jy08//bTkz5/fRu+NoAcvFIx5QqUQi+uuu+6yxcoMwzCMGAcv06NHj6qYh4hiRB230BOCKbFL+/fvr6vkP/7449KlSxedSWLidOyA53TJkiXltdde0+dBeATEaxZBSsgwSMLMUwbtDcNEU8OIBFSceOU9/PDD0qZNGx0R7dGjh3qcGkawg2HK6qOffvqpGv9du3aVe+65RxfOsen4RrBD54pwEnhHFyhQQB544AGLKWcYhmHECnhDHj58WEVTm5UTdRChEKERSxHqtm3bJq1bt5a3335bihcvbmkcB+AglC1bNnnuuee0XzBgwACZPn26CYaG4cNEU8OIJIkSJdKOOvEfmTKCl+lPP/0kq1atkgsXLvj2MozgAYGU/Pndd9/plHzCTLRv315H8C1+qRHs4CFN3dqvXz9ZvXq1FC5cWD1MU6ZMqfWxYRiGYcQ02FKIpsR9NEEvahw7dkxDnWGXzp8/Xxo3biz33nuvLuqYLl06XaDIbNPYhzRn1lmePHmkXbt2ukjUuHHjZNKkSQk2xilepqQJ4fhMPDZMNDWM6wSPUxYfIdYpjTujcQQtxxAwjGABA59RYoweDB7yLKIp0/IRnQwj2CGmFqEk8Owndimr6ObLl886VIZhGEasgWjKyvmsbWDT868ft5AWq7MPHTpU23QWeqJNr1evnobcSZ8+vYpURtzCoAD9hJo1a2o8WabqExqJkHQJDbcQ1NmzZ20hKMNEU8O4ETJkyCBVq1aVBg0aqCA1bdo0Wbx4sQpVhhGXMI1sx44dMnPmTF0whwDmGKaMHBMDEqHfMIKd48ePa0wtYpiyOj4GfJEiRUwwNQzDMGIVJ5riCWmi6fXBbJFdu3ap8MYg6IYNG9Rjl4WemDnCgKjFLg0ueB54mrJQLH2G2bNnq9B98OBB3x4JA0RT0oI1IUw0NUw0NYwbBG89Vhx88803VTgl5h4NCyIVo6qGEZu4qczE2R0xYoSO5uMV0blzZ53+xOixCU5GKMDiA8uWLVMPB6ZEPfjggyqYmheKYRiGEdu46fkW0zTy0HYTT594pQx+/ve//9XBUAbwH330UQ0TZQQviKVM1X/99dfV9poyZYrOXrM+rpFQsR6IYUQBAmdnzpxZA5njxcdU6O7du2v8E2tUjNgE43TevHnywQcfaBzTTp06yf33328rjBshB17SEydOVEP9rbfekqxZs1oMU8MwDCNOYAaPrZ4feej/EF5nyJAh8uWXX8rSpUvlhRdekOeff17Kli1rwnOIgKclXsEvvviiFCxYUGPR/vLLL9bHNRIkN6VIkSJSuf7UqVO+d4ZhBILbPlOi586dqx5STN8nsHn27NlVWDWMmISRfIyZjRs3qsDEdPz8+fPbgjlGSMHiekwBGzNmjC5U1rBhQ+1gWR6OmOXLl8mu3du8d3+FfWAYQcjJk6clY8ZMUr9efa8jjuhksx6M0ABxiAHpZ599Vvr37y958+a1NikCnFhK7FKm4jPwiS1asmRJjUfOYrqWdqEHfdydO3dqH5dnS0gFPIbp48bn58l6JSxE2qhRI6lYsaLO3jNCm6is6WGiqWFEExgLxO3BuGJFSKY1VK9eXaeVJkuWzLeXYUQP5Dfi7BD3kYadEBEIpqxAShB3M0yNUIIpX+vWrZPRo0erYMrCZRip5pFydSZNGi9Hj+6RXLkz+D4xjOBjxYp1cvbMH1KjRk0pU6ai3HZbUrnpJpvsZgQ/hD0i9NZ7770ngwcPlmzZsvm+Mfw5ffq0bN68WW1SnEhY6AlbFME0Z86cZpOGOIRb2L17t66VQD+3ePHiUq1aNfVAja8xaRGIKfMVKlTQuPrENDZCGxNNDSOIIGYPI6wYWRgKiFg0LsmTJ/ftYRhRg6kxR44cUZFpxowZKp5WqlRJRXrCRRhGKEH+ZXGIYcOG6fu2bdvKnXfeaYJpJJg0aZzccusFqV27jO8Twwg+Jk6cLatWbZTcuXNKkcKlvNeCkixZKhNOjaAHW4tFjPr27Ss//vij2Vh+MHjPDJF9+/ZpG7569WrZv3+/DuA3a9ZMw0NZOIP4A8/72LFjuoYHsyrxHqbfgTgeH2dVco+sD0H83Tp16ugsUiO0iYpoataKYUQzuO+zImSbNm3U85QKd+3atbq4CQ2OYUQFYmthoE6bNk1jCxHLlPilrVq1MmPeCDkYACC8BHFMV65cqWFNypQpY4KpYcQjkiS5XfLnzyXlyhWRGTMne7bRFs8mOut9YzaREdycPXtW7axMmTKZt6QfTNkmXVh8dOTIkdK7d29dLItp2y+//LIULlzYBNN4BovJ4m3J4pyIpevXr5fhw4drHrA4p0Z8x0RTw4gBaFiYXoqYRRDtb7/9VqczYHwZRlRg5PO7777ThXIYyX/jjTc0BITFzjVCEeLw0uHC+GYRM/KydbQMI/5x2223SpYsGaV589qyfMVCWb16ifz11wXft4YRnCAMMgOCQWkWxjHCOHjwoIbTeeqpp2TLli064MmCQcwSMeI/TZo00VlBlI13331XnYRw6jCM+EqixIkTv+t7f1VYHdwwjMiDcUXQcxcDBeMCMRURlc8NI7JcvHhRYwn16tVLA7GnT59eF8lBmGe6CHmNvGUYoQJeKniYDhgwQGPGNW3aVBd9QjBl8QgjcmzbtkVuTvSX5M5tXuZG8LJr1z7588+/pFChPJI0aRK5/fbbVHQ5fPiIZM2SxSvziFHWhhnBx/bt21UUxJZnmm5CngWBJyGxS5npNGrUKE0bYj02aNBA0yZt2rQ2gJ9A4DnTn02VKpU6BI0bN05nWvJ/fCkjhNtDDCaea4ECBazvHg/45JNPfO+uH+uZGEYMwoImhQoV0lgoTDklqLRb5ZxK2DCuBgYq016IkYu4RCfT5ScEUzwfTGAyQg03CEAMU6Z0lS9fXgPts3CE5WfDiL8wuIfHae7c2SRr1nRy/vxxzy6a79UJZ732zmwiI/hAEGJjgDqhTs/HFmWxRhZ5YjVx+jK011WrVlXBtFSpUiqYWviChAUiaenSpaVu3bpaPqZMmaILIR89etS3R2iDQ8ptt92m4fWsz25Y78QwYhg8p/Lnzy8PPfSQZMmSReObsngPq0zibWUxYIxAaJwx0gmqT17Bu/TQoUMqlDIdBpHJRjyNUMQJpuPHj1cvFcRSYmPhnWAEDydPnpaxY6fL6dNnfJ8Y4bFnzwGZNWuRV2dbO3493H57Ys8uyinZsqWT3Xu2yKbNa+TsuZMmnBpBB2IhW8aMGRPk9HwEI7ztCDGG08eaNWvU67ZRo0bSsmVLrwxnM+/SBAwL6yCc3nPPPdqnXbBggSxcuFCFU+vfGvEJE00NIxbA0GJE7sknn9RVBhmtxXPwwIEDGgPGGhbDgecdU0IwTHv06KFepojtb775pk5hZmq+TcU3QhEGA/CWZiXiQYMG6QBAjRo1NE8bwcXmzTukVcuusn37Xt8nRnhMmzpPnnn6fe0swqlTZ1RwjinOnTsvx46d0HP88cdFrzwd8WyIP33fhhYIp3nz5tDFoWbNmiK7dm22xaGMoMN5mia0haBor4nnShgdVksnPBQDnjiAsBBQyZIlE6SIbPwvTMenb0veAMLR4XFKuQl1D036W9ZHN8BEU8OIRRInTqwr67du3Vo9B19//XXZsGGDel8ZBh1vPJB//PFHeeutt9RIJ8g+C4ox9cmmLhuhzLFjx9TDlJXyydflypVTLwXDiC98/vkv8v773/n+i34G9B8jTz7xjvznP928crRI6te/X9as2eT7NvRwi0M1a1ZHVqxYZItDGUGHv2iaUERCN9tp8ODBGgOQhRrxJPzoo49ULE2WLJlvT8P4lzx58qhwSh7p3r27jBgxQu2+UIXyjiDM4IEbGDUSLtYDN4xYhBEr4pwyvbpDhw4ak7Jnz546BfvUqVO+vYyECCP4ffv2VUODhXEQlRDXCxcurHnGYkUZoQodsMOHD0v//v11ml/jxo118QhCTNhAQOxx5sw5Wbp0jbz37jfywP0vSPt2T0rXrm/KD9366EI9weSxOH36Ann5pU/k5Zc/8drHBb5Pg5+7724m99/f2vdf9DNr9iJJmza1pEqZXH7vMUTy58spSZOG7qIbLsZp5szppWzZInL8xAFZsHC2/PXXee9b8+4x4haEw7/++kvjdyKeJIRZPkeOHNHYlG+//basW7dOatWqpZ6llSpV0oV/iPFos52M8EBkzJo1q8a5bdOmjYZzGDJkiDqDhCImmhr+WG/FMGIZjA28BlkpulmzZjptnxgwGCkIC0bCATHp5MmTOgUfw4IVWrNnz65B1WvXrq2xcBFMDSNUwdAkj+NxwMBAvnz5NIYpU/JtICD2YFr3ooUrZMCAMXL06AnJnCWj9yxySfLkyWTTpu3yQ7e+sm3bbrl48ZLvF3EHU+GmTJnr1Yc7dZs8aU7ITPErVqyAlCpV2Pdf9NOgfnVp3aaB1KtX1WsjKknnh9tLpkyhHd7CCadXLg41zxaHMuKcEydOaBuGnR6fB/iocxGGFi9eLCNHjtQ4+sQZr1KlitqixKwkjqlhXAtE9Vy5cmm+wdYjvMOkSZM0LF2oCY+UeexUrtum6BuJEidO/K7v/VV57bXXfO8Mw4gOaFhy5Mih01NZEIWGhXiWGCZM4zdBIX6DB8OOHTvUSJ09e7bGMS1RooQ0bNhQDVTygI3mG6EMhiZeKywgwZT84sWLq4dp7ty5fXsYUWXbti1yc6K/vDTN7PskfDZu3CaTJ8+RDd5r6zYNpWXLut6zqCh58+ZUQXX06KmSIWM6FeBSpkwu+/Ydkh7dB0vTprU1fuaGDVvVG/XcuQtyxx1J1QOD+gkvrGPHTsq6dZtl/fqt3vXsksOHj2tnI0mSf9sxjjF16jzJ6J2DWJYR8eeff3l55rj0/H2IFCteQPdfu3az1KpVSX+XKFHEwgXC6vnzF2TLlh16vZs2bpedO/fKce/6kiZLote0d+9B7zq3eMdNr/+7OpYOEfeyZMlq7/VvPdepU2f1OGzEeN2754Cc9dKK9OE6+O3Kletl4cKV0qVLB/2Ma92///BlIfPChT9kz+79st53nK1bd3r3d0LTJUmS2y8LMZz/8OFjssU7z7p1W1TAxvM3ceLbdHP3hlfphQuXvPbjnKRJm0q9TtOkSaX2xM03h90L+3LfGzZsk43etluf23n1lrv11rDnFtuQd44fP6V54sSJU+FueEJTZxw9ekyWL1ulHj4pU6bx7j90PWmN0Gbnzp1qn2OPsVJ8fIN6h/Bge/fulWXLlqkDB4ObDGriKUgIHfok1h8xrgfaNRw+ihQpoqHo8DTFKYjPGIAgP4VC/4YZoMyOIhY/ZYFrN0Ibwo3cKCaaGkYcQ5wkvAtZFGrcuHHascFgYdV916Ey4g90aBFMiRHF8x4zZox63zH9CaPcGmUjPkBnDC8dVlH95ZdfdIofq+3mzZvXt4cRHURWNB0+bJIKafXrVZN27RpLihTJVbTLkCGtZM2aSS5dvCTLl6312qLM3rGyq2ja/bdBKlpOnjRbBg4YIzOmL5T93ud4qKZKlUJuuSWRLnw0Y8ZC+fmn/jKg/2iZhDC7fqvccustkitXNq89S6LnR0ysU/s+aXtXY8mcOYN+Fh6s1s/xEHkbN66p14Mgi0dstmyZ9Joj4vz5P/Q8/b3r6N9vtAwbNlGmT5+v4mHOnNlU7MVr9dtvekqdulX02pwYgGB66NBReenFj+W2W29V0XP58nXSs+cwvffRo6bKvHnL5OCBI1K4cD6fcJzof0TTDz74TubOXSotWtTT4yK2jhkzTfr2GSEDB46VCeNnydo1m/T3pHuyZGHpgxg9fdp86d17mPTrN0omTZwtf1y8KFmzZNRrYdEn7o1j9Pe+595YhAohNnv2LJIuXWoVehEdT548I/36jpLevYbJ0KETZfbsxSoW58yVVVKnTqXCaWxzwEs3hNPt2/dcddu9+4CK5uSDxUuWeWldXNKltYXijLhh48aNsn//frXLypQp4/s0fkBdgXcpwjCxxgcOHKhOHM2bN1fBNEOGDDo4Zhg3AqLorV5bSnxTFjzG03TFihVSoEAB3wDerUEvnJ45c0b27Nmjwilh9Zgl6g9lCEJBADbCMNHUMEKc5MmTe526nGqwdOvWTStiDJbACtoIbXiueJT+/vvvOl0ZUfzRRx+VJk2aSMaMGS97bxlGqIORPHHiRF1FlVAk7dq1kyxZsthAUDQTWdF0yODx3jP5S9q1byJp0ly5+BbCIZ8NGjxOihTOJ0WLFVDR9LffBqvA1qZNQ3ns8fukVKkiMnXqXBVKEVPZ8Ih88ol3pXGTWvLEkx3lvntbem1ZVpkyeY5UqlxGxVXA+/K3XwepuHg10fTAgcPy7Te/S5myxaRSpdKSOnVKOXv2vEyftkCqVCmr/0cEotxzz34gNWtVkgcfbCMPdb5LqlevoGIx3qfqRZsquRw6eFRXoGfldsRLwAsSITKRlz8rVymj19ur1zBp376pPPTQXXL//a0kf/5cKuytWL7eS6P8em+BoumECTPVW9aJpu+/960kvj2x3N+xtXTteo8e7/Sps7J16y7589KfUqx4Qd1v1Kgp6ombPkNaefnlR/U57dixVzJmSKdi5759B+X55z6UypXL6r119u6N6fm7du2XrVt2arqQ7nhs9uk9QpYtW6PC8NNPPygVypfUcAcnvHtMlzaVLrwU22TMmFaKFs0vJUoUvOZWunQRKVIkv/cMjkmJ4uSh1L6jGEbsgtCDzUacRuLLxydw1GDQnnUV8ALs3LmzhgwjLFQoCFpGaIDNR/+WPi2z6xDnmWXpZlUGAzizMNAfmOfxwma21JIlSzRUBffgz9GjR/V3wXIfxrWJimhqvRfDCAIQy6iM8TR86aWXvI7Zdo1xyVQZKnMjtEEsZcrT0KFD5d1339VGmMVwWGWSKfmI5SaYGvEFDE3ioi1dulSnZyGYWgzTuIWpzyL/57Uz/zsQRzzJrFkzyrmz59Wj0UF91KRpLalS9U4pWDCPlL2zuC5ytG7tZq8+26/7ULedOXNWY6EmSnSLZMqcXipXKStPPHm/98z/9ZrPly+njBr9iwqVEYGn6N49B2XVqo0qnOFBiacp7xEn9+w5oNPdIwIx9p13n5EGDapJoUJ5VUQsXrygXvMu73oRZDl/+fIl1fOW2K50eMK8ok95eXaKirX58+eWMmWKygsvPCyVK5f2rj2Hd6xsUqlSGaldp7LMnbtETp8+6zvr1SHmaPv2TaREyUJeRzGL5MmTXVq1bqBeqoRKcMyZs0TTq1mz2iouFiiQWz2CEWchffq08uZbT0qjRjWkcOGweytatIB0vL+VCtx4kgLPGeG2QsXSGtKAfUt793L/A601dML2HXt0v9iGPIZAHZkNr2K2W29lCqfvAIYRBxCPm/ohmON5Ugf/8ccf2u5yrVeD/gTepQxmfvfdd7J27VqNPfnMM89IhQoVdPAeAchsUSM6YeZk0aJFpW3btprPhg0bpt7NTN0PBpiGv2/fPu2b+ZchygEbZcwfFutdtGiRemlTnoyEgYmmhhEkMLLLVP06deroVFYq5enTp2ssQLy2rmUMGcEJYilB0DES1qxZox4L1apV02dcrFgx9TI2A9WID1BH0XmbMGGCTsNiIKh+/fqSJ08erd+MuIN4l7QgTEMPhOeGFyoeITf54mIC1VLp0kUlW7bMOvU7XbpUKqASe5MYpUA8zfZ3N9X/hw+fKD/+2M/rDM2QFCnuuEIkxyuT+KjEA42IgwcPex2RlSoCDh8+Sb744jfdhg2dqJ6WixetUuEzIoj9SegAvCy7dx8sn376s3zp/X7EyMkq9CJ0pkuXRgoXyaftK96eeJieOHFa3//jdYwQK9OnT63XnypVSp1O3+37vvLJJz9Jtx/6yMSJs1R8jOyCWdmzZ9JrZ0r955/9Kh9++IOGMVi8eJUc8dLRsWPHHvUWRQglbIC7F2KWQuLEt6rwvHLFeunRY4je2xf//U3Tac2aTXL61Bndjziomzbt0H0RVnluqVOnkKrec+MZcb+GYUQOQsxQPwbzrC+EHhwtrjWLAwGYgczu3bur4JMiRQr1nqPPQegBVsa36fhGTEF+o8/TtGlT9TxdvXq1zkaijxTX/VvsUzzKWQCN8hSeneTAxmW6Pk4wvEcQNhIGJpoaRhCB0ZMsWTKdIlOxYkU5f/68TJ48WeMCulU8r4WJq3EPC3oxbYPA+tOmTdOFnhjFRDy6//77dXV8xFMTS434AvUO8Z8QSxkkwEBm5dRSpUr59jDiEhYNAqaqB4L35qaN21RcuyNZ2HR1Bx6CbvGlm266WcW8v//+5/IMCDxXmZqeL28OXZxo9eqNMmXyXK9DMUHFyMhC/mHqO2Ii0/KZHr9ixTrd9u0/JBUqlJYlS1bJ9m0Rd7AIGzBu7HSd5r5g/jJZumSNVwev1WMQJ5Pp8IiITE8vX76UrFq1Qaf079mz39tnvVSrVk6/Y1ElvFoRf6dPXyALF62QZUtXa8zX9eu2eOc5G6m2GObOXaZxVPEkXeodY9nSNbLcux48Q/29ell8ivY/ItECD9Lx42fqvc2f5+5tjd4bIjZiKZA2hAfAk/Xf53ZT2HPzntk//4TW6sWGEZdgd1PXBWusea6PKc8ITxFNqcfpAlGVBRmnTp3q1Rkr1KOU2KWEhrKFGY3YgsX9WBC0RYsWOvto5cqVmicRIfGUjitYoIp2n+ugz8bCaJQb2mTKFe+pB2j3+Y59mLKPYIrji5EwMNHUMIIQKm8WTaFhoaL+5ptv1NBhCoHrrEYElXtkO3RG9MKzwYMJgRQDlefGSCqjqo8//rhOx8+WLZs+X8MIBRBhIhKp/GHEncXNiNeLIUn9RSxTIzjIny+X3JLoZpkze4mupI4nBfUVYhvemwiEefLk0DilDh47oiIeigilYSvT75RUqZJfXsDIxUN9qHM7r757Wz779FWpWKm0fPdtLzly5F9PSgaSEEIR9MID4RZvS6bJ9/j9Mxk+/EcZPfpX3Xjfvcencvz4aZ1eHtEU/cOHj8rnn/+i0/pffuVR6dX7vzJw0Lfy448f6NR4l4/xem17VyNdkGnTpu3qZbpm9UZp07aRpPWJy/w/dMgEqVmronzyycvSt99Xur3xxhMqTESiSCj9+o7UFfcffqS93sPQYd3k118/kuo1yss/fgch3Unf/fsPafvNs0GEdh6thBLAazZjpvTy4ktdvHv73Lu37/TemPLv7g3RNUuWDHLo0DE5fuykPrcLFy6q9ymC+B13JNP9DMO4OpRBbG7KVqpUYfVCMEGdSr9g27ZtKkYFQj3CoqOIqsTQHzBggE6Hfuqpp6RLly7q9WexGI24gLi5d999ty4SNXbsWA0X4YTKuAJHFgb5f/rpJ5kxY4bG/HWOTKdPn1abCW/t+fPnS9++fXV/xNZreXgb8Qd70oYRpFARU4Fj3CA+/PrrrxoDhikEVwPBjgreiH0wsBFJCTTNFCg87Yhheu+992rgc8MINRj9j0zMJrzh6ZQh2nTt2lVjmZoxGTwg0mXImE4XexowYIx6nCLE4anI/8OHT5ZatStJgYJ5fL8IE8z79hklCxasUAGUVei/+fp3XRCJKfuAl+bLL32sK8sfO3ZS/vIN2AV6PG1Yv00qlG+pq+KHx/r1W71OyhEpVDivin7+K7zzPlu2jFKwYG5dvZ59w+Off/5PBVW8KpniTidn7dot8tGHP6gY6UDwrVChlHpiLlq4UlYsX6dhA5iajycq/PX3PyrwJkuWVFfsJ97qrFmLvXZ4oIopkUVjvd6c6PJK/QcPHtUFsZYuWe3bIwwWucLTFg9dxGWeTc/fh6mnLPyf3ttFv3v7RzZ6z+PTT35Sr1gHMUHr1q0qkyfN1utFSEbo/uab3zVuba6cWX17GoYREdR9zkkBQTI8UTIuQRBlkBIxFHGndOnSvm/C4LpZ3IkpxKyTgAcdscXffPNNE0uNoABPUzydWQyX2Um9evWSdevW+b6NfRBAEXMpS71795ZBgwZpfxqblgEK7Am8YgcPHqyzQAlpwYwqI+Fgq+cbRhBDJ4tRLie4ERNzz549Gvs0opFvArtj8PE7iyMY8zhvhClTpkifPn10mlShQoXUS7h8+fLqWZo0aVJ9loYRajD6z5Y5c8SrsxMHipF5OnIdO3aUfPnyBV0nM74S2dXzEf7wsExy+206BX7c2Jm6YvuiRasEebNN24ZSs2ZFjeeJ2E1c0e6/DZbadSqpB+jIEVNk3rylKsrd1a6JLlbEMfFUPXr0pMyetVjja7JK+8kTp6V5i7pSuXIZFR1hz94D8tWXPXRhpPBWzx87ZrouLoW4W6xYgStEV95zTSxUtWnzDvn7r791UapAaPduve1WWbVyg4wfN0PGjJ2uHqPZc2SR1as2SPXq5eXOciX0eExfJ6bokqVr5PSZsxpvtXjxQt55ws5LvX7Ru7fp0+fLmNHTZOKEWRomILnXsULIxLM2W7ZM11w9/0+vo7Vj517v97NlxIhJMnPGQknqpcmB/YclXfo00rJlfd0vXbrUKooSe3Xc2BkaOzVJ0ts1nRGR/8/7o/O2Zs3GsHvz0otzZ/WuYa33G0IaVKxY2icwZ9JrDXvOM3Q6f9KkiXUBqpIli6joGuz88cclWb16sxQqWFxSprTV843YhfKPYML0YTzKgmnWBNdGKBxmMuH5hnjD5upMYjKyFgKCKQvV1KxZU+rVq6eLjhKblXokcFDLMGIb2nTsREJfECJiw4YNsnXrVhUnmZ0X24PulAn6zIi52LTEXMVJiWskBjADDfSvGazg/WOPPSbZs2e3mYMhRlRWzzfR1DCCHAwcGhWCtDO6hSiHIcRqngijfO8PAgcjzBhWLMRixBwHDx7UuDaMkjJFiueBYUo8WryEXWB9M1CNUIWBmk2bNoUbmxTjdvHixbpgHeBZXalSJTUiLc/HDpEVTREJU6ZMoYKlLg6UJqW+L5A/lwqJdepU1vik/7YnN+liSI0a1ZT06VJLipR3SO482aVq1XJSztsfAZZnzHFZDCrs+Ml14aOSJQtLvfpVvc5H2isGi5Inv8PrwFfQldEDOX/hD8mWNaOULYtIFn6MsDu83zG9PFv2zLrIUSAIhnhTJr79NkmVOqWKjaz6zyJICKeEDSBmqYP7YytcOJ8ucMV5XbZFEGbK/G3eMRE3WcWflfjvLFdc8uTNITVqVNDfojhnypReyt1ZQhfR4ud44rJ6P5A23Df3nNFL39y5WYW/tBQomNsrU0Uu7+euhY3j7Ny5T++Ra+M6eC5cO8+OtM+cOb3kL5BbqlS509svi8Z8RSxFuE2TNrVOxU/uHYvQCfrcvP14bsS2DYWyaaKpEZcwALhlyxa1tXFawDszWMC+HzlypHqZcl01atTw6oYsOiuEhZ6It7hx40YdrC9Xrpy2ywxk2qKjRrCBMEo4JwYmwmZiHNQyx6AAeZp2LzbFU66B/jYhLTZv3qyvrE+BsxLxg7k2ZnJyvYRbszIVekRFNL0pRYoUkYrMhCeVYRhxy/79+3UEedasWVKgQAFd9RJjiGkFDkbqWDwKT1RixsT2aF0ogEcSojKQPtfT6GFM02jSiDLiyEacKGLz8DwYITUvOyM+gCjKVCRG3AMNDbeCKFOqKEt03Mj/Nuoeu0yaNE5uufWC1K5dxveJEeocP35Shg6dKNu37ZJGjWuqQJvQOHnyjPTtO1ZaNO8gOXL8GzLCMGIDBEjCYTFdGC/Oxo0b+76JW7A9FyxYIB9++KHanS+//LI0aNBAY0EyuLl8+XIVVVl0tHZtvOf/1yPfMIIR7EjihTJrCW9p7Mk777xTnX9ie9YkfWxCrNHfps+HmMo18B5nGOzdjz/+WAVfI7RImTKl7931Y2qKYYQQjLwRA+auu+7S2JkEz2ZEGQHDwaqYTCvCQywysQgTIjTOTGti0SYawcjAb0hnDFK8S3/++WcZM2aMepc+//zzGsexYMGCJpga8QZG+/FsZ/OH+E58NmrUKPWwpnPGFEATTA0jahCTlZXyid9K6IDt268se4ZhxDzYe8QKpU0LltWxsVWx9ydMmKDtLlPtmUp87NgxtUW/+OILbbPvueceXQvBBFMjlMCBpWrVqtK+fXsNa/b999/L7Nmz1fuUAfzYhNmClB9iluJkg83LTE/ec22EXguc5WnEf0w0NYwQAwOOCv3rr79WTy9W8XOjYYDXKZU5npDEYaGSN64EMZkpxTSCkW348LafM2eOfPTRR2qc5s2bV1544QWNa8N78+g14ht4rjAdiQ6kP0xbYsAGr4Cnn35aKlSoYIMFhhENEBO2SeOH5P6OL0iK5Hd4HbSrh10wDCP6wW5mgBx7OiqeSdEJ3neISIimeL7hhYdN+uWXX6pHLGH0nnvuOV3IxtpjI1TBS5rY+Ex/Hz58uAwcOFDt0NiEwZIqVapI3bp1r1g0jXKHYxLe57w3EhbWyzeMEANxDu9GhDpWHWTqAiv6sdIfnpAYexh6TN0h1qZxJRjCxH1yaXU1GN1kfxru//73vyoU5cqVS1cjbdmypXqWMhJpI45GfARvdcJ9+JcT4ryx6BmeLnizFC1a1OI6GUY0ceedxeWLL9+QH3/6j7zx5hNSunRR3zeGYcQWDBQiUjL9NhhWyCZcADFMCRlw9uxZvT7sWLxhWaSKtphXPE8tprgRytCfIh8zg6lDhw7qSY1zEGEpAgfwYwrKT+HChbVM0d/mf/reTNFnej5xjq2MJTxMNDWMEITKmpFkRruI+0JQamIZEX8QI4pKHsGPlf62b9+uBpcR5mGKEESg/Pz582s6hQfT9hGLxo4dq3FtiOmIEM2UDEYeCazPao8R/d4wQhlEUgYVKAOE+gA82QmKz0AMnUkWfGIqFR1K87I2HEuXrpFffx3o+8+4XljsqUGD6tK4cU0VUFlV3zCM2MWJpniZxfX0fKYGM5uM2VHY81wbG4u+0iYTV3/hwoX6PSuQE/f0Wg4BhhHMIJzi0Ulfq3LlytrnHTdunA7Ys6J9bORv1gVhir4LPYWty2r5bCyyZqJpwsNWzzeMEAaxgjinTB/Cs5Tp+DQ2rPaH2MFnjIrhlZrQBT5EH0RkBFOmetx///0qhLqGj0YY4xRDFGGVuKWIpXiaFilSROrVqyfVqlW7vMqjNZhGfIUOGeE9GDTAszRTpkxqOPI/QirepU2bNtW6xcpB3BLZ1fNjizGjp0n37oPlkUfu9n0SvezatU92794vFy9e0tXujejh2LGTsnHjNo2nmjRpErn11ridPWGr5xvg7DI2BvIIqcTGwDbiIBtxPNlY3RqvNEQV9554iNhwbkMIJZ49319tw3YeOnSoLrSK1xvnZNAdL093PkI2ca7Az92GswLXzLXyiiODC6OF7R6ZtpNjYJP++uuvsmrVKj0POK830oX44itWrNCwOVwT52Y/vsO5wuxVI1RBnKTPxeAF8XzZ3ECG8wCNKTg25YfzEIqK8lasWDF1FqBeMEITWz3fMAw1Bon9MnfuXBUDMeZWrlypgum3334rhQoVStAeYQjJ3bp1k8WLF6sA9Oyzz2oj6IxyjEwMZURVJz7Xr19fGjZsqCOMFr/GSCjQUWORpz59+ugAAjGmmP5HHOW7775bBxBYhAIwLClHGJcYs1ZOYpdgWz3/55/6S48eQ2TR4hG+T6KPM2fOSp/eI2TTph1SoWIpueee5r5vQpPz5/+Qc2fPSbr0aeJU1GDxqTlzlsjAAWOkaLGC0r59E8mWLZPv27jBVs+PH2BfMQjHq3vvNv/vrpb/6X9ioznh0i0Kg7hJW4Vdy3H4jn343h0b4dQJlcC+eJDhOXY1e9i1geXKlZMCBQqoeINd7Q/XhEDJ8dyxOK+Dz2kT3f3xe9pJXhF9/M8feP/8z/Uj+rLoKzOeEH0B25SwAThLOI83RFnEYN5zbEJHscI3bTUee7TRhhGqUKYZyMcGpT6gX8asPwbuKUeUMbdRbsD/s/D+B1f/+MPx/Mvj/v375ZVXXtFBCZwFCBngL5qyr9v8ceeKqJ7xPw+v7v/wjmVEH1GJUW2iqWHEE6j8MRgJEs80BuIdYVRiXNHQMDqGEZdQ+e677zQ2aebMmeXll1+WEiVKaCOFoY0HKmnGFChCHmBoEkyf9MLIjajRM4z4CAMIzC6ZNWuWDjbQSWO0nc+pT1yZwLBDJC1ZsqQasHhis7KoEXskJNH055/7y6GDR6VEyUJSv3419YgMZYYMGS8//dhfJkz8XW67Le5EjYkTZ8mihStVvO3QobnXqbgjzgc/TDSNHyA+YodimyIwOk9O2hL+Z3AfQcTlN0QGBE0nfCAwIvghBCIQ0vawsR/70C45MdOJFO4Y4XWOIytKcAyuzQmd/r9xr+4aXFvoPGG5Z4cTevkekZX37Mf7S5cuXb4XjkE7y0Z6cM/sywJP2KakFZ9hk+L5ypYuXTpJkyaNfsaGgORe2Rjs92+rDSOUoVwwMDBgwAANR0eItc6dO2uex+Occkd5c+EpqGPw8naDKJQ3NwDjjkcZZ1CF74F6iONR1lyZ4XcsuswibMQ5ZQE26hcH+1I3+c/m5JiUc67JCbvgXw4puwyq8Bmv/M8xOJb/8Y3oxURTw0gg0CAw2kYMI4wppuVQMfvDaDQjYximVNxU1m3bttXp6AiCCQ0aTjxHEU2ZWoz36LvvvquNJFMuiAWFNwJhDhidxzOXmDU0nOY1ZyQ0qDPwbmHlUlbP9+8AAgYedQqGIGIpAwwYr4ildOIw+IzYIyGJptu37ZY/vY5O6tQpJUOGME/nUKZ3LxYY/FWWLB3ldZrirpN08OAROXnitCRNlkRX67/55rgXWEw0DV6wORHxECcQMegf8h6BwokDwHs2hEDaDQbc+N+JBIgNwP9sDvZxIga/xQ5zgiLv/e0y93kgHMNf+LgRnP0c2WMgoCLEOMGXe+B/jgPue/5n43//e3Hn4ne8ks7MIEOwYV/+R8BxvwfuHYGFjfSl/aVtZiaIE1QDvVoNI5ggL7uBFTfIQP1C34335HlXbigvLEJKmaC+wYua+Prkfco75YC6BfgN793/lCEEU15deeGYlDdX31Du+I5XV+75jmugH4nTDV6m7jvgvaubHPyG83B8dzwXpoPPgc84rhNxsbX5zF0j181vEFL5nGNyDu6L3/E998DxGdxxg0q8MmBihI+JpoaRQKBSxYhCLGUjvgsCKsHh+ZyKNBAq25w5c8rzzz8vzZs3v9yAJARooJhSgactKy/SwNaqVUunXCE600DTCBGzkVg1xGqkwfFv/AwjIUFbv2zZMnn99dc1lhpGH3WI64QyVZEYvwwwYDzikY0REl7H1Yh5Iiuajh41VY6fOCk5c2SVNWs2eW3Fn5IlSwYpUaKQFCma/3KnGmOdmKErVnjtyrbd+lmWrBmlePGCUrhwPq9uvHK/ZUvXep2Y3V67cqvky59L5s1dKtOmzb8smmLoHzhwRFav3iibNm7T82bImM47b0E9pss3Y8dMl6NHj0vuPNll+bK1cu78BWnUqKZXJ+dXUW/J4tWyf/8h+ePiJa+DkFTy5s0p1auX8zoJiSMUBIjPuX37bq+zs1JFQfJvjpxZ9J7z5cvl5euw6zt48Kh3fRu869suF702NEP6tFLMuzb2c7E9x4+fqdeR3/vdsuVrvQ7dOWlQv7qUK19Cv/eHeKvumvdxzX9clDuSJZU83r1Vq17ea2Nu957bHPn1lwEyf/5y6dLlbkl0SyJp2LCGVKhQSg4fPuZ9N1BDEBw/flJ27tgryZMnk0e6dPA6kee9Nn+rbNyw1Wvzj8s/3vVnyZxBypQt5h0/h9f5PCmDB4+XFi3qSg7vWd/iHdfBdc2evVj+uHBR6jeo5nW2btXnsn7dFjngXe/NXoLkypVNKlYqraI06frnn3/Jvn0HZfHiVV59cFDrg3Rp00jpMkUkv/e8k3n3FROYaBo38HydKOqEUcQL17F3QgDlxh/aCDZ/28n9j83JK7YVZZCNzj2fU/5N0Asf0hmb3tn1PBe3ObHFPQfXRpPO7r3736Uv+7oNeB6ILWwIM07cMYyoQj1BHqX+QPh0GyIg35EnXV5zr65ecXUM4iD5l8/43/2O95QBhFaOSd/N1S3UKdQtDt7zeSDUO84LO7LgjEQ5uVHRzZVl7gO4P8owr3zm0oZ9uEeum/f+9+Pun9/wno33pBHvXfl23/nXBWwci3tgIIVyn5D0AIeJpoaRQGGlfAQOYpcy8kYjwgJQTDlAEKQyBRqeRx99VO677z5d9T0hQOODZ+mIESPkp59+UsGZlRCJ7Up6kFZMs2BlRgQgGl3DSOiwSBqxTFkEg3qEsoK3CgMvDC6UL19eywzepSaUxj2RFU07d35V1qzeKLVqV5ID+w/LBa/TkdjrJJcrX1KaN6/jtQvZdT8EslkzF8mUKfO8NuSCGuAIk6zk3rRZbRXmAAFzxoyFMmnibK/jckGSJE0s6dOnlc2bd8jRI8cvi6YIgAsWLJep3vEQAPEU5bylShWRJk1refVxXt3v0UffkBUr1qkQuW3bLu/6LkrXrveoODpr1iLZuGGbHDp01OsshXljZM6cXtq0baTHQVAMD8ThESMmy/r1W1T847yZMqVTgfHee1vocRAeFy5cIZMnzfGu75R3fX/KbbfeJiVLFtL75frY78kn3/H2WymNG9VQkZg4oJ0fbi9NmtTyne1ftm/fIzNnLrx8zezLMTJkTCtt2zSS0mWKysCBY3RqPveKkIp3Z5dHOug5167dLOXLtZSO97fyruVWPUbGjOnkiy/fUNFz+fJ1XjndK8ePnZS/vA7UbbfeIlWrlpMaNStou/ew96xfePFhqVWrkvdM0viuSmTLlp3S/bdB9FLl1Ve76uJPw4dPks2btsvZs+f1twi6rds0lAoVSkqGDOk0Tfr2GaFpefLkae14pUxFzMQ8vtinMbMAmYmmMQfPGXuITjqiA+/5zP875+WFcMqrE03psFPvYy/R+cSrkVc2PiN/GHELtj/Pz3nr8Zx5bk5Qcc8awcR5pzpPPSeuOFHJCSv2XA1/yEfkK8RLXqkznIckkN8Q/Mh/5Ed/wZ/fYlfSJgL5jnoE0Z48R150HpTUKxHZmfRvOQf7umMlJEhj0p36GXHa1emu7nZlmbR2ry59/QdKXL3gIC0p865+4DU+pa+JpoZhaOOBiDpy5Eidco6I6qZM8V3ZsmU1gHXr1q0vG07+FSWE91l0QaUbaHi5z9h4H94+NwrTxohh+uGHH2qjzbFpIJiGX7FiRRWQmVJM48HnJgAZsQ3lzZW5YCmTrML75ptvqic75QLvbLxJqTeoQzCijODhekTT2bMWScuW9VVQg359R6nXYpmyReWJJzrqZ8TZnDZ1niS7I5m86Nuvb9+R6o1YtmwxefKpB/SzYUMnyNSp81Vke+nlLl4e9Y7Xb6QeEw9GJ5qOGzdDpkyZK5jczz3f2atvk+oK+0uWrJYcObLIy688qvshms6csVDatm0kTz/zgKRJk9rrTN2ivx80cKw82vUeKVw4r2fA36aiIcdATHz33WfUOzU8BvQfLV9//bs8/0JnqVatnOb3xYtWyfoNW+UV77zk/QkTZsnkyXPkH68DwvWlSHGHjBs7Q71Ts2bNKK+82lX3QzRFWG3duoF3fQ+qGBmeBwtMmjRbF6zq8ug9UrRoPhWdV63c4LXNU/Sa33zrSfXSjGh6vhNNa9asIA8/3F7q1K3iGfrJ9bvnnv1AsmfPIo2b1JKcObNox7Gvl+Zr12yWEiUL6vP99pvf5aabE6mgW6lSaf0ddO8+WMXWkiULe8euqP9vWL9Fj1/X2xC/f+jWx7MX/tT7rF2nsgrEjRp2kk4PtZVmzeqoWI0o3L/fKHncyzPcR0xgomnUod1wXklsvAfsQQaNsReZTUDcaieqYQfRqWRqd4YMGTTkCoNmtAVG/IHnzaAo4byYpcZGX4E6EpEEu5jnnytXLhW0+MxBfYgA48QYI37ibFJXd7g6AvichXPJP7ySfxDrqFv4jnxBnqH+IFSEi8FLXoqo3TRiFp4LZZxyz0YbgEbA524DyjX1PxvhCHilXaBucH0G/mc//g81TDQ1DOOygexEUipDPC0JIs+K8fzP1PRHHnnkstHMyBS/c7+lIqWB9IfPXWUZGah4OV6gCMn/NJzuOLxiiNOIuiD/xGHBQI8OevXqJT179tS4jFwPFTyVJRuNNtfJNH0EVGK94oHLPoYRG1CuXDw4RoUpt67zCuRZRu4pk+6z8GC/axFR2cWodbF72Yeyv2HDBvn99991xfwGDRpIlSpVdBq+G1yIbD1gxA7XI5qeOnVG3nnnaSlSJL9+xtT1oUMnyNq1m6Rfv6/1s3fe/srLc6eky6Md/mc/vA379w/b7913v5FjR0/olHGm0AP7Ma0cz1Anmv7nP910v84Pt1PRk/yDdydTyBFxhwztpvshmuI5+dHHL6k3K4Y5WQ3PUjxemQaOiMrvEfcQXR/t8roMG/ajFC9RUI8RCKvBf/Fld3nggTYqQCIy0g7hdYo4Cp988pPs33fIu4+79fo4L9c3fNhEmTx5rgwd1k3LB6Ip+33y6SuSN6+7vvDLAtfMNSIQu2vmHhB7u3r32afvV16bU/SaoulPP/9HGjWq4XU603jnCzsX3p5cD0IsU+8p/seOHpcvvfv866+/5YP/PO+V4a3y/vvfScsW9dRb9aabWF38b3mo0ysaduCee5p5NsBfcn/H5+Wxx+6VmrUqSsaM6bX879lzQF579TNp0rS2PPhgGw3R0KRJZ2nRsp40blzTe9YF1LOX++H+Atv56MJE06jh2g9i4BMDcMeOHSqS8oyxf+gIM4DMwDEDY/51O3k7cIsorxuhCzYwtoV7dbYEz5o+ghNTsVH43tkJ2NDE/c+aNWuUBAgjuMErFJsUBxzqEcRRHFCo89moPxBE6cOxuWnk5CNXX5BnXB3i8o/VJXEHz4by7r85+I6Nso8Yzlof9D8Qw9mP50vbwWAKM89oO0LRy9dEU8NIQDhB1I0WMQUHwcUZPVRuVGL8T2VHHBb243MaOVb/cyKlq+zc76gAadj84bvrhd/QSDr4H2PdTfFycI0It3znvuf/wErYHY/P2ai8qfgQfDD+ee8abJgwYYL069dP5s2bpw0/8DsqfDbec0zSgcYeMZcGgOn7iKg5cuTQ9DGMyED5QwDFyKBsugEJhyuTQL7jf8oZoiWdVQxQ8rczQNiHVz7z9/CIbih/lA93bdwHi0Bt2bJFyxRli3Llf03Ae3BlnM+5dsojv/P/rRGzXI9oynP68ss3LguGxMfs0X2IjB49VaZM7aOfPf3Ue/p8P/zoxcv7MXX799+HyKiRU2XqtLD9nnn6ffn7n7/lww9f9J53mBckx/v5pwEyaNDYy6Lpc8/9R8aPm6FepUmShuUHxD0ESI4/e84g/QzRlDagW7f3vXzzb55H6N24cZvGPN2776CcPhXmzcLnxF2dNWuATrcPD36HJ+mG9Vt1/yRJEkvJUkWkQYPqlwXcl1/6RD1AEVT9r48QBrd7+8+ZM1jFSURTYqT+/POHV1xfeJw+fVY2bdruXfM0FSFPef9fuui122fOyorl67207q2xS68lmo4d95tUr17+CmGSuKKIzYsXr5aDh47IhfN/6PVu3bZLqlcrJz//wsyKP+Sllz727imrep7myJFZBVu8X/EoRQDF47RunY6SOUsGSZM6pdx62y363P+89JeK46+99pg8+dT9KtIyhZ9rOuSdj6KfI3tmadmqgYrlEYVGiCommkYe2hNsPcQN7D3aIsoS9Tt2DNMweWXjGbt2hTqb73h1dblhgLMN2Khv/dt/bBsX79bZ6+Q3BDRsZ/oZ1vaHDvS70HioO/A8RyjnM54rdip9JP/p3Hzu7FXqEbcF9h2N0MSVfco2G3mB8s/zpa2hPqCvwD58zme8kh9cX5q2JljzA/2TG8VEU8MIIqisMH7ZXDwiJ75QMflDJeW/+X8GzsBx/9PxQjCkcaPxY/M3lNmPz2KiouPY3BsVrT8YWnxGJewEU/99uAf/+3H/u/eBG9/x+yFDhsiSJUtUxMJ4o8FnoyKnYncdCb7jf75j6ghxGol5ykga6WQkbMhP5E3/MslIO3nVfe/yp3vPFl5ZJX+692yUM/IfmxPzyZeUSbc/7/nM/Ta6ofxxPw7uy5VHzsn3znjimgLxvyd3vbz6bw7ec4+UNwYr3OYGMYwb43pE0//z8uXn/33N69ym1s8QEnv2HCYTJ86SCRN+18+Y/k2czHfeecarE8P2Qzjr1Wu4TJwwUyZM7KmfPf/8h/LnpT/lnXf99vOO98tP/WXYsImXRdOXXvxYFi5aqTEyrxTYbpKsWTLKw4+01/8QTcXLYoh+/rAAEcf768+/vDqb8sGA4D8ae7V37xGycOEwubPc/y7GBIiH7Ldi+TrZf4BphEflzOmzkjlzBnnt9cc0v7722ucyZ/ZiqVixdNj1Xc6KN2n800ceuVv3QzRFoOze41Pf9xGzbOkaGTxkvFd+EK1ul0Te77nmA9419OkzQmbOHCCVKpe5pmiKkF2lSlnfp2H85KUvcVAT3ezVH0m8Nsore5e8cjtt6nwpVDiv95z+q/vxXBFuixUroELpl19099q1tFK3XhWdnk98U6bdV6xYSgXtxLf/e36v5OpCUaQJ98ACXStXrtcFqQ56aXjs2AnveRDO4CEpUCBmYqSbaBo+1LXU025aNW2Sq39pd9iwtdiAOpbBLDbeG0ZUwUZAmGdz9jr5LrDNp20n3yGkILzxvxG3YNMhdjM4zuC+qytcvcEr9h/Q7tEPQgx39Yf1ixI25BHKPHmItse1OWwO2iPXX6DM09dmNgN5CNE9rjHR1DBCCCoTGiXECiodN4oDTsRgc1N2XQNGZcV+VDoUeiogNwKYkEb5SAdEHEQs6iUMNzfizXe8X7VqlX4OpIsTSXklvVxHghFxFrfBqCM0gI2OJ0xo8BEHKXNslEP3OeWT8khZdGWS712ZZR/yjSuP5C1nXCYUMdClH/UZ5Y+N8ucGfFw6YECRLq48kk6UT9fZcmWVMkqaJpQ6LSpcj2iKd+eLLz0sVarcqZ8RZ5NV4Y8cOSY//PiBfvbppz/rqvgtW9bTOKCAR+eE8TPk8OHjOmUcPv/sF9m1e596Mlat+u/xiJO5atWGy6LpN1//Lrv37JemTWtLuXIl9PkTMxMhDs9UFwJARVMPPDn9GTBgjHT7vrfGz+Q8qVOnkGNHT8qUqXOl66NvysJFw/W44cE0+4MHDkuOnFklSZLb1fOU4y1dukYmTuzp5a+b5Xvv2Nu27pZmzcOuj3zH9SEMIrAWKZpf86aKphcuevf3ie/oETN0yAT54ovf9Jrx/kyTNqWGHpg+Y4F3zW/JjJn9pXLlMkKsWPabOrWvV3+ElQW4mmja7q4ndVGou9o1llKlCmvHllX/P/n0J73H3r2/0P0QRXv0GKLCdqvWDTTswosvPqJiLZ7BPOOnn35PGjasLtWrV5DcubPpwCrT7vGORQjPlCm9V64vajzbLFnp9KTQ58bK/x/+p5v07feV3kdMYKLpv1CPYuu4ton/ETzc1EnAfnFT7ak/DSO2IT/iqUgYCOwk6nryJbYRfRY3q4b35FETUWMWbFTqCuwyNvpHbLxnwAU7jf9p35ywRQxL7DL/2Q2GcS3oA1DmyVeEcqCtIm+Rj3CUcDNCXR2AnUV/if+xYWKTqIimibxK7V3f+6vy2muv+d4ZhhFZnOiC8EnjxSsVCx6QxJlavXq1rFu3TjZv3qxTYlm5GoEG4YDGC8/HIkWKaEzBAgUK6JY3b141jvGMpKHD8IjtSicu4V7d6BUjoMRVIv4iacVGWtWoUUPq1aun8RgJR8A+GAJU1FTYHIMOKoYbBh2vfMbz4Xnx3MCJOUb8gYbclUmEPt7T8WTknXKI4L5+/XqNB0wZZcoS+YH8RhwvyiDeyC6/8T/5DwEeI4D9yGMJKd9wr5RJyhFlkrTwL5Nu43PqNupA0pt4wxs3btR0J62dseXKnas/rUxGzLZtW+TmRH9J7txXX8WcKfjLlq318v8/kjNnNjl69IR+dvDAERVHS5QopPsxBZ04lgifuXJnD9tv1BSvHBzWqeJ4KcJZbz88D1et2ujtl81r007JuHHTddEn8j8emvDnn3/Lrl37ZdHClZIpcwavHbwku3cf0JX3F8xfrosNwdix0/WVxYb8YQX65SvW6XnTpEmlYtr8ectk2LAJXhndpedhwabwWLx4pfTrN8ozklNouT98+Khs3bJLxdq77mrs1fk3edcXFsdzvnctiIQIpvw/c+YimTNnidSuXVn3Q1zG67JFi7q+o0cMHp7EXC1RspB69TI9n3slLixiZqeH7vLqksx6/Su9eytcOJ+XscXrQNyq2+HDx+TXXwfK/fe3Vi9Qf0Z5zyJpsiTe887htWeJvWs9KIMGj5W5c5ZqOrRq1UD3S5s2laxds8mzMTZqmp09e06n1HNeCBv0uUnmzV0q589d0GOSLhs3bpfBg8ZpqAIWeUJ4/uTjH+Umr328+eZEXkebaeD7dAExhPWI0j6q/PHHJe/aN0uhgsW95xfmyZxQoK5z7RN2I16l2InLly/XOhNhirYG26ZUqVJSsGBBXbCHjmkwePIYCRPEEYQ3bHBsJGwA7Gradewq2nnsKXCCKYMAtOfsZ+161HF1B/UGdhZ1B/YsM++wtQjhgT1FGAUW9uQ5UX+wpgPOIzxDnoVhXA+UXdoe+tPEO3WaBX0m+t1oG7RhtF8sMssgIH0Bfodtxka+i42898kn1x74jgjzNDWMGIQg2lQQNFQuCD9iHQIeoiiVCxWHv0cVlQb/s5khcf04D0Be2TAiqJB59f8Ow2Lfvn26MULOsyG9eR5U9IjTiK02Gh5/IB9gtNOAUyYpnwg8lDU6oTxvNhp5V+54dWWSVyuTN44rj1crkyw2QJ3Js8G4d6PSDBS5ASM8WIwwrsfTdPOm7VK9RgUVNhHK8uXLIS1a1JPWbRqKi0uKaDpnzmJdRGnlyg36GeJZs2a1VXTD2xCIc0psTbwlV6zYIHfckUSncx86fFR27dx32dMUT0UE2NGjp8nMmQvl2LGTkso7F16dzZrXkfr1q+l+EXmaIiwiqLISPr9lGjtTzrNmzSTffNNDFi4aEaGnKdPYx42bKSNHTNap8cmSJdFYom3aNpJatSpqOeb6iOE5atRUmeVdHyIxsVbvvLO4Xh/xT9nvejxNWRCLFfj7e9eMZyZCKB61OXNl05XtZ84aqB6apAthDyaMn6mC5bvvPSsPPXTXVT1NeXZ4si5YsFx/w/OoV6+a/p8zV9bLnqbAglyEACA8wltvPSl161a9HEqBssdiVdz3lMlz9Jx4mSKC4hXcqHFNrzOdR0VSwjeMHDFF1m/YKn//9bfmm7s7NJc6tStJuvRp9HjRTUL2NMVbB4GJTiaDSAxEIYpS9yFqkB+pF9lojwwjWKGdx7Zmo43Hu3H79u0q/CPq4fV15513av5m0NW4cUhrtBrqDZxweE/6YjeRvvRlqDuwZZ3da7asEZM4mx9bnvwJCPrY9+RT6gPyJW1byZIl1bGCfBmTRMXT1ERTw4gm8ApAGMUgoOPvOvt4niGSYuxSedBIMSLD/xgJ7GcNV+ziKnIXCoFK3D0bhBs8D+msYNRR2SOkUqkzOouHrxEaMA0JLwdEOKaLO1Gc8ui8tHnmbG7aOBtl0ohdXJmkzFH2qE9dmaTDRZlk43P+pw5F4KYzgIdEQuV6RFPigr7++uO6oBIGLEJptmyZJHPmjF7ZCGuDeA6Ik3v27FcvQ0CYQ6TMnDn9ZZHG7YfXIcIgiyVlyJBOPTcR89zUfkB4Q7RkcaU/Ll5SERHxjmPiEQl4RILzeHVcuPCHel5u375HBU7ig6ZKncIrw8l0Wn3VandeFnIDIaYp3qVMRSce6S233iIZ0qeR7DmyXPEbhGI8aQ8cOCQX/7ikiyLhIUrauPivCKvkR+dpezW4TnfNXD9pmzpVShVjt23bLZWrlJHUqVPqeVnYiev7y2tnCAWQO3d2n3C9REXoNGmuNPBPnDgle3Yf0Pu65KU1aUk6nvQ+vz3J7VK6dBHfnmH7cmyEYIRmPHVZzd/BMzx48IjeO/siiCZNmkSyZc+kIQB4j3ctoQo4DrFtvR9595FccufJrvfgf7zoJCGJppRFOo9r1qzx0vqYfsa0ZsRSwI7EVrS2yQh1sK+xy7C7eU8dRL+J/8nniCbFihXT9t36RdeG9KPPyUwdQnaQbohCePzRVvM/dQn1h7N1DSMuob3DjqdPRv+aDbuf//mcvhgOZdj25N3oxkRTw4gDENpopPBco8C7kVReqRQYLcHIpYDixWajqKEBz5X6jgoc444KPdDLkA2hhqlIPF8nJBhxC2IbXjoY4Tw3RA7KJK+USZ4TgqmLr4ORbgQ/dK4ok9S3CKc8W1cWXblk47kSo5hnG9Oj1cHC9YimrB7//ffv+T4xjOAlIYim2BjMdMHrxrVTbLRLCKbUZQmlHjMSHuR52nI3Xde1684LEgGVMsAAt/EvCEvYua7viW1LvQHUHfRN2GyWnBEKoJkwaEgoCfrc1AvOticPY9fjtETfLTpEfxNNDSMWoFFybuW80nBR0Gm8aLho6Fl1nRESRFIj/oAxhxCH1yJT+am4qcgxTJy3MJ7DdHRshDz2wFh0QinlE28FPHXc1G6eCY0t4RbM8I5fYGi5Mskzx8DCGKIOpkxibLkOhPMojo+YaGrER+KraMoAEHajGwQitjP/41FDjFI8xEzsMBIi2G+06YSmwLZz4h9lAnsbGy6hDiJg31J3YOtSd2Dj8p6+KDYuMUmt32nEB9BT3AxBdBbseucMQTvJbE/s/RvFRFPDiEFovBFgaNBpqAiojXCGCznTQ0uUKKGddPMISFgwHYbFghgdAyr1MmXKaIWOcGriacyBYEaZZFSS2FgLFy7U/2kMGbQoWrSolk9L/4QDnQoMLQLNEx4F6HBVrFhRO13kB8SIqBhbwUhkRdMXXvhQWDjoww9f9H1iGMFLfBNNsSMRPbAhqaOIOUi9hFBKmxVT9iPCLPVeMMx04loYYMZjiPqatKATbDM+gh/yLn0gbC+eH2IdeTamBqOx5whXgZ0N9LPcdN342I5HBOXE9T8pP9i6OArgCOD6njEBAzl4/EVFYIouuBbSgfoSGCSnzjBHiOuDNog619nDERHZ/WID6hvWoGAhOQRU6oDy5cvr8+fabiRcjYmmhhGDMPK5du1aNXSppAlazoiem0KSkBpw41+ozNmcqM5UGYw8YNVAVqYkv5hwF/3s2LFDVxJGMCVEAmnt4r25MmnpnvDwL5N08hjQoExSPlkhlkENOl3xiciKpsSjpEy4BZ8MI5iJb6IpduTixYt1YIeFWdzAHm3VjXT8IkvXrl01RuSTTz7p+yTueOKJJ9Q2euaZZ1T4aNOmjbz55ptSt25d3x5GsLJo0SIZOnSobNiwQV5//XWZOnWqLmb7yCOP+PaIXtzUfTbEwhUrVqiQg61HfnYCWnyHEB7YMNi79DuxYXiNaceM999/X0Wqjz76yPdJ3PHhhx+qcPrpp5/q//fcc480aNBAHnjgAf3fiBz0l6hzv/rqK6lcubLv0/+FkDHs99///leqVq3q+zRuoB5wfWx0SLxPGXBE+OQe8LK+3vYzKqKpKT2GEQ64hyOUjho1Skf2EGKoPPBaQqRhpBWRBqPXBNO4gQagY8eOsnFj2AIisQ0VtRvtRIhhkSgq8dKlS+uo6MSJE2XkyJHqjcoosRE1MB7x8h48eLAakUzDrlWrlhqRhEVgxJ3p+MHi4Tts2LDLRh58/vnneu2RYfjw4fLJJ9depTsYwQuCTvGCBQt8n8Qe/mUSwwhvDOpsOlqIqZMnT9Y6nYUTqOMTEix8ZIKpYcQedPioD6l3EJ1oo6pVq6bepdgMtFfX0+Fbv369ihmIr8yyCA+87CdMmCAff/yx7oPgRBzoYMD/WrCRGNTCY9EIg9WkO3XqpCEbgg2uCaG7Q4cOMmjQINm1a1eMei9jw2HL0c/C1sNZhT4Y4tnMmTO1PJGH4ivUHUuXLpVZs2bpPXPveNjR/yTd6XtG1s5lwAahe8aMGfoMw4PZk5yL/RCmOGewOMtxLdj/Du6BetW4PhAfaR+uVedGdr/YgDxOG+nC3zHoRj+bcBSUD+oCBiJjC1N7DMMPKmI8SufPn6+Vhmuw6XzjFs50fDrlNyLK0Aj+/vvvasxGZlu5cqXvl9EL94WYQ0MaytAhoDOCIR7XIJxjyLh8QgB7KnjEdQwQxD4MYkZujesDw420Y6QdwwkxDMMRkZq0JiwCjeqNlEnE7IEDB2rj62+U+cM+1An9+/e/rsYZsXzZsmW+/0SvnxHSyMCUNK4pFEGcxPiO644fZZL6m5FoV3cTOgNBlek+dLoYcEnoZXLJktXy22+DfP8ZwcbECbNk5IjJvv+MUIEOJ23/vHnzVNwhJqNbEZj3NzLYTmeWdmr27NnqdRceDAjR1lCvYXO2bds2zr2FwoN6GM/T/Pnz+z4xEK6mTJkSlIJQvnz5pHnz5lKvXj2pUKGCNGnSRAesYxonnuLVmidPHm3PsbVJq+nTp2s5wOaIL+BRh+2EJy/3RjmhX8G906+4HrHUQf2DHYvNg7NJeNAfxEGI/di/fv36+oyDEZxlypUr5/vPiG7oY+H4QJ4LJpiVgYc5bShtKX0/yj4xkOljuzYvJknkFcB3fe+vymuvveZ7ZxjxE4xRRk8RLGiQaaCY0klnm0b6RkSZQBihpaNOo+g2vMoQMmms/D8vUqRIjFRaGNVMqWnVqpXeY6hCpwTxg8YdMSRYwCsZsRQjD3EPUZfnyegolTqdJQwf9jMihg4i5ZCp+Gx4BmIwM62RgQxGHqMKXi89e/bUkWy3WnEglM1p06bJnDlz9Nw818hAZxlD9K677tL/uQfKM8e4FgzaMEWmXbt2vk9CB54bdSgenhj7wQBlDc8uni9xTimLlEnKJtP4+Z7BsFCcNbBt2xa5OdFfkjt35PJlIKNHTZGevw+Vhx9u7/vECI/9+w/Lpk3bZfeu/XJH8mSydOkaNdDx4I1Jvvu+t6xcud5rr+v7PkkY/PHHJVm9erMUKljc68SF1gIntPPU33TmWKyF2IMM8lEHRcWO5LfkOQaLixcvrvabf51FBxJBlfMieNC5RITBPkKo5bdcG20RA4Hshz1IXUi9TacUgQrbivYOwYYtEAYEOYazHzkm4Yk4JtO3OSb3DQxcuWtk9gVtd/Xq1fVaOI8Twdifa+fY4W2kHftxnbTbXDvnYyCSwUzacL53A6gITrTBvOf3XJez6wMhjebOnas2BtfBvhyf43KNpAvtgz+cj/4CM9LY13nn0Zb4pxnphIcw6erSnPaR/MHAP/tyzdiyCGVcB0Iyz4Trpo3CjuRzjoFtGQjnIB3oqwDXzO/pa7DxPPDqRQzjfP55hn4Hz46Baa6Ne+K6uCaeHXA80p20JE04BvaSW5zJ/3j8lrRw6cLxGPhmH/aNChwD0YTp6VwPz4l74tmwhbpNTTnC3iSf8EzxpkOspsz4p/GNQPpQprGBCA/ifzzSkvAHDHa3bNlSz8mzJq+R94Br49lzbWzkYfIY9hPlgz4NILxyvPDCJ5DnV69erWWe47sQShzP1RvcP/UYZdk9T8oF52/WrJn+T57lujgHdQHehuQ1//rCbU5oI59QvrluVw7Jm5Qv0oayRZowYEE6cA3cL2WX6+aaI3oGaAc8L8oQx+Z3HIfrd2UoIty1UAeRNrznPKQ99Qnfs3EvCN7cL99xbNKQZ8DMA+6B9HP7Uga5Lp6LuzfKIf0dnjF5C0gXzkN5pe5zXp08G9osrt+dg2Nd6xwOjsU+pB91E9dOmlLP0S+KbD8qPLhvzkce4PlSr3NM7oXr5Tv2iYiozOKzmKZGgsdVplRYVKg0UIxixUYDjOFYo0YNeeihh+TBBx/0fXolXB8VGA0FlQ6/oWKjoqJyc9fJ5zRW7Mf+vAdXCbI/xg+NGt4HeNhheAMVD4Y1v6FxYuNc7jsqIn7vKiJEB85LJcm+XCNGFPuGB8diP9KZfV2lx/4YWRhf/M/3NDYcK7xKj/PSOGB8cUwMY//fUoFHBMdkv7iAZ0Iga4yWUqVKXQ7zEFF6JXR4trQ5eMxgsGDEITZGd5kkz0yaNEmNripVqmi58M93lCmu4fvvv5eaNWtq7DUae8oXv8XQYR+ui3xJOXGGA97ceJoO9k3JxzijLPp3eiiPlAteKRfuOJyP3xJDDCiXbl/OCa5cs7lr5hzAd66sYTByzPBwxyV/uvqCPMn+GGd0VHnPPpQt6ojwngHf8Tn3xjkpp7znt6QV/0cEHaCIri8m4Z4xBCmXiBqVKlXSuoS0Cz7+T9OVjefk3pP3Zs6c6uWBv6R2nbK+fa+PH3/oK717D5cFC4f7PkmY/Pmn154cOS5p0xEv7n/r5X79RsnwYZM0/Z94sqN88P530qlTW+n0UNigSEzxzDPve+XrtPTq9V/fJwmDUI1pSv6gY8hMIcoobUZ0tVscm47qvffeK88//7wOGFNHO6hnf/75ZxUDvv76a61X7777bg0Z9Oqrr2rbgYjGQD2eOU5IQ2zjOtkIHUAnGbuU2HeNGzf2Hf1f6HTSLrq2jc4xXn9M/8WG5jrpcCNyIN464YVYhLTjb7zxhnaqOQdha9gHwTQwPibXRtvD1qNHD90Pu4DwPCNGjNBXOszYgzgZPProozp9k3aYgc777rtPnn76ad2Pjj62V/fu3X1H/xfaTa6FcD/YuaQNnyHc8DnnpU/g7DXSkfsfO3asCizsyzXQjjRq1EjTzHXcv/nmGxkwYIA89dRTamsgrtCO481FWnfq1EmdM7DH//Of/+ix/NtZvDq7deum9gfOS9gogWAvEJJh3Lhx+j/CBteF2IRgwfNA9OHaEEzc4DD3gUjDflwbz520w4OUeyZuJHDN7njs747XsGFDdb7wPx7t6ZgxYzQvYBdgn9DPYF/yg0uXqELewMYhHyAC8mwZEPUXbkIJ0hSxzYlXTZs2jfa0uv/++6V27doaYgFbx8FzYkBj9OjRXp3bV/Pyyy+/rL8h7wHlZ/z48VpOscmx66g3CDeC9zEhkID35FHKYiCUA8oDeYlyRl3GYAB5j3oJux/7mmts3769DnBw/6+88opeI3UbkC9btGghjz/+uNY9nI9rdWAXcX2Us/fee0+vhfcIeNwjs7gQZ7H16Ft07tz5crx78jdlDW9W6hbqccoj6UPZCITzEIqKsoezA9fJcQgnQXmrU6fOVfudb731lqYHZYP0pQ7Hy5NyxbkJ8YYYS72HTV2yZEmNU42nJWWL/P/SSy9pbGg3ewrbne8YfKEO5N6ob2gXqM+Y8UpdR56j/41g/uuvv2o5bt26tdbd7Pfbb7/p9ZNmzz77rJ6DtOMcCK3uHLRHPH/6Gi7tqY/YuAdsbfIbeYP6gXqUmXvRBefjefIMGJCjLSCtIio7pMWNEpq1i2FEI1SMNPKMttK4U8FEl5EbHSAiMmKO0UtFyhQZGoHevXtr40qDCBgs3MO3336rIiyVMAYSU6CoTFylgmFKZUnFS+PA9vDDD+tn7IPxxm+cwYtxTqVOxeegscLAw6jmmqiAaZAigkaWBpMK3Bla7777rn5GpUyjADSeGJHcS3iwmAEGPzgvUwxi4LfufsLbEMXjChoXOi4YAhhGGJ90Loz/hUaXUUk6JDTMdBroXMREmcRww+jDIKFjgLHhD501RjAxpLgOjHKuCeOIDgzB0jFuKT8YInznymMgdBTp+PlDxwtxleOQlzFmOU5g3sCQcoYL5Z9ySWeQ8uw/le/tt99WA/OXX37RY1K2MHIjgkEHjLIuXbroMakvMJY5Lu8p94CAy3mpX8KDsuwMWtKQzjGdJuC34ZVHt9HZjgsokwilPD86mcQgjmjqWtzBmPbfXplgMYxDXr5YJ0uXzZUpU0fLoME9pV//X73OzCr5628L+xFVNm/eIRUrtvHaos2+T65k7drNcuttt0i79k3k7be+lOzZM0uuXNl83xpGmPCBTcbANB1nOp7R2W5xLDp8xHTD/glsJ2hPuAbEOwTTwE4jHeQvvvhCO5mPPfaYdlzZaEuw0fD2uhE4Bu0kduOQIUNUTEX4QGihXo0MtK8MXvpv2HrEWKQjzOAaIJJgdzLw/OWXX+r5aH8QNDgv7bgDOxLbGYGFWV4ItFcDu4z043gMWNKe0uZhi3AvDtLJfYZdznlpxxmY5z3iBSKNg7QljRB7EDj79eundjX79OrVS+0LxG3uC8EK4cqlAeL39cK1kzew8d3zQMChneO6HaQlaUw7jw3Tp08fFbVYaAlxw4FghPiKneCOhzBMWmOXOEgPbAeEP+wI+hIsJoMQRvojLvn3I6IC4ijPnGdLH45jB9pvoQT1BrYSZZN8El2CKbi0QtjC1nX9LQf5GRsToQ+7KDzhGQEN+wjbjrxMvuEZU8a47hsBkZDf0ucjf5CvEEAR78nDlMVrgTc9dYx/vcFxif1MOroBG9KXPiuC4AcffKDn+u6771SYpe/o+pEOxEEGSiiL9LVJl/CgX0mcfI6PAIqIyXmANKJOdg5IEUG/m/JFHUL5pC6gDCFkMpDFdVLuqGsQerkef1ucfgcepNT7n332mT4fFvDimrmeiEJ98cwJB8L1Up9SB0QU9oC2g/NSN3Cd9N15pb6iD8FAE9Bn4nycF6GUOpdnST2O2Ep6RDeIsNQx5B2eI/Uv1xETmGhqJGgYeaGAU7EyOkHBu9qoUGzDqBWVDJUVI/SIJlScNAY0NozkcA9AxYtBTCOGKMmoEI0a+zLag4GDSPDiiy9qo4jRhkHGxkgVn9FAMNKN4PLOO++o0ciIMhUiHQEHlS3nR+B64YUX1Hhl5Cs8MBgRUBBvEF6oPDHm6FTQcFH5YygAo4U0Phw3PDCOnEjEfXLP7rdU9u5+3EYaIP7G9XPF+KETw3XQCCK+8TyuJjQnVDC8SReMIYwA0iqmPHLJ84yO4ulBBybQcKJjymg4gymMNnMdCKYIfXTkECgpI4h/5GOMJP8Rb38oV86ox4hyo9407gxyMCKOqM7ngUYoRgn5BWHTlctChQqp8esvOnIO7gExlLoCg4WR6fDAy4gOJccm5h11AIMSTNuhvqGD5Tp+XCNlLSIjlnoKowoou5Rh91s8fwLLJQYtBg7POC68TIEyiWiOtwQdfDq8GHV0YGMePEXxhDglBw7s9PL8Klm8eLZnwI72jM3+Xie1j5eX+sqIkf1k+AhvG97P+36ml8e2enn2vGf4p/bq8iLedZeV5i1qSunShX3HNW4UPE0PHKA9CX/ArmPHlvLyS128NK8kH338krzovS9Z0tLd+BfqfjrgdMTxwImJuo2OMB47tEt0tP3BlqVewxYKT3Ch3eE31Lu0C9hs1PeIKXih0XG+EQhBQ0ef9hp7keMyOE7bGijQRAR1MfaR22hrGWBGlKB9pB0BQtzQVtH+4iWGCIKXIeIZ56Ltc3BMBsVYQIdr8veuCw/sY+xlBrhJI35Hm4tYjRjjwBbG7sSeJc3wdOQ3DHzSLtOm+gt43A+ea1wz90Ga84xIN9ob2kvEBzfDCpvHpcO1rjk8SAu8v/yfB9dGP8ffeQChkXYbG5nBY9KTAWoEVvoQDu6T45Fn3PHIg3im+Yur9BOwz9kfYZ/j8WzYFxsK8RXRLrogrfAG5j6x77FnIuo7BDNcMx6XCJvcC3khvPIbFTgez5h8GehAQrnBdiR/RjTIgy2MDYywyvOn3DlHEJ7vjUCeRDAljxDKiePigEMZxwaOyAHBH0RE8qErL6Qhoit5gXztREDKFvUG58Te5/opq9Rb7B84YI5NiF1MWaU8RvQ8GHCgnnf1DPUG9SlliOuhj34t0ZR7x0mBskf54vmjRzz33HNaJ1G/sA/HJa1JG56XA69KHC5wkuB3XAPlDYGbvnp4zgC0A/Q/8MhnlivXy71SZ4YH5Yy08j8HAirnwP6nrgYGRTgu7Z+rS3mepA3Pg3uMbng25AMG1kgj+itOxI1uTDQ1EixuygLGDxUABkVcdeAjAkGUURMqILwWqITYEN6oTDGSacyAxhABhXuh4fHfFwOG+6NCZhoylQy/p6Jkc5/RiPA5v6dxccfAsAoUlGgQqAjZj2NgIIcHv2PUm8qS0Wk29uc8HCOixuh6Qfxw98OGMcvxaYBomN0UorgEww7DgOfpRnwxMkPR0IsJMC5odMkTNLQYKzEtdmMkYghCoFiJJwadU8oDxhjXRZ7CEMPAxIBxZYSyRfnz9zCJCBp1RnipgyhDrkzwyuBIYFkiLfDEQZz1Pyeib+AoMoYthgPlko6rG2kPBKOJDg8dG47pzs99cS/R5SGFsepfLqlrMFjJ83Qaube4hDqfOpMyibeUm950/YR5hf7990WvvjzmHYv42Bu8DspSrw6fI/Pnz/AM+Wkybz7bdK/DOkOWL18g27Z7Hf1ju+XPv05IkqR/S4aMSSRjpqTelkQyZPDeZ+T9HZIpc0rJmi2Nl3YZvOslLlk23fLly+GVk2t3rMlrO3bskaFDJ8hnn/0i33z9u4wfN0N27b7Se5jnsn//IZk4cZbu87m3b+9ew2XFinXXNP6PHj0us2cvlm7d+siHH/4g337by8vnc2XfvkP6PdXcLz8P8MrZWv3fn7Fjpuvm+Pvvf2T1qo3St89I+fzzX+Xbb3rKjBkL5fceQ2TMmGm+vcKud8uWnTJi+GT56qse8umnP8ugQWNl29ZdV4j8XAP3y3E++eQnvcb585d7nYqTem8//9zfS6P/k+6/DZb33vtGRo+a6vsl4anOeB2DM7Jy1QZNi0WLVnntGrHJj1whsnLN69ZtkYEDxsgX//1N/vvfX73rmiQ7d+y9ZgeQ7/Fm7d9vVNj9ftvTq08WyOFDVy74w/1u9e5t5Mgp8rV3v5959ztw4BjZsnmH93yu7ZljxAzUGQxsUScjmjrPyOiG9pCOaFg53a+dYvI5HX/qLzxRqcvCw01HZWCSuKgIC7RxtGuIeeHF+4wM2DTY0nhJ4RXF4D1ehtiuDLZdL9ibdHpxGOBeaSOdeIhAwD3QVuMZySDcjz/+qOIEbZr/zAvul7adNjsyA6+IgmwM6PNb2mHaegQDfy9cBhR5DtjVXBfv+Q0iAoIM1+3v6cQ+2BCkL6I318JnnAvxI7q8Lx20r9TVeNzh2crzwLsVsZc84nCiO2IathaCCXYOAo1/HuJ/6qfA4yG6ku8cLv8jNrl04XkhsmDXYKtENKh8ozibjPKGeEOZiGimWjCCvUje4pqx1a4m0EUVngP2DnnAlUsGGUgz8iTPKKJzYyOxH4NCOMC4a0ZoY7sRKA+UM45JGACcbyjTCMicizrueqDs46GJHc69UHZdv4/75jMGKaib8KhmViYCH/0wvDX9QXSkXrtW/4O61NUT5EHSkToYIRg7GoH6Wh6zPHNXz1B+gGNQjiljeJFSzzGbi3qb/rR/P4M6hfqFZ0R/l2ugPuIaqIcC7400QixFX6AOo6/AbyPypgXSDw3C/xwuXID/OdBTqP8Qeklv9mFf0oY+TEza+/RZSDPSkXaRvH0tu+t6MdHUSLC4Qk4ho2NP5R1sMHqDoYMBQgWHlxsNFpU8FRxeaXiMAZUtFRTGOyNLiD0Yn8RoRazA0LwWCDE0ZBjSjKDhIUrlg7eov7EFVJYYs1RQV4PGlcaMkThX4Tphxwk/0Q2GGWItHrakE6PmnDNYoCHHOMVg5rlGd8UequBJjJFCmcRoiIm8ER50dsgn5HvEbJ4HeZZnQxlC4HcjsBhTGBoYnZRHygi/w2CnE3ItYQkwMijHdFQREd2ADcI/AibX44/zUOF6+B3ndIYv5dwf9qMTRF1wtfSjg0M9gVc5v8HIwrDh/hj1vla5vhEw9DAy6UwDoi4dsriGjgJlkmdMfedGzcOEUGKH/uV1EC54detJL48e9tJ+j/cstnnGKwHxN3qvbBt823rZuXOj91w2yp69m2Tf/s1y4OAWOXhoq9fB3CqHfNvhwzvl1OmD3rkveHmdPJ/eS/t8Xt4q6eWJ0t6r28p4/5f1DODCXkc2l1c/Z/D2xxANW/AksiDwzZ+3TMXARQtXypKlq2Xq1HmeUb/Rt0cYR44cl8WLV8nYsTP0ldX1ET5nTF8o27ZemdcCWb58nYzzfjd71iJZtmyNLPF+P2vWYtm40U0j/j/55ZcBsjwc0XTM2Gm6OXbu3OMZ9vNkwoSZ3nWslKXe8SZNmu11rvpeIZru23fQO99imTR5tp5vqXe948fNlLnzlsq+vf926GfOWCgTJs7yOmRLZdnSNbJ40SqvHC3wysABz7g+IRvWb9VOGteKqLtz1z7fL8XLrytl7pwlemzukUWgJk6YpQLxrp3/7rdr116vwzbfu+ZZmnacY5SX3lzLgQNh7XRE7PLON2P6Ahk33rtf73xLl3jn8K53+3aXF8NA0OZaJk2c7Z1jtfcc18gE7zfcF/dixA3U/9RtCBO0XTElfNAxxKajjcTWY5CHjipx6ai/6KhHJNjSxlG3I3YgSmLj0Xlmeisdae7hRsAOpU1CrEDMpNOMWED7cj0iGeXP3QsDerSJzEjgflxbhs1EbHjEA9pfzoedh53Jd/7tL7/Bdo7IeyoQbESenT98hk3inzbYBO45+OPaUCdkO/g9+/oPRPKe58H9XktUuRaB4hJ5wj0PhEr3PLAV/J8H90EaRTSw6iBfR3Q8f8GX/Bje8bBF6GORLpGxj64X+m48J85BPojMwHWwgJ1JHqY8k0diqt4A0scJ4Dw/8g19SfIfn1+tj4Rdik3Itbp6A7GTsurv3X01AvMp4h8e3ITF8M9XOAKRLoH7Xw3KEc+eeo33LKJKX9aVOfIp9QXnQpR19Qb1HtcfKLRTD1A+rwX9BeoX0tYfhFTyPXXSte6D+oF6w//Zc02unkM4JW2oEymLnNO/HHGPgQ4mHIs+JvsFljn6Edw7aexmPiJsXg13Dv+61J2D/OPOQd7i2kk/6kN/+H3gZ9ENacB50Bki2x+7Hkw0NRIsVBxUpHHt6XQ1MGqo3BgRI4YiU+px2WeKPVNcEU1cRUuliwDCaP8PP/ygU99p3BhZw+CLzOgrRi7xWQj0TxgAAlIzBRljKXA0nEoxIuPcHxoNKlXS2b9RoFEJ/OxaRKYRpdLGE8BdM3FariUgxQWMxFG5Y3RE1WiOL2BE8fxiW0hz03toYDGiKCsYbhgnGJIYtM74QtjF+CL+GOEfCE9BeSTmkxNcrwX7MJKOoRVoqHLvgZ0xvDnwpCFeEfUAdQChNxglx/Dxx3VQrgWDRpQPPEr8DSYMY7xlrmVEXS/cM2Ikoi91L3ULae7SNRjA056OOsYpde+JE8c9A/CQV8/u9erG7V5dulrWrF0si5fMlJmzJsjkKSO8jsNQ73W4TJk6UiZNHunVuZNk67a1cvHSSa98J5XSpZmmVFlataojrdvUk1at2epLy1b1pGHD6iqKFi2aX7Jly+QZlFFbXfhqIJgirGXMmE66/fCefP756176Z5AD+6/0BEPsmzlzkdx26y3y8Scvy08//0dq16ns1am7vfz2r/dleEydMk+279gjnR9uL337fin/+fAFyZY1oxw5HPFCYBGB1ylemxUqlpLvv3/Xu95X5a8///Lasiu9JiZPmuM9Dzymc8rn/31Nfuv+sRQqnFeWLF4tc7z7dQwYMFoS3ZxInnu+s7fPJ/LW209pnsSLtF69qvL1N297efFmPcbo0b/K008/4Ptl2LVgjD/zbCf5vedn8vvvn0qVqnfKmjWbvOcdNgAA48fPlJUr1kvx4gW9470l33z7tlcWU8mc2Ytlnpf+VwMRdtWqDSqOf/vdu/LpZ6/IP3+zqNqVQhZCNyJuzlxZvWt9VX799SMpVqyg1wlc613LYt9eRmxDXYo9Rv1NRzKmYcAa6PwjhGHvMCjNAFhEuAFk2g4W/KCtoL3Di4lY2rwHbDJnLwXaXLSNgfYKawLQmWfqJl6IeIsRqxOB9nqED9pfhDhsUIQwhA9/wRRoO2hraeOIrf/TTz9pWCk8xxBIA+E4kbUxOX/gvfEZ9YS/UwXXw30Fdsj5LRttZ+A5I3sNEe3H55wzMD3Du2ZEcJwGGGzlefTu3VufB+npb59Qp9H+XqtvgHBDm8hgLDFK3fGYrut/PJcugcfj+rjO8NIluuDZI5IhGPt7+QY7pBX9LoTmmBaUgEFxyg7CIc8EW5bz4gRzNfBGxO4kzAT2KYPuxM5nY0FNh3u+4eXTwPJC/xSnIDwQ6XPiUUm+YmEm/3x1LTiX84LFiahTp056jf42LHY7/WKuj1AkeLbiLc06A9jAgddLeY9Mn5Hyw28DyyD/B9YbEcF5Avej3069hiMFobbwMqVeJZ2wUQO5nnKFAxX9DtKK/ieDHZFJ78ieg3vh/gPThOd/Pc/1RqEsUR9QF1yrbrteTDQ1EizEEYrsCFlcQaVDpYkASoOAYcyIrwt4zf94cAINIYHaCQCNZymGA6IKDQgBpRGkrgWNFoIjsUdovBhNxGDiHIGVHY1FbAoekalsqZQZzaaBoUOAkUjlGVOGWlTAwOPZ0mAFNtgJFcTBG/V2iSoIhXQ6GYmm7DDyTb5xnVMHxiadRMJNMJ2IMsZUewYxrtcgiOxzJxYYgydMz8fIoy6gXD7wwAP/c87wDLCIiI58x/mvdRy+Z/AEI5D8Tp2E0RZMgilwTaQfQkT37r9pYP8uXR6Txx572jNW/+s952nefRzz8klmFULvu6+53P9AS329997mGveywz1Nve+qefmmpHqGpkuXWhInjl4B+kZA4Lv1tlu9620t6dOn9ToVaaVlq/pSp25V3x5hrFi+TtOg88PtvPopo6RKlcJrT2pKgYK51cPyatx0801y6eIlr1094aXTae8c6eS+jq2keYu6vj0iz4IFy70ymcdre2p7acjgQlrv2ttI8RIFfXuEMXPWIilQILe0bt1AMmVK79X7d3jPooXclvg29Rp1cE/nzp1XEfKPPy56zzCrPPNMJ6/DVsq3R8S89/5zmh558+bwOiyJ1Yvhrrsae69JZeu2sJjisHDBCsmbL6emK/fO9sCDbfQ3a1b/u5BMeCxcuELy5MkhLVvyW55POn1WZcoU9e0RxpzZS7xrzyZ3tW2k95sixR1yd4dmei3r118Z49KIXchjsQVTLxG9EDppN2mvaL8iM1WWQUIEMBYFZREQhEdsYdoYoN3DfsJjL9BTlBkOCBD+MBMJe4aZA9ihiBV8ho0dWbB1sd0QBfCWRaTBPgqE9oPBN2xUZmQwyMc1IjJEtYOMIBs4o4rBU47vpvkCg92cK9CmRoTgvhHOI9sG+0O6k4cC21T3PPCgC3wePPvAfowbkCUeK6/kE+7LzUpzIC5wLmbKXA13PPoBtJEcj/O6Kd4OvuM5Bh6P6+OZMfgc3YOxDtKb62Lw4nrtsIQEA8M8J8q6K/MMTOAhfy3IAwicxMAkBj/CIwNEhPlw0DbSDwsczOdcgfmP/OMGcsiLeDGyD/ktsvCsKRPUYZQZ4vkyrT6wLqbsUEdQ7xGyA6GY62SwJ9Ah6HrguqmTqDv84R64Z+rFG2kXcGqg/iSEFc+Meo40pWxFNX/jsINwTEgABpvoSwTW6TcK5ZD059kGPm/q0sDPYgLqGLaY8Dg30dRIsOBJhJHGa7BCRUkDx+g7RhOGm9vw0uLVeTUgQLAPYg4u9wRoZjVTPOEQAWgwHG50LFDsoAHBsOH3jEZhtNKwRMUYpUHmfIix/udDHAv8jAqXUTQaDP9RKho80uBqI8jsT0PFSDhGK9Oew2s8gwUMYe4XQ4H3RthUFxrvqBgxNwpez+QXpvfQsONZQcNLTDV/6HxwfXjRELOH35BnAzszV4M8iTHFvQZ2eOhcBBoWdM7w7GYwhFFxOpXkmfDKQ2TzEkajm8LiX74xAKkH/D+j/LIvRpv/5xhvdBKv9rzYh+eKUUs6YbRStwSbYArUpdS3eGvR4XzooYflqaeekc6dH/E68Y0lV66CcvGPRLJu3V6ZNWuNTJ2yQiZPWq6vU6cul7lz1nr5Zpfs2HHUM3jPec+Hug1Pp7i/1+MnTgnRBnLmzOql/c264WmaKeOVns5Hj53Q2J/PPvOB15np6uXzR+WhTi9L9+5DPEP46oOMTZrUknLlS3jpMVeefupdeerJd2TUqCleHv930YLIcvjwcUl2R1KvjUt/+Xpz5swiqVJe6Y1zYP8R6dN7hDz22FuXr/fRLm/ImNFT5cTxfxcd6fTQXSpGDh481ru29+TJJ96V+fOXeW3NtePXnj17Tu/jhRc+kg53PyOtvHN0evBl/eyUn+croQ2SJU3ipav/NWelUIal/1XgfpMkZbFApvH++9vUqa+cLkyYhf79R8vjj799+X67PPK6jBjpdXwCvFKN2CXQnopJsA1pe6iPu3fvrrYa9mB4XkgObF0G+hjkc7OUaOMQwMBNveQz2jaEWKaGYo9R99MuuFiW/tCWMCjmQgVgqzHQ5++Bdi3wXGNwH9uN8Dd07MNrIxDGOB/TeGk7OS9tNgP+UbXlSRfidnIttGm0jSzuSPuF16YDsYF0x5mBe6bN5J4RH7hnBF3ay+uFdMdepr3HPnb5CXsB4YR7ZsouzwN7g+tj1XE+84f0IS0Im8B1uhlk/uIWEHYIG5TVtrF3uE9sD5wxuDcH/QqOx1Ru+gMRHa9MmTKap4gZyVRprhN7xk2JxmYKDH8QXWBncG2kYajZ07F5vdg42I88B2ZLIVpSd1zLO546hmfO8wTqGcofae4/ZRv7lPyLww35CRuV/6kPGOz3hzqM78l71Bv03yh/5L/IQh+emZjcB+tY0P8lTwdCXYLoS5nhPORNBpzwlL0ekTYQ7FnSgXqCY1NvUH+MGzdO+9yEoAvveq4FacozYVo+dRznwCuYsnq1fnBk4Hro5zMwxYwDVubHEcStjxIVuGZsZzQHnjf1Im0HacF5uJ+YBi2A7UbS/VqYaGokWPBApMLH6AlWqNgYTaeywTDEuMVYojFCcKQRc6O6CDBUqFTcGA54HWBoYUhTkbtRFxoPGkyMZhoOf0Mf44wKmY3P2Ydpwdcaib4aXAMVKWEDXKwaGgBXqfqPmmHs0bBhfCLGcM3cKwbYgAEDruq5wEgfx+PaaTw5b2Ri0sQV3AvGNmJdsAq7sQ1TakiTqOS3G4VwERiPlB0MCDotjCIHTpXHwKVskI95buRPYnQGdlyuBgYRnTAMCToelDPyOnmejpubJungPNRVlH3OT/nBsAxcnO16wCOJ+8WY5TqoCzDOOGbg6r90AKmLuFbnecP3zhgOHGX3h04YxyM98Y5iGti1DPS4gmulfmQF2/z5C2gnkEUtatSo6b1W9zrLFaVIkZKSN09hyZY1n5c/cntbnrAtQx6vXs0i8n/J5NTJf2T3rhNeJ3e3lzc2eum2ThbM36Cv8+ev8z7bICtXbPXq6gNeB/S4lzYsSEg9jEgQMx0oFSC8Q/uL3uSpwMWDbvH2Q1wsWaqwlC1bTLcKFUuqJ2fHjv+uqBwerCbfuHFNqVmronpwpkyV4nJYAAfX8Y9XfvwHxc6f/8O7riun7t1yi7efdoT/3Y99/v7nyuu99VaC/2fx8laRy9dbsVIpvdYGDf8VOqpVK6f/16he3nu+BeW2xLdqfNcrvTNJ+/9Nf2KoMnU+SZLbdep/6dJFvPQp5LVXd3jP7d/r1mv27u3PP/2vOSy9b0l09Tqe31Kv/P33v8cL737pCGTLnvl/7ve+e1uoaG3EDU7MQ1yiXMU0lCMGdxh8Q5DC5qG9upotQdtB/sH2YqonizYxK4d6nXqZqbuAIILABUz1xqOMBYCwQ6n3A+0qBqj5Dd8jyiKwIERonRNJaAOxZ/F8GzFihAohH3/88eUNwRawZxk8xB5G8ODaaDNJ/6iKTzw/RKHevXtryAKEWOxqvPBoCxykFW0Ez5p0RHxC8MVOxe6uXbv2DbVx2L4s6ILgxLP59NNP1abHJsHLk3vkXnkWpA+CKdcX+DzwBsTGHzp0qD4PwhnQRgeKCAjjTuhEJOWY7MuUaX8vLWbbYB/R1jPdn32wAwKPR5rQxmMfkC6kIemCTeGcMRDKYgLyJbYYAwmkU6hAGUEox56MCc+4QKgfGJjg2SNQUodExrmEZ03+RhAnn5A/mfXIc0V8dyDEkVeYCUnZJA/wG5wNAgcSyCvUX9iH5FPKM7ZoYL66GpRB6g0GeLgfzulfb1BPAGUbgZB+M6FIuH7qGe77Wvd+NRhAQailP0d9QflgNhjlA+cA7MfruR8Hz4iFlwhhgMMBoQUIbRVdgwLU1/Q9EXWpLxCuqVtI/6jAcZkRR54iv1D+qR+pU+ljUC9GJb0jA+dB8yANr6cNigyJvM7bu773V4U4aoYRn6Aiw+BgJISGg8IVHZXR9UJFizcbDUggiCtUkhi1iIGMqmHUISpRITHyzKghlQPfYfhgOCCucl+IGggwNFZU7jRwVCb8lg4pv2HUGLGAY9Cg8BkGLI0Av6XRQYjFGGQECagAEXNZzOlaYNA5bwCMKYxphGoqaV4Riu677z69D+6RCo/vMCBoaDk314Hhxf3QCDG9AuGItCOuEtfOCD/GnAs2zfekk9vwIAsWEZVnQFpzj3RUMCTjIu8FG+R1njl50InJsZUunAuBg3zDKDHnJ6/R+PtDWaF8UW7Iq+RhOqF4YWDAderUST0zKLPcC9NrgA4HAixiKeeiU0P5pTwjKHI88j0b+ZxBHcJLAGWZ8sh5KUuUB4xEOpIYqO3bt9f9GO0mn2NsXQvqFkb3McR4pcxzPM6PhwrXg8cMgw+kC0Y998o9kgaUKe6Ze6CMYoTT4aMMUy4xnDAmOebnn3+u98u1Uj/5l0vyPukVlyBWUSa5VtoBOsmu08v/pBXXSecGYYK6irqUeifsNWxLly6D97vk3m9u89Ls/+TsmYve/f4hZ05f8o7/j/c/6fi3957tH6/8/yPnzvLZJS9dL8ipk+fk5ImzXruEgH3We39GTp465+170XtGxIVDWGUKJ23V9Rmeq1Zt9PLrGe8ZpPA6KhlVjGS19qnT5mvM0YcfDstD69dvlRTJ79Bp8W3bNvKeaSUVQJkCnzFTeq9+jXilfrwgaVfLly8h1WuU99qdpDp9nin7deuFhQEYMnS8d/4Mkjt3dq2PyS8rV27QxZMQIZs1q6P7zZmzxDtWIq8cpBLignK9xPKcPGmupEqd4vJ+ixav8vJZPu//2tKiRX2pXbuS1z4U99qrbHoe7hd27twnGdKn1RipZcoU84z7xDJkyASdco8AefjQMenVa5i0a99ECEvgb2x//NGPcod3Ly1b1pNWreppPFPSYfXqTXqcFi3q6X7z5oaF9EiTJqWXFxiU/VsWLlzplZttktVL86rVyul+4YHXKzUdnqXut8SX5X6TJWMKY33dj4Wf8ufLJc2a19HrqV27sne/JTQ98VIN9EwNVf7445KXvpulUMHiXt0RMyvRRycMAiCW0nZRn9F5jGncOWg/aGfcoJ8/2Bl03qnTwvJmmst2L7YY9TntEgu9sA+CE2WYuo16n7qeffkN3+EFinCJnUX7CLQ53DvCHO0Z77E3uR5mRLn98MCiXaWtYB+uDcGV/Tg+7QnljvuhrfPfEPfYj3tGaOE8tFHsi9hIe4NNS9tH/cx90WYSMuBaXp/YYbRZbrFSrhO7lOMhRnP91PMOni/tGe04bRj7klaE+CGuK+no6g/Sj/T091R1kGf4PecgvdmPtCRdSHOOy3FoV7l39nfPg3zGs+a33C9tk2v3ecaAcMMzIa3pY2DL8KxJK6CN43e8ch14smGzcK8ci7YOSF/aSP/j0V8hrcgHXB/QRpIuXDM2DPmL+p38R/7iufvXq9EFz4k8wvlIe9KQtAwFwgbKwkJTkLdjoy9AOcamIR8xNZ7+L//7Q9kiHelrAX0qbEB+Q9nDDiWf4WlJP9D9nrqB68eOJq+QX3nmlF/yAfdIXuAz8h7PyeUr8gp5BG9V8pHbj+fKvi5UFnmV/if7cU0MtFAWKfOB9Qb7sFFWKGN8xvVzfeR7RF5+yz2QDlwD5d8tkHQtuE7ShjxIuSXdeJ4MIFAuOPfVnif3xjEox/5wbZRV0oVj0tcgbakvORfXR/mk/uO+uY/wBgsoh9RL2PHY+Vwj18VvSXuune9cvc09s7n9OCfn4PwIrIH5BNiXtMPeJy15VtS5DGTwHWnO5ww2kb48i+bNm/t+Hb2Q9twL18z1cC2c2x9CwNwoN3kJFqn5JHR0DCO+QYcfd3EqTBoIKvSYaNQjggaTxZsQ/pxAEgiNAsbk4MGDNWgzlQEVEg0QDR6jRFSu7IewiHBCI0KjRoVIxUHsQ15pkKlg8YwjZiniKb+jUkXUoUHkPC7GCZU5lRuiEAYX8VIBkYbP7733Xv3/WtAo4gXKyLdrrGiMqayJG4hIxX1QqdNIMBLIObkH7pX9GCVkxKpDhw4ajJyGk8/Yl+fHaCWLVkUE08qcARBX8Lwx0KnUMYid0WH8C4Y7RgtGFsY6hkBgoxdTUDYoOyyU0bVrV/VooWz5Q0cMzx7yHc+RvEzepSOFhwjlCIOEEW/qFzx5gEUrKGcsgOTgXomJyvEwSjBWiMmEoUG5ZJQWMJrYjxF1OjWIjxhJfI6hw2ABPPXUU9opJWB/ZEAoZXSZcsm9YMxgjGKsvvHGGzpqzvVwDjeSztRMfsdzwVuV+guPF54XC2JxH3zGonWkH/sTAysiKNONGzf2/Rf7YIAymEPdhwFLhzEyg0FRgQ42eY2OEvUhdS3vMTJpfzD8sLNvvvn/PMM2kfe8WdwrlaT0XlOnpsOezPscQ5z9/s97bjd7z+PqseJYaIjV5xGjHu3awfvdzTJyxCSvvZjk5eHbZcHC4bofYiUrszPV/IEHW0u6tKnlxMnTurAS0/M/+M/zul94/PbrQDlw8IjUqVNFBUviqA4eNM7rOOSSt995Wuu/Z5/9wDOcL0nlymW9jkIpLx3O6vR6VuuvU7eyV14+1GP16jVcRUgWyGrRsp52PH7+qb+Kq3XrVZFffglri5giP23qfC9NkquQSAzZffsO6Wr/TJN/pMvdut9bb30pmTNlkPIVSgoeo1xbj+6D5aHO7bz2t6muns9U99dff1xF4kzeb53gypT8jJnSqRdt3jw5dKr9oIFjvWueLpWrlJUePT7V/fr2YSGwRV5HI720btNQP/vxx75yu9fRaNiohv4+Ivr3G6ULOeHl26ZtI71f0nP8+Bkqtvbq9V/db8yY6d79ztNnRrogsLIy/6yZiyR1mpRePXOf7hfqnDx5Rvr2HSstmnfwymTwLtbpIG9jm+FVRXtAPRJeJ9YIPrAzEQk/+OADbe8SIrRJeIeSFrR/TlgNBWhLGdDFRqEvFUo40RTbCnsK+ytYnDsM40ah/4INg8hK/40+BP0h9An48MMwOy86oSyhVaKXUKbcei+BoGvcKCaaGgkaRj3oKDO1FgELcS5QJIlpnIjIFh5UBBg0eELxSiefyohRIhpXDHM62uHtR2XFfgiPCCL8js8RJ91+/I59nLcAn5Mu7jycg/3Zx1U2dPD5PKJrDoTjIhYiTrjjct2IQ4xeMXWfjoYzIKhwOafbl2vnfBhHnJP74ZikHc+NY3FsOi0R4QS4uIL7QBRBPObeEJnwMg1v5C4hQz4hX+CZjEcJZTIqjdz1QH6jTJCPGGAIbxCFfSgf5NEwcSssL/PK5+QzfsOz5liMdAKdEcqQv1cl+3O/rrzxO87JcfnfeYzwP/mbjfeUa7cfZcbtF945rga/d+WS90BZ43oQZVkkhE4k5+B6XLlkX+6Xc1EuqTNIA87LftQPvOca2Z//I4L0Yb+4gjoEb1vuDW8ghO2YridIT5embKQnr3wWyJ9/hqXfqVMn5fhxFlg6rsL0xYt/aH655dabpGjRnFKxYmHfL8Ln7NnzMmvmQunbd5SsXLVB7kiWRCpVLiMH9h+WvXsPXBZNWSRp5cr1Mnr0NBXijh07oeIhC1vhzVmvfsSDPHiCstL89OkLBK9ThMZGDWtI02Z1dEo74FWKQDhjxkLvms6p6NekaS2ZMH6mTn13oimr5A8ZPN67jqlefbDHK49Jddr/3DlLpESJQvLjT//R/c6fv6DHmjB+lldnrPKu96QKtrVqV9Lp6lw3IASP8o61ZMlqOXvmnGTMmFba393Ma3+qS548eKAckd9+GyTjx830bIJD0qZtQ/niizf0t5Mnz1Gv1EULV3j55IKK2PW93yEw44HrRFOuedTIKTqdf/PmHfoZIQsQZavXYGAlYo83VvEfMWKSjBwxRbZu3em1cUnVO5f7zZU722XRlPudPXuJiqmLF3G/J1SkrVmzoqZjxYpXxmAOVUJNNAXqOjx78FjH+4+6JLwybQQXJpqG2TUIjywMg0PGSy+95Psm+KH95vrx1ovt/lt0wWwdZvlgd+LNbRihDI4cOG2Rl+m/4ZSAEwh9C7xkcayITmhn0QRwXKFPgYOU63sFYqKpYdwgFDQKMZ5TFGo6pzS6TPGILe+2hAzTgBnRJoYkoml8hTyGEIj3LKIaXr947saWGBhKUCYR4fCoxOMU8ZG0ctP1jZgnIXQiKZN0EvG2pxzi4UE+o9MSTNAZ5FoRZNwrYrwTrleuXCap0zCF8+piGeUKgW3XLlZ1PS54sLJCO3EzEeKqVv3XC5/FkRBT8WD84+IlwYsVD86sWTOpx2tEIPzxmwMH/r+984Czojr7/yMdld47SLWAUi0sSBBQRMV/NKaQvy2JJnltMcZETKxJ1FdjgpiIIKAoioj03nsV2NAFFmRZ+tKRXarvfM/es8yuLF5k0b13f9/d+czcmTPtzKm/85xzdllaWrqzhqxenQkLKzjRExAdk5O3OJHyyJFjVqxYEatRo4rt3LnbCYUIosB7b92yw1K2bLcD+w9ZweB5g9e1fv2GWJXgeq++dmrIKCaa4r67du22I+lHg/sWd5aiWJqWLJnRgMC7p6Qw0/ReOx68M5Mu0aWdbvZ0scdfU1IoB2y1w18etmrVKzvBE/bu3e/284z4F/6BBeyePfvdva66KsMdz7w9eHeeGQEVKpQvazVqVrGyZekmlnM3vZMnv3LvgICNPzK2LM+wZ88+K16smF0VEZ0BYZjvs5P3Db5P8eJFnR/TPR+L23ggFkVT4hgNUKQpdEmk0kg3TeKpyLvkd9GUcQwZQgd/oIyFhRaza+dlSGtJsxl/lYZeJg6jjEhDbixCukGPPOoJ5O+ER76F0g4Ri/hxZqnHYZiBIQIiJiIqQwzQ7T+3QCwl7WKIPq7LkAgMC5Pd4MUj0VSIc4TCLpGbTAsrMyI4XWWxdPNWZCL3iWfRlDCFsMFwA4jxWLKRiNOKT9e9aK108ytkhHQZpzGDAiX+RZwkU8wpMxS5Q7xWIomTVLQIV3SJ9xaydItjOd8WpueDCRPGWKHCada+/amJSuKFVSvX2dGgAlm3bi2Xlg4fPtHmzF5sjZs0skceuSfiSsQjsSiaekhbaPCjuzBW9FTiyL+Ub+VNKF/QPZox/OjZkt9gqCiG6EGsw0Ka8Urzsj/QeEgPEay6iVOIpYxXGetlauoIlHcRThFMKZNgZKHeaCLWQEuh8ZA16asfUhCDIQTN3NJU0GvQbqhj02CCwRvDo9GQkhMSTYXIJej+TTcJxsukVcR3HaWrKRFNlm65CwWE7t272zPPPOMGko4HKNDRfZbEnNZwBkIn0yCjYKwoCkAS4aMHf6S7IxkjY3myIG4RJ7EKVEU098G6l8kfmaAtHhoziJOUYQhLbLNGPKWiRSErlitb8Sya0tU9aUOys+o8evSYG8sTa9dON7axtm0zJoUQ8Uksi6ZAWZIKI3kXk/hgdUp5Mq9ZsgsRK1CepkGXhYYJGiWYpAuRJBYbPE8H5RKs1JlIlF6PlHdJNxiCSfVPITKMHyjHI5SyUN+mTo0VK/XCb4onEk2FyGUwJ6fAi7k3mRiWgYxPheBFCwYtGhK+hIfCHK30WEeSiCO8U1lCjKFQh6UJibn49vgGDbp8EP+wLqAlnjhJgRnxVHFSeMJxEqsU4iPhh7DCjMrM/Evrd6wTz6Lp7Nmf2bBhE91YrMwmz3id3X7e1U0gdSZLAhH7xLpoCqRB1J2YbI90iPyKdIf8i3RI+ZUQ3wy9DKiHsTDZLfk5FrGMQR7P5T7GaqUeimjK/AcY8FDeVbd9kR8hPyUfRTCl0YS6II2RTZs2dfXBaJFoKkQuQ0sGkZNMGqsrLE/pSk4lnK4rFHxlMSCAAh2C3ooVK5wwQ2WIbgiMkUiCTiGHSpJaic8N4iTxjzhJfsR4lHTPovDIpFoUopmUSAgKV1ijMIsmcZLKBpbsdA2iwMTveGn4imfRlPE6GRuVNfG/aNEixhiijCmqSmN8Ew+iKZAW0QiPVRxlBKzIyKvIsyScCnFmKF9jiIABCxZllKvJyylbk4/HM4hD1C0owzDzOHUJev7Ek2WtENFCmd5PtEg5nsme6MXh69jRItFUiPMI4ikZFxEWwYbCL9076XJNKyezzmNBgCWhugrHP4QHJg5jrFJau6gUIaBTkGGNdSkFOrrVyBrq/IB4Sp7EQjyk6z4FavYjnJKRUjGlUC2xOv7hu1OxokDFGoGN9JgxcImHhAniJIWleIuTuS2a9uz5nhUOCqC//k23yB4hvnviRTT1+GFBSJ8oSyKeInzQAM8wIcqnhDgFDQ2IIwxvhSjCWPbk4dS3WJ+NSBLLIBpTtiXdoP7JeKeMxU53fazr8A8h4hHq1uSbWFunpKS4BkY/rwV1O8I+67NteJRoKsR3ABVxMrCtW7e6DIyMi0jNftYsRF4iMQIaXSokosY2PtGm4EaXIL458J0RX6josEYsRaijICOh9LuDuMf3YWxcP05lOD6yEAcR0LyorcppbMM35TvTcEEDFqI58F1Z+N7EQb45E/lRsIrnClZui6a//OWfnEXnv//9QmRPbLB58zZbvHiFpQTr9jdcF1S4NwR5cRHr3LldxIWIJeJNNPWQX1F+pBJI2kV6BqRdjGFIeoVIJER+gnIbximUtWlUID6wj7ybhk+GSMvPhin4BeWetWvXOhEV4w1fxiW9IO2g/iELVBHrEP9JB/xYpT7Oe+MkyvXnUo+TaCrE94SvvGPhhGiDqEqm5Qf89xGbNRkbFk8s8dI1NF7gu/EtEUVZKJAABRWs2LAo5fvS+s23Y1Inximl1SveuwjFGsxAyuzotE56kZs4R4GStYfvyG8fL9XAkbcIx0nEBeIh8ZF0k/hJIwaFK+IkaS6VBrrtsc5PcfJ8iqb496xZi6x27epBpbVqxEXeZNKk2dbrrYHu2Vu0bGKfLVpu9RvUtueffyziQsQS8SqahqFeRdmR/Iq4RmUOKzryJNI0RCJ6rqisKOINwjt5POU1xFLyd/J64gRDohHuyc8xRgiX20RG2QhRiWHjqH/SSIywTHpBukF9k7QEf4vnBmMR+yD6U4Ynzvv6GumB783rZ90nHcitCVslmgqRR6Ayj8DG+DN03ybSe6tEhFTENlpKSAh8QZgMDsGGtV9E7kMhjQSaAgcL2+wDrD/4bnSZwwKERJzvw3chgW3UqJHVrVvXfUMRW/AtsQ5nfEu+r/+2xEHiYrly5b4mtPk46eOlKq3nBx8nw/HSx0m+EwUnvh0VBMogHKPgROWAChVxkspCfk4zz6doyvdo2aKrPfTQ3Xb/L+6KuMibDB481vr3G2z/++pT9vJLb7l36Nq1g3W9vVPEhYgl8oNoGoYGIsY8ZUFIIl+i+y1WNeQ/pHEIIGpwF7EK+TziqC9/I5Js2bLFdTmnrkT9qEmTJi5fF9FDOYl0w3fdp9GFiYvpxoxwSnrh0w7VL8X3CfEencSnAWzTYwwjF9ICwirDHV5++eXOuvx8hFeJpkLkIUgIKACHBQB+kzCQKCDc0JLiEw4sC2hFIYNDlOO3yH2oiHizf8bA5DtQgON7UcjAapRxMEmo/Xik2SsrKnDEHsRB4pkvrHsoXBIOEOVorSd8cJxvToWVOImoSljIrRZOcQq+C40VFPjxf9JGvoVPP4mTdFVlvD/G/VOcPD0STTM4fDg9iMOHg3BS0g4cOBSEEyzMi7lFxB75TTQlPSSPYiH9ows/XXFpxCWd9CIqVjc+HRQiViAvocyFuIdlNSIpjZ+EZ0RSGrEJ1yzk6yJ6KDORblCnZMFqj4lS8WfqmginpB0s1C/lv+L7AuMkDMoQSel+T1ikYZCem9S9wZftz1c4lWgqRB6HTA3LKQoN4a6mLBSQydhYOIY74JgHizdEAzI8v1DIEOb8DL8jjSIRZkGIoZAWthTEkhDxi2ET/OK/Ae78cfzVd3ER8QuFS8IOcZI4x2/CAnHVi3kUPnFDHAUfJwkbFESJh2TArKkAaKiGU2Koj4vES7940Zr4RuWIeEZ8Iy6yJv4RV/kG4TjJccXJ0xOtaLpv3wFbumSlTZs+35LWJ9vJr05a9eqVrW3bVsG51wX+n9EF0oumjz16nz3++7/brJkLrU6dGlajZhVrUL+OvfaP7s4d3zkpaZNNm7bAFi5ItLT0I1a7VjVr1+5qa3t9K/e94M03B9jWrTutSZOGNnHCrCAcHLQHHvyZJSS0cOePHTvd1q9jKI00K1O2lDVternddVeX4HkuDMJAxrh2u3fvC86daYsWLXNiWu061e2GG65z1wDe7b+Jq4NnmWfr1m9y4ada1UrWpk1L69CxtbsWnDhx0o11OmniLFu6dJW7dt16tez6wA9aB9cqVCjnITo4d21w7kTOTQzOPRmcW7eme9eEhJaZ57799kd2JPCLRx691/32TJky10YMn2T/eP3pIOyr0vpN5DfRNIzPg0g/yZ9IN32jL2Iq5UcqlAipWOfRU+J8VTCFOFsIv5SZaAilYZryOZAnYBxCmYltygCUm1gIv2oIOHfI0yjLUn4lzfANMZS/GNKIfXwf/y0wDqD8yrcQIrcgDBLmvGEKeRjxm3oT8R8DMcr3lPN9Xeq70jQkmgoRw3iBhjhGhoZI4yEDDK9JeNhmIePzIoI/HoZCSDhR8q24frysvFBI4bnJ0Clg4Q9sk9j6jJ19HPMJLu55H947/M7Zt3HLgju/jV8gvlBA80IX+4UIQ/ihokqLqK+0Eg492cMa4ZR1eP/p4Dhxz8dJ1j5OEh/zWpz0cc8Xur2wzJrf/r2B98n+3P4Y6/AxtomXvCvvHI6TrCWMnh3RiqajR0+15cs+d/57/MRxO3H8hO3atcfKli1lbdq0cuIieNG0e/f/sT69P7LevQdZq1ZXWtNml1m1qpXtl7/6sXOH4DljxkL77LPlVqliObcvdfdeq1ihnP2g/bWZguYDD3R3YudNN7YN8qGMRoVbbmlPQLDx42YE4aBg8Dwn3PMgqB47dtyuu66ZdezUxj3btm07bd7cJTZq1BSrVLmCFQviEMGpcpWKwbV/6rbHjZtuiUtXW4GCwbsFYZRrpabuDcJUCSecduyU4MLdmjVJNm3qPPc8NWpkjNG6c2eqVapU3jrf3M69Z07xL3xu9RpVLMhVbOeu3VYxePebOwfnXp1x7sMPPxfkX2nWr98rkTMzeO/dT+311/vawkXDnf+KM5OfRdPTQQMevZXoKUP6S1gjbaVsxEJ6TDpMIxMN7CzkMTmFZyHOFV9WQBT1jaS+rOTzeJ+fEw4Jj4h0CCaUhcT5x38jGlt8jyrySODbhMtxfCPSEMpkpB+UxySmipwg7BCevNESeRR1BuI9YYqw5OsGvm6DMMr8EjT4oUt8H/mTRFMh4hgSHzI5hFWEHKwNfAKVPcHxmR+QWCFKkDFSQCHR8vv8tofzcjPxohBP4gk+4fT3IwPnmfjNfb0A48UY9lH44hm9cAOcwzH2+22e2YuhiKB+8V15hTgfEL5p3CBOshAnvaV4OB4RRj1s+0YLwm84HrLmmI8j4MN3dnLafyY4hzgWjpM+HgHxjn0+XvGbdyRO+ko5hSOOe8snngG3wLP7Z2LNu1HgJi5SQPFW8tzzbJ9dnJloRdMPPxwZpKuHnIVmrVpVgzzlpM2evcgJgVhR/u+rf3Luou2eP2jQaFswf6lVqVrR7rnnDieITp++wGbPWujC+It/fdy5QzRdsniF3XPvHdatW9cgHGBVVNDmzFlsU6fMdWOO1q5dLQhDhWzNmg02YfwMmz8/0Vm01qtXy01ExbMXDs657/4fObFz0xcptjFY7ryzs7vH4I/HOMG2Q4fWwbtVc+8zb94Sd/20tHR3LcLuB+8Pc/etVbu6/SJ4H8LiuLHTg/stdcLpn//yUGacyM7AD4YH/vWZ1Qyuz7m4Q/TlPginnEsckmiaO0g0PTPETSzH6IKLRR9pO+EvXB4K5ymEdeIloqovFwoRDYQ1yuK+Vw7blCcIU6wp9/iFcMh+BBGG1WHIKzWG5i0ot/ENaYBJTk529S3KfECaQRpC+oHARZkN977Mx3G+LW5IW9gn4hfiN2HDx29vPOHrFPz2xwhTuPX5DsIow2vRUEJ4ySthRaKpEOJrkIgRbynEILZS4GEf4g6LF0RI+EgAfeEavBhyOnI65hNErufvCSSWFNTJaAGRicK7b2WiAE8i5veRWQPjGfLbd98VItbxLbLED+IBQiTxkrUfCsAXRlhnr2j4Y2dbAeE84jv3BOIk8Yo4xzGei23iIukABWUKPGx7S1DiKi3EnMtvxcm8QbSiKWl9evqRIIxR6CXdJ0wcsU+HjLOZMxfaqNHvOHfRiqZ/fvofzlL1F7+8y3Xzh0OHDtuwoROcuOivh2iannbECZeIi56MfOJYEPYPR54n4zfWsA8++LSNG9ffmlzZyAYNGmX9+n1iPXo8a3XqVA/C39ctlDLe7aiLP/7dKMAPHz7JCZtjg2vR1f8vf/6Hs0D901O/ceIqbN++yz7+eIzrsj9iZO8s+WCYZ575p+3ckRqc+1snOhMfdgS/EWyxdB05qo+LNxJNcweJpmcP8YByF+OgIqRiXUaYBNak34wf5xuVSfs95CkshH8JXPkPX7YgDPnF76fsQFiiqy1CG2GM44Qhyu6MRciCQELZQMQ2fGfSEBplyFP51uSnQP2Msf6pn1EW9GmFr//5dCS8iLwJ8T37Es4TAIEUUZ05QFiI/95wgm/LXCC1atVy4+Uijn5XXezPBYmmQoiv4QtBEE4Qw/uzJ5C5RfgeZKZ+AfaHf7P2GStrv99vh/cJEcv4eBFe+8X/Pl/4ewDxyS/g7+t/s1acjA2iFU03b95mkybNtmHDJtiGpM126BDd9DKE1Msuq2ezZg927qIVTR9+6DkbOHCEc4sgCV6IbXRpXZs7d4jbh2haIAgr//7PC1kEScYppat7/36fuK7+e/bsDypmR10hnW76c4Lzmze/wvr3H2J9eg+yCRPfCwrkxTPDZZiUlO02ZcocG/rpeFu/PjnLu2GtOnfeEHfvxx57MSjwp1mPHs+YHyqAew54b6j1f3eIzZz5seU0runjj//NDh48ZG+88WyWc7Fe7fPOxzZr1mDDWlaiae4g0fTbQRpPHCLusu3TaSyAaBxDTPVjG9J4x37c0GWaCjDjHCKIiPwD+T9hBlHEC2aII4BYRoMqYQJRhDF0WSOYEm5YEORJX1mrXBD7kHb49IOw4cuHiOf0qmKMSj/JlLcs9t+edISwQqM72whUChN5D74veQCNIXxT34sV4w3SAr4ZcRpDCi+Us5BHhMVy1nx7nwbEwreWaCqEEEIIkc+IVjTt9dZAW778czfxUc2aVV0hF8Fk/PiZtmrlOps3/1Pn7uui6e320MN32/33/8gd9/zxj6/Y+vWbrOttHaxs2dKRvRmULlMyy5imBQsUtLd6veh+eyZPnuO6vNevX8dq1qpqTNb0VVBJY6KmP//5dVu4cJg1b9HYdc3v13ew9e7zUlBZr3RawfGdPh/bkiUr3LvVqlkt8I+CdvzYcZsU3IMxV7kWBfruT73qxNlnnn3Eqlat6M7F8nTQR6Ns1OgpNmZMv8BfTi+aPv30a87ts88+alWqVHCVg927g3MHjXYTPI0dx7mFnDB78MCh4H3/GlQ4MoaIYWb/d98dYm/3+lCiaZRINM1dEECI776LtRdF/IIAgkURaz8Ui68As0Ykw4oQK1UqnfQ0oEIt8i58V7413zW88I35/nxj0kXWfEs/6SJrhBHSM67BcX77HmOs2SfyF4QFRHTSEBbSE/aBDw+IqFinEu5wy+9wWhNuoCccYZnoexP6NCUWhLe8CN8Df/c911jQ7ojv7Af8lu8BpOn4PaIo3yIc7wG3Pm0g3nOMJVbE0ZyQaCqEEEIIkc+IVjT9wx9espTN2+3e++50Ey1hTZCYuMpZQCJUzps/1LnLKpqetLZt7rKfdetq99zzw6BSc6rrVd93Btuq1eutWbPL7cYb27hjWHFu2LDZ9uzZZ506tXHunGgaFLLfeiuraPrhwBH27/98YI88cq8lJDR3ounGjSk2auRke+65Hk5cbNGicaa4etll9e32/9fJjT1Kt3gWL8w+3f01W7fuCzfmKdfCynTZsjU2YMAwS1y60l2LZ+jV68Pg9yq79tqm7loU/BlKgFn3mTzq1dd41tOLAb3f/siWLFlp13Du7R1dZYLxUadNnRtUVo674Qe4x/PBs69P2mS//e3PA7+5wlmjMqbrgPeH2WIEXImmUSHR9LsDMYOKNfU8X8kmfIcrxl4U8fu8BRrpSNgajQo5lW5fwfYLFW8q6f464tuBCIUAwjfz4hRrRCyO8R28kOXhtxdHWdgGv49vyvdBFEdAYUFM8e6EiBYfFhHufPgk/LFkTyf8frb9/nCaQ7qB8Eo4ZMEt4ZU0h9+kJyxeaMUi2qcxiHw+bOdleCfETt6TNXGYJbzN+3Icf+J9+I3feD/lnb3f4C/+nVl7N2HY5/0LodrHd7a5rhdN4xWJpkIIIYQQ+YxoRdN//rOfrVi+1ho3aegmXkpLO5I5IzwF9NOJphSu77/vSatYqbxdeeWlVqtmVUto09K5S0xc7cTGpPWb7OprrrILLyweVJCO2JYtO1x3/Cf+8CvnLifRdOzY6fZu/yHWtNnlVqdODVeIZwgBJlZiXFQvmiYlJbthBSYHS7t211j58mVs7979Thh96OF7gvPMevYcYEuXrAjerZEb95R3W/v5huD55htd6r1oygRTjF26ceNm69AxY0b9xYuXO8H0hg6trUuXH7h9p2PBgkSbyLkbNju3VFAQQ/E7fy77GB+VMWJLlLjIWrZs4io6a9dutKlT5jnLVImm0SHRNG9BWuAtFcPWS4R/jgGVcy9oUPH2goZf2M9CPPEVd7Y9bCMScC7bHOcarMPnAhX+nOJqXoL3JA1gAfyLbfbzrviZ38eC//l35P28H+Ge98ctAgr7vajCd/BWfbjjmiy4x58QRBjPlu7SfsGPY8H/RHxCWMUSkvSEsfbZJk0h/HuRD8tHhFfSAMIr8YO44OOITw84zjneHduEex+PgLDOPvDxjfM5x8N5Pg76Z4gW4h3XDZ8Xvr6Pm+wjLfSwj3v6uMw21/HbxGvc+N+8E8fxG/az8F5+7ecbIM77HgEs/t2FRFMhhBBCiHxHtKLp6tXrbcSIyTZ82ETbsWOX61J/Q4eEoNJy0LakbM+cuOmJ3//dihQtYn//+xOuAjB06ATXBX3pkpXWqNElNnpMX+eOY4iuo0ZNtbFjptnOnbuDa5Zy1p9YcV5zTVPn7sk/vGwFChawl19+0v32IK4i2PbpM8i2bdtpTPCEZWa9+rWt11sf2NixGRNBMU4qx7E2xeqU8xoGz/Gzn92WOXs+s+6PGjXFjWm6fftOK1OmdOAf11pa+hFbv/4Ldy0sSKkMLV68wlm5zpy5yL4K/po0buhm8L/11huCysypClR2OBeRlOECOPfkVyet8RWc29Fuu61D5rlYwCLyvj9gmBNny1coax07tHbPwvlMSnWm+4gMJJrGJqQLiHh+rDwEEdZU9KlHUulHNOB3WMjgPAQG3CMIsI3AgAjAOViO4dYLqoiAYVEE/G+uxcL1swuD/hjL2YIwET7PX5/FH2M7/Fy8J8IP4gcgDLHNgr/4fVjmsY811l7+WrwvfsF18AMviLBm7EisxBgyASGU40LkBxARsWhFbPWWrWyz5jfpDyKjj6/EI+IL8dQ3+JCeEHc8uCeucjwcz8PbOcHzcB7x1EM8RqAjPWDMUNywj7gKxG/SONI70jl+k67xXLhjH3Gf+I6bsNgqvj0STYUQQggh8hnRiqZ0IWfmfBYqDhTksXikQkBloXz5ss7dvn0HXOG9VKmMWZBxT7d7ZrYvTMWjQoY74JpUPrDszLxmULAvfmHRzAJ+9ut5MqwosDbJmIkVN4iJVG6YyKlCcB9vpcHxw1+mWXrgfty4GbZhQ7Jdemk9+/GPu7jjCJo8A8+Z/d2wSOVaHt6Da3FvRNMiwT2KX0gX4m+2XHPnBvdw5wbXducWD84tfupchjTIED+Yyf+4G8+1aLGMZ6FChT9/032ERNNYhrBOPAwv4NeEf9z4bQ/buGHtrdCI+4iLXiRhwY0XH9kmvpNWUBlGhPBCCkIDC8cBt1wHYZZt/wzR4M/jeTzcE/GSNc9KWki6hyjCc3jYx8Q4gCDixwckreOZWfOciCM8U9hPgN9+P+/CmoV7+H1+vxD5AeJDePHxOftvj48n4I+F90H4/LPldOdGc08Ix12/ndMizh2JpkIIIYQQ+YxoRdN4YdWq9TZy5GRbu3aD9e37iioScYpE0/wNDQ40MiA2IFiyZh+iJeKDP+aFCBbES9beHaIigmQYf72wuBENnMc9s4si2e+J6IFIyj4P+7xFLc/kF/ZzPmueM/uzCiGEyF0kmgohhBBC5DPyk2j6/vvDbPXqJEtO3mLFixWz3n3+nkWcEPGDRFMhhBBC5CbnIppmtREWQgghhBAij8EM+RuSNlnZMqXd7PwSTIUQQgghxPlGoqkQQgghhMgV6Ma6devOYH08sid3eOGF39mgj3vaGz2ftR/ddXNkb/6FLsFMksVYq0IIIYQQ4vwg0VQIIYQQQuQKjDt6davb3ez64vyxccNma5NwlyUmrorsEUIIIYQQuY1EUyGEEEIIkStg+fhtLE0nTJhpj//ur5Ff+QsmmJk0cZa92XOAjR8/w5iF/5s4dvyEbdu2S5amQgghhBDnEYmmQgghhBDie6V8+bLW6NK6kV95n3Fjp9uIEZMiv86NBQsSbfnytXbk6FHnDxquVQghhBAibyDRVAghhBBCfK80b36FPfDATyO/8j5jxyGaTo78Ojd27dxjlSqXt+uvv9patGhsBQqoeC6EEEIIkRdQqUwIIYQQIs5hgqb9+w/ajh2ptn37Ltu9e68dPpzmuobDoYNf2qFDh7/W3Zvfhw5lHPOkpx+xvXv3u2uxHAzOZWKi0/Hll2m2a9eeyK9TZEwYtSOzGz/PEna3f99BS03d667NPZj0CDc5QZd23HIN3O/evc/S0tIjRzPgXfbtOxDxg1TbsyfDjfcDwI+4L++7a+du51c7g/WBA4eCdzzh3KSm7nHvxfPwDixhfzt58qTzM9xxH57p4MFDwf5T9zl8ON1dn3vfetsN1q1bVyeYnm6CpxMnTrjn4jl4dv/cZqeuB7jjOXft4rlT3f15jvD7CSGEEEKI6JFoKoQQQggRxyCarVy53l577R3retsD1qnj3fbb3zxjo0ZNsSNHjjqRr1//T2zAgKG2fPnnkbMyYKKh994b6o4B4uT0afOt+1Ov2q23/NI633Sf9er1oW3YsNkdz87QoePtnrufiPw6xepVSdaq5e22evV693vYsIl2992/d9vw0kv/sQcf6G59+w62W7r8wlpf96PgWhMiR7PC++3cmWq93/7Q/v/PH7cuN99vjz36gk2ePCdTMETw5F2ef66He+bON91rv3vsRRs/bkamGAqvvPK2Pfjg0zZw4HD7yU8esRva/9zu+OFvrMe/+ltKyjZ3vfvv+6N9MniMjQ78j3dg8f7GcQTb/v0/tXvvedLdp9vPHrO3/jPQCZj4NYwZMzW4/qNfG/s1KSnZElrfZf/972r3G/cIoK//o6/deef/OL/4/eN/s4kTZ2UZ+xR3OwJ3b/R4134aXJf73nfvk9a/3xAn7oYFWyGEEEIIER0STYUQQggh4pilS1fZpEmzLHXXHnvk0XvtmWcetgYN6tjSJStt/PiZdsEFF1inTm3t4IEvnRiXmLjaiX9Ll650v9MOp1uHDq3dPoTIKVPn2sUXX2SPPnaf/elPvw6OpzkLztNx+Ms0Z/GYnaPO0vTUhFHOXcjSdN/+g7Z6TZITKp/4w6/sXz3+Ym3atIwczcrGjZtt5IjJNn/+Urvllvb2xBO/smuva+ZmmI9oprZ48XL3Llhicr0n//igVahYzmbOXOgmYfLi6v79B2z1qvWWtH6TGy7gxRd/Z12Ca2LhOXDgCCdOcm67dtcE92huvXr9zS2XXFLDnZ+cvNXGjJlm8+Yusc6dr7enuv/Gbr65nX3xRYp99OHITGta/BSLUH9fD/4RtjTd9MUWGzlysq1cudbuvLOze7fGjRvZ3LmLs4imXwTuho+YZMuWrbGut3d0z9i6dXNbtGiZDflk3Gm/gRBCCCGEODMSTYUQQggh4pjFny13AmXrhOZOwLu5yw/sxhvbWNGiRWzGjAVONG3QoLa1aNnYiXUfDxplUybPtUEfjbavTn7luo3Xq1fLCXxTpsxx7hl/s0twnc7B9a5vd7VVrlwhcrfco3y5Mtaq1ZXumbt0aW+1alWLHMkKoum8eUusZaurrFPwXrxfp44J1qzZ5ZmTKiUuXWVbUrZb27at3HOztG9/nRUqXCh4p7lZLDHLlS9tra4+da3bbutgFSuWc0IofpCQ0MJq16luNWpUsVtube+WMmVKuXM3bdpic2Z/FvjZFdaxU4J79ps6X2+XXVbfRo+e6rrWnw2bkrfY3DmL7ZprmzoRFv9ue30ra9SwrhUocGrGqM3JW9198a8bb2zr3o/716tfK7jvFNudujfiUgghhBBCRItEUyGEEEKIOGbd+i8sedMWJ4jOnvWZTZ0yz4moWD1+vmaDc8PkQ9de29Qa1K/trBN79/7Iliausssur+8ERI5jFLl82edOLETEK126pJUocZETUGvWrOquk5sgTGLhWqLExVawYM5F1p07dtvmzdvsjjtucsJqyZIXW73gPRLatHQCLyBm8vwdO7WxUqVKODcIjLVqVrMVK9dmsfisXau6dQrcIYQWK1bUCcrVqlV21qYhZ6cFN3StLxqcR5f96dMW2MqV6ywtPd1Z/IbHho0GxE6eHeEWP+a5GzW6xD1fwYIFI67MUndnuGN8VO+uYcO6TiReunS1HTz0ZcSlEEIIIYSIFommQgghhBBxzJeHDtu0afPt6e6v2a9//bRbHn/8r25M00KFTwlvWJ7WqFnViaLTps2zhg3rWO3a1axYsSIRF2YHDh5y7hBLoyJiDBkWJdn2Y3ueieLFimVacJ6JI0ePuomVKlQoa4ULF4rszcrhtHQ7+dXJ4HolI3vMvQPvwgRSYYoE+xAdPYUKFXJWndnHHz0djBG7du1Ge/GFnvbIw887v370keetx7/eddco4E1fo/QXhG7GJC1Xrox7DkDILVu2VKYVLeCOyaHKli0d+EFht4/vVqpUSTtw4GCOE3UJIYQQQoickWgqhBBCCBHHlCxVwn7y01tt3Pj+tnDR8MxlwcLh1q/fKxFXGVaSCxckuvE3X3r5Sftv4mpbtGi5mynfU65saUtLy5g9PxoKFihoBQsVdDPue0GQbWaD/0YuCP7DymAOFC9ezEqUvMhSUrZnjgWanRIXXxg8SwE3A72Hd0BMLVsmqwAZDRe4v6/DszRvfoUNHfqWzZn7Sci/h9n8BcOscZNGzh2Wu4igYX9BcGVs2LCQikCKpe327YxzetTtY+b+7dmsXhFIEYG3bduVxR3jxCK4eiFVCCGEEEJEj0RTIYQQQog45sorL7XixYralMlznEBH93RkP7qRjxo11blBaBszeprrtn/f/T+ym2/+gXXr1tXWrd1oY8dMd1aWCIt0y1+3bqONHz/DCZB79uy3QYNGZ86Cnx0E2xIXX+Rmvsc9QiXjjw7+eEzExblD1/l69Wpbr7c+cM+RmrrXTfw05JOxmQJkgwaXOJHxo49GuWEJcDNp0mxb+/kGa9mySVTibBjETPxy+/ZdWUROrHSvvOoyGzpsgu0K3vfCC4s7t/jre+99minaYsnK8AZMYMXET/jLggWJ9uGHI+3EiVOz+TNWLMMD9Ov7SfCsG93M/Ezghf+FrUcrV6pg9evXsf79BtuaNRvc+y1ZssJGjppsrVs3s9LumwshhBBCiLNBoqkQQgghRByDKNjkykstJWWH9X1nsL32ah/r0/sjZ1WKQIfoN2P6AtuyZbubOKhjxwSrWrWim8CI7vpJG5Jt1qxFTlhkAqkqlSvaZ4uW27/ffN/e7PmeEx6xPj0d9evXtuuua24TJsyyN3q8a2++OcBmzlxkx0PC4LlSt25NN/YpM+N/PGi0uwcCMIKuh0muGjdpaJ+vSbKewTO/8ca7boKl8uXLuImTzlY0bdCgjp0M/O2fr/e1F55/w1I2b3P769Sp7vzv2NHjNmLkZOvxr/7W8433gueZakePHM0UWC+pU8NNoDVl6tzADwe4Zfq0+XbieFZ/ceO6BtdDbH3/g+Hu3dzEVV9l7cZfu3bGOKyIqszSz/shyB4/dtzuuLOzla9QLuJSCCGEEEJES8GiRYs+F9k+I0899VRkSwghhBBCfN8kJa2zAgWPW506VSJ7Tg/jeDK2JZaJWCGmbNluR48dc2JjQkJLJxwumJ9olSqXt6uvviq4Xg13HpaQQTnRCat0I7/iioZWqVIFK1yksOtGvmFDsrOQbNnqSrv00nrOgpXxN+ne37VrRzfu5sUXX+jWTFLE7PWMH1q9WmVr2uwyNxbp7c5daUtN3eOsWW+8qa27d/KmrcG9yrvJmr4J7sF4pgiSyclb3TADZcqUtquvucpZfiKIZjzLRXboyy/d5Fc8P5NAtWt3TeCuaeakSsxCX6FCOecPYRAj048ccTPYu671hQu5MURXrlzrJqG6PrgO/ohlKTPtFy5SxF3ri+C9GYqAIQCYjZ+JqooExy4Knhn3m4L3xF8QfKtUrWQtWzR23fRvuaW9e6eLLsq4HvfCT5jwif34y/HjJ6xLyF2lwN3RY0fd8+AHdNdPaN3CicL40dkKw98X6elHbdmytdaoYeMgTJWJ7BVCCCGE+Ha8/PLLka2z54KSJUuGRkTKmf37oxu7SgghhBBCnH8mTBhjhQqnWfv2zSJ7hIh99u07aB98MNq63vZTq1nzksheIYQQQohvR6lS3zyxaE6oe74QQgghhBBCCCGEEEKEkGgqhBBCCCGEEEIIIYQQISSaCiGEEEIIIYQQQgghRAiJpkIIIYQQQgghhBBCCBFCoqkQQgghhBBCCCGEEEKEkGgqhBBCCCGEEEIIIYQQISSaCiGEEEIIIYQQQgghRIgLSpYs+VVk+4zs378/siWEEEIIIb5vJkwYa6mpyVa7TsXIHiFin/T0o7Zs2Xq744fdrGbNOpG9QgghhBDfjlKlSkW2zh6JpkIIIYQQMciSJZ/ZpuSkYOt4xg4h4oaCltD6B1ahQqXIbyGEEEKIb4dEUyGEEEIIIYQQQgghhAhxLqKpxjQVQgghhBBCCCGEEEKIEBJNhRBCCCGEEEIIIYQQIoREUyGEEEIIIYQQQgghhAgh0VQIIYQQQgghhBBCCCEyMfs/yhjpbA0S+LcAAAAASUVORK5CYII=;" vertex="1" parent="1">
          <mxGeometry x="-1560" y="100" width="1357" height="423" as="geometry" />
        </mxCell>
        <mxCell id="z-RF_N2I27__-DU73o_i-12" style="edgeStyle=orthogonalEdgeStyle;rounded=0;orthogonalLoop=1;jettySize=auto;html=1;entryX=0;entryY=0.5;entryDx=0;entryDy=0;" edge="1" parent="1" source="z-RF_N2I27__-DU73o_i-6" target="z-RF_N2I27__-DU73o_i-10">
          <mxGeometry relative="1" as="geometry" />
        </mxCell>
        <mxCell id="z-RF_N2I27__-DU73o_i-14" style="edgeStyle=orthogonalEdgeStyle;rounded=0;orthogonalLoop=1;jettySize=auto;html=1;entryX=0;entryY=0.5;entryDx=0;entryDy=0;" edge="1" parent="1" source="z-RF_N2I27__-DU73o_i-6" target="z-RF_N2I27__-DU73o_i-9">
          <mxGeometry relative="1" as="geometry" />
        </mxCell>
        <mxCell id="z-RF_N2I27__-DU73o_i-15" style="edgeStyle=orthogonalEdgeStyle;rounded=0;orthogonalLoop=1;jettySize=auto;html=1;" edge="1" parent="1" source="z-RF_N2I27__-DU73o_i-6" target="z-RF_N2I27__-DU73o_i-11">
          <mxGeometry relative="1" as="geometry">
            <Array as="points">
              <mxPoint x="125" y="580" />
              <mxPoint x="440" y="580" />
            </Array>
          </mxGeometry>
        </mxCell>
        <mxCell id="z-RF_N2I27__-DU73o_i-6" value="Professor" style="shape=umlActor;verticalLabelPosition=bottom;verticalAlign=top;html=1;" vertex="1" parent="1">
          <mxGeometry x="70" y="454" width="30" height="60" as="geometry" />
        </mxCell>
        <mxCell id="z-RF_N2I27__-DU73o_i-16" style="edgeStyle=orthogonalEdgeStyle;rounded=0;orthogonalLoop=1;jettySize=auto;html=1;" edge="1" parent="1" source="z-RF_N2I27__-DU73o_i-7" target="z-RF_N2I27__-DU73o_i-11">
          <mxGeometry relative="1" as="geometry" />
        </mxCell>
        <mxCell id="z-RF_N2I27__-DU73o_i-29" style="edgeStyle=orthogonalEdgeStyle;rounded=0;orthogonalLoop=1;jettySize=auto;html=1;entryX=0;entryY=0.5;entryDx=0;entryDy=0;" edge="1" parent="1" source="z-RF_N2I27__-DU73o_i-7" target="z-RF_N2I27__-DU73o_i-28">
          <mxGeometry relative="1" as="geometry" />
        </mxCell>
        <mxCell id="z-RF_N2I27__-DU73o_i-30" style="edgeStyle=orthogonalEdgeStyle;rounded=0;orthogonalLoop=1;jettySize=auto;html=1;entryX=0;entryY=0.5;entryDx=0;entryDy=0;" edge="1" parent="1" source="z-RF_N2I27__-DU73o_i-7" target="z-RF_N2I27__-DU73o_i-23">
          <mxGeometry relative="1" as="geometry" />
        </mxCell>
        <mxCell id="z-RF_N2I27__-DU73o_i-31" style="edgeStyle=orthogonalEdgeStyle;rounded=0;orthogonalLoop=1;jettySize=auto;html=1;entryX=0;entryY=0.5;entryDx=0;entryDy=0;" edge="1" parent="1" source="z-RF_N2I27__-DU73o_i-7" target="z-RF_N2I27__-DU73o_i-24">
          <mxGeometry relative="1" as="geometry" />
        </mxCell>
        <mxCell id="z-RF_N2I27__-DU73o_i-36" style="edgeStyle=orthogonalEdgeStyle;rounded=0;orthogonalLoop=1;jettySize=auto;html=1;entryX=0;entryY=0.5;entryDx=0;entryDy=0;" edge="1" parent="1" source="z-RF_N2I27__-DU73o_i-7" target="z-RF_N2I27__-DU73o_i-35">
          <mxGeometry relative="1" as="geometry" />
        </mxCell>
        <mxCell id="z-RF_N2I27__-DU73o_i-7" value="Aluno" style="shape=umlActor;verticalLabelPosition=bottom;verticalAlign=top;html=1;" vertex="1" parent="1">
          <mxGeometry x="90" y="281.5" width="30" height="60" as="geometry" />
        </mxCell>
        <mxCell id="z-RF_N2I27__-DU73o_i-20" style="edgeStyle=orthogonalEdgeStyle;rounded=0;orthogonalLoop=1;jettySize=auto;html=1;entryX=1;entryY=0.5;entryDx=0;entryDy=0;exitX=0.463;exitY=0.689;exitDx=0;exitDy=0;exitPerimeter=0;" edge="1" parent="1" source="z-RF_N2I27__-DU73o_i-8" target="z-RF_N2I27__-DU73o_i-19">
          <mxGeometry relative="1" as="geometry">
            <Array as="points">
              <mxPoint x="834" y="515" />
            </Array>
          </mxGeometry>
        </mxCell>
        <mxCell id="z-RF_N2I27__-DU73o_i-21" style="edgeStyle=orthogonalEdgeStyle;rounded=0;orthogonalLoop=1;jettySize=auto;html=1;exitX=0.476;exitY=0.689;exitDx=0;exitDy=0;exitPerimeter=0;" edge="1" parent="1" source="z-RF_N2I27__-DU73o_i-8" target="z-RF_N2I27__-DU73o_i-18">
          <mxGeometry relative="1" as="geometry">
            <Array as="points">
              <mxPoint x="834" y="460" />
            </Array>
          </mxGeometry>
        </mxCell>
        <mxCell id="z-RF_N2I27__-DU73o_i-32" style="edgeStyle=orthogonalEdgeStyle;rounded=0;orthogonalLoop=1;jettySize=auto;html=1;entryX=1;entryY=0.5;entryDx=0;entryDy=0;" edge="1" parent="1" source="z-RF_N2I27__-DU73o_i-8" target="z-RF_N2I27__-DU73o_i-11">
          <mxGeometry relative="1" as="geometry" />
        </mxCell>
        <mxCell id="z-RF_N2I27__-DU73o_i-8" value="Gerenciador" style="shape=umlActor;verticalLabelPosition=bottom;verticalAlign=top;html=1;" vertex="1" parent="1">
          <mxGeometry x="820" y="240" width="30" height="60" as="geometry" />
        </mxCell>
        <mxCell id="z-RF_N2I27__-DU73o_i-9" value="Criar Quiz" style="ellipse;whiteSpace=wrap;html=1;" vertex="1" parent="1">
          <mxGeometry x="300" y="414" width="80" height="40" as="geometry" />
        </mxCell>
        <mxCell id="z-RF_N2I27__-DU73o_i-10" value="Testar Quiz" style="ellipse;whiteSpace=wrap;html=1;" vertex="1" parent="1">
          <mxGeometry x="300" y="510" width="80" height="40" as="geometry" />
        </mxCell>
        <mxCell id="z-RF_N2I27__-DU73o_i-11" value="Login" style="ellipse;whiteSpace=wrap;html=1;" vertex="1" parent="1">
          <mxGeometry x="380" y="281.5" width="120" height="60" as="geometry" />
        </mxCell>
        <mxCell id="z-RF_N2I27__-DU73o_i-18" value="Validar Cadastro" style="ellipse;whiteSpace=wrap;html=1;" vertex="1" parent="1">
          <mxGeometry x="520" y="440" width="80" height="40" as="geometry" />
        </mxCell>
        <mxCell id="z-RF_N2I27__-DU73o_i-19" value="Validar Quiz" style="ellipse;whiteSpace=wrap;html=1;" vertex="1" parent="1">
          <mxGeometry x="520" y="495" width="80" height="40" as="geometry" />
        </mxCell>
        <mxCell id="z-RF_N2I27__-DU73o_i-23" value="Responde Quiz" style="ellipse;whiteSpace=wrap;html=1;" vertex="1" parent="1">
          <mxGeometry x="370" y="170" width="80" height="40" as="geometry" />
        </mxCell>
        <mxCell id="z-RF_N2I27__-DU73o_i-24" value="Escolher Modo de Jogo" style="ellipse;whiteSpace=wrap;html=1;" vertex="1" parent="1">
          <mxGeometry x="390" y="220" width="100" height="50" as="geometry" />
        </mxCell>
        <mxCell id="z-RF_N2I27__-DU73o_i-28" value="Interagir outros jogadores" style="ellipse;whiteSpace=wrap;html=1;" vertex="1" parent="1">
          <mxGeometry x="330" y="110" width="106" height="53" as="geometry" />
        </mxCell>
        <mxCell id="z-RF_N2I27__-DU73o_i-35" value="Ver Ranking" style="ellipse;whiteSpace=wrap;html=1;" vertex="1" parent="1">
          <mxGeometry x="280" y="70" width="80" height="40" as="geometry" />
        </mxCell>
        <mxCell id="z-RF_N2I27__-DU73o_i-37" value="Pode excluir/recusar um quiz incorreto" style="shape=note2;boundedLbl=1;whiteSpace=wrap;html=1;size=25;verticalAlign=top;align=center;" vertex="1" parent="1">
          <mxGeometry x="500" y="550" width="160" height="60" as="geometry" />
        </mxCell>
        <mxCell id="z-RF_N2I27__-DU73o_i-38" value="Validar Quiz" style="resizeWidth=1;part=1;strokeColor=none;fillColor=none;align=left;spacingLeft=5;fontStyle=1" vertex="1" parent="z-RF_N2I27__-DU73o_i-37">
          <mxGeometry width="160" height="25" relative="1" as="geometry" />
        </mxCell>
        <mxCell id="z-RF_N2I27__-DU73o_i-39" value="&lt;i&gt;Envolve definir a pontuação e criar as perguntas&lt;/i&gt;" style="shape=note2;boundedLbl=1;whiteSpace=wrap;html=1;size=10;verticalAlign=top;align=left;" vertex="1" parent="1">
          <mxGeometry x="190" y="350" width="110" height="66" as="geometry" />
        </mxCell>
        <mxCell id="z-RF_N2I27__-DU73o_i-40" value="Criar Quiz" style="resizeWidth=1;part=1;strokeColor=none;fillColor=none;align=left;spacingLeft=5;fontStyle=1" vertex="1" parent="z-RF_N2I27__-DU73o_i-39">
          <mxGeometry width="110" height="25" relative="1" as="geometry" />
        </mxCell>
      </root>
    </mxGraphModel>
  </diagram>
</mxfile>
